<svg width="30" height="30" viewBox="0 0 30 30" fill="none" xmlns="http://www.w3.org/2000/svg">
<rect width="30" height="30" rx="5" fill="#1DA53F" fill-opacity="0.2" style="fill:#1DA53F;fill:color(display-p3 0.1137 0.6471 0.2471);fill-opacity:0.2;"/>
<path fill-rule="evenodd" clip-rule="evenodd" d="M16.8886 8.55872C16.9944 8.60917 17.0774 8.68852 17.1244 8.78411C17.1713 8.8797 17.1796 8.98603 17.1479 9.08613L16.4315 13.6069H20.9584C21.0639 13.6069 21.1672 13.6333 21.2554 13.683C21.3437 13.7326 21.4131 13.8032 21.4552 13.8862C21.4972 13.9692 21.5101 14.0609 21.4921 14.1501C21.4742 14.2393 21.4262 14.322 21.3541 14.3881L13.7708 21.3521C13.6882 21.4282 13.5782 21.4782 13.4585 21.4944C13.3388 21.5105 13.2162 21.4918 13.1104 21.4411C13.0046 21.3905 12.9216 21.3109 12.8748 21.2151C12.828 21.1193 12.82 21.0128 12.8521 20.9126L13.5685 16.3925H9.04164C8.93607 16.3925 8.83281 16.3661 8.74455 16.3164C8.65629 16.2668 8.58687 16.1961 8.54482 16.1132C8.50278 16.0302 8.48994 15.9384 8.50789 15.8493C8.52584 15.7601 8.57379 15.6774 8.64586 15.6113L16.2292 8.64724C16.3118 8.5715 16.4216 8.52164 16.5411 8.50559C16.6606 8.48955 16.783 8.50825 16.8886 8.55872Z" fill="#1DA53F" style="fill:#1DA53F;fill:color(display-p3 0.1140 0.6460 0.2470);fill-opacity:1;"/>
</svg>
