<svg width="30" height="30" viewBox="0 0 30 30" fill="none" xmlns="http://www.w3.org/2000/svg">
<rect width="30" height="30" rx="5" fill="#1DA53F" fill-opacity="0.2" style="fill:#1DA53F;fill:color(display-p3 0.1137 0.6471 0.2471);fill-opacity:0.2;"/>
<path fill-rule="evenodd" clip-rule="evenodd" d="M15.344 8.63267C15.2511 8.54748 15.128 8.5 15 8.5C14.872 8.5 14.7489 8.54748 14.656 8.63267C13.2408 9.93276 11.3561 10.6457 9.40467 10.619C9.29836 10.6177 9.19438 10.6492 9.10782 10.7089C9.02126 10.7686 8.95664 10.8535 8.92334 10.9512C8.64199 11.7806 8.49908 12.6482 8.5 13.5212C8.5 17.3533 11.2093 20.5721 14.8753 21.4847C14.9571 21.5051 15.0429 21.5051 15.1247 21.4847C18.7907 20.5721 21.5 17.3533 21.5 13.5212C21.5 12.6247 21.3513 11.7605 21.0767 10.9512C21.0435 10.8534 20.9789 10.7684 20.8923 10.7085C20.8058 10.6487 20.7017 10.6171 20.5953 10.6184L20.5 10.619C18.5027 10.619 16.6887 9.86448 15.344 8.63267ZM17.4067 13.8024C17.4467 13.7508 17.4756 13.692 17.4918 13.6295C17.508 13.567 17.5111 13.5019 17.5009 13.4382C17.4907 13.3745 17.4675 13.3134 17.4326 13.2585C17.3976 13.2036 17.3517 13.156 17.2975 13.1185C17.2433 13.081 17.1819 13.0544 17.1169 13.0402C17.0519 13.026 16.9846 13.0245 16.919 13.0359C16.8534 13.0472 16.7908 13.0711 16.7349 13.1061C16.6789 13.1412 16.6308 13.1867 16.5933 13.24L14.436 16.1615L13.3533 15.1142C13.2586 15.0287 13.1332 14.9822 13.0037 14.9844C12.8741 14.9866 12.7505 15.0374 12.6589 15.126C12.5673 15.2146 12.5148 15.3342 12.5126 15.4595C12.5103 15.5848 12.5583 15.7061 12.6467 15.7978L14.1467 17.2488C14.198 17.2985 14.2599 17.3367 14.328 17.3608C14.3961 17.385 14.4689 17.3945 14.5412 17.3888C14.6135 17.383 14.6836 17.3621 14.7468 17.3274C14.8099 17.2928 14.8644 17.2453 14.9067 17.1882L17.4067 13.8024Z" fill="#1DA53F" style="fill:#1DA53F;fill:color(display-p3 0.1140 0.6460 0.2470);fill-opacity:1;"/>
</svg>
