<svg width="30" height="30" viewBox="0 0 30 30" fill="none" xmlns="http://www.w3.org/2000/svg">
<rect width="30" height="30" rx="5" fill="#1DA53F" fill-opacity="0.2" style="fill:#1DA53F;fill:color(display-p3 0.1137 0.6471 0.2471);fill-opacity:0.2;"/>
<path fill-rule="evenodd" clip-rule="evenodd" d="M15 8.5C14.1561 8.5 13.3468 8.84241 12.7501 9.4519C12.1534 10.0614 11.8182 10.888 11.8182 11.75V13.6071C11.336 13.6071 10.8735 13.8028 10.5325 14.1511C10.1916 14.4994 10 14.9717 10 15.4643V19.6429C10 20.1354 10.1916 20.6078 10.5325 20.9561C10.8735 21.3043 11.336 21.5 11.8182 21.5H18.1818C18.664 21.5 19.1265 21.3043 19.4675 20.9561C19.8084 20.6078 20 20.1354 20 19.6429V15.4643C20 14.9717 19.8084 14.4994 19.4675 14.1511C19.1265 13.8028 18.664 13.6071 18.1818 13.6071V11.75C18.1818 9.95476 16.7576 8.5 15 8.5ZM17.2727 13.6071V11.75C17.2727 11.1343 17.0333 10.5439 16.6071 10.1085C16.1808 9.67315 15.6028 9.42857 15 9.42857C14.3972 9.42857 13.8192 9.67315 13.3929 10.1085C12.9667 10.5439 12.7273 11.1343 12.7273 11.75V13.6071H17.2727Z" fill="#1DA53F" style="fill:#1DA53F;fill:color(display-p3 0.1140 0.6460 0.2470);fill-opacity:1;"/>
</svg>
