<svg width="30" height="21" viewBox="0 0 30 21" fill="none" xmlns="http://www.w3.org/2000/svg">
<path d="M25 0.849609C27.3194 0.849708 29.2001 2.73036 29.2002 5.0498V16.0498C29.2001 18.3692 27.3194 20.2499 25 20.25H5C2.68056 20.2499 0.799912 18.3692 0.799805 16.0498V5.0498C0.79991 2.73036 2.68056 0.849715 5 0.849609H25ZM5 2.15039C3.39853 2.1505 2.10069 3.44833 2.10059 5.0498V16.0498C2.10069 17.6513 3.39853 18.9501 5 18.9502H25C26.6015 18.9501 27.9003 17.6513 27.9004 16.0498V5.0498C27.9003 3.44833 26.6015 2.15049 25 2.15039H5ZM10.7432 7.41504C11.0989 7.41504 11.4306 7.46613 11.7373 7.56836C12.0463 7.6685 12.3217 7.81587 12.5625 8.00977C12.8052 8.20359 13.0056 8.43979 13.1631 8.71875C13.3228 8.99778 13.4284 9.3152 13.4795 9.6709H12.3867C12.3484 9.46859 12.2796 9.28846 12.1816 9.13086C12.0858 8.97332 11.9651 8.84003 11.8203 8.73145C11.6777 8.62079 11.5159 8.53778 11.335 8.48242C11.1539 8.42703 10.9621 8.39943 10.7598 8.39941C10.3933 8.39941 10.066 8.4906 9.77832 8.67383C9.49285 8.85704 9.26855 9.12587 9.10449 9.47949C8.94043 9.83318 8.8584 10.266 8.8584 10.7773C8.85843 11.2949 8.94047 11.7305 9.10449 12.084C9.27065 12.4376 9.4958 12.7056 9.78125 12.8867C10.0668 13.0657 10.3925 13.1553 10.7568 13.1553C10.9569 13.1552 11.1464 13.1284 11.3252 13.0752C11.5042 13.0198 11.6666 12.9394 11.8115 12.835C11.9562 12.7285 12.0779 12.5977 12.1758 12.4424C12.2759 12.2869 12.3462 12.1084 12.3867 11.9082L13.4795 11.9121C13.4327 12.2293 13.3338 12.5235 13.1826 12.7939C13.0314 13.0644 12.8362 13.3006 12.5977 13.5029C12.3612 13.7053 12.0857 13.8619 11.7725 13.9727C11.4614 14.0834 11.1181 14.1396 10.7432 14.1396C10.1723 14.1396 9.66313 14.0048 9.21582 13.7363C8.76855 13.4679 8.41596 13.0835 8.1582 12.583C7.90255 12.0803 7.77445 11.4783 7.77441 10.7773C7.77441 10.0765 7.90344 9.47445 8.16113 8.97168C8.42108 8.46884 8.77522 8.08371 9.22266 7.81738C9.6699 7.54912 10.1767 7.41512 10.7432 7.41504ZM15.8018 9.14062H16.7891V9.97168H15.8018V12.5928C15.8018 12.7609 15.8269 12.8901 15.8779 12.9795C15.929 13.0667 15.9962 13.1262 16.0791 13.1582C16.1644 13.188 16.2574 13.2031 16.3574 13.2031C16.432 13.2031 16.4982 13.1971 16.5557 13.1865C16.6153 13.1758 16.6614 13.1675 16.6934 13.1611L16.8779 14.0088C16.8184 14.0278 16.7342 14.0488 16.626 14.0723C16.5173 14.0978 16.3841 14.113 16.2266 14.1172C15.956 14.1236 15.7072 14.0783 15.4814 13.9824C15.2579 13.8865 15.0776 13.7383 14.9414 13.5381C14.8073 13.3379 14.7411 13.0865 14.7432 12.7842V9.97168H14.0371V9.14062H14.7432V7.96484H15.8018V9.14062ZM20.1816 9.07715C20.2625 9.08141 20.3288 9.08718 20.3799 9.0957V10.0869C20.3352 10.072 20.2615 10.0577 20.1592 10.0449C20.0592 10.03 19.9602 10.0225 19.8623 10.0225C19.6428 10.0225 19.446 10.0693 19.2734 10.1631C19.1031 10.2547 18.9682 10.3829 18.8682 10.5469C18.7702 10.7088 18.7207 10.8963 18.7207 11.1094V14.0498H17.6631V9.14062H18.6895V9.93945H18.7402C18.8296 9.66685 18.9855 9.45415 19.207 9.30078C19.4307 9.14526 19.6845 9.06738 19.9678 9.06738C20.0295 9.0674 20.1008 9.07077 20.1816 9.07715ZM22.1016 14.0498H21.0439V7.50391H22.1016V14.0498Z" fill="#737373" style="fill:#737373;fill:color(display-p3 0.4500 0.4500 0.4500);fill-opacity:1;"/>
</svg>
