<svg width="20" height="21" viewBox="0 0 20 21" fill="none" xmlns="http://www.w3.org/2000/svg">
<path d="M15.1992 0.949219C17.4358 0.949219 19.2488 2.76343 19.249 5V16.0996C19.249 18.3364 17.436 20.1494 15.1992 20.1494H4.09961C1.86302 20.1492 0.0488281 18.3362 0.0488281 16.0996V5C0.0490393 2.76355 1.86315 0.949417 4.09961 0.949219H15.1992ZM4.09961 2.25C2.58112 2.2502 1.34982 3.48152 1.34961 5V16.0996C1.34961 17.6183 2.58099 18.8494 4.09961 18.8496H15.1992C16.718 18.8496 17.9492 17.6184 17.9492 16.0996V5C17.949 3.4814 16.7179 2.25 15.1992 2.25H4.09961ZM9.64941 6.19922C10.0082 6.19925 10.2996 6.49082 10.2998 6.84961V12.6807L11.7129 11.2676L11.8145 11.1836C12.0667 11.0172 12.4098 11.0457 12.6318 11.2676C12.8855 11.5213 12.8854 11.9327 12.6318 12.1865L10.1094 14.709C9.85555 14.9628 9.44428 14.9628 9.19043 14.709L6.66699 12.1865L6.58398 12.085C6.41747 11.8328 6.44517 11.4897 6.66699 11.2676C6.88897 11.0458 7.23221 11.0174 7.48438 11.1836L7.58691 11.2676L9 12.6807V6.84961C9.00021 6.49089 9.29068 6.19936 9.64941 6.19922Z" fill="#737373" style="fill:#737373;fill:color(display-p3 0.4500 0.4500 0.4500);fill-opacity:1;"/>
</svg>
