<svg width="20" height="21" viewBox="0 0 20 21" fill="none" xmlns="http://www.w3.org/2000/svg">
<path d="M15.2988 0.949219C17.5355 0.949219 19.3484 2.76343 19.3486 5V16.0996C19.3486 18.3364 17.5356 20.1494 15.2988 20.1494H4.19922C1.96263 20.1492 0.148438 18.3362 0.148438 16.0996V5C0.148649 2.76355 1.96276 0.949417 4.19922 0.949219H15.2988ZM4.19922 2.25C2.68073 2.2502 1.44943 3.48152 1.44922 5V16.0996C1.44922 17.6183 2.6806 18.8494 4.19922 18.8496H15.2988C16.8176 18.8496 18.0488 17.6184 18.0488 16.0996V5C18.0486 3.4814 16.8175 2.25 15.2988 2.25H4.19922ZM12.7705 6.19922C13.1294 6.19922 13.4207 6.4908 13.4209 6.84961V12.3994C13.4209 12.7584 13.1295 13.0498 12.7705 13.0498H8.29688L9.03711 13.79L9.12012 13.8916C9.28694 14.1439 9.25912 14.4867 9.03711 14.709C8.81503 14.9311 8.47202 14.9595 8.21973 14.793L8.11816 14.709L6.26758 12.8594C6.1459 12.7375 6.07715 12.5716 6.07715 12.3994C6.0773 12.2274 6.14606 12.0622 6.26758 11.9404L8.11816 10.0898L8.57715 10.5498L9.03711 11.0088L8.2959 11.75H12.1201V6.84961C12.1203 6.49087 12.4118 6.19933 12.7705 6.19922ZM8.11816 10.0898C8.37191 9.83645 8.78335 9.83647 9.03711 10.0898C9.29084 10.3436 9.29062 10.7549 9.03711 11.0088L8.11816 10.0898Z" fill="#737373" style="fill:#737373;fill:color(display-p3 0.4500 0.4500 0.4500);fill-opacity:1;"/>
</svg>
