<svg width="30" height="21" viewBox="0 0 30 21" fill="none" xmlns="http://www.w3.org/2000/svg">
<path d="M25 0.949219C27.2364 0.94943 29.0496 2.76356 29.0498 5V16.0996C29.0498 18.3362 27.2366 20.1492 25 20.1494H5C2.76343 20.1492 0.949219 18.3362 0.949219 16.0996V5C0.94943 2.76356 2.76356 0.949433 5 0.949219H25ZM5 2.25C3.48153 2.25021 2.25021 3.48153 2.25 5V16.0996C2.25 17.6183 3.4814 18.8494 5 18.8496H25C26.5186 18.8494 27.75 17.6183 27.75 16.0996V5C27.7498 3.48153 26.5185 2.25021 25 2.25H5ZM15.1455 9.07715C15.7442 9.07716 16.2155 9.2035 16.5586 9.45703C16.9035 9.71049 17.1095 10.0549 17.1777 10.4893L16.0273 10.5859C16.0018 10.4794 15.9533 10.3805 15.8809 10.291C15.8106 10.1995 15.7149 10.1275 15.5957 10.0742C15.4765 10.019 15.333 9.99126 15.165 9.99121C14.9392 9.99121 14.7491 10.0389 14.5957 10.1348C14.4423 10.2306 14.3652 10.358 14.3652 10.5156C14.3653 10.6453 14.4157 10.7528 14.5156 10.8379C14.6157 10.9231 14.7857 10.9927 15.0244 11.0459L15.8867 11.2246C16.3575 11.3226 16.7084 11.4801 16.9385 11.6973C17.1707 11.9147 17.2871 12.201 17.2871 12.5547C17.287 12.8697 17.1947 13.1463 17.0117 13.3848C16.8286 13.6234 16.5765 13.8102 16.2549 13.9443C15.9332 14.0786 15.5631 14.1455 15.1455 14.1455C14.5213 14.1455 14.0206 14.0148 13.6436 13.7529C13.2686 13.4908 13.0467 13.1291 12.9785 12.6689L14.2119 12.5801C14.2588 12.7888 14.3627 12.9471 14.5225 13.0557C14.6844 13.1644 14.892 13.2188 15.1455 13.2188C15.4033 13.2187 15.6101 13.1677 15.7656 13.0654C15.9231 12.9611 16.0019 12.8313 16.002 12.6758C16.002 12.5437 15.9483 12.4348 15.8418 12.3496C15.7373 12.2624 15.5756 12.196 15.3564 12.1514L14.5127 11.9785C14.0378 11.8805 13.6852 11.7148 13.4551 11.4805C13.2272 11.2462 13.1124 10.948 13.1123 10.5859C13.1123 10.277 13.1969 10.0091 13.3652 9.7832C13.5357 9.55739 13.7736 9.38413 14.0781 9.2627C14.385 9.13913 14.7407 9.07715 15.1455 9.07715ZM20.2354 9.07715C20.6486 9.07718 21.0128 9.15251 21.3281 9.30371C21.6433 9.45279 21.8938 9.66477 22.0791 9.93945C22.2645 10.2121 22.3683 10.5321 22.3896 10.8984H21.1943C21.1538 10.6579 21.0523 10.461 20.8906 10.3076C20.7308 10.1521 20.5181 10.0742 20.2539 10.0742C20.0304 10.0743 19.8342 10.1345 19.666 10.2559C19.4998 10.3752 19.3702 10.5494 19.2764 10.7773C19.1827 11.0032 19.1357 11.2761 19.1357 11.5957C19.1358 11.9194 19.1819 12.1967 19.2734 12.4268C19.3672 12.6546 19.497 12.8306 19.6631 12.9541C19.8313 13.0753 20.0283 13.1357 20.2539 13.1357C20.418 13.1357 20.5654 13.1039 20.6953 13.04C20.8253 12.9739 20.9334 12.8803 21.0186 12.7588C21.1059 12.6352 21.1646 12.4861 21.1943 12.3115H22.3896C22.3662 12.6715 22.2631 12.9897 22.082 13.2666C21.903 13.5414 21.6569 13.7575 21.3438 13.9131C21.0329 14.0684 20.665 14.1455 20.2412 14.1455C19.7449 14.1455 19.3186 14.0384 18.9629 13.8232C18.6072 13.6081 18.3334 13.3108 18.1416 12.9316C17.952 12.5502 17.8574 12.1108 17.8574 11.6143C17.8575 11.1137 17.9546 10.6723 18.1484 10.291C18.3423 9.90987 18.6162 9.61239 18.9697 9.39941C19.3255 9.18435 19.7476 9.07715 20.2354 9.07715ZM12.21 8.57227H9.16113V10.2402H11.9863V11.3076H9.16113V12.9824H12.2295V14.0498H7.87598V7.50488H12.21V8.57227Z" fill="#737373" style="fill:#737373;fill:color(display-p3 0.4500 0.4500 0.4500);fill-opacity:1;"/>
</svg>
