<svg width="21" height="21" viewBox="0 0 21 21" fill="none" xmlns="http://www.w3.org/2000/svg">
<path d="M16 0.849609C18.3194 0.849708 20.2001 2.73036 20.2002 5.0498V16.0498C20.2001 18.3692 18.3194 20.2499 16 20.25H5C2.68056 20.2499 0.799912 18.3692 0.799805 16.0498V5.0498C0.79991 2.73036 2.68056 0.849715 5 0.849609H16ZM5 2.15039C3.39853 2.1505 2.10069 3.44833 2.10059 5.0498V16.0498C2.10069 17.6513 3.39853 18.9501 5 18.9502H16C17.6015 18.9501 18.9003 17.6513 18.9004 16.0498V5.0498C18.9003 3.44833 17.6015 2.15049 16 2.15039H5ZM9.25195 10.5723H9.33105L11.9814 7.50391H13.3262L10.7373 10.4443L13.3428 14.0498H12.0322L9.99902 11.1826L9.25195 12.0586V14.0498H8.16211V7.50391H9.25195V10.5723Z" fill="#737373" style="fill:#737373;fill:color(display-p3 0.4500 0.4500 0.4500);fill-opacity:1;"/>
</svg>
