<svg width="21" height="21" viewBox="0 0 21 21" fill="none" xmlns="http://www.w3.org/2000/svg">
<path d="M16.0996 0.949219C18.3362 0.949219 20.1492 2.76343 20.1494 5V16.0996C20.1494 18.3364 18.3364 20.1494 16.0996 20.1494H5C2.76343 20.1492 0.949219 18.3362 0.949219 16.0996V5C0.94943 2.76356 2.76356 0.949433 5 0.949219H16.0996ZM5 2.25C3.48153 2.25021 2.25021 3.48153 2.25 5V16.0996C2.25 17.6183 3.4814 18.8494 5 18.8496H16.0996C17.6184 18.8496 18.8496 17.6184 18.8496 16.0996V5C18.8494 3.4814 17.6183 2.25 16.0996 2.25H5ZM10.5498 6.19922C10.722 6.19924 10.8879 6.26795 11.0098 6.38965L13.5322 8.91309L13.6152 9.01465C13.7819 9.26688 13.7542 9.60985 13.5322 9.83203C13.31 10.0541 12.9671 10.0818 12.7148 9.91504L12.6133 9.83203L11.2002 8.41895V14.25C11.2 14.6088 10.9086 14.8994 10.5498 14.8994C10.1911 14.8993 9.9006 14.6087 9.90039 14.25V8.41895L8.4873 9.83203L8.02734 9.37207L7.56738 8.91309L10.0908 6.38965L10.1895 6.30859C10.2953 6.23809 10.4207 6.19927 10.5498 6.19922ZM8.4873 9.83203C8.23346 10.0859 7.82122 10.0859 7.56738 9.83203C7.31396 9.57828 7.314 9.16685 7.56738 8.91309L8.4873 9.83203Z" fill="#737373" style="fill:#737373;fill:color(display-p3 0.4500 0.4500 0.4500);fill-opacity:1;"/>
</svg>
