<svg width="30" height="30" viewBox="0 0 30 30" fill="none" xmlns="http://www.w3.org/2000/svg">
<rect width="30" height="30" rx="5" fill="#E85A39" fill-opacity="0.2" style="fill:#E85A39;fill:color(display-p3 0.9098 0.3529 0.2235);fill-opacity:0.2;"/>
<path fill-rule="evenodd" clip-rule="evenodd" d="M19.7837 21.4768C19.9119 21.4647 20.0396 21.4475 20.1664 21.4255C20.2595 21.4094 20.3466 21.3699 20.4188 21.3109C20.4911 21.252 20.546 21.1757 20.5781 21.0897C20.6101 21.0038 20.6181 20.9112 20.6013 20.8213C20.5845 20.7314 20.5434 20.6473 20.4823 20.5776C20.1877 20.2423 19.9866 19.84 19.8978 19.4087C19.8813 19.329 19.9136 19.189 20.0802 19.0323C21.2648 17.9196 22 16.4103 22 14.7395C22 11.2523 18.8209 8.5 15 8.5C11.1791 8.5 8 11.2523 8 14.7395C8 18.2267 11.1791 20.979 15 20.979C15.5981 20.979 16.1796 20.9118 16.7353 20.7856C17.6436 21.3368 18.7162 21.58 19.7837 21.4768Z" fill="#E85A39" style="fill:#E85A39;fill:color(display-p3 0.9098 0.3529 0.2235);fill-opacity:1;"/>
</svg>
