<svg width="31" height="30" viewBox="0 0 31 30" fill="none" xmlns="http://www.w3.org/2000/svg">
<rect x="0.333008" width="30" height="30" rx="5" fill="#E85A39" fill-opacity="0.2" style="fill:#E85A39;fill:color(display-p3 0.9098 0.3529 0.2235);fill-opacity:0.2;"/>
<path fill-rule="evenodd" clip-rule="evenodd" d="M9.43943 8.49398C11.3865 8.16444 13.3579 7.9992 15.3327 8C17.3409 8 19.3103 8.16945 21.2266 8.49398C21.5371 8.54758 21.8185 8.70938 22.021 8.95067C22.2235 9.19197 22.3341 9.49718 22.3331 9.8122V10.5618C22.3329 11.133 22.1059 11.6808 21.7019 12.0846L17.2633 16.5232C17.1633 16.6233 17.084 16.7421 17.03 16.8728C16.9759 17.0035 16.9481 17.1436 16.9481 17.285V19.3866C16.9483 19.7866 16.837 20.1789 16.6267 20.5192C16.4164 20.8596 16.1155 21.1347 15.7577 21.3136L14.4962 21.944C14.4141 21.985 14.3229 22.0044 14.2312 22.0002C14.1396 21.996 14.0505 21.9685 13.9725 21.9202C13.8944 21.872 13.83 21.8046 13.7853 21.7244C13.7407 21.6443 13.7172 21.554 13.7172 21.4623V17.285C13.7169 16.9995 13.6033 16.7257 13.4013 16.524L8.96412 12.0839C8.56014 11.6801 8.33313 11.1323 8.33301 10.5611V9.8122C8.33301 9.16817 8.7918 8.60383 9.43943 8.49398Z" fill="#E85A39" style="fill:#E85A39;fill:color(display-p3 0.9098 0.3529 0.2235);fill-opacity:1;"/>
</svg>
