<svg width="31" height="30" viewBox="0 0 31 30" fill="none" xmlns="http://www.w3.org/2000/svg">
<rect x="0.333008" width="30" height="30" rx="5" fill="#3F59E9" fill-opacity="0.2" style="fill:#3F59E9;fill:color(display-p3 0.2471 0.3490 0.9137);fill-opacity:0.2;"/>
<path fill-rule="evenodd" clip-rule="evenodd" d="M12.1022 10.1537C12.1022 9.58251 12.3292 9.03471 12.7331 8.63081C13.137 8.22691 13.6848 8 14.2561 8H16.4099C16.9812 8 17.529 8.22691 17.9329 8.63081C18.3369 9.03471 18.5638 9.58251 18.5638 10.1537V10.3009C19.2336 10.3619 19.897 10.4423 20.5554 10.5407C21.5993 10.6972 22.333 11.6053 22.333 12.6348V14.8122C22.333 15.6816 21.806 16.5007 20.9431 16.7879C19.1337 17.3884 17.2394 17.6936 15.333 17.6917C13.373 17.6917 11.487 17.3744 9.72296 16.7879C8.85998 16.5007 8.33301 15.6816 8.33301 14.8122V12.6348C8.33301 11.6053 9.06675 10.6964 10.1106 10.5407C10.7721 10.4417 11.4362 10.3618 12.1022 10.3009V10.1537ZM17.4869 10.1537V10.2183C16.0523 10.1312 14.6137 10.1312 13.1792 10.2183V10.1537C13.1792 9.86811 13.2926 9.59421 13.4946 9.39226C13.6965 9.19031 13.9705 9.07685 14.2561 9.07685H16.4099C16.6955 9.07685 16.9695 9.19031 17.1714 9.39226C17.3734 9.59421 17.4869 9.86811 17.4869 10.1537ZM15.333 16.0764C15.4758 16.0764 15.6128 16.0197 15.7138 15.9187C15.8147 15.8177 15.8715 15.6808 15.8715 15.538C15.8715 15.3952 15.8147 15.2582 15.7138 15.1573C15.6128 15.0563 15.4758 14.9996 15.333 14.9996C15.1902 14.9996 15.0532 15.0563 14.9523 15.1573C14.8513 15.2582 14.7945 15.3952 14.7945 15.538C14.7945 15.6808 14.8513 15.8177 14.9523 15.9187C15.0532 16.0197 15.1902 16.0764 15.333 16.0764Z" fill="#3F59E9" style="fill:#3F59E9;fill:color(display-p3 0.2471 0.3490 0.9137);fill-opacity:1;"/>
<path d="M8.87146 19.595V17.5878C9.03502 17.6773 9.20635 17.7517 9.38336 17.8103C11.3022 18.4474 13.3111 18.7712 15.333 18.7694C17.4093 18.7694 19.4109 18.4335 21.2826 17.811C21.4636 17.7507 21.6344 17.6754 21.7945 17.5878V19.595C21.7945 20.6374 21.0428 21.5535 19.9832 21.6935C18.4611 21.8959 16.9089 22 15.333 22C13.7779 22.0003 12.2245 21.8979 10.6828 21.6935C9.62315 21.5535 8.87146 20.6374 8.87146 19.595Z" fill="#3F59E9" style="fill:#3F59E9;fill:color(display-p3 0.2471 0.3490 0.9137);fill-opacity:1;"/>
</svg>
