<svg width="31" height="30" viewBox="0 0 31 30" fill="none" xmlns="http://www.w3.org/2000/svg">
<rect x="0.666992" width="30" height="30" rx="5" fill="#3F59E9" fill-opacity="0.2" style="fill:#3F59E9;fill:color(display-p3 0.2471 0.3490 0.9137);fill-opacity:0.2;"/>
<path d="M15.667 8C19.5333 8 22.667 11.134 22.667 15C22.6669 18.866 19.5332 22 15.667 22C11.8009 21.9999 8.6671 18.8659 8.66699 15C8.66699 11.134 11.8008 8.00012 15.667 8ZM14.8594 11.2305C14.3953 11.2306 13.9376 11.3404 13.5234 11.5498C13.1094 11.7592 12.7507 12.0629 12.4756 12.4365C12.2004 12.8102 12.0165 13.2435 11.9395 13.7012C11.8625 14.1587 11.8945 14.6282 12.0322 15.0713C12.17 15.5143 12.4097 15.9187 12.7324 16.252C13.0553 16.5854 13.4521 16.8383 13.8906 16.9902C14.3291 17.1421 14.797 17.1891 15.2568 17.127C15.7167 17.0648 16.1557 16.8957 16.5381 16.6328L17.9795 18.0723C18.0288 18.1251 18.0883 18.1678 18.1543 18.1973C18.2202 18.2266 18.2912 18.2428 18.3633 18.2441C18.4356 18.2454 18.5081 18.2322 18.5752 18.2051C18.6421 18.178 18.7028 18.137 18.7539 18.0859C18.8049 18.0349 18.845 17.9741 18.8721 17.9072C18.8991 17.8403 18.9124 17.7685 18.9111 17.6963C18.9099 17.624 18.8946 17.5523 18.8652 17.4863C18.8358 17.4203 18.7931 17.3608 18.7402 17.3115L17.2998 15.8711C17.6057 15.4264 17.7845 14.906 17.8164 14.3672C17.8483 13.8285 17.7327 13.2911 17.4814 12.8135C17.2302 12.3358 16.8527 11.9362 16.3906 11.6572C15.9286 11.3783 15.3991 11.2304 14.8594 11.2305ZM14.8594 12.3076C15.1069 12.3076 15.3524 12.3565 15.5811 12.4512C15.8096 12.5459 16.0174 12.6844 16.1924 12.8594C16.3673 13.0343 16.5059 13.2422 16.6006 13.4707C16.6953 13.6993 16.7441 13.9449 16.7441 14.1924C16.7441 14.692 16.5456 15.1711 16.1924 15.5244C15.8389 15.8778 15.3592 16.0771 14.8594 16.0771C14.3596 16.0771 13.8807 15.8777 13.5273 15.5244C13.174 15.1711 12.9747 14.6921 12.9746 14.1924C12.9746 13.9449 13.0235 13.6993 13.1182 13.4707C13.2129 13.2421 13.3524 13.0343 13.5273 12.8594C13.7023 12.6845 13.9101 12.5458 14.1387 12.4512C14.3672 12.3566 14.612 12.3076 14.8594 12.3076Z" fill="#3F59E9" style="fill:#3F59E9;fill:color(display-p3 0.2471 0.3490 0.9137);fill-opacity:1;"/>
</svg>
