<svg width="31" height="30" viewBox="0 0 31 30" fill="none" xmlns="http://www.w3.org/2000/svg">
<rect x="0.666992" width="30" height="30" rx="5" fill="#E85A39" fill-opacity="0.2" style="fill:#E85A39;fill:color(display-p3 0.9098 0.3529 0.2235);fill-opacity:0.2;"/>
<path d="M21.0337 8.5H20.567C20.1338 8.5 19.7184 8.6712 19.4121 8.97595C19.1057 9.2807 18.9337 9.69402 18.9337 10.125V19.875C18.9337 20.772 19.6654 21.5 20.567 21.5H21.0337C21.4668 21.5 21.8823 21.3288 22.1886 21.024C22.4949 20.7193 22.667 20.306 22.667 19.875V10.125C22.667 9.69402 22.4949 9.2807 22.1886 8.97595C21.8823 8.6712 21.4668 8.5 21.0337 8.5ZM15.9003 13.1429H15.4337C15.0005 13.1429 14.585 13.3141 14.2787 13.6188C13.9724 13.9236 13.8003 14.3369 13.8003 14.7679V19.875C13.8003 20.772 14.5321 21.5 15.4337 21.5H15.9003C16.3335 21.5 16.749 21.3288 17.0553 21.024C17.3616 20.7193 17.5337 20.306 17.5337 19.875V14.7679C17.5337 14.3369 17.3616 13.9236 17.0553 13.6188C16.749 13.3141 16.3335 13.1429 15.9003 13.1429ZM10.767 16.8571H10.3003C9.86714 16.8571 9.45169 17.0283 9.14538 17.3331C8.83908 17.6378 8.66699 18.0512 8.66699 18.4821V19.875C8.66699 20.772 9.39873 21.5 10.3003 21.5H10.767C11.2002 21.5 11.6156 21.3288 11.9219 21.024C12.2282 20.7193 12.4003 20.306 12.4003 19.875V18.4821C12.4003 18.0512 12.2282 17.6378 11.9219 17.3331C11.6156 17.0283 11.2002 16.8571 10.767 16.8571Z" fill="#E85A39" style="fill:#E85A39;fill:color(display-p3 0.9098 0.3529 0.2235);fill-opacity:1;"/>
</svg>
