<svg width="65" height="65" viewBox="0 0 65 65" fill="none" xmlns="http://www.w3.org/2000/svg">
<path opacity="0.1" d="M26.7999 0.59967C33.7485 0.59967 40.4129 3.36017 45.3263 8.2735C50.2397 13.1869 53.0001 19.8513 53.0001 26.7999C53.0001 32.6061 51.0697 38.2099 47.5704 42.7618L63.4044 58.5958L63.5245 58.7227C64.7306 60.0574 64.6908 62.118 63.4044 63.4044C62.1181 64.6907 60.0575 64.7305 58.7228 63.5245L58.5958 63.4044L42.7618 47.5704C38.2099 51.0697 32.6062 53.0001 26.7999 53.0001C19.8513 53 13.187 50.2396 8.27356 45.3262C3.36023 40.4128 0.599731 33.7484 0.599731 26.7999C0.599783 19.8513 3.36015 13.1869 8.27356 8.2735C13.187 3.36009 19.8513 0.599722 26.7999 0.59967ZM26.7999 7.40045C21.6548 7.4005 16.7203 9.44393 13.0822 13.0821C9.44399 16.7203 7.40056 21.6547 7.40051 26.7999C7.40051 31.945 9.44407 36.8795 13.0822 40.5176C16.7203 44.1558 21.6548 46.2002 26.7999 46.2003C31.9438 46.2003 36.8766 44.1548 40.5157 40.5157C44.1549 36.8765 46.2003 31.9437 46.2003 26.7999C46.2003 21.6547 44.1559 16.7203 40.5177 13.0821C36.8795 9.44401 31.945 7.40045 26.7999 7.40045Z" fill="url(#paint0_linear_21_299)" style=""/>
<defs>
<linearGradient id="paint0_linear_21_299" x1="32.5001" y1="23.7157" x2="32.5001" y2="41.2843" gradientUnits="userSpaceOnUse">
<stop stop-color="white" style="stop-color:white;stop-opacity:1;"/>
<stop offset="1" stop-color="#AFAFAF" style="stop-color:#AFAFAF;stop-color:color(display-p3 0.6863 0.6863 0.6863);stop-opacity:1;"/>
</linearGradient>
</defs>
</svg>
