<svg width="17" height="17" viewBox="0 0 17 17" fill="none" xmlns="http://www.w3.org/2000/svg">
<path fill-rule="evenodd" clip-rule="evenodd" d="M0.000488281 9.80764C0.000488281 7.90011 0.758203 6.07071 2.10695 4.72189C3.45569 3.37307 5.28497 2.6153 7.19238 2.6153C7.36578 2.6153 7.53208 2.68419 7.65469 2.80681C7.77731 2.92943 7.84619 3.09574 7.84619 3.26915V9.15379H13.7305C13.9039 9.15379 14.0702 9.22268 14.1928 9.3453C14.3154 9.46792 14.3843 9.63423 14.3843 9.80764C14.3843 11.7152 13.6266 13.5446 12.2778 14.8934C10.9291 16.2422 9.09979 17 7.19238 17C5.28497 17 3.45569 16.2422 2.10695 14.8934C0.758203 13.5446 0.000488281 11.7152 0.000488281 9.80764Z" fill="white" style="fill:white;fill-opacity:1;"/>
<path fill-rule="evenodd" clip-rule="evenodd" d="M9.15365 0.653879C9.15365 0.480468 9.22253 0.314159 9.34515 0.191538C9.46776 0.0689178 9.63406 3.05176e-05 9.80746 3.05176e-05C11.7149 3.05176e-05 13.5442 0.757792 14.8929 2.10662C16.2416 3.45544 16.9994 5.28484 16.9994 7.19236C16.9994 7.36578 16.9305 7.53208 16.8079 7.6547C16.6852 7.77733 16.5189 7.84621 16.3455 7.84621H9.80746C9.63406 7.84621 9.46776 7.77733 9.34515 7.6547C9.22253 7.53208 9.15365 7.36578 9.15365 7.19236V0.653879Z" fill="white" style="fill:white;fill-opacity:1;"/>
</svg>
