<svg width="17" height="15" viewBox="0 0 17 15" fill="none" xmlns="http://www.w3.org/2000/svg">
<path d="M2.89087 1.38083C3.22734 1.29363 3.57446 1.24963 3.92308 1.25H13.0769C13.4344 1.25 13.7796 1.29583 14.1083 1.38083C13.8909 0.965816 13.557 0.61683 13.1439 0.372953C12.7307 0.129076 12.2548 -6.13715e-05 11.7692 2.7166e-07H5.23077C4.74508 -0.000216121 4.26892 0.128849 3.85564 0.372734C3.44237 0.616619 3.1083 0.96569 2.89087 1.38083ZM0 7.5C0 6.83696 0.275549 6.20107 0.766029 5.73223C1.25651 5.26339 1.92174 5 2.61538 5H14.3846C15.0783 5 15.7435 5.26339 16.234 5.73223C16.7245 6.20107 17 6.83696 17 7.5V12.5C17 13.163 16.7245 13.7989 16.234 14.2678C15.7435 14.7366 15.0783 15 14.3846 15H2.61538C1.92174 15 1.25651 14.7366 0.766029 14.2678C0.275549 13.7989 0 13.163 0 12.5V7.5ZM2.61538 3.75C2.25795 3.75 1.91272 3.79583 1.58318 3.88083C1.80061 3.46569 2.13467 3.11662 2.54795 2.87273C2.96123 2.62885 3.43739 2.49978 3.92308 2.5H13.0769C13.5625 2.49994 14.0384 2.62908 14.4515 2.87295C14.8647 3.11683 15.1986 3.46582 15.4159 3.88083C15.0798 3.7937 14.7329 3.7497 14.3846 3.75H2.61538Z" fill="white" style="fill:white;fill-opacity:1;"/>
</svg>
