<svg width="17" height="17" viewBox="0 0 17 17" fill="none" xmlns="http://www.w3.org/2000/svg">
<path d="M16.9739 9.15734C17.0921 7.65207 16.8077 6.14243 16.1501 4.78409C15.0617 5.82115 13.7751 6.62638 12.3678 7.15122C12.481 8.544 12.4183 9.94552 12.1813 11.3226C13.8937 10.8901 15.5163 10.157 16.9739 9.15734ZM10.7961 11.6031C11.0746 10.2684 11.1719 8.90199 11.0856 7.54108C10.2557 7.73951 9.3901 7.8444 8.50009 7.8444C7.61009 7.8444 6.74449 7.73951 5.91463 7.54108C5.83029 8.90199 5.92761 10.2681 6.20403 11.6031C7.72585 11.8371 9.27433 11.8371 10.7961 11.6031ZM6.55794 12.9746C7.84821 13.1277 9.15197 13.1277 10.4422 12.9746C9.99879 14.4061 9.34416 15.7629 8.50009 17C7.656 15.7629 7.00137 14.4061 6.55794 12.9746ZM4.8189 11.3234C4.58061 9.94595 4.51793 8.54368 4.63236 7.15035C3.22481 6.62563 1.93786 5.82039 0.849178 4.78322C0.191756 6.1419 -0.0923059 7.65186 0.0262934 9.15734C1.4839 10.157 3.10647 10.8909 4.8189 11.3234ZM16.6557 10.9056C16.2156 12.4012 15.3753 13.7473 14.2262 14.7978C13.077 15.8483 11.6628 16.5631 10.1371 16.8645C10.9012 15.5763 11.4844 14.1885 11.8701 12.7404C13.552 12.3869 15.1673 11.7679 16.6557 10.9065V10.9056ZM0.344464 10.9056C1.81066 11.7544 3.42157 12.3811 5.1301 12.7404C5.51583 14.1885 6.09898 15.5763 6.86304 16.8645C5.33747 16.5631 3.92335 15.8485 2.77419 14.7981C1.62503 13.7478 0.784716 12.4019 0.344464 10.9065V10.9056ZM10.1371 0.134615C12.297 0.560322 14.208 1.80929 15.4685 3.61888C14.5381 4.56152 13.4274 5.30601 12.2031 5.80769C11.8732 3.80404 11.1725 1.87993 10.1371 0.134615ZM8.50009 0C9.77226 1.86372 10.6081 3.99157 10.9452 6.22465C10.1633 6.4257 9.3439 6.53322 8.50009 6.53322C7.65629 6.53322 6.83689 6.42657 6.05497 6.22465C6.39205 3.99157 7.22789 1.86371 8.50009 0ZM6.86304 0.134615C5.82766 1.87992 5.12697 3.80403 4.79711 5.80769C3.57277 5.30603 2.4621 4.56154 1.53172 3.61888C2.79223 1.80956 4.70331 0.560018 6.86304 0.134615Z" fill="white" style="fill:white;fill-opacity:1;"/>
</svg>
