<svg width="17" height="17" viewBox="0 0 17 17" fill="none" xmlns="http://www.w3.org/2000/svg">
<path d="M8.07154 1.90202C8.18528 1.78754 8.33945 1.72323 8.5002 1.72323C8.66095 1.72323 8.81512 1.78754 8.92886 1.90202L15.9573 8.98541C16.0133 9.04377 16.0802 9.09031 16.1542 9.12232C16.2283 9.15432 16.3079 9.17115 16.3884 9.17181C16.469 9.17248 16.5488 9.15698 16.6234 9.1262C16.6979 9.09543 16.7656 9.05 16.8225 8.99258C16.8795 8.93515 16.9245 8.86687 16.9549 8.79172C16.9854 8.71658 17.0007 8.63607 17 8.5549C16.9992 8.47372 16.9825 8.39351 16.9506 8.31894C16.9188 8.24437 16.8726 8.17694 16.8146 8.12057L9.78699 1.03718C9.61801 0.866873 9.4174 0.731778 9.19661 0.639609C8.97582 0.547439 8.73918 0.5 8.5002 0.5C8.26122 0.5 8.02458 0.547439 7.80379 0.639609C7.583 0.731778 7.38239 0.866873 7.21341 1.03718L0.184978 8.12057C0.127069 8.17699 0.0808894 8.24447 0.0491337 8.31907C0.0173779 8.39367 0.000682135 8.4739 2.04693e-05 8.55507C-0.000641197 8.63625 0.0147445 8.71674 0.0452798 8.79186C0.0758151 8.86697 0.120889 8.93521 0.17787 8.99258C0.234852 9.04995 0.3026 9.09532 0.377163 9.12602C0.451725 9.15672 0.531608 9.17215 0.612151 9.17141C0.692694 9.17067 0.772283 9.15376 0.846275 9.12169C0.920267 9.08962 0.98718 9.04301 1.04311 8.9846L8.07154 1.90202Z" fill="white" style="fill:white;fill-opacity:1;"/>
<path d="M8.5002 3.19888L15.0992 9.84944C15.1234 9.87389 15.1477 9.89672 15.1728 9.91954V14.9716C15.1728 15.8153 14.4934 16.5 13.6563 16.5H10.9266C10.7657 16.5 10.6114 16.4356 10.4977 16.3209C10.3839 16.2063 10.32 16.0508 10.32 15.8887V12.2206C10.32 12.0585 10.2561 11.903 10.1423 11.7883C10.0286 11.6737 9.87427 11.6093 9.71339 11.6093H7.28701C7.12613 11.6093 6.97184 11.6737 6.85808 11.7883C6.74432 11.903 6.68041 12.0585 6.68041 12.2206V15.8887C6.68041 16.0508 6.6165 16.2063 6.50274 16.3209C6.38898 16.4356 6.23469 16.5 6.07381 16.5H3.34413C2.94193 16.5 2.55621 16.339 2.27181 16.0524C1.98741 15.7657 1.82764 15.377 1.82764 14.9716V9.91954C1.8528 9.89685 1.87735 9.87348 1.90124 9.84944L8.5002 3.19888Z" fill="white" style="fill:white;fill-opacity:1;"/>
</svg>
