<svg width="17" height="17" viewBox="0 0 17 17" fill="none" xmlns="http://www.w3.org/2000/svg">
<path fill-rule="evenodd" clip-rule="evenodd" d="M0 2.83333C0 2.08189 0.298511 1.36122 0.829864 0.829864C1.36122 0.298511 2.08189 0 2.83333 0H4.95833C5.70978 0 6.43045 0.298511 6.9618 0.829864C7.49316 1.36122 7.79167 2.08189 7.79167 2.83333V4.95833C7.79167 5.70978 7.49316 6.43045 6.9618 6.9618C6.43045 7.49316 5.70978 7.79167 4.95833 7.79167H2.83333C2.08189 7.79167 1.36122 7.49316 0.829864 6.9618C0.298511 6.43045 0 5.70978 0 4.95833V2.83333ZM9.20833 2.83333C9.20833 2.08189 9.50684 1.36122 10.0382 0.829864C10.5695 0.298511 11.2902 0 12.0417 0H14.1667C14.9181 0 15.6388 0.298511 16.1701 0.829864C16.7015 1.36122 17 2.08189 17 2.83333V4.95833C17 5.70978 16.7015 6.43045 16.1701 6.9618C15.6388 7.49316 14.9181 7.79167 14.1667 7.79167H12.0417C11.2902 7.79167 10.5695 7.49316 10.0382 6.9618C9.50684 6.43045 9.20833 5.70978 9.20833 4.95833V2.83333ZM0 12.0417C0 11.2902 0.298511 10.5695 0.829864 10.0382C1.36122 9.50684 2.08189 9.20833 2.83333 9.20833H4.95833C5.70978 9.20833 6.43045 9.50684 6.9618 10.0382C7.49316 10.5695 7.79167 11.2902 7.79167 12.0417V14.1667C7.79167 14.9181 7.49316 15.6388 6.9618 16.1701C6.43045 16.7015 5.70978 17 4.95833 17H2.83333C2.08189 17 1.36122 16.7015 0.829864 16.1701C0.298511 15.6388 0 14.9181 0 14.1667V12.0417ZM9.20833 12.0417C9.20833 11.2902 9.50684 10.5695 10.0382 10.0382C10.5695 9.50684 11.2902 9.20833 12.0417 9.20833H14.1667C14.9181 9.20833 15.6388 9.50684 16.1701 10.0382C16.7015 10.5695 17 11.2902 17 12.0417V14.1667C17 14.9181 16.7015 15.6388 16.1701 16.1701C15.6388 16.7015 14.9181 17 14.1667 17H12.0417C11.2902 17 10.5695 16.7015 10.0382 16.1701C9.50684 15.6388 9.20833 14.9181 9.20833 14.1667V12.0417Z" fill="white" style="fill:white;fill-opacity:1;"/>
</svg>
