<svg width="17" height="17" viewBox="0 0 17 17" fill="none" xmlns="http://www.w3.org/2000/svg">
<path d="M14.5714 16.5C15.2155 16.5 15.8332 16.219 16.2887 15.719C16.7441 15.2189 17 14.5406 17 13.8333V9.83333C17 9.12609 16.7441 8.44781 16.2887 7.94771C15.8332 7.44762 15.2155 7.16667 14.5714 7.16667H2.42857C1.78447 7.16667 1.16676 7.44762 0.711312 7.94771C0.255867 8.44781 0 9.12609 0 9.83333V13.8333C0 14.5406 0.255867 15.2189 0.711312 15.719C1.16676 16.219 1.78447 16.5 2.42857 16.5H14.5714ZM0 6.852V3.16667C0 2.45942 0.255867 1.78115 0.711312 1.28105C1.16676 0.780952 1.78447 0.5 2.42857 0.5H6.783C7.26579 0.500231 7.72875 0.710924 8.07014 1.08578L9.78795 2.97111C9.90129 3.09644 10.0559 3.16667 10.217 3.16667H14.5714C15.2155 3.16667 15.8332 3.44762 16.2887 3.94772C16.7441 4.44781 17 5.12609 17 5.83333V6.852C16.3328 6.19479 15.4677 5.83193 14.5714 5.83333H2.42857C1.53226 5.83193 0.667184 6.19479 0 6.852Z" fill="white" style="fill:white;fill-opacity:1;"/>
</svg>
