<svg width="17" height="17" viewBox="0 0 17 17" fill="none" xmlns="http://www.w3.org/2000/svg">
<path d="M16.15 12.2188C15.3691 12.2188 14.7333 11.6227 14.7333 10.8906V5.84375C14.7333 2.62119 11.9374 0 8.5 0C6.84737 0.00168743 5.26294 0.617908 4.09436 1.71346C2.92577 2.80901 2.26847 4.29441 2.26667 5.84375V10.8906C2.26667 11.6227 1.63087 12.2188 0.85 12.2188C0.624566 12.2188 0.408365 12.3027 0.248959 12.4521C0.0895532 12.6016 0 12.8043 0 13.0156C0 13.227 0.0895532 13.4297 0.248959 13.5791C0.408365 13.7285 0.624566 13.8125 0.85 13.8125H16.15C16.3754 13.8125 16.5916 13.7285 16.751 13.5791C16.9104 13.4297 17 13.227 17 13.0156C17 12.8043 16.9104 12.6016 16.751 12.4521C16.5916 12.3027 16.3754 12.2188 16.15 12.2188ZM7.14113 14.875C7.05684 14.875 6.97361 14.8927 6.89753 14.9267C6.82144 14.9608 6.75441 15.0103 6.70131 15.0716C6.64822 15.133 6.6104 15.2047 6.59061 15.2815C6.57083 15.3584 6.56957 15.4384 6.58693 15.5157C6.783 16.3891 7.57067 17 8.50113 17C9.4316 17 10.2193 16.3891 10.4153 15.5157C10.4327 15.4384 10.4314 15.3584 10.4117 15.2815C10.3919 15.2047 10.354 15.133 10.301 15.0716C10.2479 15.0103 10.1808 14.9608 10.1047 14.9267C10.0287 14.8927 9.94543 14.875 9.86113 14.875H7.14113Z" fill="white" style="fill:white;fill-opacity:1;"/>
</svg>
