<svg width="15" height="17" viewBox="0 0 15 17" fill="none" xmlns="http://www.w3.org/2000/svg">
<path fill-rule="evenodd" clip-rule="evenodd" d="M9.67918 0.0767874C9.80119 0.142759 9.89695 0.246523 9.95118 0.371528C10.0054 0.496533 10.015 0.635577 9.97835 0.766478L9.15168 6.67823H14.375C14.4968 6.67824 14.616 6.71282 14.7178 6.77772C14.8197 6.84262 14.8998 6.93501 14.9483 7.04354C14.9968 7.15206 15.0116 7.272 14.9909 7.38859C14.9702 7.50518 14.9149 7.61336 14.8317 7.69982L6.08166 16.8067C5.98636 16.9061 5.85949 16.9715 5.72135 16.9926C5.5832 17.0137 5.44177 16.9892 5.31967 16.923C5.19756 16.8568 5.10184 16.7527 5.04782 16.6274C4.99379 16.5022 4.98458 16.3629 5.02165 16.2319L5.84832 10.321H0.624964C0.503162 10.321 0.384017 10.2864 0.282174 10.2215C0.180332 10.1566 0.10023 10.0642 0.0517164 9.95566C0.00320265 9.84713 -0.011609 9.7272 0.00910223 9.61061C0.0298135 9.49401 0.0851449 9.38584 0.168295 9.29938L8.91834 0.192545C9.01365 0.0935003 9.14034 0.0282926 9.27822 0.00731357C9.41611 -0.0136654 9.55726 0.0107917 9.67918 0.0767874Z" fill="white" style="fill:white;fill-opacity:1;"/>
</svg>
