<svg width="17" height="17" viewBox="0 0 17 17" fill="none" xmlns="http://www.w3.org/2000/svg">
<path fill-rule="evenodd" clip-rule="evenodd" d="M6.32643 4.92514C8.65786 1.9291 12.3007 0 16.3929 0C16.5539 0 16.7083 0.0639667 16.8222 0.177828C16.936 0.291689 17 0.446119 17 0.607143C17 4.7001 15.0709 8.34214 12.0749 10.6744C12.1995 11.455 12.1532 12.2533 11.9393 13.0142C11.7255 13.7752 11.349 14.4807 10.836 15.0821C10.323 15.6835 9.68561 16.1664 8.96785 16.4975C8.25009 16.8286 7.46903 17 6.67857 17C6.51755 17 6.36312 16.936 6.24926 16.8222C6.1354 16.7083 6.07143 16.5539 6.07143 16.3929V13.0487C5.28451 12.4273 4.57321 11.7157 3.9521 10.9286H0.607143C0.446119 10.9286 0.291689 10.8646 0.177828 10.7507C0.0639667 10.6369 1.78889e-08 10.4825 1.78889e-08 10.3214C-6.3946e-05 9.53089 0.171405 8.74975 0.502571 8.03192C0.833738 7.3141 1.31672 6.67667 1.91817 6.16364C2.51963 5.65061 3.22525 5.2742 3.98632 5.06038C4.74739 4.84655 5.54579 4.80041 6.32643 4.92514ZM10.9286 4.25C10.4455 4.25 9.98221 4.4419 9.64063 4.78348C9.29904 5.12507 9.10714 5.58836 9.10714 6.07143C9.10714 6.5545 9.29904 7.01779 9.64063 7.35937C9.98221 7.70096 10.4455 7.89286 10.9286 7.89286C11.4116 7.89286 11.8749 7.70096 12.2165 7.35937C12.5581 7.01779 12.75 6.5545 12.75 6.07143C12.75 5.58836 12.5581 5.12507 12.2165 4.78348C11.8749 4.4419 11.4116 4.25 10.9286 4.25Z" fill="white" style="fill:white;fill-opacity:1;"/>
<path d="M3.04382 12.7435C3.10777 12.6959 3.16169 12.6361 3.20253 12.5675C3.24336 12.499 3.27029 12.4231 3.28179 12.3442C3.29329 12.2653 3.28914 12.1848 3.26956 12.1075C3.24998 12.0302 3.21536 11.9575 3.16768 11.8935C3.12 11.8296 3.06019 11.7757 2.99167 11.7348C2.92315 11.694 2.84726 11.6671 2.76833 11.6556C2.6894 11.6441 2.60898 11.6482 2.53166 11.6678C2.45433 11.6874 2.38162 11.722 2.31768 11.7697C1.69669 12.2316 1.21382 12.8546 0.921318 13.5711C0.628816 14.2877 0.537814 15.0706 0.658156 15.8351C0.677727 15.9625 0.737298 16.0803 0.828253 16.1715C0.919208 16.2628 1.03683 16.3227 1.16411 16.3427C1.92873 16.4629 2.71168 16.3718 3.42824 16.0792C4.14481 15.7865 4.7677 15.3035 5.22954 14.6824C5.27875 14.6186 5.31478 14.5456 5.33553 14.4678C5.35628 14.39 5.36134 14.3088 5.3504 14.229C5.33946 14.1492 5.31274 14.0723 5.27182 14.0029C5.23089 13.9336 5.17656 13.873 5.112 13.8248C5.04744 13.7767 4.97393 13.7418 4.89577 13.7223C4.81761 13.7028 4.73635 13.6991 4.65672 13.7113C4.5771 13.7235 4.50071 13.7515 4.43199 13.7935C4.36328 13.8356 4.30362 13.8909 4.25649 13.9562C3.97418 14.3359 3.60691 14.6442 3.18407 14.8564C2.76123 15.0687 2.29457 15.179 1.82144 15.1786C1.82144 14.1829 2.30068 13.2981 3.04382 12.7435Z" fill="white" style="fill:white;fill-opacity:1;"/>
</svg>
