<svg width="17" height="17" viewBox="0 0 17 17" fill="none" xmlns="http://www.w3.org/2000/svg">
<path fill-rule="evenodd" clip-rule="evenodd" d="M8.92339 0.173494C8.80907 0.0620947 8.65753 0 8.5 0C8.34247 0 8.19094 0.0620947 8.07662 0.173494C6.33489 1.87361 4.01518 2.8059 1.61344 2.77105C1.4826 2.7693 1.35462 2.81047 1.24809 2.88857C1.14156 2.96667 1.06202 3.07765 1.02103 3.20538C0.674752 4.29008 0.498872 5.42457 0.500005 6.56617C0.500005 11.5774 3.83457 15.7866 8.34657 16.98C8.44721 17.0067 8.55279 17.0067 8.65344 16.98C13.1654 15.7866 16.5 11.5774 16.5 6.56617C16.5 5.3939 16.317 4.2638 15.979 3.20538C15.9381 3.07749 15.8587 2.96633 15.7521 2.88807C15.6456 2.8098 15.5175 2.76851 15.3866 2.7702L15.2692 2.77105C12.811 2.77105 10.5784 1.78431 8.92339 0.173494Z" fill="white" style="fill:white;fill-opacity:1;"/>
</svg>
