<svg width="13" height="17" viewBox="0 0 13 17" fill="none" xmlns="http://www.w3.org/2000/svg">
<path fill-rule="evenodd" clip-rule="evenodd" d="M2.95417 3.64285C2.95417 2.67671 3.32774 1.75013 3.99272 1.06697C4.65769 0.3838 5.55959 0 6.5 0C7.44041 0 8.34231 0.3838 9.00728 1.06697C9.67225 1.75013 10.0458 2.67671 10.0458 3.64285C10.0458 4.609 9.67225 5.53557 9.00728 6.21874C8.34231 6.90191 7.44041 7.28571 6.5 7.28571C5.55959 7.28571 4.65769 6.90191 3.99272 6.21874C3.32774 5.53557 2.95417 4.609 2.95417 3.64285ZM9.40854e-05 15.0612C0.0266644 13.3081 0.723161 11.6361 1.93924 10.4061C3.15532 9.17603 4.79344 8.48659 6.5 8.48659C8.20656 8.48659 9.84468 9.17603 11.0608 10.4061C12.2768 11.6361 12.9733 13.3081 12.9999 15.0612C13.002 15.1792 12.9705 15.2953 12.9093 15.3952C12.8482 15.4951 12.76 15.5746 12.6556 15.6238C10.7244 16.5335 8.62447 17.0029 6.5 17C4.30474 17 2.219 16.5078 0.344434 15.6238C0.240018 15.5746 0.151836 15.4951 0.09068 15.3952C0.0295236 15.2953 -0.00195559 15.1792 9.40854e-05 15.0612Z" fill="white" style="fill:white;fill-opacity:1;"/>
</svg>
