<svg width="16" height="16" viewBox="0 0 16 16" fill="none" xmlns="http://www.w3.org/2000/svg">
<path fill-rule="evenodd" clip-rule="evenodd" d="M2.59926 5.54054C2.59926 4.0711 3.16827 2.66184 4.18111 1.62279C5.19395 0.583734 6.56766 0 8.00003 0C9.4324 0 10.8061 0.583734 11.8189 1.62279C12.8318 2.66184 13.4008 4.0711 13.4008 5.54054V6.15616C13.4008 7.89876 14.0409 9.48623 15.0954 10.6871C15.1611 10.7618 15.208 10.8518 15.2319 10.9494C15.2558 11.047 15.256 11.149 15.2326 11.2467C15.2091 11.3444 15.1627 11.4347 15.0974 11.5097C15.032 11.5847 14.9498 11.6421 14.8578 11.677C13.6224 12.1449 12.3294 12.4896 10.9925 12.6973C11.0226 13.1193 10.9675 13.5431 10.8308 13.9424C10.694 14.3416 10.4785 14.7076 10.1977 15.0175C9.91689 15.3275 9.5768 15.5747 9.19867 15.7437C8.82054 15.9128 8.4125 16 8.00003 16C7.58756 16 7.17952 15.9128 6.80139 15.7437C6.42326 15.5747 6.08317 15.3275 5.80235 15.0175C5.52154 14.7076 5.30603 14.3416 5.16928 13.9424C5.03254 13.5431 4.9775 13.1193 5.00761 12.6973C3.68874 12.4922 2.39363 12.1501 1.14226 11.6762C1.05035 11.6414 0.96815 11.584 0.902833 11.5091C0.837515 11.4342 0.791069 11.344 0.767549 11.2465C0.74403 11.1489 0.744153 11.0469 0.767907 10.9494C0.791662 10.8519 0.838326 10.7618 0.903824 10.6871C1.99742 9.44492 2.60173 7.82997 2.59926 6.15616V5.54054ZM6.20137 12.8458C6.19114 13.0947 6.23008 13.3431 6.31586 13.5762C6.40164 13.8092 6.53247 14.022 6.7005 14.2018C6.86853 14.3816 7.07028 14.5247 7.29361 14.6224C7.51693 14.7202 7.75723 14.7705 8.00003 14.7705C8.24283 14.7705 8.48312 14.7202 8.70645 14.6224C8.92978 14.5247 9.13153 14.3816 9.29956 14.2018C9.46759 14.022 9.59842 13.8092 9.6842 13.5762C9.76998 13.3431 9.80892 13.0947 9.79869 12.8458C8.602 12.9564 7.39806 12.9564 6.20137 12.8458Z" fill="white" style="fill:white;fill-opacity:1;"/>
</svg>
