<svg width="14" height="16" viewBox="0 0 14 16" fill="none" xmlns="http://www.w3.org/2000/svg">
<path fill-rule="evenodd" clip-rule="evenodd" d="M10.5 2.26892V2.44187C11.5103 2.53238 12.5165 2.66251 13.5162 2.83197C13.5917 2.84477 13.6639 2.87202 13.7286 2.91215C13.7933 2.95228 13.8494 3.0045 13.8935 3.06584C13.9376 3.12718 13.969 3.19643 13.9858 3.26965C14.0026 3.34286 14.0045 3.4186 13.9914 3.49254C13.9784 3.56648 13.9506 3.63718 13.9096 3.70059C13.8686 3.764 13.8153 3.81888 13.7527 3.86211C13.6901 3.90534 13.6194 3.93606 13.5446 3.95253C13.4699 3.96899 13.3926 3.97087 13.3171 3.95807L13.1546 3.9314L12.3729 13.8895C12.3278 14.4637 12.0632 15 11.6319 15.3913C11.2006 15.7826 10.6344 16 10.0466 16H3.95422C3.36638 16 2.8002 15.7826 2.3689 15.3913C1.9376 15 1.67296 14.4637 1.62789 13.8895L0.845449 3.9314L0.682894 3.95807C0.607413 3.97087 0.530096 3.96899 0.455358 3.95253C0.380619 3.93606 0.309923 3.90534 0.247305 3.86211C0.120843 3.77481 0.0349644 3.64187 0.00856062 3.49254C-0.0178431 3.34321 0.0173913 3.18972 0.106513 3.06584C0.195634 2.94196 0.331342 2.85783 0.483783 2.83197C1.48343 2.66231 2.48966 2.53217 3.5 2.44187V2.26892C3.5 1.0773 4.44345 0.0593891 5.69022 0.0205318C6.56344 -0.00684394 7.43734 -0.00684394 8.31056 0.0205318C9.55733 0.0593891 10.5 1.0773 10.5 2.26892ZM5.72756 1.16263C6.5759 1.13605 7.42488 1.13605 8.27322 1.16263C8.85889 1.18092 9.33333 1.66396 9.33333 2.26892V2.35501C7.77921 2.26255 6.22079 2.26255 4.66667 2.35501V2.26892C4.66667 1.66396 5.14034 1.18092 5.72756 1.16263ZM5.45145 5.69216C5.44848 5.61712 5.43046 5.54339 5.39841 5.47517C5.36636 5.40695 5.3209 5.34558 5.26464 5.29457C5.20838 5.24356 5.14241 5.20391 5.07051 5.17787C4.9986 5.15184 4.92216 5.13993 4.84556 5.14283C4.76895 5.14573 4.69368 5.16338 4.62404 5.19478C4.5544 5.22618 4.49176 5.27071 4.43969 5.32582C4.38761 5.38094 4.34713 5.44556 4.32055 5.516C4.29397 5.58644 4.28182 5.66131 4.28478 5.73636L4.55467 12.5935C4.56065 12.745 4.6278 12.8879 4.74136 12.9908C4.79758 13.0418 4.86351 13.0814 4.93537 13.1075C5.00723 13.1335 5.08361 13.1454 5.16017 13.1425C5.23672 13.1396 5.31194 13.1219 5.38153 13.0905C5.45113 13.0592 5.51373 13.0147 5.56577 12.9596C5.6178 12.9045 5.65826 12.8399 5.68481 12.7695C5.71137 12.6991 5.72352 12.6243 5.72056 12.5493L5.45145 5.69216ZM9.71367 5.73636C9.71937 5.65987 9.7093 5.58305 9.68405 5.51046C9.65881 5.43787 9.61891 5.371 9.56672 5.31383C9.51454 5.25667 9.45115 5.21038 9.38032 5.17772C9.30949 5.14506 9.23268 5.1267 9.15445 5.12373C9.07623 5.12076 8.99819 5.13325 8.925 5.16045C8.8518 5.18764 8.78494 5.229 8.72841 5.28204C8.67187 5.33508 8.62681 5.39873 8.59591 5.46919C8.56501 5.53965 8.54891 5.61548 8.54856 5.69216L8.27867 12.5493C8.27268 12.7009 8.32841 12.8486 8.43357 12.9599C8.53874 13.0712 8.68473 13.137 8.83944 13.1428C8.99415 13.1487 9.1449 13.0941 9.25853 12.9911C9.37216 12.8881 9.43935 12.7451 9.44533 12.5935L9.71367 5.73636Z" fill="white" style="fill:white;fill-opacity:1;"/>
</svg>
