<svg width="16" height="14" viewBox="0 0 16 14" fill="none" xmlns="http://www.w3.org/2000/svg">
<path d="M7.38462 1.21695C6.09896 0.420237 4.6037 -0.00217933 3.07692 8.45535e-06C2.16861 -0.000889809 1.26679 0.148105 0.410256 0.440584C0.29029 0.481619 0.186422 0.557624 0.11295 0.658134C0.0394792 0.758644 1.81167e-05 0.878717 0 1.00182V12.3139C1.40153e-05 12.4091 0.0236446 12.503 0.0689079 12.5876C0.114171 12.6721 0.179746 12.745 0.260128 12.8C0.34051 12.8549 0.433352 12.8905 0.530861 12.9036C0.628371 12.9166 0.727701 12.9069 0.820513 12.8751C1.5453 12.6278 2.30838 12.5019 3.07692 12.5028C4.71385 12.5028 6.21374 13.0641 7.38462 14V1.21695ZM8.61539 14C9.82679 13.03 11.3506 12.5004 12.9231 12.5028C13.7157 12.5028 14.4738 12.6346 15.1795 12.8759C15.2724 12.9077 15.3718 12.9174 15.4693 12.9043C15.5669 12.8912 15.6598 12.8556 15.7402 12.8005C15.8206 12.7455 15.8862 12.6725 15.9314 12.5878C15.9766 12.5032 16.0001 12.4092 16 12.3139V1.00182C16 0.878717 15.9605 0.758644 15.887 0.658134C15.8136 0.557624 15.7097 0.481619 15.5897 0.440584C14.7332 0.148105 13.8314 -0.000889809 12.9231 8.45535e-06C11.3963 -0.00217933 9.90104 0.420237 8.61539 1.21695V14Z" fill="white" style="fill:white;fill-opacity:1;"/>
</svg>
