<svg width="16" height="12" viewBox="0 0 16 12" fill="none" xmlns="http://www.w3.org/2000/svg">
<path d="M2.28571 0C1.67951 0 1.09812 0.22987 0.66947 0.63904C0.240816 1.04821 0 1.60316 0 2.18182V2.72727H16V2.18182C16 1.60316 15.7592 1.04821 15.3305 0.63904C14.9019 0.22987 14.3205 0 13.7143 0H2.28571Z" fill="white" style="fill:white;fill-opacity:1;"/>
<path fill-rule="evenodd" clip-rule="evenodd" d="M16 4.36364H0V9.81818C0 10.3968 0.240816 10.9518 0.66947 11.361C1.09812 11.7701 1.67951 12 2.28571 12H13.7143C14.3205 12 14.9019 11.7701 15.3305 11.361C15.7592 10.9518 16 10.3968 16 9.81818V4.36364ZM2.28571 7.09091C2.28571 6.94625 2.34592 6.80751 2.45308 6.70521C2.56025 6.60292 2.70559 6.54545 2.85714 6.54545H7.42857C7.58012 6.54545 7.72547 6.60292 7.83263 6.70521C7.9398 6.80751 8 6.94625 8 7.09091C8 7.23557 7.9398 7.37431 7.83263 7.4766C7.72547 7.5789 7.58012 7.63636 7.42857 7.63636H2.85714C2.70559 7.63636 2.56025 7.5789 2.45308 7.4766C2.34592 7.37431 2.28571 7.23557 2.28571 7.09091ZM2.85714 8.72727C2.70559 8.72727 2.56025 8.78474 2.45308 8.88703C2.34592 8.98933 2.28571 9.12806 2.28571 9.27273C2.28571 9.41739 2.34592 9.55613 2.45308 9.65842C2.56025 9.76072 2.70559 9.81818 2.85714 9.81818H5.14286C5.29441 9.81818 5.43975 9.76072 5.54692 9.65842C5.65408 9.55613 5.71429 9.41739 5.71429 9.27273C5.71429 9.12806 5.65408 8.98933 5.54692 8.88703C5.43975 8.78474 5.29441 8.72727 5.14286 8.72727H2.85714Z" fill="white" style="fill:white;fill-opacity:1;"/>
</svg>
