<svg width="16" height="16" viewBox="0 0 16 16" fill="none" xmlns="http://www.w3.org/2000/svg">
<path d="M13.6667 0.5C12.7467 0.5 12 1.14615 12 1.94231V14.0577C12 14.8538 12.7467 15.5 13.6667 15.5H14.3333C15.2533 15.5 16 14.8538 16 14.0577V1.94231C16 1.14538 15.2533 0.5 14.3333 0.5H13.6667ZM6 5.40385C6 4.60692 6.74667 3.96154 7.66667 3.96154H8.33333C9.25422 3.96154 10 4.60769 10 5.40385V14.0577C10 14.8538 9.25333 15.5 8.33333 15.5H7.66667C7.22464 15.5 6.80072 15.348 6.48815 15.0776C6.17559 14.8071 6 14.4402 6 14.0577V5.40385ZM0 8.86539C0 8.06846 0.746667 7.42308 1.66667 7.42308H2.33333C3.25422 7.42308 4 8.06923 4 8.86539V14.0577C4 14.8538 3.25333 15.5 2.33333 15.5H1.66667C1.22464 15.5 0.800716 15.348 0.488155 15.0776C0.175595 14.8071 0 14.4402 0 14.0577V8.86539Z" fill="white" style="fill:white;fill-opacity:1;"/>
</svg>
