<svg width="16" height="12" viewBox="0 0 16 12" fill="none" xmlns="http://www.w3.org/2000/svg">
<path fill-rule="evenodd" clip-rule="evenodd" d="M6.85774 1.74451e-08C6.22564 -5.39415e-05 5.60041 0.125067 5.02154 0.367456C4.44267 0.609844 3.92276 0.964231 3.49465 1.40822C3.06654 1.85221 2.73955 2.37616 2.53433 2.94694C2.32912 3.51773 2.25014 4.12295 2.3024 4.72436C1.47855 5.09291 0.810945 5.71863 0.409779 6.49824C0.00861217 7.27784 -0.102138 8.16474 0.0958086 9.01254C0.293755 9.86034 0.788566 10.6184 1.49857 11.1615C2.20857 11.7046 3.09133 12.0004 4.00113 12H12.571C13.3291 12.0002 14.0659 11.7605 14.6661 11.3184C15.2663 10.8762 15.6961 10.2566 15.8882 9.55644C16.0802 8.85627 16.0238 8.11506 15.7276 7.44879C15.4315 6.78252 14.9123 6.22877 14.2514 5.87418C14.3192 5.45922 14.2856 5.03493 14.1534 4.63439C14.0211 4.23384 13.7938 3.86786 13.4891 3.56497C13.1844 3.26209 12.8105 3.03048 12.3966 2.8882C11.9828 2.74593 11.5401 2.69683 11.103 2.74473C10.7639 1.93449 10.1781 1.2399 9.42138 0.750647C8.66464 0.261391 7.77167 -7.639e-05 6.85774 1.74451e-08ZM8.40412 3.97818C8.297 3.87604 8.15179 3.81866 8.00039 3.81866C7.84898 3.81866 7.70377 3.87604 7.59665 3.97818L5.31136 6.16C5.25523 6.20994 5.21021 6.27015 5.17898 6.33706C5.14775 6.40397 5.13096 6.4762 5.12961 6.54944C5.12826 6.62268 5.14237 6.69543 5.1711 6.76334C5.19984 6.83126 5.24261 6.89296 5.29686 6.94476C5.35111 6.99655 5.41573 7.03738 5.48687 7.06482C5.55801 7.09225 5.63421 7.10572 5.71092 7.10443C5.78763 7.10314 5.86329 7.08711 5.93337 7.0573C6.00345 7.02748 6.06653 6.9845 6.11883 6.93091L7.42906 5.68V9.27273C7.42906 9.41739 7.48926 9.55613 7.5964 9.65842C7.70354 9.76072 7.84886 9.81818 8.00039 9.81818C8.15191 9.81818 8.29723 9.76072 8.40437 9.65842C8.51151 9.55613 8.57171 9.41739 8.57171 9.27273V5.68L9.88194 6.93091C9.93425 6.9845 9.99732 7.02748 10.0674 7.0573C10.1375 7.08711 10.2131 7.10314 10.2898 7.10443C10.3666 7.10572 10.4428 7.09225 10.5139 7.06482C10.585 7.03738 10.6497 6.99655 10.7039 6.94476C10.7582 6.89296 10.8009 6.83126 10.8297 6.76334C10.8584 6.69543 10.8725 6.62268 10.8712 6.54944C10.8698 6.4762 10.853 6.40397 10.8218 6.33706C10.7906 6.27015 10.7455 6.20994 10.6894 6.16L8.40412 3.97818Z" fill="white" style="fill:white;fill-opacity:1;"/>
</svg>
