<svg width="16" height="14" viewBox="0 0 16 14" fill="none" xmlns="http://www.w3.org/2000/svg">
<path fill-rule="evenodd" clip-rule="evenodd" d="M0 2.5C0 1.90326 0.25934 1.33097 0.720968 0.90901C1.1826 0.487053 1.8087 0.25 2.46154 0.25H13.5385C14.1913 0.25 14.8174 0.487053 15.279 0.90901C15.7407 1.33097 16 1.90326 16 2.5V11.5C16 12.0967 15.7407 12.669 15.279 13.091C14.8174 13.5129 14.1913 13.75 13.5385 13.75H2.46154C1.8087 13.75 1.1826 13.5129 0.720968 13.091C0.25934 12.669 0 12.0967 0 11.5V2.5ZM3.25744 3.2275C3.37282 3.12216 3.52923 3.06299 3.69231 3.06299C3.85539 3.06299 4.01179 3.12216 4.12718 3.2275L5.97333 4.915C6.08857 5.02047 6.1533 5.16344 6.1533 5.3125C6.1533 5.46156 6.08857 5.60453 5.97333 5.71L4.12718 7.3975C4.01052 7.49686 3.85623 7.55095 3.6968 7.54838C3.53738 7.54581 3.38526 7.48678 3.27252 7.38372C3.15977 7.28066 3.09518 7.14162 3.09237 6.99589C3.08956 6.85017 3.14873 6.70913 3.25744 6.6025L4.66872 5.3125L3.25744 4.0225C3.14219 3.91703 3.07746 3.77406 3.07746 3.625C3.07746 3.47594 3.14219 3.33297 3.25744 3.2275ZM6.76923 6.4375C6.60602 6.4375 6.4495 6.49676 6.33409 6.60225C6.21868 6.70774 6.15385 6.85082 6.15385 7C6.15385 7.14918 6.21868 7.29226 6.33409 7.39775C6.4495 7.50324 6.60602 7.5625 6.76923 7.5625H9.23077C9.39398 7.5625 9.5505 7.50324 9.66591 7.39775C9.78132 7.29226 9.84615 7.14918 9.84615 7C9.84615 6.85082 9.78132 6.70774 9.66591 6.60225C9.5505 6.49676 9.39398 6.4375 9.23077 6.4375H6.76923Z" fill="white" style="fill:white;fill-opacity:1;"/>
</svg>
