<svg width="16" height="16" viewBox="0 0 16 16" fill="none" xmlns="http://www.w3.org/2000/svg">
<path d="M11.6923 4.30769H4.30769V11.6923H11.6923V4.30769Z" fill="white" style="fill:white;fill-opacity:1;"/>
<path fill-rule="evenodd" clip-rule="evenodd" d="M4.92308 0C5.08629 0 5.24281 0.0648349 5.35822 0.180242C5.47363 0.295649 5.53846 0.452174 5.53846 0.615385V1.23077H7.38462V0.615385C7.38462 0.452174 7.44945 0.295649 7.56486 0.180242C7.68026 0.0648349 7.83679 0 8 0C8.16321 0 8.31974 0.0648349 8.43514 0.180242C8.55055 0.295649 8.61539 0.452174 8.61539 0.615385V1.23077H10.4615V0.615385C10.4615 0.452174 10.5264 0.295649 10.6418 0.180242C10.7572 0.0648349 10.9137 0 11.0769 0C11.2401 0 11.3967 0.0648349 11.5121 0.180242C11.6275 0.295649 11.6923 0.452174 11.6923 0.615385V1.23077H12.3077C12.9605 1.23077 13.5866 1.49011 14.0483 1.95174C14.5099 2.41337 14.7692 3.03947 14.7692 3.69231V4.30769H15.3846C15.5478 4.30769 15.7044 4.37253 15.8198 4.48793C15.9352 4.60334 16 4.75987 16 4.92308C16 5.08629 15.9352 5.24281 15.8198 5.35822C15.7044 5.47363 15.5478 5.53846 15.3846 5.53846H14.7692V7.38462H15.3846C15.5478 7.38462 15.7044 7.44945 15.8198 7.56486C15.9352 7.68026 16 7.83679 16 8C16 8.16321 15.9352 8.31974 15.8198 8.43514C15.7044 8.55055 15.5478 8.61539 15.3846 8.61539H14.7692V10.4615H15.3846C15.5478 10.4615 15.7044 10.5264 15.8198 10.6418C15.9352 10.7572 16 10.9137 16 11.0769C16 11.2401 15.9352 11.3967 15.8198 11.5121C15.7044 11.6275 15.5478 11.6923 15.3846 11.6923H14.7692V12.3077C14.7692 12.9605 14.5099 13.5866 14.0483 14.0483C13.5866 14.5099 12.9605 14.7692 12.3077 14.7692H11.6923V15.3846C11.6923 15.5478 11.6275 15.7044 11.5121 15.8198C11.3967 15.9352 11.2401 16 11.0769 16C10.9137 16 10.7572 15.9352 10.6418 15.8198C10.5264 15.7044 10.4615 15.5478 10.4615 15.3846V14.7692H8.61539V15.3846C8.61539 15.5478 8.55055 15.7044 8.43514 15.8198C8.31974 15.9352 8.16321 16 8 16C7.83679 16 7.68026 15.9352 7.56486 15.8198C7.44945 15.7044 7.38462 15.5478 7.38462 15.3846V14.7692H5.53846V15.3846C5.53846 15.5478 5.47363 15.7044 5.35822 15.8198C5.24281 15.9352 5.08629 16 4.92308 16C4.75987 16 4.60334 15.9352 4.48793 15.8198C4.37253 15.7044 4.30769 15.5478 4.30769 15.3846V14.7692H3.69231C3.03947 14.7692 2.41337 14.5099 1.95174 14.0483C1.49011 13.5866 1.23077 12.9605 1.23077 12.3077V11.6923H0.615385C0.452174 11.6923 0.295649 11.6275 0.180242 11.5121C0.0648349 11.3967 0 11.2401 0 11.0769C0 10.9137 0.0648349 10.7572 0.180242 10.6418C0.295649 10.5264 0.452174 10.4615 0.615385 10.4615H1.23077V8.61539H0.615385C0.452174 8.61539 0.295649 8.55055 0.180242 8.43514C0.0648349 8.31974 0 8.16321 0 8C0 7.83679 0.0648349 7.68026 0.180242 7.56486C0.295649 7.44945 0.452174 7.38462 0.615385 7.38462H1.23077V5.53846H0.615385C0.452174 5.53846 0.295649 5.47363 0.180242 5.35822C0.0648349 5.24281 0 5.08629 0 4.92308C0 4.75987 0.0648349 4.60334 0.180242 4.48793C0.295649 4.37253 0.452174 4.30769 0.615385 4.30769H1.23077V3.69231C1.23077 3.03947 1.49011 2.41337 1.95174 1.95174C2.41337 1.49011 3.03947 1.23077 3.69231 1.23077H4.30769V0.615385C4.30769 0.452174 4.37253 0.295649 4.48793 0.180242C4.60334 0.0648349 4.75987 0 4.92308 0ZM3.07692 3.69231C3.07692 3.5291 3.14176 3.37257 3.25716 3.25716C3.37257 3.14176 3.5291 3.07692 3.69231 3.07692H12.3077C12.4709 3.07692 12.6274 3.14176 12.7428 3.25716C12.8582 3.37257 12.9231 3.5291 12.9231 3.69231V12.3077C12.9231 12.4709 12.8582 12.6274 12.7428 12.7428C12.6274 12.8582 12.4709 12.9231 12.3077 12.9231H3.69231C3.5291 12.9231 3.37257 12.8582 3.25716 12.7428C3.14176 12.6274 3.07692 12.4709 3.07692 12.3077V3.69231Z" fill="white" style="fill:white;fill-opacity:1;"/>
</svg>
