<svg width="16" height="16" viewBox="0 0 16 16" fill="none" xmlns="http://www.w3.org/2000/svg">
<path fill-rule="evenodd" clip-rule="evenodd" d="M7.19355 4.83891e-08C6.39235 4.83891e-08 5.7091 0.544 5.57716 1.28574L5.42164 2.16533C5.40417 2.26379 5.32116 2.37867 5.16214 2.45087C4.86276 2.58602 4.57477 2.74237 4.30065 2.91856C4.15561 3.01292 4.00883 3.02195 3.90748 2.98667L3.0189 2.67323C2.65564 2.54543 2.25587 2.54282 1.89076 2.66588C1.52565 2.78893 1.21888 3.02967 1.02506 3.34523L0.219486 4.65559C0.0255977 4.97096 -0.0428802 5.3407 0.0262339 5.69903C0.095348 6.05736 0.297573 6.38104 0.596935 6.61251L1.33086 7.18031C1.41387 7.24431 1.4794 7.36821 1.46542 7.53313C1.44052 7.84421 1.44052 8.15661 1.46542 8.46769C1.47852 8.63179 1.41387 8.75651 1.33174 8.82051L0.596935 9.38831C0.297573 9.61978 0.095348 9.94347 0.0262339 10.3018C-0.0428802 10.6601 0.0255977 11.0299 0.219486 11.3452L1.02506 12.6556C1.21901 12.971 1.52584 13.2116 1.89094 13.3345C2.25605 13.4574 2.65574 13.4546 3.0189 13.3268L3.90922 13.0133C4.0097 12.9781 4.15649 12.9879 4.3024 13.0806C4.575 13.2562 4.86246 13.4129 5.16302 13.5483C5.32204 13.6205 5.40504 13.7354 5.42251 13.8355L5.57804 14.7143C5.70997 15.456 6.39322 16 7.19443 16H8.80557C9.60591 16 10.29 15.456 10.422 14.7143L10.5775 13.8347C10.595 13.7362 10.6771 13.6213 10.837 13.5483C11.1375 13.4129 11.425 13.2562 11.6976 13.0806C11.8435 12.9871 11.9903 12.9781 12.0908 13.0133L12.982 13.3268C13.345 13.4541 13.7444 13.4565 14.1091 13.3335C14.4738 13.2104 14.7803 12.97 14.9741 12.6548L15.7805 11.3444C15.9744 11.029 16.0429 10.6593 15.9738 10.301C15.9047 9.94265 15.7024 9.61896 15.4031 9.38749L14.6691 8.81969C14.5861 8.75569 14.5206 8.63179 14.5346 8.46687C14.5594 8.15579 14.5594 7.84339 14.5346 7.53231C14.5206 7.36821 14.5861 7.24349 14.6683 7.17949L15.4022 6.61169C16.0208 6.13415 16.1807 5.30708 15.7805 4.65477L14.9749 3.34441C14.781 3.029 14.4742 2.78843 14.1091 2.66553C13.744 2.54263 13.3443 2.54536 12.9811 2.67323L12.0899 2.98667C11.9903 3.02195 11.8435 3.0121 11.6976 2.91856C11.4238 2.7424 11.1361 2.58605 10.837 2.45087C10.6771 2.37949 10.595 2.26462 10.5775 2.16533L10.4211 1.28574C10.3574 0.926412 10.1599 0.599972 9.86395 0.364527C9.56796 0.129082 9.1926 -9.12741e-05 8.8047 4.83891e-08H7.19443H7.19355ZM7.99913 11.0769C8.8681 11.0769 9.70148 10.7527 10.3159 10.1757C10.9304 9.59868 11.2756 8.81605 11.2756 8C11.2756 7.18395 10.9304 6.40132 10.3159 5.82429C9.70148 5.24725 8.8681 4.92308 7.99913 4.92308C7.13015 4.92308 6.29677 5.24725 5.68232 5.82429C5.06786 6.40132 4.72266 7.18395 4.72266 8C4.72266 8.81605 5.06786 9.59868 5.68232 10.1757C6.29677 10.7527 7.13015 11.0769 7.99913 11.0769Z" fill="white" style="fill:white;fill-opacity:1;"/>
</svg>
