<svg width="16" height="16" viewBox="0 0 16 16" fill="none" xmlns="http://www.w3.org/2000/svg">
<path d="M7.59674 1.8144C7.70379 1.70707 7.84889 1.64678 8.00019 1.64678C8.15148 1.64678 8.29659 1.70707 8.40363 1.8144L15.0186 8.45507C15.0713 8.50979 15.1343 8.55342 15.204 8.58342C15.2737 8.61343 15.3486 8.6292 15.4244 8.62983C15.5002 8.63045 15.5754 8.61592 15.6455 8.58706C15.7157 8.55821 15.7794 8.51563 15.833 8.46179C15.8866 8.40795 15.9289 8.34394 15.9576 8.27349C15.9863 8.20304 16.0007 8.12757 16 8.05147C15.9993 7.97537 15.9835 7.90017 15.9535 7.83026C15.9236 7.76035 15.8801 7.69713 15.8255 7.64428L9.21129 1.00361C9.05224 0.843943 8.86343 0.717292 8.65563 0.630883C8.44783 0.544474 8.22511 0.5 8.00019 0.5C7.77527 0.5 7.55255 0.544474 7.34474 0.630883C7.13694 0.717292 6.94813 0.843943 6.78909 1.00361L0.174097 7.64428C0.119594 7.69718 0.0761312 7.76044 0.0462434 7.83038C0.0163557 7.90032 0.00064201 7.97553 1.92652e-05 8.05163C-0.000603479 8.12773 0.0138772 8.20319 0.0426163 8.27362C0.0713554 8.34404 0.113778 8.40801 0.167407 8.4618C0.221037 8.51558 0.2848 8.55811 0.354977 8.58689C0.425153 8.61568 0.500337 8.63014 0.576142 8.62945C0.651947 8.62875 0.726855 8.6129 0.796494 8.58284C0.866134 8.55276 0.929111 8.50907 0.98175 8.45431L7.59674 1.8144Z" fill="white" style="fill:white;fill-opacity:1;"/>
<path d="M8.00019 3.0302L14.211 9.2651C14.2338 9.28802 14.2566 9.30942 14.2802 9.33082V14.0672C14.2802 14.8581 13.6408 15.5 12.853 15.5H10.2838C10.1324 15.5 9.98721 15.4396 9.88015 15.3321C9.77308 15.2247 9.71293 15.0789 9.71293 14.9269V11.4881C9.71293 11.3361 9.65278 11.1903 9.54571 11.0828C9.43864 10.9753 9.29343 10.915 9.14202 10.915H6.85836C6.70694 10.915 6.56173 10.9753 6.45466 11.0828C6.3476 11.1903 6.28745 11.3361 6.28745 11.4881V14.9269C6.28745 15.0789 6.22729 15.2247 6.12023 15.3321C6.01316 15.4396 5.86795 15.5 5.71653 15.5H3.14742C2.76888 15.5 2.40584 15.349 2.13817 15.0803C1.87051 14.8116 1.72013 14.4472 1.72013 14.0672V9.33082C1.74382 9.30955 1.76691 9.28763 1.7894 9.2651L8.00019 3.0302Z" fill="white" style="fill:white;fill-opacity:1;"/>
</svg>
