<svg width="16" height="14" viewBox="0 0 16 14" fill="none" xmlns="http://www.w3.org/2000/svg">
<path d="M1.42857 0C0.639238 0 0 0.653333 0 1.45833V2.04167C0 2.84744 0.64 3.5 1.42857 3.5H14.5714C15.36 3.5 16 2.84667 16 2.04167V1.45833C16 0.652556 15.36 0 14.5714 0H1.42857Z" fill="white" style="fill:white;fill-opacity:1;"/>
<path fill-rule="evenodd" clip-rule="evenodd" d="M1.20908 4.66667L1.62051 11.8036C1.65469 12.3974 1.9098 12.9555 2.33366 13.3638C2.75752 13.7721 3.31813 13.9996 3.90089 14H12.0967C12.6797 14 13.2407 13.7726 13.6649 13.3643C14.0891 12.956 14.3444 12.3977 14.3786 11.8036L14.7908 4.66667H1.20908ZM5.9047 7.58333C5.9047 7.42862 5.9649 7.28025 6.07206 7.17085C6.17923 7.06146 6.32457 7 6.47613 7H9.52374C9.6753 7 9.82064 7.06146 9.9278 7.17085C10.035 7.28025 10.0952 7.42862 10.0952 7.58333C10.0952 7.73804 10.035 7.88642 9.9278 7.99581C9.82064 8.10521 9.6753 8.16667 9.52374 8.16667H6.47613C6.32457 8.16667 6.17923 8.10521 6.07206 7.99581C5.9649 7.88642 5.9047 7.73804 5.9047 7.58333Z" fill="white" style="fill:white;fill-opacity:1;"/>
</svg>
