<svg width="16" height="14" viewBox="0 0 16 14" fill="none" xmlns="http://www.w3.org/2000/svg">
<path fill-rule="evenodd" clip-rule="evenodd" d="M8 1.6267e-06C6.14933 1.6267e-06 4.32991 0.127801 2.55086 0.374065C1.04381 0.582278 0 1.82724 0 3.22442V7.54518C0 8.94235 1.04381 10.1873 2.55086 10.3955C3.21905 10.4881 3.89257 10.5635 4.57143 10.6224V13.462C4.57153 13.5684 4.6051 13.6724 4.66789 13.7609C4.73069 13.8494 4.8199 13.9183 4.92425 13.959C5.0286 13.9998 5.14342 14.0104 5.2542 13.9897C5.36498 13.9689 5.46675 13.9177 5.54667 13.8425L8.73448 10.8392C8.78863 10.789 8.86116 10.7602 8.93714 10.7588C10.4655 10.7229 11.971 10.6009 13.4491 10.3955C14.9562 10.1873 16 8.94307 16 7.54518V3.22442C16 1.82652 14.9562 0.582278 13.4491 0.374065C11.6449 0.1245 9.82362 -0.000520189 8 1.6267e-06ZM5.14286 4.57708C4.91553 4.57708 4.69751 4.66218 4.53677 4.81365C4.37602 4.96513 4.28571 5.17058 4.28571 5.3848C4.28571 5.59902 4.37602 5.80447 4.53677 5.95594C4.69751 6.10742 4.91553 6.19252 5.14286 6.19252C5.37019 6.19252 5.5882 6.10742 5.74895 5.95594C5.90969 5.80447 6 5.59902 6 5.3848C6 5.17058 5.90969 4.96513 5.74895 4.81365C5.5882 4.66218 5.37019 4.57708 5.14286 4.57708ZM7.14286 5.3848C7.14286 5.17058 7.23316 4.96513 7.39391 4.81365C7.55465 4.66218 7.77267 4.57708 8 4.57708C8.22733 4.57708 8.44535 4.66218 8.60609 4.81365C8.76684 4.96513 8.85714 5.17058 8.85714 5.3848C8.85714 5.59902 8.76684 5.80447 8.60609 5.95594C8.44535 6.10742 8.22733 6.19252 8 6.19252C7.77267 6.19252 7.55465 6.10742 7.39391 5.95594C7.23316 5.80447 7.14286 5.59902 7.14286 5.3848ZM10.8571 4.57708C10.6298 4.57708 10.4118 4.66218 10.2511 4.81365C10.0903 4.96513 10 5.17058 10 5.3848C10 5.59902 10.0903 5.80447 10.2511 5.95594C10.4118 6.10742 10.6298 6.19252 10.8571 6.19252C11.0845 6.19252 11.3025 6.10742 11.4632 5.95594C11.624 5.80447 11.7143 5.59902 11.7143 5.3848C11.7143 5.17058 11.624 4.96513 11.4632 4.81365C11.3025 4.66218 11.0845 4.57708 10.8571 4.57708Z" fill="white" style="fill:white;fill-opacity:1;"/>
</svg>
