<svg width="16" height="16" viewBox="0 0 16 16" fill="none" xmlns="http://www.w3.org/2000/svg">
<path d="M7.72876 0.0684772C7.8121 0.0235309 7.90531 0 8 0C8.09469 0 8.1879 0.0235309 8.27125 0.0684772L15.7 4.0685C15.7907 4.11746 15.8665 4.19005 15.9193 4.27858C15.9721 4.36711 16 4.46828 16 4.57136C16 4.67445 15.9721 4.77561 15.9193 4.86414C15.8665 4.95267 15.7907 5.02526 15.7 5.07422L8.27125 9.07424C8.1879 9.11919 8.09469 9.14272 8 9.14272C7.90531 9.14272 7.8121 9.11919 7.72876 9.07424L0.300022 5.07422C0.209305 5.02526 0.133522 4.95267 0.0807043 4.86414C0.0278864 4.77561 0 4.67445 0 4.57136C0 4.46828 0.0278864 4.36711 0.0807043 4.27858C0.133522 4.19005 0.209305 4.11746 0.300022 4.0685L7.72876 0.0684772Z" fill="white" style="fill:white;fill-opacity:1;"/>
<path d="M1.34462 6.9348L7.18703 10.0807C7.43687 10.2153 7.71622 10.2857 8 10.2857C8.28378 10.2857 8.56313 10.2153 8.81297 10.0807L14.6554 6.93404L15.6992 7.49709C15.7899 7.54606 15.8657 7.61865 15.9185 7.70717C15.9714 7.7957 15.9992 7.89687 15.9992 7.99995C15.9992 8.10304 15.9714 8.2042 15.9185 8.29273C15.8657 8.38126 15.7899 8.45385 15.6992 8.50281L8.27048 12.5028C8.18733 12.5475 8.0944 12.5709 8 12.5709C7.9056 12.5709 7.81267 12.5475 7.72952 12.5028L0.300784 8.50281C0.210066 8.45385 0.134284 8.38126 0.0814662 8.29273C0.0286482 8.2042 0.000761866 8.10304 0.000761866 7.99995C0.000761866 7.89687 0.0286482 7.7957 0.0814662 7.70717C0.134284 7.61865 0.210066 7.54606 0.300784 7.49709L1.34462 6.9348Z" fill="white" style="fill:white;fill-opacity:1;"/>
<path d="M7.18703 13.5093L1.34462 10.3626L0.300784 10.9257C0.210066 10.9746 0.134284 11.0472 0.0814662 11.1358C0.0286482 11.2243 0.000761866 11.3255 0.000761866 11.4285C0.000761866 11.5316 0.0286482 11.6328 0.0814662 11.7213C0.134284 11.8098 0.210066 11.8824 0.300784 11.9314L7.72952 15.9314C7.8979 16.0229 8.1021 16.0229 8.27048 15.9314L15.6992 11.9314C15.7899 11.8824 15.8657 11.8098 15.9185 11.7213C15.9714 11.6328 15.9992 11.5316 15.9992 11.4285C15.9992 11.3255 15.9714 11.2243 15.9185 11.1358C15.8657 11.0472 15.7899 10.9746 15.6992 10.9257L14.6554 10.3634L8.81297 13.5101C8.56306 13.6445 8.28369 13.7149 7.9999 13.7147C7.71612 13.7146 7.43681 13.644 7.18703 13.5093Z" fill="white" style="fill:white;fill-opacity:1;"/>
</svg>
