<svg width="16" height="14" viewBox="0 0 16 14" fill="none" xmlns="http://www.w3.org/2000/svg">
<path d="M3.05077 1.28878C3.34765 1.20738 3.65393 1.16632 3.96154 1.16667H12.0385C12.3538 1.16667 12.6585 1.20944 12.9485 1.28878C12.7567 0.901429 12.462 0.575708 12.0975 0.34809C11.733 0.120471 11.313 -5.72801e-05 10.8846 2.53549e-07H5.11538C4.68683 -0.000201713 4.26669 0.120259 3.90204 0.347885C3.53738 0.575511 3.24262 0.90131 3.05077 1.28878ZM0.5 7C0.5 6.38116 0.743131 5.78767 1.17591 5.35008C1.60868 4.9125 2.19565 4.66667 2.80769 4.66667H13.1923C13.8043 4.66667 14.3913 4.9125 14.8241 5.35008C15.2569 5.78767 15.5 6.38116 15.5 7V11.6667C15.5 12.2855 15.2569 12.879 14.8241 13.3166C14.3913 13.7542 13.8043 14 13.1923 14H2.80769C2.19565 14 1.60868 13.7542 1.17591 13.3166C0.743131 12.879 0.5 12.2855 0.5 11.6667V7ZM2.80769 3.5C2.49231 3.5 2.18769 3.54278 1.89692 3.62211C2.08877 3.23464 2.38354 2.90884 2.74819 2.68122C3.11285 2.45359 3.53299 2.33313 3.96154 2.33333H12.0385C12.4669 2.33328 12.8869 2.4538 13.2514 2.68142C13.6159 2.90904 13.9105 3.23476 14.1023 3.62211C13.8057 3.54079 13.4997 3.49972 13.1923 3.5H2.80769Z" fill="white" style="fill:white;fill-opacity:1;"/>
</svg>
