<svg width="16" height="16" viewBox="0 0 16 16" fill="none" xmlns="http://www.w3.org/2000/svg">
<path d="M2.46154 3.38461C2.46154 2.48696 2.81813 1.62607 3.45287 0.99133C4.08761 0.356592 4.9485 0 5.84615 0C6.74381 0 7.6047 0.356592 8.23944 0.99133C8.87418 1.62607 9.23077 2.48696 9.23077 3.38461C9.23077 4.28227 8.87418 5.14316 8.23944 5.7779C7.6047 6.41263 6.74381 6.76923 5.84615 6.76923C4.9485 6.76923 4.08761 6.41263 3.45287 5.7779C2.81813 5.14316 2.46154 4.28227 2.46154 3.38461ZM0 13.8461C0 12.2956 0.615932 10.8087 1.7123 9.71229C2.80867 8.61593 4.29566 7.99999 5.84615 7.99999C7.39665 7.99999 8.88364 8.61593 9.98001 9.71229C11.0764 10.8087 11.6923 12.2956 11.6923 13.8461V13.8486L11.6915 13.9462C11.6897 14.0506 11.6615 14.1528 11.6094 14.2432C11.5573 14.3336 11.483 14.4093 11.3936 14.4632C9.71914 15.4715 7.80083 16.003 5.84615 16C3.81785 16 1.91918 15.4388 0.299487 14.4632C0.209929 14.4094 0.135522 14.3338 0.0832711 14.2434C0.0310206 14.1529 0.00264633 14.0507 0.000820453 13.9462L0 13.8461ZM13.5385 4.30769C13.5385 4.14448 13.4736 3.98795 13.3582 3.87255C13.2428 3.75714 13.0863 3.6923 12.9231 3.6923C12.7599 3.6923 12.6033 3.75714 12.4879 3.87255C12.3725 3.98795 12.3077 4.14448 12.3077 4.30769V6.15384H10.4615C10.2983 6.15384 10.1418 6.21868 10.0264 6.33408C9.91099 6.44949 9.84615 6.60602 9.84615 6.76923C9.84615 6.93244 9.91099 7.08896 10.0264 7.20437C10.1418 7.31977 10.2983 7.38461 10.4615 7.38461H12.3077V9.23076C12.3077 9.39397 12.3725 9.5505 12.4879 9.6659C12.6033 9.78131 12.7599 9.84615 12.9231 9.84615C13.0863 9.84615 13.2428 9.78131 13.3582 9.6659C13.4736 9.5505 13.5385 9.39397 13.5385 9.23076V7.38461H15.3846C15.5478 7.38461 15.7044 7.31977 15.8198 7.20437C15.9352 7.08896 16 6.93244 16 6.76923C16 6.60602 15.9352 6.44949 15.8198 6.33408C15.7044 6.21868 15.5478 6.15384 15.3846 6.15384H13.5385V4.30769Z" fill="white" style="fill:white;fill-opacity:1;"/>
</svg>
