<svg width="16" height="16" viewBox="0 0 16 16" fill="none" xmlns="http://www.w3.org/2000/svg">
<path fill-rule="evenodd" clip-rule="evenodd" d="M13.4851 13.8232C14.2802 13.0761 14.9136 12.1739 15.3462 11.1723C15.7787 10.1707 16.0013 9.091 16 8C16 3.58154 12.4185 0 8 0C3.58154 0 5.34089e-06 3.58154 5.34089e-06 8C-0.00125702 9.091 0.22127 10.1707 0.653831 11.1723C1.08639 12.1739 1.71979 13.0761 2.51488 13.8232C3.99749 15.2237 5.96049 16.0027 8 16C10.0395 16.0027 12.0025 15.2237 13.4851 13.8232ZM3.1959 12.7688C3.77196 12.0481 4.50299 11.4664 5.33468 11.067C6.16637 10.6676 7.07736 10.4606 8 10.4615C8.92264 10.4606 9.83363 10.6676 10.6653 11.067C11.497 11.4664 12.228 12.0481 12.8041 12.7688C12.1756 13.4036 11.4273 13.9074 10.6026 14.2508C9.77797 14.5942 8.89331 14.7704 8 14.7692C7.10669 14.7704 6.22203 14.5942 5.39736 14.2508C4.57268 13.9074 3.82439 13.4036 3.1959 12.7688ZM11.0769 5.53846C11.0769 6.35451 10.7527 7.13714 10.1757 7.71417C9.59868 8.29121 8.81605 8.61538 8 8.61538C7.18395 8.61538 6.40132 8.29121 5.82429 7.71417C5.24725 7.13714 4.92308 6.35451 4.92308 5.53846C4.92308 4.72241 5.24725 3.93978 5.82429 3.36275C6.40132 2.78571 7.18395 2.46154 8 2.46154C8.81605 2.46154 9.59868 2.78571 10.1757 3.36275C10.7527 3.93978 11.0769 4.72241 11.0769 5.53846Z" fill="white" style="fill:white;fill-opacity:1;"/>
</svg>
