<svg width="14" height="15" viewBox="0 0 14 15" fill="none" xmlns="http://www.w3.org/2000/svg">
<path d="M12.85 10.5625C12.2529 10.5625 11.7667 10.0716 11.7667 9.46875V5.3125C11.7667 2.65863 9.6286 0.5 7 0.5C5.73622 0.50139 4.5246 1.00887 3.63098 1.91108C2.73735 2.8133 2.23471 4.03657 2.23333 5.3125V9.46875C2.23333 10.0716 1.74713 10.5625 1.15 10.5625C0.977609 10.5625 0.812279 10.6316 0.690381 10.7547C0.568482 10.8778 0.5 11.0447 0.5 11.2188C0.5 11.3928 0.568482 11.5597 0.690381 11.6828C0.812279 11.8059 0.977609 11.875 1.15 11.875H12.85C13.0224 11.875 13.1877 11.8059 13.3096 11.6828C13.4315 11.5597 13.5 11.3928 13.5 11.2188C13.5 11.0447 13.4315 10.8778 13.3096 10.7547C13.1877 10.6316 13.0224 10.5625 12.85 10.5625ZM5.96087 12.75C5.8964 12.75 5.83276 12.7646 5.77458 12.7926C5.7164 12.8206 5.66514 12.8614 5.62453 12.9119C5.58393 12.9625 5.55501 13.0215 5.53988 13.0848C5.52475 13.1481 5.52379 13.2139 5.53707 13.2776C5.687 13.9969 6.28933 14.5 7.00087 14.5C7.7124 14.5 8.31473 13.9969 8.46467 13.2776C8.47795 13.2139 8.47698 13.1481 8.46185 13.0848C8.44672 13.0215 8.4178 12.9625 8.3772 12.9119C8.3366 12.8614 8.28534 12.8206 8.22715 12.7926C8.16897 12.7646 8.10533 12.75 8.04087 12.75H5.96087Z" fill="white" style="fill:white;fill-opacity:1;"/>
</svg>
