<svg width="14" height="13" viewBox="0 0 14 13" fill="none" xmlns="http://www.w3.org/2000/svg">
<path d="M11.5938 0.5H2.40625C1.76822 0.500454 1.15645 0.748941 0.705286 1.19089C0.254127 1.63284 0.00046352 2.23213 0 2.85714V10.1429C0.00046352 10.7679 0.254127 11.3672 0.705286 11.8091C1.15645 12.2511 1.76822 12.4995 2.40625 12.5H11.5938C12.2318 12.4995 12.8436 12.2511 13.2947 11.8091C13.7459 11.3672 13.9995 10.7679 14 10.1429V2.85714C13.9995 2.23213 13.7459 1.63284 13.2947 1.19089C12.8436 0.748941 12.2318 0.500454 11.5938 0.5ZM3.9375 9.28571C3.9375 9.45621 3.86836 9.61972 3.74529 9.74028C3.62222 9.86084 3.4553 9.92857 3.28125 9.92857C3.1072 9.92857 2.94028 9.86084 2.81721 9.74028C2.69414 9.61972 2.625 9.45621 2.625 9.28571V3.71429C2.625 3.54379 2.69414 3.38028 2.81721 3.25972C2.94028 3.13916 3.1072 3.07143 3.28125 3.07143C3.4553 3.07143 3.62222 3.13916 3.74529 3.25972C3.86836 3.38028 3.9375 3.54379 3.9375 3.71429V9.28571ZM10.7188 7.14286H7.05337L7.90213 7.97429C8.02173 8.09547 8.08795 8.25783 8.08654 8.42639C8.08512 8.59494 8.01618 8.75621 7.89457 8.87546C7.77295 8.99471 7.60839 9.06239 7.43632 9.06394C7.26425 9.06548 7.09845 9.00076 6.97462 8.88371L5.00588 6.95514C4.94489 6.89544 4.89652 6.82456 4.86351 6.74653C4.8305 6.66851 4.81352 6.58488 4.81352 6.50043C4.81352 6.41597 4.8305 6.33234 4.86351 6.25432C4.89652 6.1763 4.94489 6.10541 5.00588 6.04571L6.97462 4.11714C7.09773 3.99655 7.26471 3.92879 7.43881 3.92879C7.61292 3.92879 7.77989 3.99655 7.903 4.11714C8.02611 4.23774 8.09527 4.40131 8.09527 4.57186C8.09527 4.74241 8.02611 4.90597 7.903 5.02657L7.05425 5.858H10.7196C10.8937 5.858 11.0606 5.92573 11.1837 6.04629C11.3067 6.16685 11.3759 6.33036 11.3759 6.50086C11.3759 6.67135 11.3067 6.83487 11.1837 6.95543C11.0606 7.07598 10.8937 7.14371 10.7196 7.14371L10.7188 7.14286Z" fill="white" style="fill:white;fill-opacity:1;"/>
</svg>
