<svg width="11" height="14" viewBox="0 0 11 14" fill="none" xmlns="http://www.w3.org/2000/svg">
<path fill-rule="evenodd" clip-rule="evenodd" d="M1.63636 0.5H3.68182C4.28458 0.5 4.86266 0.744578 5.28888 1.17993C5.7151 1.61528 5.95455 2.20575 5.95455 2.82143V3.98214C5.95455 4.62348 6.46364 5.14286 7.09091 5.14286H8.22727C8.83004 5.14286 9.40812 5.38744 9.83433 5.82279C10.2606 6.25814 10.5 6.8486 10.5 7.46429V12.3393C10.5 12.98 9.99091 13.5 9.36364 13.5H1.63636C1.33498 13.5 1.04594 13.3777 0.832833 13.16C0.619724 12.9424 0.5 12.6471 0.5 12.3393V1.66071C0.5 1.01938 1.00909 0.5 1.63636 0.5ZM5.82121 6.67191C5.73598 6.58496 5.62046 6.53612 5.5 6.53612C5.37955 6.53612 5.26402 6.58496 5.17879 6.67191L3.36061 8.52905C3.31595 8.57155 3.28013 8.62281 3.25528 8.67976C3.23044 8.73671 3.21708 8.79819 3.21601 8.86053C3.21493 8.92287 3.22616 8.9848 3.24902 9.04261C3.27188 9.10042 3.30591 9.15294 3.34907 9.19702C3.39223 9.24111 3.44365 9.27587 3.50024 9.29922C3.55684 9.32257 3.61747 9.33404 3.6785 9.33294C3.73953 9.33184 3.79972 9.31819 3.85548 9.29282C3.91123 9.26744 3.96142 9.23085 4.00303 9.18524L5.04545 8.12048V10.7143C5.04545 10.8374 5.09334 10.9555 5.17859 11.0426C5.26383 11.1297 5.37945 11.1786 5.5 11.1786C5.62055 11.1786 5.73617 11.1297 5.82141 11.0426C5.90666 10.9555 5.95455 10.8374 5.95455 10.7143V8.12048L6.99697 9.18524C7.03858 9.23085 7.08877 9.26744 7.14452 9.29282C7.20028 9.31819 7.26047 9.33184 7.3215 9.33294C7.38253 9.33404 7.44316 9.32257 7.49976 9.29922C7.55636 9.27587 7.60777 9.24111 7.65093 9.19702C7.6941 9.15294 7.72812 9.10042 7.75098 9.04261C7.77384 8.9848 7.78507 8.92287 7.784 8.86053C7.78292 8.79819 7.76956 8.73671 7.74472 8.67976C7.71987 8.62281 7.68405 8.57155 7.63939 8.52905L5.82121 6.67191Z" fill="white" style="fill:white;fill-opacity:1;"/>
<path d="M6.86364 2.82143C6.8647 2.04053 6.5894 1.28555 6.08848 0.695619C7.1026 0.967978 8.0277 1.51058 8.76916 2.26793C9.51062 3.02528 10.0418 3.9702 10.3085 5.00605C9.73093 4.4944 8.99179 4.2132 8.22727 4.21429H7.09091C7.03063 4.21429 6.97283 4.18983 6.9302 4.14629C6.88758 4.10276 6.86364 4.04371 6.86364 3.98214V2.82143Z" fill="white" style="fill:white;fill-opacity:1;"/>
</svg>
