<svg width="15" height="15" viewBox="0 0 15 15" fill="none" xmlns="http://www.w3.org/2000/svg">
<path fill-rule="evenodd" clip-rule="evenodd" d="M7.36769 8.32726e-08C6.66308 8.32726e-08 6.06077 0.51 5.94462 1.20538L5.87462 1.62769C5.85521 1.7337 5.80825 1.83273 5.73844 1.91483C5.66863 1.99692 5.57843 2.0592 5.47692 2.09538C5.35263 2.14188 5.22999 2.19268 5.10923 2.24769C5.01184 2.29399 4.90397 2.31382 4.79648 2.30518C4.68898 2.29654 4.58567 2.25973 4.49692 2.19846L4.14846 1.94923C3.87061 1.75072 3.53134 1.65723 3.19102 1.6854C2.85071 1.71358 2.53143 1.86158 2.29 2.10308L2.10308 2.29C1.86158 2.53143 1.71358 2.85071 1.6854 3.19102C1.65723 3.53134 1.75072 3.87061 1.94923 4.14846L2.19846 4.49692C2.25973 4.58567 2.29654 4.68898 2.30518 4.79648C2.31382 4.90397 2.29399 5.01184 2.24769 5.10923C2.19268 5.22999 2.14188 5.35263 2.09538 5.47692C2.0592 5.57843 1.99692 5.66863 1.91483 5.73844C1.83273 5.80825 1.7337 5.85521 1.62769 5.87462L1.20462 5.94538C0.868014 6.00163 0.562258 6.1754 0.341699 6.43582C0.12114 6.69624 6.60949e-05 7.02642 0 7.36769V7.63231C0 8.33692 0.51 8.93923 1.20538 9.05538L1.62769 9.12538C1.84385 9.16154 2.01846 9.31769 2.09538 9.52308C2.14154 9.64769 2.19308 9.77 2.24769 9.89077C2.29399 9.98816 2.31382 10.096 2.30518 10.2035C2.29654 10.311 2.25973 10.4143 2.19846 10.5031L1.94923 10.8515C1.75072 11.1294 1.65723 11.4687 1.6854 11.809C1.71358 12.1493 1.86158 12.4686 2.10308 12.71L2.29 12.8969C2.78846 13.3954 3.57462 13.4608 4.14846 13.0508L4.49692 12.8015C4.58567 12.7403 4.68898 12.7035 4.79648 12.6948C4.90397 12.6862 5.01184 12.706 5.10923 12.7523C5.23 12.8069 5.35231 12.8577 5.47692 12.9046C5.68231 12.9815 5.83846 13.1562 5.87462 13.3723L5.94538 13.7954C6.06077 14.49 6.66231 15 7.36769 15H7.63231C8.33692 15 8.93923 14.49 9.05538 13.7946L9.12538 13.3723C9.14479 13.2663 9.19175 13.1673 9.26156 13.0852C9.33137 13.0031 9.42157 12.9408 9.52308 12.9046C9.64735 12.8581 9.76999 12.8073 9.89077 12.7523C9.98816 12.706 10.096 12.6862 10.2035 12.6948C10.311 12.7035 10.4143 12.7403 10.5031 12.8015L10.8515 13.0508C11.1294 13.2493 11.4687 13.3428 11.809 13.3146C12.1493 13.2864 12.4686 13.1384 12.71 12.8969L12.8969 12.71C13.3954 12.2115 13.4608 11.4254 13.0508 10.8515L12.8015 10.5031C12.7403 10.4143 12.7035 10.311 12.6948 10.2035C12.6862 10.096 12.706 9.98816 12.7523 9.89077C12.8069 9.77 12.8577 9.64769 12.9046 9.52308C12.9815 9.31769 13.1562 9.16154 13.3723 9.12538L13.7954 9.05538C14.1321 8.99912 14.438 8.82524 14.6585 8.56466C14.8791 8.30408 15.0001 7.97371 15 7.63231V7.36769C15 6.66308 14.49 6.06077 13.7946 5.94462L13.3723 5.87462C13.2663 5.85521 13.1673 5.80825 13.0852 5.73844C13.0031 5.66863 12.9408 5.57843 12.9046 5.47692C12.8581 5.35265 12.8073 5.23001 12.7523 5.10923C12.706 5.01184 12.6862 4.90397 12.6948 4.79648C12.7035 4.68898 12.7403 4.58567 12.8015 4.49692L13.0508 4.14846C13.2493 3.87061 13.3428 3.53134 13.3146 3.19102C13.2864 2.85071 13.1384 2.53143 12.8969 2.29L12.71 2.10308C12.4686 1.86158 12.1493 1.71358 11.809 1.6854C11.4687 1.65723 11.1294 1.75072 10.8515 1.94923L10.5031 2.19846C10.4143 2.25973 10.311 2.29654 10.2035 2.30518C10.096 2.31382 9.98816 2.29399 9.89077 2.24769C9.77 2.19269 9.64736 2.14189 9.52308 2.09538C9.42157 2.0592 9.33137 1.99692 9.26156 1.91483C9.19175 1.83273 9.14479 1.7337 9.12538 1.62769L9.05538 1.20462C8.99912 0.867883 8.82524 0.562026 8.56466 0.34145C8.30408 0.120875 7.97371 -0.000115874 7.63231 8.32726e-08H7.36769ZM7.5 10.3846C8.26505 10.3846 8.99876 10.0807 9.53973 9.53973C10.0807 8.99876 10.3846 8.26505 10.3846 7.5C10.3846 6.73495 10.0807 6.00124 9.53973 5.46027C8.99876 4.9193 8.26505 4.61538 7.5 4.61538C6.73495 4.61538 6.00124 4.9193 5.46027 5.46027C4.9193 6.00124 4.61538 6.73495 4.61538 7.5C4.61538 8.26505 4.9193 8.99876 5.46027 9.53973C6.00124 10.0807 6.73495 10.3846 7.5 10.3846Z" fill="white" style="fill:white;fill-opacity:1;"/>
</svg>
