<svg width="11" height="14" viewBox="0 0 11 14" fill="none" xmlns="http://www.w3.org/2000/svg">
<path d="M6.36136 12.5903C6.48123 12.5783 6.60146 12.6121 6.69509 12.6845C6.78872 12.7569 6.84824 12.8619 6.86077 12.9762C6.8733 13.0905 6.83786 13.2052 6.76196 13.2944C6.68605 13.3836 6.57585 13.4405 6.45604 13.4524C5.82038 13.5159 5.17925 13.5159 4.5436 13.4524C4.48431 13.4465 4.42677 13.4293 4.37436 13.4022C4.32203 13.3751 4.2758 13.3385 4.23827 13.2944C4.20068 13.2502 4.17241 13.1989 4.15543 13.1443C4.1385 13.0899 4.13266 13.0327 4.13886 12.9762C4.14505 12.9197 4.16313 12.8648 4.19152 12.8148C4.21997 12.7648 4.25877 12.7203 4.30513 12.6845C4.35145 12.6487 4.4048 12.6217 4.46194 12.6055C4.51906 12.5894 4.57901 12.5844 4.63827 12.5903C5.21104 12.6473 5.78859 12.6473 6.36136 12.5903Z" fill="white" style="fill:white;fill-opacity:1;"/>
<path d="M6.959 11.2164C7.01875 11.2269 7.07573 11.2488 7.12646 11.2807C7.17713 11.3126 7.22059 11.3538 7.25427 11.402C7.28797 11.4502 7.31156 11.5047 7.32291 11.5617C7.3342 11.6185 7.33331 11.6772 7.32054 11.7338C7.30775 11.7903 7.28317 11.8438 7.24835 11.8912C7.21343 11.9386 7.16852 11.979 7.11699 12.0097C7.06555 12.0403 7.00824 12.0609 6.94835 12.0701C5.99146 12.2432 5.00877 12.2432 4.05188 12.0701C3.93355 12.0486 3.82917 11.9833 3.76134 11.8884C3.69352 11.7935 3.66799 11.6768 3.69034 11.5639C3.70148 11.5081 3.72392 11.4546 3.75661 11.4071C3.7893 11.3596 3.83163 11.3189 3.88087 11.2869C3.93022 11.2549 3.98574 11.2319 4.04418 11.2203C4.1026 11.2088 4.16309 11.2086 4.2217 11.2192C5.06643 11.372 5.9338 11.372 6.77852 11.2192C6.83787 11.2067 6.89925 11.2058 6.959 11.2164Z" fill="white" style="fill:white;fill-opacity:1;"/>
<path d="M5.49982 0.5C6.59982 0.499764 7.66944 0.845311 8.54244 1.48345C9.41546 2.12161 10.0434 3.01682 10.3288 4.02981C10.6143 5.04278 10.5412 6.11738 10.1212 7.0868C9.70111 8.0562 8.95716 8.86619 8.00516 9.39167C7.58961 9.62158 7.33037 9.97417 7.31817 10.3294C7.315 10.4246 7.279 10.5164 7.21581 10.5901C7.15262 10.6638 7.0656 10.7154 6.96847 10.7373C6.75531 10.7853 6.53858 10.823 6.31817 10.8502C6.12248 10.8739 5.95431 10.7242 5.95426 10.5354V7.84286C6.14574 7.8226 6.33577 7.78946 6.52231 7.74356C6.58149 7.7307 6.63753 7.70682 6.68681 7.67303C6.73611 7.63922 6.77767 7.59608 6.80929 7.54664C6.84093 7.49717 6.86189 7.44202 6.87083 7.38471C6.87977 7.32741 6.87652 7.26872 6.86136 7.21262C6.8462 7.15661 6.81947 7.10401 6.78267 7.05802C6.7458 7.01196 6.69933 6.97335 6.64657 6.94461C6.5939 6.91595 6.53578 6.89734 6.47556 6.89044C6.41529 6.88356 6.35401 6.88855 6.29568 6.90455C5.77389 7.03278 5.22634 7.03275 4.70454 6.90455C4.64674 6.89036 4.58613 6.88697 4.52703 6.89496C4.46803 6.90295 4.41148 6.9225 4.36016 6.95138C4.3088 6.9803 4.26347 7.01821 4.22762 7.06366C4.1918 7.1091 4.16558 7.16097 4.15069 7.216C4.13581 7.27113 4.13285 7.32892 4.14123 7.38527C4.14962 7.44157 4.16948 7.49599 4.19981 7.54495C4.23014 7.59386 4.27051 7.63662 4.31815 7.67077C4.36582 7.70491 4.42018 7.72995 4.47792 7.74412C4.66438 7.7898 4.85401 7.82279 5.04537 7.84286V10.5359C5.04533 10.7242 4.87768 10.8738 4.68206 10.8502C4.4615 10.823 4.24445 10.7853 4.03117 10.7373C3.934 10.7154 3.84702 10.6638 3.78383 10.5901C3.72063 10.5164 3.68464 10.4246 3.68146 10.3294C3.66987 9.97414 3.41006 9.62158 2.99447 9.39167C2.04248 8.86618 1.29851 8.05621 0.878481 7.0868C0.458445 6.11736 0.385945 5.0428 0.671379 4.02981C0.956808 3.01685 1.58421 2.12161 2.45719 1.48345C3.33018 0.845303 4.39982 0.499783 5.49982 0.5Z" fill="white" style="fill:white;fill-opacity:1;"/>
</svg>
