<svg width="15" height="13" viewBox="0 0 15 13" fill="none" xmlns="http://www.w3.org/2000/svg">
<path fill-rule="evenodd" clip-rule="evenodd" d="M12.8657 0.503125C14.0546 0.567371 15 1.61592 15 2.9V10.1L14.9971 10.2234C14.9388 11.4507 14.0163 12.4347 12.8657 12.4969L12.75 12.5H2.25L2.13428 12.4969C0.983745 12.4347 0.0612189 11.4507 0.00292969 10.2234L0 10.1V2.9C0 1.61592 0.945416 0.567372 2.13428 0.503125L2.25 0.5H12.75L12.8657 0.503125ZM2.25 1.7C1.62868 1.7 1.125 2.23726 1.125 2.9V10.1C1.125 10.7627 1.62868 11.3 2.25 11.3H5.25V1.7H2.25ZM6.375 11.3H12.75C13.3713 11.3 13.875 10.7627 13.875 10.1V2.9C13.875 2.23726 13.3713 1.7 12.75 1.7H6.375V11.3Z" fill="white" style="fill:white;fill-opacity:1;"/>
<path d="M4.15771 6.74C4.19486 6.74006 4.22481 6.77212 4.22495 6.81172V7.38828C4.22481 7.42788 4.19486 7.45994 4.15771 7.46H2.26785C2.23066 7.46 2.20009 7.42792 2.19995 7.38828V6.81172C2.20009 6.77208 2.23066 6.74 2.26785 6.74H4.15771Z" fill="white" style="fill:white;fill-opacity:1;"/>
<path d="M4.15771 5C4.19486 5.00006 4.22481 5.03212 4.22495 5.07172V5.64828C4.22481 5.68788 4.19486 5.71994 4.15771 5.72H2.26785C2.23066 5.72 2.20009 5.68792 2.19995 5.64828V5.07172C2.20009 5.03208 2.23066 5 2.26785 5H4.15771Z" fill="white" style="fill:white;fill-opacity:1;"/>
<path d="M4.15771 3.26025C4.19486 3.26031 4.22481 3.29237 4.22495 3.33197V3.90854C4.22481 3.94813 4.19486 3.9802 4.15771 3.98025H2.26785C2.23066 3.98025 2.20009 3.94817 2.19995 3.90854V3.33197C2.20009 3.29234 2.23066 3.26025 2.26785 3.26025H4.15771Z" fill="white" style="fill:white;fill-opacity:1;"/>
</svg>
