<svg width="15" height="15" viewBox="0 0 15 15" fill="none" xmlns="http://www.w3.org/2000/svg">
<path fill-rule="evenodd" clip-rule="evenodd" d="M0 1.44231C0 0.645385 0.646154 0 1.44231 0H5.48077C6.27769 0 6.92308 0.646154 6.92308 1.44231V11.5385C6.92308 12.4565 6.55838 13.337 5.90922 13.9861C5.26005 14.6353 4.3796 15 3.46154 15C2.54348 15 1.66303 14.6353 1.01386 13.9861C0.364697 13.337 0 12.4565 0 11.5385V1.44231ZM3.46154 12.4038C3.69105 12.4038 3.91117 12.3127 4.07346 12.1504C4.23575 11.9881 4.32692 11.768 4.32692 11.5385C4.32692 11.3089 4.23575 11.0888 4.07346 10.9265C3.91117 10.7642 3.69105 10.6731 3.46154 10.6731C3.23203 10.6731 3.01191 10.7642 2.84962 10.9265C2.68733 11.0888 2.59615 11.3089 2.59615 11.5385C2.59615 11.768 2.68733 11.9881 2.84962 12.1504C3.01191 12.3127 3.23203 12.4038 3.46154 12.4038Z" fill="white" style="fill:white;fill-opacity:1;"/>
<path d="M6.51461 14.9999H13.5577C14.3546 14.9999 15 14.3538 15 13.5576V9.51915C15 8.72222 14.3538 8.07684 13.5577 8.07684H13.45L6.72538 14.8022C6.65615 14.8707 6.58692 14.9368 6.51461 14.9999ZM8.06769 11.8268L13.0477 6.84684C13.318 6.57637 13.4699 6.20962 13.4699 5.82722C13.4699 5.44482 13.318 5.07807 13.0477 4.80761L10.1923 1.95145C9.92184 1.68112 9.55509 1.52926 9.17269 1.52926C8.79029 1.52926 8.42354 1.68112 8.15308 1.95145L8.07615 2.02761V11.5384C8.07615 11.6353 8.07308 11.7315 8.06769 11.8268Z" fill="white" style="fill:white;fill-opacity:1;"/>
</svg>
