<svg width="16" height="15" viewBox="0 0 16 15" fill="none" xmlns="http://www.w3.org/2000/svg">
<path d="M11.124 5.4109H15L12.5301 2.90351C11.735 2.09676 10.7445 1.5166 9.65825 1.22136C8.57202 0.926127 7.42831 0.926213 6.34212 1.22161C5.25593 1.51702 4.26552 2.09732 3.47048 2.90419C2.67543 3.71107 2.10376 4.71607 1.81293 5.81817M1.00078 13.5215V9.5891M1.00078 9.5891H4.87677M1.00078 9.5891L3.46986 12.0965C4.26502 12.9032 5.25551 13.4834 6.34175 13.7786C7.42798 14.0739 8.57169 14.0738 9.65788 13.7784C10.7441 13.483 11.7345 12.9027 12.5295 12.0958C13.3246 11.2889 13.8962 10.2839 14.1871 9.18183M15 1.47848V5.40933" stroke="white" style="stroke:white;stroke-opacity:1;" stroke-width="1.3" stroke-linecap="round" stroke-linejoin="round"/>
</svg>
