<svg width="13" height="15" viewBox="0 0 13 15" fill="none" xmlns="http://www.w3.org/2000/svg">
<path d="M5.52777 13.5V3.91388L2.32621 7.2069C1.94652 7.59742 1.33108 7.59742 0.951387 7.2069C0.571706 6.81636 0.571706 6.18334 0.951387 5.79282L5.81261 0.79274L5.88667 0.724379C6.26855 0.404025 6.83148 0.426615 7.18744 0.79274L12.0487 5.79282L12.1151 5.86899C12.4266 6.26176 12.4046 6.84077 12.0487 7.2069C11.6927 7.57301 11.1297 7.59561 10.7479 7.27526L10.6738 7.2069L7.47227 3.91388V13.5C7.47227 14.0523 7.03698 14.5 6.50002 14.5C5.96307 14.5 5.52778 14.0523 5.52777 13.5Z" fill="white" style="fill:white;fill-opacity:1;"/>
</svg>
