<svg width="24" height="24" viewBox="0 0 26 26" fill="none" xmlns="http://www.w3.org/2000/svg">
<g filter="url(#filter0_d_17_295)">
<path fill-rule="evenodd" clip-rule="evenodd" d="M10.7501 5.17338C10.8332 5.25641 10.8897 5.36225 10.9125 5.47746C10.9353 5.59267 10.9233 5.71205 10.8781 5.82045C10.5169 6.68732 10.3316 7.61734 10.333 8.55645C10.333 10.4423 11.0821 12.2509 12.4156 13.5844C13.7491 14.9179 15.5578 15.667 17.4436 15.667C18.3827 15.6684 19.3128 15.4831 20.1796 15.1219C20.2879 15.0768 20.4072 15.0649 20.5223 15.0876C20.6375 15.1104 20.7432 15.1668 20.8262 15.2497C20.9092 15.3326 20.9658 15.4383 20.9886 15.5534C21.0115 15.6685 20.9997 15.7878 20.9547 15.8962C20.3242 17.4078 19.2606 18.699 17.8977 19.6072C16.5347 20.5154 14.9335 21.0001 13.2957 21C8.71412 21 5 17.2867 5 12.7043C5 9.25329 7.10712 6.29528 10.1039 5.04539C10.2122 5.00037 10.3314 4.98851 10.4464 5.01129C10.5615 5.03407 10.6672 5.09049 10.7501 5.17338Z" fill="#878787" style="fill:#878787;fill:color(display-p3 0.5300 0.5300 0.5300);fill-opacity:1;"/>
<path fill-rule="evenodd" clip-rule="evenodd" d="M10.7501 5.17338C10.8332 5.25641 10.8897 5.36225 10.9125 5.47746C10.9353 5.59267 10.9233 5.71205 10.8781 5.82045C10.5169 6.68732 10.3316 7.61734 10.333 8.55645C10.333 10.4423 11.0821 12.2509 12.4156 13.5844C13.7491 14.9179 15.5578 15.667 17.4436 15.667C18.3827 15.6684 19.3128 15.4831 20.1796 15.1219C20.2879 15.0768 20.4072 15.0649 20.5223 15.0876C20.6375 15.1104 20.7432 15.1668 20.8262 15.2497C20.9092 15.3326 20.9658 15.4383 20.9886 15.5534C21.0115 15.6685 20.9997 15.7878 20.9547 15.8962C20.3242 17.4078 19.2606 18.699 17.8977 19.6072C16.5347 20.5154 14.9335 21.0001 13.2957 21C8.71412 21 5 17.2867 5 12.7043C5 9.25329 7.10712 6.29528 10.1039 5.04539C10.2122 5.00037 10.3314 4.98851 10.4464 5.01129C10.5615 5.03407 10.6672 5.09049 10.7501 5.17338Z" fill="url(#paint0_linear_17_295)" fill-opacity="0.5" style=""/>
</g>
<defs>
<filter id="filter0_d_17_295" x="0" y="0" width="26" height="26" filterUnits="userSpaceOnUse" color-interpolation-filters="sRGB">
<feFlood flood-opacity="0" result="BackgroundImageFix"/>
<feColorMatrix in="SourceAlpha" type="matrix" values="0 0 0 0 0 0 0 0 0 0 0 0 0 0 0 0 0 0 127 0" result="hardAlpha"/>
<feOffset/>
<feGaussianBlur stdDeviation="2.5"/>
<feComposite in2="hardAlpha" operator="out"/>
<feColorMatrix type="matrix" values="0 0 0 0 0 0 0 0 0 0 0 0 0 0 0 0 0 0 0.35 0"/>
<feBlend mode="normal" in2="BackgroundImageFix" result="effect1_dropShadow_17_295"/>
<feBlend mode="normal" in="SourceGraphic" in2="effect1_dropShadow_17_295" result="shape"/>
</filter>
<linearGradient id="paint0_linear_17_295" x1="13" y1="5" x2="13" y2="21" gradientUnits="userSpaceOnUse">
<stop stop-opacity="0.2" style="stop-color:black;stop-opacity:0.2;"/>
<stop offset="1" style="stop-color:black;stop-opacity:1;"/>
</linearGradient>
</defs>
</svg>
