<svg width="26" height="26" viewBox="0 0 30 30" fill="none" xmlns="http://www.w3.org/2000/svg">
<g filter="url(#filter0_d_17_293)">
<path d="M15 5C15.204 5 15.3997 5.08104 15.5439 5.2253C15.6882 5.36956 15.7692 5.56522 15.7692 5.76923V7.1978C15.7692 7.40181 15.6882 7.59747 15.5439 7.74173C15.3997 7.88599 15.204 7.96703 15 7.96703C14.796 7.96703 14.6003 7.88599 14.4561 7.74173C14.3118 7.59747 14.2308 7.40181 14.2308 7.1978V5.76923C14.2308 5.56522 14.3118 5.36956 14.4561 5.2253C14.6003 5.08104 14.796 5 15 5Z" fill="#878787" style="fill:#878787;fill:color(display-p3 0.5300 0.5300 0.5300);fill-opacity:1;"/>
<path d="M15 5C15.204 5 15.3997 5.08104 15.5439 5.2253C15.6882 5.36956 15.7692 5.56522 15.7692 5.76923V7.1978C15.7692 7.40181 15.6882 7.59747 15.5439 7.74173C15.3997 7.88599 15.204 7.96703 15 7.96703C14.796 7.96703 14.6003 7.88599 14.4561 7.74173C14.3118 7.59747 14.2308 7.40181 14.2308 7.1978V5.76923C14.2308 5.56522 14.3118 5.36956 14.4561 5.2253C14.6003 5.08104 14.796 5 15 5Z" fill="url(#paint0_linear_17_293)" fill-opacity="0.5" style=""/>
<path d="M15 22.033C15.204 22.033 15.3997 22.114 15.5439 22.2583C15.6882 22.4025 15.7692 22.5982 15.7692 22.8022V24.2308C15.7692 24.4348 15.6882 24.6304 15.5439 24.7747C15.3997 24.919 15.204 25 15 25C14.796 25 14.6003 24.919 14.4561 24.7747C14.3118 24.6304 14.2308 24.4348 14.2308 24.2308V22.8022C14.2308 22.5982 14.3118 22.4025 14.4561 22.2583C14.6003 22.114 14.796 22.033 15 22.033Z" fill="#878787" style="fill:#878787;fill:color(display-p3 0.5300 0.5300 0.5300);fill-opacity:1;"/>
<path d="M15 22.033C15.204 22.033 15.3997 22.114 15.5439 22.2583C15.6882 22.4025 15.7692 22.5982 15.7692 22.8022V24.2308C15.7692 24.4348 15.6882 24.6304 15.5439 24.7747C15.3997 24.919 15.204 25 15 25C14.796 25 14.6003 24.919 14.4561 24.7747C14.3118 24.6304 14.2308 24.4348 14.2308 24.2308V22.8022C14.2308 22.5982 14.3118 22.4025 14.4561 22.2583C14.6003 22.114 14.796 22.033 15 22.033Z" fill="url(#paint1_linear_17_293)" fill-opacity="0.5" style=""/>
<path d="M22.0714 7.93953C22.2156 8.08379 22.2967 8.27945 22.2967 8.48346C22.2967 8.68747 22.2156 8.88313 22.0714 9.02739L21.0612 10.0375C20.917 10.1818 20.7213 10.2628 20.5173 10.2628C20.3133 10.2628 20.1176 10.1818 19.9734 10.0375C19.8291 9.89328 19.7481 9.69762 19.7481 9.49361C19.7481 9.2896 19.8291 9.09394 19.9734 8.94968L20.9835 7.93953C21.1278 7.79527 21.3234 7.71423 21.5275 7.71423C21.7315 7.71423 21.9271 7.79527 22.0714 7.93953Z" fill="#878787" style="fill:#878787;fill:color(display-p3 0.5300 0.5300 0.5300);fill-opacity:1;"/>
<path d="M22.0714 7.93953C22.2156 8.08379 22.2967 8.27945 22.2967 8.48346C22.2967 8.68747 22.2156 8.88313 22.0714 9.02739L21.0612 10.0375C20.917 10.1818 20.7213 10.2628 20.5173 10.2628C20.3133 10.2628 20.1176 10.1818 19.9734 10.0375C19.8291 9.89328 19.7481 9.69762 19.7481 9.49361C19.7481 9.2896 19.8291 9.09394 19.9734 8.94968L20.9835 7.93953C21.1278 7.79527 21.3234 7.71423 21.5275 7.71423C21.7315 7.71423 21.9271 7.79527 22.0714 7.93953Z" fill="url(#paint2_linear_17_293)" fill-opacity="0.5" style=""/>
<path d="M7.88547 7.93953C7.74121 8.08379 7.66017 8.27945 7.66017 8.48346C7.66017 8.68747 7.74121 8.88313 7.88547 9.02739L8.89562 10.0375C9.03988 10.1818 9.23554 10.2628 9.43955 10.2628C9.64356 10.2628 9.83922 10.1818 9.98348 10.0375C10.1277 9.89328 10.2088 9.69762 10.2088 9.49361C10.2088 9.2896 10.1277 9.09394 9.98348 8.94968L8.97333 7.93953C8.82907 7.79527 8.63341 7.71423 8.4294 7.71423C8.22539 7.71423 8.02973 7.79527 7.88547 7.93953Z" fill="#878787" style="fill:#878787;fill:color(display-p3 0.5300 0.5300 0.5300);fill-opacity:1;"/>
<path d="M7.88547 7.93953C7.74121 8.08379 7.66017 8.27945 7.66017 8.48346C7.66017 8.68747 7.74121 8.88313 7.88547 9.02739L8.89562 10.0375C9.03988 10.1818 9.23554 10.2628 9.43955 10.2628C9.64356 10.2628 9.83922 10.1818 9.98348 10.0375C10.1277 9.89328 10.2088 9.69762 10.2088 9.49361C10.2088 9.2896 10.1277 9.09394 9.98348 8.94968L8.97333 7.93953C8.82907 7.79527 8.63341 7.71423 8.4294 7.71423C8.22539 7.71423 8.02973 7.79527 7.88547 7.93953Z" fill="url(#paint3_linear_17_293)" fill-opacity="0.5" style=""/>
<path d="M19.9734 19.9395C19.8291 20.0838 19.7481 20.2794 19.7481 20.4835C19.7481 20.6875 19.8291 20.8831 19.9734 21.0274L20.9835 22.0375C21.1278 22.1818 21.3234 22.2628 21.5275 22.2628C21.7315 22.2628 21.9271 22.1818 22.0714 22.0375C22.2156 21.8933 22.2967 21.6976 22.2967 21.4936C22.2967 21.2896 22.2156 21.0939 22.0714 20.9497L21.0612 19.9395C20.917 19.7953 20.7213 19.7142 20.5173 19.7142C20.3133 19.7142 20.1176 19.7953 19.9734 19.9395Z" fill="#878787" style="fill:#878787;fill:color(display-p3 0.5300 0.5300 0.5300);fill-opacity:1;"/>
<path d="M19.9734 19.9395C19.8291 20.0838 19.7481 20.2794 19.7481 20.4835C19.7481 20.6875 19.8291 20.8831 19.9734 21.0274L20.9835 22.0375C21.1278 22.1818 21.3234 22.2628 21.5275 22.2628C21.7315 22.2628 21.9271 22.1818 22.0714 22.0375C22.2156 21.8933 22.2967 21.6976 22.2967 21.4936C22.2967 21.2896 22.2156 21.0939 22.0714 20.9497L21.0612 19.9395C20.917 19.7953 20.7213 19.7142 20.5173 19.7142C20.3133 19.7142 20.1176 19.7953 19.9734 19.9395Z" fill="url(#paint4_linear_17_293)" fill-opacity="0.5" style=""/>
<path d="M9.98348 19.9395C10.1277 20.0838 10.2088 20.2794 10.2088 20.4835C10.2088 20.6875 10.1277 20.8831 9.98348 21.0274L8.97333 22.0375C8.82907 22.1818 8.63341 22.2628 8.4294 22.2628C8.22538 22.2628 8.02973 22.1818 7.88547 22.0375C7.74121 21.8933 7.66017 21.6976 7.66017 21.4936C7.66017 21.2896 7.74121 21.0939 7.88547 20.9497L8.89562 19.9395C9.03988 19.7953 9.23554 19.7142 9.43955 19.7142C9.64356 19.7142 9.83922 19.7953 9.98348 19.9395Z" fill="#878787" style="fill:#878787;fill:color(display-p3 0.5300 0.5300 0.5300);fill-opacity:1;"/>
<path d="M9.98348 19.9395C10.1277 20.0838 10.2088 20.2794 10.2088 20.4835C10.2088 20.6875 10.1277 20.8831 9.98348 21.0274L8.97333 22.0375C8.82907 22.1818 8.63341 22.2628 8.4294 22.2628C8.22538 22.2628 8.02973 22.1818 7.88547 22.0375C7.74121 21.8933 7.66017 21.6976 7.66017 21.4936C7.66017 21.2896 7.74121 21.0939 7.88547 20.9497L8.89562 19.9395C9.03988 19.7953 9.23554 19.7142 9.43955 19.7142C9.64356 19.7142 9.83922 19.7953 9.98348 19.9395Z" fill="url(#paint5_linear_17_293)" fill-opacity="0.5" style=""/>
<path d="M25 15C25 15.204 24.919 15.3997 24.7747 15.5439C24.6304 15.6882 24.4348 15.7692 24.2308 15.7692H22.8022C22.5982 15.7692 22.4025 15.6882 22.2583 15.5439C22.114 15.3997 22.033 15.204 22.033 15C22.033 14.796 22.114 14.6003 22.2583 14.4561C22.4025 14.3118 22.5982 14.2308 22.8022 14.2308H24.2308C24.4348 14.2308 24.6304 14.3118 24.7747 14.4561C24.919 14.6003 25 14.796 25 15Z" fill="#878787" style="fill:#878787;fill:color(display-p3 0.5300 0.5300 0.5300);fill-opacity:1;"/>
<path d="M25 15C25 15.204 24.919 15.3997 24.7747 15.5439C24.6304 15.6882 24.4348 15.7692 24.2308 15.7692H22.8022C22.5982 15.7692 22.4025 15.6882 22.2583 15.5439C22.114 15.3997 22.033 15.204 22.033 15C22.033 14.796 22.114 14.6003 22.2583 14.4561C22.4025 14.3118 22.5982 14.2308 22.8022 14.2308H24.2308C24.4348 14.2308 24.6304 14.3118 24.7747 14.4561C24.919 14.6003 25 14.796 25 15Z" fill="url(#paint6_linear_17_293)" fill-opacity="0.5" style=""/>
<path d="M7.96703 15C7.96703 15.204 7.88599 15.3997 7.74173 15.5439C7.59747 15.6882 7.40181 15.7692 7.1978 15.7692H5.76923C5.56522 15.7692 5.36956 15.6882 5.2253 15.5439C5.08104 15.3997 5 15.204 5 15C5 14.796 5.08104 14.6003 5.2253 14.4561C5.36956 14.3118 5.56522 14.2308 5.76923 14.2308H7.1978C7.40181 14.2308 7.59747 14.3118 7.74173 14.4561C7.88599 14.6003 7.96703 14.796 7.96703 15Z" fill="#878787" style="fill:#878787;fill:color(display-p3 0.5300 0.5300 0.5300);fill-opacity:1;"/>
<path d="M7.96703 15C7.96703 15.204 7.88599 15.3997 7.74173 15.5439C7.59747 15.6882 7.40181 15.7692 7.1978 15.7692H5.76923C5.56522 15.7692 5.36956 15.6882 5.2253 15.5439C5.08104 15.3997 5 15.204 5 15C5 14.796 5.08104 14.6003 5.2253 14.4561C5.36956 14.3118 5.56522 14.2308 5.76923 14.2308H7.1978C7.40181 14.2308 7.59747 14.3118 7.74173 14.4561C7.88599 14.6003 7.96703 14.796 7.96703 15Z" fill="url(#paint7_linear_17_293)" fill-opacity="0.5" style=""/>
<path d="M9.4745 15.1099C9.4745 13.6153 10.0682 12.1819 11.1251 11.1251C12.1819 10.0682 13.6153 9.4745 15.1099 9.4745C16.6045 9.4745 18.0379 10.0682 19.0947 11.1251C20.1515 12.1819 20.7453 13.6153 20.7453 15.1099C20.7453 16.6045 20.1515 18.0379 19.0947 19.0947C18.0379 20.1515 16.6045 20.7453 15.1099 20.7453C13.6153 20.7453 12.1819 20.1515 11.1251 19.0947C10.0682 18.0379 9.4745 16.6045 9.4745 15.1099Z" fill="#878787" style="fill:#878787;fill:color(display-p3 0.5300 0.5300 0.5300);fill-opacity:1;"/>
<path d="M9.4745 15.1099C9.4745 13.6153 10.0682 12.1819 11.1251 11.1251C12.1819 10.0682 13.6153 9.4745 15.1099 9.4745C16.6045 9.4745 18.0379 10.0682 19.0947 11.1251C20.1515 12.1819 20.7453 13.6153 20.7453 15.1099C20.7453 16.6045 20.1515 18.0379 19.0947 19.0947C18.0379 20.1515 16.6045 20.7453 15.1099 20.7453C13.6153 20.7453 12.1819 20.1515 11.1251 19.0947C10.0682 18.0379 9.4745 16.6045 9.4745 15.1099Z" fill="url(#paint8_linear_17_293)" fill-opacity="0.5" style=""/>
</g>
<defs>
<filter id="filter0_d_17_293" x="0" y="0" width="30" height="30" filterUnits="userSpaceOnUse" color-interpolation-filters="sRGB">
<feFlood flood-opacity="0" result="BackgroundImageFix"/>
<feColorMatrix in="SourceAlpha" type="matrix" values="0 0 0 0 0 0 0 0 0 0 0 0 0 0 0 0 0 0 127 0" result="hardAlpha"/>
<feOffset/>
<feGaussianBlur stdDeviation="2.5"/>
<feComposite in2="hardAlpha" operator="out"/>
<feColorMatrix type="matrix" values="0 0 0 0 0 0 0 0 0 0 0 0 0 0 0 0 0 0 0.35 0"/>
<feBlend mode="normal" in2="BackgroundImageFix" result="effect1_dropShadow_17_293"/>
<feBlend mode="normal" in="SourceGraphic" in2="effect1_dropShadow_17_293" result="shape"/>
</filter>
<linearGradient id="paint0_linear_17_293" x1="15" y1="5" x2="15" y2="25" gradientUnits="userSpaceOnUse">
<stop stop-opacity="0.2" style="stop-color:black;stop-opacity:0.2;"/>
<stop offset="1" style="stop-color:black;stop-opacity:1;"/>
</linearGradient>
<linearGradient id="paint1_linear_17_293" x1="15" y1="5" x2="15" y2="25" gradientUnits="userSpaceOnUse">
<stop stop-opacity="0.2" style="stop-color:black;stop-opacity:0.2;"/>
<stop offset="1" style="stop-color:black;stop-opacity:1;"/>
</linearGradient>
<linearGradient id="paint2_linear_17_293" x1="15" y1="5" x2="15" y2="25" gradientUnits="userSpaceOnUse">
<stop stop-opacity="0.2" style="stop-color:black;stop-opacity:0.2;"/>
<stop offset="1" style="stop-color:black;stop-opacity:1;"/>
</linearGradient>
<linearGradient id="paint3_linear_17_293" x1="15" y1="5" x2="15" y2="25" gradientUnits="userSpaceOnUse">
<stop stop-opacity="0.2" style="stop-color:black;stop-opacity:0.2;"/>
<stop offset="1" style="stop-color:black;stop-opacity:1;"/>
</linearGradient>
<linearGradient id="paint4_linear_17_293" x1="15" y1="5" x2="15" y2="25" gradientUnits="userSpaceOnUse">
<stop stop-opacity="0.2" style="stop-color:black;stop-opacity:0.2;"/>
<stop offset="1" style="stop-color:black;stop-opacity:1;"/>
</linearGradient>
<linearGradient id="paint5_linear_17_293" x1="15" y1="5" x2="15" y2="25" gradientUnits="userSpaceOnUse">
<stop stop-opacity="0.2" style="stop-color:black;stop-opacity:0.2;"/>
<stop offset="1" style="stop-color:black;stop-opacity:1;"/>
</linearGradient>
<linearGradient id="paint6_linear_17_293" x1="15" y1="5" x2="15" y2="25" gradientUnits="userSpaceOnUse">
<stop stop-opacity="0.2" style="stop-color:black;stop-opacity:0.2;"/>
<stop offset="1" style="stop-color:black;stop-opacity:1;"/>
</linearGradient>
<linearGradient id="paint7_linear_17_293" x1="15" y1="5" x2="15" y2="25" gradientUnits="userSpaceOnUse">
<stop stop-opacity="0.2" style="stop-color:black;stop-opacity:0.2;"/>
<stop offset="1" style="stop-color:black;stop-opacity:1;"/>
</linearGradient>
<linearGradient id="paint8_linear_17_293" x1="15" y1="5" x2="15" y2="25" gradientUnits="userSpaceOnUse">
<stop stop-opacity="0.2" style="stop-color:black;stop-opacity:0.2;"/>
<stop offset="1" style="stop-color:black;stop-opacity:1;"/>
</linearGradient>
</defs>
</svg>
