<svg width="15" height="15" viewBox="0 0 15 15" fill="none" xmlns="http://www.w3.org/2000/svg">
<path fill-rule="evenodd" clip-rule="evenodd" d="M0 8.6538C0 6.97069 0.668617 5.3565 1.85876 4.16636C3.04891 2.97622 4.66309 2.3076 6.34621 2.3076C6.49922 2.3076 6.64597 2.36839 6.75416 2.47658C6.86236 2.58478 6.92314 2.73152 6.92314 2.88453V8.07687H12.1155C12.2685 8.07687 12.4153 8.13766 12.5234 8.24585C12.6316 8.35405 12.6924 8.50079 12.6924 8.6538C12.6924 10.3369 12.0238 11.9511 10.8337 13.1412C9.64352 14.3314 8.02933 15 6.34621 15C4.66309 15 3.04891 14.3314 1.85876 13.1412C0.668617 11.9511 0 10.3369 0 8.6538Z" fill="#A5A5A6" style="fill:#A5A5A6;fill:color(display-p3 0.6463 0.6463 0.6500);fill-opacity:1;"/>
<path fill-rule="evenodd" clip-rule="evenodd" d="M8.07686 0.576927C8.07686 0.423917 8.13764 0.277173 8.24584 0.168978C8.35403 0.0607831 8.50078 0 8.65379 0C10.3369 0 11.9511 0.668615 13.1412 1.85876C14.3314 3.0489 15 4.66308 15 6.3462C15 6.49921 14.9392 6.64595 14.831 6.75415C14.7228 6.86234 14.5761 6.92313 14.4231 6.92313H8.65379C8.50078 6.92313 8.35403 6.86234 8.24584 6.75415C8.13764 6.64595 8.07686 6.49921 8.07686 6.3462V0.576927Z" fill="#A5A5A6" style="fill:#A5A5A6;fill:color(display-p3 0.6463 0.6463 0.6500);fill-opacity:1;"/>
</svg>
