<svg width="15" height="15" viewBox="0 0 15 15" fill="none" xmlns="http://www.w3.org/2000/svg">
<path fill-rule="evenodd" clip-rule="evenodd" d="M6.43929 1.19077V5.05231C6.43917 5.6643 6.21558 6.25117 5.81771 6.68385L4.1368 8.51231C5.37932 8.41705 6.62257 8.68614 7.73692 9.29154C8.98728 9.97188 10.4196 10.1453 11.7769 9.78077L11.9784 9.72616L9.18234 6.68385C8.78446 6.25117 8.56087 5.6643 8.56075 5.05231V1.19077C7.85431 1.14186 7.14573 1.14186 6.43929 1.19077ZM9.62148 1.29693C9.75727 1.29827 9.88836 1.2429 9.98774 1.14224C10.0871 1.04157 10.1472 0.903277 10.1556 0.755849C10.1641 0.60842 10.1202 0.463089 10.0331 0.349803C9.94591 0.236516 9.82214 0.163904 9.68725 0.146928C8.9617 0.0484778 8.2312 -0.000591999 7.50002 5.38902e-06C6.76886 -0.000173211 6.03839 0.048895 5.3128 0.146928C5.1779 0.163904 5.05413 0.236516 4.96699 0.349803C4.87985 0.463089 4.83598 0.60842 4.84441 0.755849C4.85284 0.903277 4.91293 1.04157 5.01231 1.14224C5.11169 1.2429 5.24278 1.29827 5.37856 1.29693V5.05231C5.37832 5.35823 5.2664 5.65152 5.06742 5.8677L0.617298 10.7092C-0.528291 11.9562 -0.0212616 14.1515 1.65752 14.4631C3.55694 14.8169 5.50939 15 7.50002 15C9.49137 15 11.4431 14.8162 13.3425 14.4638C15.0206 14.1515 15.529 11.9562 14.382 10.7092L9.93263 5.86846C9.83402 5.76133 9.75579 5.63411 9.7024 5.49407C9.64901 5.35403 9.62151 5.20392 9.62148 5.05231V1.29693Z" fill="#A5A5A6" style="fill:#A5A5A6;fill:color(display-p3 0.6463 0.6463 0.6500);fill-opacity:1;"/>
</svg>
