<svg width="15" height="17" viewBox="0 0 15 17" fill="none" xmlns="http://www.w3.org/2000/svg">
<path fill-rule="evenodd" clip-rule="evenodd" d="M1.91303 6.04054C1.91303 4.5711 2.50166 3.16184 3.54943 2.12279C4.59719 1.08373 6.01827 0.5 7.50003 0.5C8.9818 0.5 10.4029 1.08373 11.4506 2.12279C12.4984 3.16184 13.087 4.5711 13.087 6.04054V6.65616C13.087 8.39876 13.7492 9.98623 14.8401 11.1871C14.9081 11.2618 14.9565 11.3518 14.9813 11.4494C15.006 11.547 15.0062 11.649 14.982 11.7467C14.9577 11.8444 14.9097 11.9347 14.8421 12.0097C14.7745 12.0847 14.6894 12.1421 14.5943 12.177C13.3163 12.6449 11.9787 12.9896 10.5956 13.1973C10.6268 13.6193 10.5698 14.0431 10.4284 14.4424C10.2869 14.8416 10.064 15.2076 9.77349 15.5175C9.48299 15.8275 9.13117 16.0747 8.74 16.2437C8.34884 16.4128 7.92672 16.5 7.50003 16.5C7.07334 16.5 6.65122 16.4128 6.26006 16.2437C5.86889 16.0747 5.51707 15.8275 5.22657 15.5175C4.93607 15.2076 4.71313 14.8416 4.57167 14.4424C4.43021 14.0431 4.37328 13.6193 4.40442 13.1973C3.04008 12.9922 1.7003 12.6501 0.405783 12.1762C0.310708 12.1414 0.225672 12.084 0.158103 12.0091C0.0905331 11.9342 0.042485 11.844 0.0181544 11.7465C-0.00617614 11.6489 -0.006049 11.5469 0.0185248 11.4494C0.0430986 11.3519 0.0913717 11.2618 0.159128 11.1871C1.29044 9.94492 1.91558 8.32997 1.91303 6.65616V6.04054ZM5.63935 13.3458C5.62876 13.5947 5.66905 13.8431 5.75778 14.0762C5.84652 14.3092 5.98187 14.522 6.15569 14.7018C6.32952 14.8816 6.53822 15.0247 6.76925 15.1224C7.00028 15.2202 7.24886 15.2705 7.50003 15.2705C7.7512 15.2705 7.99978 15.2202 8.23081 15.1224C8.46184 15.0247 8.67055 14.8816 8.84437 14.7018C9.01819 14.522 9.15354 14.3092 9.24228 14.0762C9.33101 13.8431 9.3713 13.5947 9.36071 13.3458C8.12276 13.4564 6.8773 13.4564 5.63935 13.3458Z" fill="#A5A5A6" style="fill:#A5A5A6;fill:color(display-p3 0.6463 0.6463 0.6500);fill-opacity:1;"/>
</svg>
