<svg width="15" height="15" viewBox="0 0 15 15" fill="none" xmlns="http://www.w3.org/2000/svg">
<path fill-rule="evenodd" clip-rule="evenodd" d="M9.5339 0.0677536C9.64778 0.125964 9.73716 0.21752 9.78776 0.327819C9.83837 0.438117 9.8473 0.560803 9.81312 0.676304L9.04156 5.89256H13.9167C14.0304 5.89256 14.1416 5.92307 14.2366 5.98034C14.3317 6.0376 14.4065 6.11913 14.4517 6.21488C14.497 6.31064 14.5108 6.41647 14.4915 6.51934C14.4722 6.62222 14.4205 6.71767 14.3429 6.79395L6.17622 14.8294C6.08727 14.9171 5.96885 14.9749 5.83992 14.9935C5.71099 15.0121 5.57899 14.9905 5.46502 14.9321C5.35106 14.8736 5.26172 14.7818 5.2113 14.6713C5.16087 14.5607 5.15227 14.4378 5.18688 14.3223L5.95844 9.10673H1.0833C0.969618 9.10673 0.858416 9.07622 0.763363 9.01895C0.66831 8.96169 0.593548 8.88017 0.548269 8.78441C0.502989 8.68865 0.489165 8.58282 0.508495 8.47995C0.527826 8.37707 0.579469 8.28162 0.657075 8.20534L8.82378 0.169893C8.91274 0.0825003 9.03098 0.024964 9.15968 0.00645315C9.28837 -0.0120577 9.42011 0.00952208 9.5339 0.0677536Z" fill="#A5A5A6" style="fill:#A5A5A6;fill:color(display-p3 0.6463 0.6463 0.6500);fill-opacity:1;"/>
</svg>
