<svg width="15" height="15" viewBox="0 0 15 15" fill="none" xmlns="http://www.w3.org/2000/svg">
<path d="M4.46667 3.28125C4.28102 3.28125 4.10297 3.20717 3.97169 3.07531C3.84042 2.94345 3.76667 2.76461 3.76667 2.57812V0.703125C3.76667 0.516645 3.84042 0.337802 3.97169 0.20594C4.10297 0.0740789 4.28102 0 4.46667 0C4.65232 0 4.83037 0.0740789 4.96164 0.20594C5.09292 0.337802 5.16667 0.516645 5.16667 0.703125V2.57812C5.16667 2.76461 5.09292 2.94345 4.96164 3.07531C4.83037 3.20717 4.65232 3.28125 4.46667 3.28125ZM10.5333 3.28125C10.3477 3.28125 10.1696 3.20717 10.0384 3.07531C9.90708 2.94345 9.83333 2.76461 9.83333 2.57812V0.703125C9.83333 0.516645 9.90708 0.337802 10.0384 0.20594C10.1696 0.0740789 10.3477 0 10.5333 0C10.719 0 10.897 0.0740789 11.0283 0.20594C11.1596 0.337802 11.2333 0.516645 11.2333 0.703125V2.57812C11.2333 2.76461 11.1596 2.94345 11.0283 3.07531C10.897 3.20717 10.719 3.28125 10.5333 3.28125Z" fill="#A5A5A6" style="fill:#A5A5A6;fill:color(display-p3 0.6463 0.6463 0.6500);fill-opacity:1;"/>
<path d="M11.9333 1.875H3.06667C2.3861 1.8755 1.73354 2.14728 1.25231 2.63066C0.771069 3.11405 0.500494 3.76952 0.5 4.45312V12.4219C0.500494 13.1055 0.771069 13.761 1.25231 14.2443C1.73354 14.7277 2.3861 14.9995 3.06667 15H11.9333C12.6139 14.9995 13.2665 14.7277 13.7477 14.2443C14.2289 13.761 14.4995 13.1055 14.5 12.4219V4.45312C14.4995 3.76952 14.2289 3.11405 13.7477 2.63066C13.2665 2.14728 12.6139 1.8755 11.9333 1.875ZM11.9333 13.5938H3.06667C2.4236 13.5938 1.9 13.0678 1.9 12.4219V6.5625H13.1V12.4219C13.1 13.0678 12.5764 13.5938 11.9333 13.5938Z" fill="#A5A5A6" style="fill:#A5A5A6;fill:color(display-p3 0.6463 0.6463 0.6500);fill-opacity:1;"/>
</svg>
