<svg width="15" height="13" viewBox="0 0 15 13" fill="none" xmlns="http://www.w3.org/2000/svg">
<path d="M2.14286 0.5C1.57454 0.5 1.02949 0.72987 0.627628 1.13904C0.225765 1.54821 0 2.10316 0 2.68182V3.22727H15V2.68182C15 2.10316 14.7742 1.54821 14.3724 1.13904C13.9705 0.72987 13.4255 0.5 12.8571 0.5H2.14286Z" fill="#A5A5A6" style="fill:#A5A5A6;fill:color(display-p3 0.6463 0.6463 0.6500);fill-opacity:1;"/>
<path fill-rule="evenodd" clip-rule="evenodd" d="M15 4.86364H0V10.3182C0 10.8968 0.225765 11.4518 0.627628 11.861C1.02949 12.2701 1.57454 12.5 2.14286 12.5H12.8571C13.4255 12.5 13.9705 12.2701 14.3724 11.861C14.7742 11.4518 15 10.8968 15 10.3182V4.86364ZM2.14286 7.59091C2.14286 7.44625 2.1993 7.30751 2.29976 7.20521C2.40023 7.10292 2.53649 7.04545 2.67857 7.04545H6.96429C7.10637 7.04545 7.24263 7.10292 7.34309 7.20521C7.44356 7.30751 7.5 7.44625 7.5 7.59091C7.5 7.73557 7.44356 7.87431 7.34309 7.9766C7.24263 8.0789 7.10637 8.13636 6.96429 8.13636H2.67857C2.53649 8.13636 2.40023 8.0789 2.29976 7.9766C2.1993 7.87431 2.14286 7.73557 2.14286 7.59091ZM2.67857 9.22727C2.53649 9.22727 2.40023 9.28474 2.29976 9.38703C2.1993 9.48933 2.14286 9.62806 2.14286 9.77273C2.14286 9.91739 2.1993 10.0561 2.29976 10.1584C2.40023 10.2607 2.53649 10.3182 2.67857 10.3182H4.82143C4.96351 10.3182 5.09977 10.2607 5.20024 10.1584C5.3007 10.0561 5.35714 9.91739 5.35714 9.77273C5.35714 9.62806 5.3007 9.48933 5.20024 9.38703C5.09977 9.28474 4.96351 9.22727 4.82143 9.22727H2.67857Z" fill="#A5A5A6" style="fill:#A5A5A6;fill:color(display-p3 0.6463 0.6463 0.6500);fill-opacity:1;"/>
</svg>
