<svg width="15" height="15" viewBox="0 0 15 15" fill="none" xmlns="http://www.w3.org/2000/svg">
<path d="M0.538512 0.5C0.395689 0.5 0.258717 0.556731 0.157726 0.657712C0.0567359 0.758693 0 0.895653 0 1.03846C0 1.18127 0.0567359 1.31823 0.157726 1.41921C0.258717 1.52019 0.395689 1.57692 0.538512 1.57692H1.53368C1.65574 1.57692 1.76201 1.65877 1.7936 1.77651L3.63029 8.66308C3.05341 8.81337 2.54268 9.15074 2.1781 9.62234C1.81351 10.0939 1.61566 10.6732 1.61553 11.2692C1.61553 11.5665 1.85679 11.8077 2.15405 11.8077H13.4628C13.6056 11.8077 13.7426 11.751 13.8436 11.65C13.9446 11.549 14.0013 11.412 14.0013 11.2692C14.0013 11.1264 13.9446 10.9895 13.8436 10.8885C13.7426 10.7875 13.6056 10.7308 13.4628 10.7308H2.78446C2.89585 10.4157 3.1022 10.143 3.37507 9.95013C3.64795 9.75726 3.97393 9.65375 4.30809 9.65385H12.3628C12.4637 9.65385 12.5625 9.62551 12.6481 9.57207C12.7337 9.51864 12.8025 9.44224 12.8467 9.35159C13.6665 7.66951 14.3764 5.9361 14.9721 4.16226C14.9956 4.09208 15.0044 4.01781 14.9979 3.94408C14.9915 3.87035 14.9699 3.79875 14.9345 3.73373C14.8992 3.66872 14.8508 3.61169 14.7924 3.56622C14.734 3.52075 14.6668 3.4878 14.5951 3.46944C10.8081 2.5039 6.90878 2.05066 3.0013 2.12185L2.83473 1.49938C2.7583 1.21274 2.58932 0.959361 2.35404 0.778635C2.11876 0.597909 1.83037 0.499956 1.53368 0.5H0.538512ZM1.61553 13.4231C1.61553 13.1375 1.72901 12.8635 1.93099 12.6616C2.13297 12.4596 2.40691 12.3462 2.69256 12.3462C2.9782 12.3462 3.25215 12.4596 3.45413 12.6616C3.65611 12.8635 3.76958 13.1375 3.76958 13.4231C3.76958 13.7087 3.65611 13.9826 3.45413 14.1846C3.25215 14.3865 2.9782 14.5 2.69256 14.5C2.40691 14.5 2.13297 14.3865 1.93099 14.1846C1.72901 13.9826 1.61553 13.7087 1.61553 13.4231ZM10.7702 13.4231C10.7702 13.1375 10.8837 12.8635 11.0857 12.6616C11.2877 12.4596 11.5616 12.3462 11.8473 12.3462C12.1329 12.3462 12.4068 12.4596 12.6088 12.6616C12.8108 12.8635 12.9243 13.1375 12.9243 13.4231C12.9243 13.7087 12.8108 13.9826 12.6088 14.1846C12.4068 14.3865 12.1329 14.5 11.8473 14.5C11.5616 14.5 11.2877 14.3865 11.0857 14.1846C10.8837 13.9826 10.7702 13.7087 10.7702 13.4231Z" fill="#A5A5A6" style="fill:#A5A5A6;fill:color(display-p3 0.6463 0.6463 0.6500);fill-opacity:1;"/>
</svg>
