<svg width="15" height="15" viewBox="0 0 15 15" fill="none" xmlns="http://www.w3.org/2000/svg">
<path d="M2.43786 0.792933C3.92 0.59908 5.43071 0.5 6.96429 0.5C8.49786 0.5 10.0086 0.599798 11.4907 0.792933C12.8636 0.972426 13.8414 2.12908 13.9229 3.46882C13.6841 3.38885 13.4366 3.33799 13.1857 3.31733C11.1844 3.15033 9.17275 3.15033 7.17143 3.31733C5.48714 3.45805 4.28571 4.88969 4.28571 6.50082V9.57805C4.28504 10.1695 4.44698 10.7496 4.75365 11.2544C5.06033 11.7592 5.49981 12.1689 6.02357 12.4385L4.12857 14.3425C4.05365 14.4177 3.95824 14.4689 3.85438 14.4897C3.75053 14.5104 3.64289 14.4998 3.54505 14.459C3.44722 14.4183 3.36359 14.3494 3.30472 14.2609C3.24585 14.1724 3.21438 14.0684 3.21429 13.962V11.0686C2.95514 11.0409 2.69631 11.0102 2.43786 10.9767C1.00357 10.7886 0 9.53425 0 8.11913V3.65047C0 2.23606 1.00357 0.980324 2.43786 0.792933Z" fill="#A5A5A6" style="fill:#A5A5A6;fill:color(display-p3 0.6463 0.6463 0.6500);fill-opacity:1;"/>
<path d="M10.1786 4.26936C9.19571 4.26936 8.22214 4.31028 7.26 4.3907C6.16 4.4826 5.35714 5.42027 5.35714 6.50154V9.57805C5.35714 10.66 6.16286 11.5984 7.26429 11.6889C8.15214 11.7621 9.05 11.8016 9.95571 11.8074L11.9429 13.804C12.0178 13.8793 12.1132 13.9305 12.217 13.9512C12.3209 13.9719 12.4285 13.9613 12.5264 13.9206C12.6242 13.8798 12.7078 13.8109 12.7667 13.7224C12.8256 13.634 12.857 13.5299 12.8571 13.4235V11.7076L13.0929 11.6889C14.1943 11.5991 15 10.66 15 9.57805V6.50082C15 5.42027 14.1964 4.4826 13.0971 4.38998C12.1264 4.30929 11.1527 4.26905 10.1786 4.26936Z" fill="#A5A5A6" style="fill:#A5A5A6;fill:color(display-p3 0.6463 0.6463 0.6500);fill-opacity:1;"/>
</svg>
