<svg width="15" height="15" viewBox="0 0 15 15" fill="none" xmlns="http://www.w3.org/2000/svg">
<path d="M11.2705 0.5L11.3376 0.950164C11.5827 2.59228 12.8857 3.88173 14.5451 4.12427L15 4.19076L14.5451 4.25725C12.8857 4.49979 11.5827 5.78924 11.3376 7.43136L11.2705 7.88152L11.2033 7.43136C10.9582 5.78924 9.65518 4.49979 7.99581 4.25725L7.54091 4.19076L7.99581 4.12427C9.65518 3.88173 10.9582 2.59228 11.2033 0.950164L11.2705 0.5Z" fill="#A5A5A6" style="fill:#A5A5A6;fill:color(display-p3 0.6463 0.6463 0.6500);fill-opacity:1;"/>
<path d="M6.6599 1.82485C7.71165 1.82485 8.71189 2.05035 9.60295 2.45197C8.75189 3.313 7.62485 3.90593 6.35839 4.09105L5.67666 4.19072L6.35839 4.2904C8.84744 4.65421 10.8022 6.58868 11.1699 9.05185L11.2706 9.72715L11.3713 9.05185C11.553 7.83435 12.1229 6.74624 12.9529 5.91298C13.1893 6.53633 13.3198 7.20686 13.3198 7.90852C13.3198 11.3086 10.2952 13.9922 6.6599 13.9922C6.0909 13.9922 5.53763 13.9264 5.00893 13.8034C4.14475 14.3409 3.12416 14.578 2.10857 14.4774C1.98661 14.4655 1.86496 14.4487 1.74435 14.4272C1.65585 14.4115 1.57291 14.3731 1.50421 14.3157C1.43552 14.2582 1.38324 14.1835 1.35279 14.0998C1.32242 14.0161 1.3148 13.9259 1.33078 13.8384C1.34678 13.7507 1.386 13.6687 1.44418 13.6007C1.7243 13.2739 1.91541 12.8817 1.99984 12.4614C2.01555 12.3836 1.98481 12.2471 1.8264 12.0943C0.699343 11.0094 0 9.53759 0 7.90852C0 4.50843 3.02462 1.82485 6.6599 1.82485Z" fill="#A5A5A6" style="fill:#A5A5A6;fill:color(display-p3 0.6463 0.6463 0.6500);fill-opacity:1;"/>
</svg>
