<svg width="15" height="15" viewBox="0 0 15 15" fill="none" xmlns="http://www.w3.org/2000/svg">
<path fill-rule="evenodd" clip-rule="evenodd" d="M4.88692 1.19154C5.21151 0.8171 5.61286 0.516889 6.06374 0.311293C6.51462 0.105698 7.00446 -0.000469471 7.5 1.56052e-06C8.54385 1.56052e-06 9.47923 0.46154 10.1131 1.19154C10.6075 1.15624 11.1036 1.22776 11.5679 1.40124C12.0322 1.57471 12.4537 1.84609 12.8038 2.19692C13.1545 2.54697 13.4258 2.96836 13.5993 3.43251C13.7728 3.89665 13.8444 4.39267 13.8092 4.88692C14.1835 5.21158 14.4836 5.61297 14.6891 6.06384C14.8945 6.51472 15.0006 7.00452 15 7.5C15.0005 7.99554 14.8943 8.48538 14.6887 8.93626C14.4831 9.38713 14.1829 9.78849 13.8085 10.1131C13.8436 10.6073 13.772 11.1034 13.5985 11.5675C13.4251 12.0316 13.1538 12.453 12.8031 12.8031C12.453 13.1538 12.0316 13.4251 11.5675 13.5985C11.1034 13.772 10.6073 13.8436 10.1131 13.8085C9.78849 14.1829 9.38713 14.4831 8.93626 14.6887C8.48538 14.8943 7.99554 15.0005 7.5 15C7.00446 15.0005 6.51462 14.8943 6.06374 14.6887C5.61286 14.4831 5.21151 14.1829 4.88692 13.8085C4.3926 13.8439 3.89645 13.7725 3.43216 13.5991C2.96787 13.4258 2.54633 13.1545 2.19616 12.8038C1.84536 12.4537 1.57401 12.0322 1.40054 11.5679C1.22706 11.1036 1.15552 10.6075 1.19077 10.1131C0.816472 9.78842 0.516406 9.38703 0.310944 8.93616C0.105483 8.48528 -0.000564317 7.99548 2.25834e-06 7.5C2.25834e-06 6.45615 0.461541 5.52077 1.19154 4.88692C1.15635 4.39267 1.22793 3.89663 1.4014 3.43248C1.57488 2.96833 1.84619 2.54694 2.19692 2.19692C2.54694 1.84619 2.96833 1.57488 3.43248 1.4014C3.89663 1.22793 4.39267 1.15635 4.88692 1.19154ZM10.2769 6.10462C10.3231 6.04312 10.3565 5.97301 10.3751 5.89842C10.3938 5.82383 10.3974 5.74626 10.3857 5.67027C10.3739 5.59428 10.3471 5.5214 10.3068 5.45592C10.2665 5.39044 10.2135 5.33367 10.151 5.28896C10.0884 5.24425 10.0175 5.21249 9.94254 5.19556C9.86754 5.17863 9.78991 5.17686 9.71421 5.19036C9.63852 5.20385 9.56628 5.23235 9.50175 5.27416C9.43722 5.31598 9.38171 5.37027 9.33846 5.43385L6.84923 8.91846L5.6 7.66923C5.49063 7.56732 5.34598 7.51184 5.19652 7.51448C5.04706 7.51712 4.90446 7.57767 4.79875 7.68337C4.69305 7.78907 4.6325 7.93167 4.62987 8.08114C4.62723 8.2306 4.68271 8.37525 4.78462 8.48461L6.51539 10.2154C6.57461 10.2746 6.646 10.3201 6.72461 10.349C6.80321 10.3778 6.88715 10.3891 6.97059 10.3823C7.05403 10.3754 7.13497 10.3504 7.20779 10.3091C7.28062 10.2678 7.34358 10.2112 7.39231 10.1431L10.2769 6.10462Z" fill="#A5A5A6" style="fill:#A5A5A6;fill:color(display-p3 0.6463 0.6463 0.6500);fill-opacity:1;"/>
</svg>
