<svg width="15" height="15" viewBox="0 0 15 15" fill="none" xmlns="http://www.w3.org/2000/svg">
<path fill-rule="evenodd" clip-rule="evenodd" d="M7.5 0C3.35769 0 0 3.35769 0 7.5C0 11.6423 3.35769 15 7.5 15C11.6423 15 15 11.6423 15 7.5C15 3.35769 11.6423 0 7.5 0ZM8.07692 2.88462C8.07692 2.73161 8.01614 2.58486 7.90795 2.47667C7.79975 2.36847 7.65301 2.30769 7.5 2.30769C7.34699 2.30769 7.20025 2.36847 7.09205 2.47667C6.98386 2.58486 6.92308 2.73161 6.92308 2.88462V7.5C6.92308 7.81846 7.18154 8.07692 7.5 8.07692H10.9615C11.1145 8.07692 11.2613 8.01614 11.3695 7.90795C11.4777 7.79975 11.5385 7.65301 11.5385 7.5C11.5385 7.34699 11.4777 7.20025 11.3695 7.09205C11.2613 6.98386 11.1145 6.92308 10.9615 6.92308H8.07692V2.88462Z" fill="#A5A5A6" style="fill:#A5A5A6;fill:color(display-p3 0.6463 0.6463 0.6500);fill-opacity:1;"/>
</svg>
