<svg width="15" height="11" viewBox="0 0 15 11" fill="none" xmlns="http://www.w3.org/2000/svg">
<path fill-rule="evenodd" clip-rule="evenodd" d="M2.14421 4.00128C2.14371 3.07134 2.49045 2.17031 3.12477 1.45317C3.7591 0.736041 4.64136 0.247644 5.61979 0.0719945C6.59821 -0.103655 7.61164 0.0444266 8.48574 0.490765C9.35984 0.937103 10.04 1.6538 10.4091 2.51756C10.8188 2.47365 11.2338 2.51865 11.6218 2.64905C12.0099 2.77945 12.3604 2.99171 12.646 3.26931C12.9317 3.5469 13.1448 3.88232 13.2688 4.24942C13.3928 4.61652 13.4242 5.00539 13.3607 5.3857C13.9803 5.71067 14.467 6.21818 14.7446 6.82882C15.0223 7.43946 15.0752 8.11878 14.8951 8.76048C14.7151 9.40219 14.3122 9.97008 13.7495 10.3753C13.1868 10.7805 12.496 11.0002 11.7853 11H3.75106C2.89812 11.0004 2.07054 10.7293 1.40491 10.2315C0.73928 9.73374 0.275395 9.03901 0.0898205 8.262C-0.0957542 7.48499 0.00807391 6.67215 0.384168 5.95764C0.760261 5.24313 1.38614 4.66966 2.1585 4.33189C2.14891 4.22191 2.14414 4.11162 2.14421 4.00128Z" fill="#A5A5A6" style="fill:#A5A5A6;fill:color(display-p3 0.6463 0.6463 0.6500);fill-opacity:1;"/>
</svg>
