<svg width="15" height="13" viewBox="0 0 15 13" fill="none" xmlns="http://www.w3.org/2000/svg">
<path fill-rule="evenodd" clip-rule="evenodd" d="M6.42913 0.5C5.83654 0.499946 5.25038 0.625067 4.70769 0.867456C4.16501 1.10984 3.67758 1.46423 3.27623 1.90822C2.87488 2.35221 2.56833 2.87616 2.37594 3.44694C2.18355 4.01773 2.10951 4.62295 2.1585 5.22436C1.38614 5.59291 0.760261 6.21863 0.384168 6.99824C0.00807391 7.77784 -0.0957542 8.66474 0.0898205 9.51254C0.275395 10.3603 0.73928 11.1184 1.40491 11.6615C2.07054 12.2046 2.89812 12.5004 3.75106 12.5H11.7853C12.496 12.5002 13.1868 12.2605 13.7495 11.8184C14.3122 11.3762 14.7151 10.7566 14.8951 10.0564C15.0752 9.35627 15.0223 8.61506 14.7446 7.94879C14.467 7.28252 13.9803 6.72877 13.3607 6.37418C13.4242 5.95922 13.3928 5.53493 13.2688 5.13439C13.1448 4.73384 12.9317 4.36786 12.646 4.06497C12.3604 3.76209 12.0099 3.53048 11.6218 3.3882C11.2338 3.24593 10.8188 3.19683 10.4091 3.24473C10.0911 2.43449 9.54199 1.7399 8.83255 1.25065C8.1231 0.761391 7.28594 0.499924 6.42913 0.5ZM7.87886 4.47818C7.77843 4.37604 7.6423 4.31866 7.50036 4.31866C7.35842 4.31866 7.22229 4.37604 7.12186 4.47818L4.9794 6.66C4.92678 6.70994 4.88457 6.77015 4.85529 6.83706C4.82602 6.90397 4.81028 6.9762 4.80901 7.04944C4.80774 7.12268 4.82097 7.19543 4.84791 7.26334C4.87485 7.33126 4.91494 7.39296 4.96581 7.44476C5.01667 7.49655 5.07725 7.53738 5.14394 7.56482C5.21064 7.59225 5.28207 7.60572 5.35399 7.60443C5.42591 7.60314 5.49683 7.58711 5.56253 7.5573C5.62824 7.52748 5.68737 7.4845 5.7364 7.43091L6.96475 6.18V9.77273C6.96475 9.91739 7.02118 10.0561 7.12162 10.1584C7.22207 10.2607 7.35831 10.3182 7.50036 10.3182C7.64241 10.3182 7.77865 10.2607 7.8791 10.1584C7.97954 10.0561 8.03598 9.91739 8.03598 9.77273V6.18L9.26432 7.43091C9.31335 7.4845 9.37249 7.52748 9.43819 7.5573C9.50389 7.58711 9.57481 7.60314 9.64673 7.60443C9.71865 7.60572 9.79008 7.59225 9.85678 7.56482C9.92347 7.53738 9.98406 7.49655 10.0349 7.44476C10.0858 7.39296 10.1259 7.33126 10.1528 7.26334C10.1798 7.19543 10.193 7.12268 10.1917 7.04944C10.1904 6.9762 10.1747 6.90397 10.1454 6.83706C10.1162 6.77015 10.0739 6.70994 10.0213 6.66L7.87886 4.47818Z" fill="#A5A5A6" style="fill:#A5A5A6;fill:color(display-p3 0.6463 0.6463 0.6500);fill-opacity:1;"/>
</svg>
