<svg width="13" height="15" viewBox="0 0 13 15" fill="none" xmlns="http://www.w3.org/2000/svg">
<path d="M12.9286 3.48214C12.9286 5.405 10.05 6.96429 6.49998 6.96429C2.94998 6.96429 0.0714111 5.405 0.0714111 3.48214C0.0714111 1.55929 2.94998 0 6.49998 0C10.05 0 12.9286 1.55929 12.9286 3.48214Z" fill="#A5A5A6" style="fill:#A5A5A6;fill:color(display-p3 0.6463 0.6463 0.6500);fill-opacity:1;"/>
<path d="M6.49998 8.03577C8.41784 8.03577 10.2071 7.6172 11.5557 6.88649C12.052 6.62298 12.5083 6.29012 12.9107 5.89792C12.9221 5.98434 12.9286 6.0722 12.9286 6.16077C12.9286 8.08363 10.05 9.64292 6.49998 9.64292C2.94998 9.64292 0.0714111 8.08363 0.0714111 6.16077C0.0714111 6.0722 0.0778398 5.98434 0.0892683 5.89792C0.491709 6.2901 0.947958 6.62297 1.44427 6.88649C2.79213 7.6172 4.58213 8.03577 6.49998 8.03577Z" fill="#A5A5A6" style="fill:#A5A5A6;fill:color(display-p3 0.6463 0.6463 0.6500);fill-opacity:1;"/>
<path d="M6.49998 10.7143C8.41784 10.7143 10.2071 10.2958 11.5557 9.56506C12.052 9.30156 12.5083 8.96869 12.9107 8.57649C12.9221 8.66292 12.9286 8.75077 12.9286 8.83934C12.9286 10.7622 10.05 12.3215 6.49998 12.3215C2.94998 12.3215 0.0714111 10.7622 0.0714111 8.83934C0.0714111 8.75077 0.0778398 8.66292 0.0892683 8.57649C0.491703 8.96868 0.947952 9.30155 1.44427 9.56506C2.79213 10.2958 4.58213 10.7143 6.49998 10.7143Z" fill="#A5A5A6" style="fill:#A5A5A6;fill:color(display-p3 0.6463 0.6463 0.6500);fill-opacity:1;"/>
<path d="M6.49998 13.3929C8.41784 13.3929 10.2071 12.9743 11.5557 12.2436C12.052 11.9801 12.5083 11.6473 12.9107 11.2551C12.9221 11.3415 12.9286 11.4293 12.9286 11.5179C12.9286 13.4408 10.05 15.0001 6.49998 15.0001C2.94998 15.0001 0.0714111 13.4408 0.0714111 11.5179C0.0714111 11.4293 0.0778398 11.3415 0.0892683 11.2551C0.491703 11.6473 0.947952 11.9801 1.44427 12.2436C2.79213 12.9743 4.58213 13.3929 6.49998 13.3929Z" fill="#A5A5A6" style="fill:#A5A5A6;fill:color(display-p3 0.6463 0.6463 0.6500);fill-opacity:1;"/>
</svg>
