<svg width="15" height="13" viewBox="0 0 15 13" fill="none" xmlns="http://www.w3.org/2000/svg">
<path fill-rule="evenodd" clip-rule="evenodd" d="M0 2.16667C0 1.59203 0.243131 1.04093 0.675907 0.634602C1.10868 0.228273 1.69565 0 2.30769 0H12.6923C13.3043 0 13.8913 0.228273 14.3241 0.634602C14.7569 1.04093 15 1.59203 15 2.16667V10.8333C15 11.408 14.7569 11.9591 14.3241 12.3654C13.8913 12.7717 13.3043 13 12.6923 13H2.30769C1.69565 13 1.10868 12.7717 0.675907 12.3654C0.243131 11.9591 0 11.408 0 10.8333V2.16667ZM3.05385 2.86722C3.16202 2.76579 3.30865 2.70881 3.46154 2.70881C3.61442 2.70881 3.76106 2.76579 3.86923 2.86722L5.6 4.49222C5.70804 4.59379 5.76872 4.73146 5.76872 4.875C5.76872 5.01854 5.70804 5.15621 5.6 5.25778L3.86923 6.88278C3.75987 6.97846 3.61521 7.03055 3.46575 7.02807C3.31629 7.0256 3.17369 6.96875 3.06798 6.8695C2.96228 6.77026 2.90173 6.63637 2.8991 6.49604C2.89646 6.35572 2.95194 6.2199 3.05385 6.11722L4.37692 4.875L3.05385 3.63278C2.94581 3.53121 2.88512 3.39354 2.88512 3.25C2.88512 3.10646 2.94581 2.96878 3.05385 2.86722ZM6.34615 5.95833C6.19314 5.95833 6.0464 6.0154 5.93821 6.11698C5.83001 6.21857 5.76923 6.35634 5.76923 6.5C5.76923 6.64366 5.83001 6.78143 5.93821 6.88302C6.0464 6.9846 6.19314 7.04167 6.34615 7.04167H8.65385C8.80686 7.04167 8.9536 6.9846 9.06179 6.88302C9.16999 6.78143 9.23077 6.64366 9.23077 6.5C9.23077 6.35634 9.16999 6.21857 9.06179 6.11698C8.9536 6.0154 8.80686 5.95833 8.65385 5.95833H6.34615Z" fill="#A5A5A6" style="fill:#A5A5A6;fill:color(display-p3 0.6463 0.6463 0.6500);fill-opacity:1;"/>
</svg>
