<svg width="15" height="15" viewBox="0 0 15 15" fill="none" xmlns="http://www.w3.org/2000/svg">
<path fill-rule="evenodd" clip-rule="evenodd" d="M0 2.5C0 1.83696 0.263392 1.20107 0.732233 0.732233C1.20107 0.263392 1.83696 0 2.5 0H12.5C13.163 0 13.7989 0.263392 14.2678 0.732233C14.7366 1.20107 15 1.83696 15 2.5V12.5C15 13.163 14.7366 13.7989 14.2678 14.2678C13.7989 14.7366 13.163 15 12.5 15H2.5C1.83696 15 1.20107 14.7366 0.732233 14.2678C0.263392 13.7989 0 13.163 0 12.5V2.5ZM11.875 7.5C11.8749 7.6657 11.8089 7.82457 11.6917 7.94167L9.81667 9.81667C9.75945 9.87807 9.69045 9.92732 9.61378 9.96148C9.53712 9.99564 9.45435 10.014 9.37043 10.0155C9.28652 10.017 9.20316 10.0015 9.12533 9.9701C9.04751 9.93867 8.97682 9.89188 8.91747 9.83253C8.85812 9.77318 8.81133 9.70249 8.7799 9.62466C8.74846 9.54684 8.73303 9.46348 8.73451 9.37956C8.73599 9.29565 8.75436 9.21288 8.78852 9.13622C8.82268 9.05955 8.87193 8.99055 8.93333 8.93333L10.3667 7.5L8.93333 6.06667C8.87193 6.00945 8.82268 5.94045 8.78852 5.86378C8.75436 5.78712 8.73599 5.70435 8.73451 5.62043C8.73303 5.53652 8.74846 5.45316 8.7799 5.37534C8.81133 5.29751 8.85812 5.22682 8.91747 5.16747C8.97682 5.10812 9.04751 5.06133 9.12533 5.0299C9.20316 4.99846 9.28652 4.98303 9.37043 4.98451C9.45435 4.98599 9.53712 5.00436 9.61378 5.03852C9.69045 5.07268 9.75945 5.12193 9.81667 5.18333L11.6917 7.05833C11.8092 7.175 11.875 7.33417 11.875 7.5ZM3.30833 7.05833C3.19129 7.17552 3.12555 7.33437 3.12555 7.5C3.12555 7.66563 3.19129 7.82448 3.30833 7.94167L5.18333 9.81667C5.24055 9.87807 5.30955 9.92732 5.38622 9.96148C5.46288 9.99564 5.54565 10.014 5.62956 10.0155C5.71348 10.017 5.79684 10.0015 5.87466 9.9701C5.95249 9.93867 6.02318 9.89188 6.08253 9.83253C6.14188 9.77318 6.18867 9.70249 6.2201 9.62466C6.25154 9.54684 6.26697 9.46348 6.26549 9.37956C6.26401 9.29565 6.24564 9.21288 6.21148 9.13622C6.17732 9.05955 6.12807 8.99055 6.06667 8.93333L4.63333 7.5L6.06667 6.06667C6.12807 6.00945 6.17732 5.94045 6.21148 5.86378C6.24564 5.78712 6.26401 5.70435 6.26549 5.62043C6.26697 5.53652 6.25154 5.45316 6.2201 5.37534C6.18867 5.29751 6.14188 5.22682 6.08253 5.16747C6.02318 5.10812 5.95249 5.06133 5.87466 5.0299C5.79684 4.99846 5.71348 4.98303 5.62956 4.98451C5.54565 4.98599 5.46288 5.00436 5.38622 5.03852C5.30955 5.07268 5.24055 5.12193 5.18333 5.18333L3.30833 7.05833Z" fill="#A5A5A6" style="fill:#A5A5A6;fill:color(display-p3 0.6463 0.6463 0.6500);fill-opacity:1;"/>
</svg>
