<svg width="15" height="15" viewBox="0 0 15 15" fill="none" xmlns="http://www.w3.org/2000/svg">
<path d="M14.5633 6.55489C14.4286 6.4473 14.2714 6.37143 14.1033 6.33291C13.9352 6.2944 13.7607 6.29423 13.5926 6.33242C13.3409 6.38926 13.0797 6.38909 12.8281 6.33194C12.5765 6.27479 12.3408 6.1621 12.1384 6.00211C11.936 5.84213 11.7719 5.6389 11.6582 5.40731C11.5445 5.17571 11.484 4.92162 11.4811 4.66362C11.4798 4.36044 11.3587 4.07006 11.1443 3.85566C10.93 3.64127 10.6396 3.5202 10.3364 3.51879C10.0784 3.51597 9.8243 3.45549 9.59269 3.34177C9.36109 3.22805 9.15785 3.06397 8.99785 2.86155C8.83786 2.65912 8.72516 2.42348 8.66802 2.17187C8.61087 1.92026 8.61072 1.65905 8.66758 1.40738C8.70533 1.23885 8.70481 1.064 8.66604 0.895696C8.62727 0.727397 8.55125 0.569937 8.44356 0.434911C8.33588 0.299885 8.19928 0.190731 8.04383 0.115488C7.88837 0.0402447 7.71802 0.00082802 7.54532 0.000140575C7.52965 6.84599e-05 7.5143 0 7.49866 0C6.01339 0.000265766 4.56164 0.441527 3.32744 1.26785C2.09325 2.09416 1.13219 3.26833 0.566105 4.64149C1.65747e-05 6.01466 -0.145611 7.52499 0.147684 8.98101C0.440979 10.437 1.15999 11.7732 2.21356 12.8201C3.26714 13.867 4.60783 14.5775 6.06569 14.8616C7.52355 15.1456 9.03292 14.9904 10.4025 14.4156C11.772 13.8408 12.94 12.8723 13.7585 11.6329C14.577 10.3935 15.009 8.93897 14.9999 7.45373C14.9992 7.28075 14.9597 7.11007 14.8841 6.95448C14.8085 6.79889 14.6989 6.66232 14.5633 6.55489ZM3.71525 5.44549C3.83627 5.32446 3.99047 5.24204 4.15834 5.20865C4.32621 5.17525 4.50021 5.19239 4.65834 5.25789C4.81647 5.32339 4.95163 5.43431 5.04672 5.57662C5.14181 5.71894 5.19256 5.88625 5.19256 6.05741C5.19256 6.22857 5.14181 6.39588 5.04672 6.5382C4.95163 6.68051 4.81647 6.79143 4.65834 6.85693C4.50021 6.92243 4.32621 6.93956 4.15834 6.90617C3.99047 6.87278 3.83627 6.79036 3.71525 6.66933C3.55296 6.50704 3.46179 6.28692 3.46179 6.05741C3.46179 5.8279 3.55296 5.60778 3.71525 5.44549ZM5.51602 10.7078C5.39499 10.8288 5.24079 10.9112 5.07292 10.9446C4.90505 10.978 4.73105 10.9609 4.57292 10.8954C4.41479 10.8299 4.27964 10.719 4.18455 10.5767C4.08946 10.4343 4.0387 10.267 4.0387 10.0959C4.0387 9.92471 4.08946 9.7574 4.18455 9.61508C4.27964 9.47277 4.41479 9.36185 4.57292 9.29635C4.73105 9.23085 4.90505 9.21372 5.07292 9.24711C5.24079 9.2805 5.39499 9.36292 5.51602 9.48395C5.6783 9.64624 5.76947 9.86636 5.76947 10.0959C5.76947 10.3254 5.6783 10.5455 5.51602 10.7078ZM7.46524 7.82318C7.34422 7.70215 7.2618 7.54795 7.22841 7.38008C7.19501 7.21221 7.21215 7.03821 7.27765 6.88008C7.34315 6.72195 7.45407 6.5868 7.59638 6.49171C7.7387 6.39662 7.90601 6.34586 8.07717 6.34586C8.24833 6.34586 8.41564 6.39662 8.55795 6.49171C8.70027 6.5868 8.81119 6.72195 8.87669 6.88008C8.94219 7.03821 8.95932 7.21221 8.92593 7.38008C8.89254 7.54795 8.81012 7.70215 8.68909 7.82318C8.5268 7.98547 8.30668 8.07664 8.07717 8.07664C7.84765 8.07664 7.62754 7.98547 7.46524 7.82318ZM10.1314 11.2847C10.0104 11.4057 9.85617 11.4882 9.6883 11.5216C9.52044 11.5549 9.34643 11.5378 9.1883 11.4723C9.03018 11.4068 8.89502 11.2959 8.79993 11.1536C8.70484 11.0113 8.65408 10.844 8.65408 10.6728C8.65408 10.5016 8.70484 10.3343 8.79993 10.192C8.89502 10.0497 9.03018 9.93877 9.1883 9.87327C9.34643 9.80778 9.52044 9.79064 9.6883 9.82403C9.85617 9.85742 10.0104 9.93984 10.1314 10.0609C10.2937 10.2232 10.3849 10.4433 10.3849 10.6728C10.3849 10.9023 10.2937 11.1224 10.1314 11.2847Z" fill="#A5A5A6" style="fill:#A5A5A6;fill:color(display-p3 0.6463 0.6463 0.6500);fill-opacity:1;"/>
</svg>
