<svg width="15" height="15" viewBox="0 0 15 15" fill="none" xmlns="http://www.w3.org/2000/svg">
<path d="M10.9615 4.03846H4.03846V10.9615H10.9615V4.03846Z" fill="#A5A5A6" style="fill:#A5A5A6;fill:color(display-p3 0.6463 0.6463 0.6500);fill-opacity:1;"/>
<path fill-rule="evenodd" clip-rule="evenodd" d="M4.61538 0C4.76839 0 4.91514 0.0607827 5.02333 0.168977C5.13152 0.277171 5.19231 0.423914 5.19231 0.576923V1.15385H6.92308V0.576923C6.92308 0.423914 6.98386 0.277171 7.09205 0.168977C7.20025 0.0607827 7.34699 0 7.5 0C7.65301 0 7.79975 0.0607827 7.90795 0.168977C8.01614 0.277171 8.07692 0.423914 8.07692 0.576923V1.15385H9.80769V0.576923C9.80769 0.423914 9.86848 0.277171 9.97667 0.168977C10.0849 0.0607827 10.2316 0 10.3846 0C10.5376 0 10.6844 0.0607827 10.7926 0.168977C10.9008 0.277171 10.9615 0.423914 10.9615 0.576923V1.15385H11.5385C12.1505 1.15385 12.7375 1.39698 13.1702 1.82975C13.603 2.26253 13.8462 2.8495 13.8462 3.46154V4.03846H14.4231C14.5761 4.03846 14.7228 4.09924 14.831 4.20744C14.9392 4.31563 15 4.46238 15 4.61538C15 4.76839 14.9392 4.91514 14.831 5.02333C14.7228 5.13152 14.5761 5.19231 14.4231 5.19231H13.8462V6.92308H14.4231C14.5761 6.92308 14.7228 6.98386 14.831 7.09205C14.9392 7.20025 15 7.34699 15 7.5C15 7.65301 14.9392 7.79975 14.831 7.90795C14.7228 8.01614 14.5761 8.07692 14.4231 8.07692H13.8462V9.80769H14.4231C14.5761 9.80769 14.7228 9.86848 14.831 9.97667C14.9392 10.0849 15 10.2316 15 10.3846C15 10.5376 14.9392 10.6844 14.831 10.7926C14.7228 10.9008 14.5761 10.9615 14.4231 10.9615H13.8462V11.5385C13.8462 12.1505 13.603 12.7375 13.1702 13.1702C12.7375 13.603 12.1505 13.8462 11.5385 13.8462H10.9615V14.4231C10.9615 14.5761 10.9008 14.7228 10.7926 14.831C10.6844 14.9392 10.5376 15 10.3846 15C10.2316 15 10.0849 14.9392 9.97667 14.831C9.86848 14.7228 9.80769 14.5761 9.80769 14.4231V13.8462H8.07692V14.4231C8.07692 14.5761 8.01614 14.7228 7.90795 14.831C7.79975 14.9392 7.65301 15 7.5 15C7.34699 15 7.20025 14.9392 7.09205 14.831C6.98386 14.7228 6.92308 14.5761 6.92308 14.4231V13.8462H5.19231V14.4231C5.19231 14.5761 5.13152 14.7228 5.02333 14.831C4.91514 14.9392 4.76839 15 4.61538 15C4.46238 15 4.31563 14.9392 4.20744 14.831C4.09924 14.7228 4.03846 14.5761 4.03846 14.4231V13.8462H3.46154C2.8495 13.8462 2.26253 13.603 1.82975 13.1702C1.39698 12.7375 1.15385 12.1505 1.15385 11.5385V10.9615H0.576923C0.423914 10.9615 0.277171 10.9008 0.168977 10.7926C0.0607827 10.6844 0 10.5376 0 10.3846C0 10.2316 0.0607827 10.0849 0.168977 9.97667C0.277171 9.86848 0.423914 9.80769 0.576923 9.80769H1.15385V8.07692H0.576923C0.423914 8.07692 0.277171 8.01614 0.168977 7.90795C0.0607827 7.79975 0 7.65301 0 7.5C0 7.34699 0.0607827 7.20025 0.168977 7.09205C0.277171 6.98386 0.423914 6.92308 0.576923 6.92308H1.15385V5.19231H0.576923C0.423914 5.19231 0.277171 5.13152 0.168977 5.02333C0.0607827 4.91514 0 4.76839 0 4.61538C0 4.46238 0.0607827 4.31563 0.168977 4.20744C0.277171 4.09924 0.423914 4.03846 0.576923 4.03846H1.15385V3.46154C1.15385 2.8495 1.39698 2.26253 1.82975 1.82975C2.26253 1.39698 2.8495 1.15385 3.46154 1.15385H4.03846V0.576923C4.03846 0.423914 4.09924 0.277171 4.20744 0.168977C4.31563 0.0607827 4.46238 0 4.61538 0ZM2.88462 3.46154C2.88462 3.30853 2.9454 3.16179 3.05359 3.05359C3.16179 2.9454 3.30853 2.88462 3.46154 2.88462H11.5385C11.6915 2.88462 11.8382 2.9454 11.9464 3.05359C12.0546 3.16179 12.1154 3.30853 12.1154 3.46154V11.5385C12.1154 11.6915 12.0546 11.8382 11.9464 11.9464C11.8382 12.0546 11.6915 12.1154 11.5385 12.1154H3.46154C3.30853 12.1154 3.16179 12.0546 3.05359 11.9464C2.9454 11.8382 2.88462 11.6915 2.88462 11.5385V3.46154Z" fill="#A5A5A6" style="fill:#A5A5A6;fill:color(display-p3 0.6463 0.6463 0.6500);fill-opacity:1;"/>
</svg>
