<svg width="15" height="15" viewBox="0 0 15 15" fill="none" xmlns="http://www.w3.org/2000/svg">
<path fill-rule="evenodd" clip-rule="evenodd" d="M7.95627 1.15489C6.9063 1.15308 5.87921 1.45252 5.00406 2.01558C4.93902 2.0601 4.86544 2.0915 4.78768 2.10792C4.70992 2.12434 4.62955 2.12545 4.55134 2.11119C4.47312 2.09692 4.39865 2.06757 4.33234 2.02486C4.26602 1.98216 4.20921 1.92698 4.16526 1.86258C4.12131 1.79819 4.09112 1.72589 4.07648 1.64997C4.06184 1.57404 4.06304 1.49604 4.08001 1.42057C4.09699 1.34511 4.12939 1.27372 4.1753 1.21063C4.22122 1.14753 4.2797 1.09403 4.3473 1.05327C5.33359 0.420352 6.47813 0.0586299 7.65928 0.00654592C8.84043 -0.0455381 10.014 0.213962 11.0554 0.757466C12.0968 1.30097 12.9669 2.10817 13.5735 3.09327C14.18 4.07837 14.5002 5.20457 14.5 6.35216C14.5 8.6725 14.0447 10.892 13.215 12.929C13.1557 13.0695 13.0417 13.1817 12.8978 13.2412C12.7539 13.3007 12.5916 13.3028 12.4461 13.247C12.3006 13.1912 12.1836 13.0821 12.1204 12.9431C12.0572 12.8042 12.053 12.6468 12.1086 12.5048C12.9054 10.5456 13.3131 8.45774 13.3102 6.35139C13.3102 4.97319 12.7462 3.65144 11.7421 2.67691C10.738 1.70237 9.37623 1.15489 7.95627 1.15489ZM3.32172 2.68612C3.38684 2.72806 3.44281 2.78205 3.48643 2.84499C3.53005 2.90793 3.56046 2.9786 3.57593 3.05295C3.5914 3.1273 3.59162 3.20389 3.57658 3.27832C3.56154 3.35276 3.53154 3.42359 3.48829 3.48677C2.9086 4.33605 2.60037 5.33265 2.60231 6.35139C2.60231 7.59316 2.23507 8.75333 1.59894 9.73335C1.51479 9.86301 1.38103 9.9549 1.22707 9.98883C1.07312 10.0228 0.911579 9.99594 0.777998 9.91427C0.644417 9.8326 0.549733 9.70277 0.514777 9.55334C0.479821 9.40391 0.507455 9.24712 0.591601 9.11747C1.12955 8.28948 1.41423 7.33026 1.41254 6.35139C1.41254 5.05804 1.81151 3.85245 2.49682 2.84856C2.53997 2.7853 2.59554 2.7309 2.66036 2.68849C2.72518 2.64609 2.79797 2.61649 2.87458 2.60141C2.9512 2.58632 3.03012 2.58604 3.10684 2.60057C3.18356 2.61511 3.25658 2.64418 3.32172 2.68612ZM7.95627 4.04183C7.32518 4.04183 6.71993 4.28516 6.27368 4.71829C5.82743 5.15141 5.57673 5.73886 5.57673 6.35139C5.57673 8.73793 4.64395 10.9143 3.11391 12.5533C3.06141 12.6095 2.99802 12.6552 2.92736 12.6876C2.85669 12.72 2.78014 12.7386 2.70207 12.7423C2.624 12.7461 2.54593 12.7348 2.47234 12.7093C2.39874 12.6837 2.33105 12.6443 2.27314 12.5934C2.15618 12.4904 2.08612 12.3467 2.07839 12.1936C2.07065 12.0406 2.12587 11.8908 2.2319 11.7773C3.62156 10.2924 4.39008 8.35745 4.38696 6.35139C4.38696 5.43259 4.76302 4.55143 5.43239 3.90174C6.10176 3.25205 7.00963 2.88706 7.95627 2.88706C8.90291 2.88706 9.81078 3.25205 10.4802 3.90174C11.1495 4.55143 11.5256 5.43259 11.5256 6.35139C11.5256 6.7725 11.5081 7.19053 11.4724 7.60317C11.4595 7.75579 11.3846 7.89718 11.2643 7.99622C11.1439 8.09526 10.988 8.14385 10.8308 8.13129C10.6735 8.11873 10.5278 8.04606 10.4258 7.92926C10.3238 7.81246 10.2737 7.6611 10.2866 7.50848C10.3192 7.1274 10.3358 6.74171 10.3358 6.35139C10.3358 5.73886 10.0851 5.15141 9.63886 4.71829C9.19261 4.28516 8.58736 4.04183 7.95627 4.04183ZM7.95627 5.774C8.11404 5.774 8.26535 5.83483 8.37692 5.94312C8.48848 6.0514 8.55116 6.19826 8.55116 6.35139C8.55116 9.35997 7.42167 12.1137 5.55214 14.2331C5.44959 14.3495 5.30361 14.4216 5.1463 14.4335C4.989 14.4454 4.83326 14.3962 4.71336 14.2967C4.59345 14.1971 4.51919 14.0554 4.50692 13.9027C4.49465 13.7501 4.54537 13.5989 4.64792 13.4825C6.40285 11.4974 7.36568 8.96708 7.36139 6.35139C7.36139 6.19826 7.42406 6.0514 7.53562 5.94312C7.64719 5.83483 7.7985 5.774 7.95627 5.774ZM10.5254 9.76415C10.677 9.80623 10.8053 9.90506 10.8819 10.0389C10.9585 10.1727 10.9772 10.3306 10.9339 10.4778C10.487 11.9967 9.795 13.4373 8.8835 14.7459C8.79514 14.8728 8.65847 14.9604 8.50355 14.9895C8.34863 15.0186 8.18814 14.9867 8.0574 14.901C7.92666 14.8152 7.83637 14.6826 7.8064 14.5322C7.77643 14.3818 7.80922 14.2261 7.89757 14.0992C8.7389 12.8917 9.37767 11.5623 9.7901 10.1606C9.83346 10.0134 9.93528 9.88897 10.0732 9.81462C10.211 9.74027 10.3737 9.72212 10.5254 9.76415Z" fill="#A5A5A6" style="fill:#A5A5A6;fill:color(display-p3 0.6463 0.6463 0.6500);fill-opacity:1;"/>
</svg>
