<svg width="15" height="15" viewBox="0 0 15 15" fill="none" xmlns="http://www.w3.org/2000/svg">
<path d="M12.8571 14.5C13.4255 14.5 13.9705 14.2542 14.3724 13.8166C14.7742 13.379 15 12.7855 15 12.1667V8.66667C15 8.04783 14.7742 7.45434 14.3724 7.01675C13.9705 6.57917 13.4255 6.33333 12.8571 6.33333H2.14286C1.57454 6.33333 1.02949 6.57917 0.627628 7.01675C0.225765 7.45434 0 8.04783 0 8.66667V12.1667C0 12.7855 0.225765 13.379 0.627628 13.8166C1.02949 14.2542 1.57454 14.5 2.14286 14.5H12.8571ZM0 6.058V2.83333C0 2.21449 0.225765 1.621 0.627628 1.18342C1.02949 0.745833 1.57454 0.5 2.14286 0.5H5.985C6.41099 0.500202 6.81949 0.684558 7.12071 1.01256L8.63643 2.66222C8.73643 2.77189 8.87286 2.83333 9.015 2.83333H12.8571C13.4255 2.83333 13.9705 3.07917 14.3724 3.51675C14.7742 3.95434 15 4.54783 15 5.16667V6.058C14.4113 5.48294 13.648 5.16544 12.8571 5.16667H2.14286C1.35199 5.16544 0.588692 5.48294 0 6.058Z" fill="#A5A5A6" style="fill:#A5A5A6;fill:color(display-p3 0.6463 0.6463 0.6500);fill-opacity:1;"/>
</svg>
