<svg width="13" height="15" viewBox="0 0 13 15" fill="none" xmlns="http://www.w3.org/2000/svg">
<path fill-rule="evenodd" clip-rule="evenodd" d="M7.59091 1.1631e-07C7.99884 -0.000131761 8.39875 0.111884 8.74503 0.323661C9.09134 0.535516 9.37062 0.83868 9.55043 1.19838C9.91173 1.22837 10.2716 1.26439 10.6307 1.3058C11.7194 1.42937 12.4999 2.3485 12.5 3.39774V12.8571C12.5 13.4255 12.27 13.9703 11.8608 14.3722C11.4516 14.7741 10.8968 15 10.3182 15H2.68182C2.10316 15 1.54837 14.7741 1.1392 14.3722C0.730034 13.9703 0.5 13.4255 0.5 12.8571V3.39774C0.500058 2.34779 1.28063 1.42939 2.36932 1.30511C2.72771 1.26441 3.08826 1.22909 3.45028 1.19838C3.62998 0.838892 3.90894 0.536198 4.25497 0.324358C4.60116 0.112499 5.00119 1.77747e-06 5.40909 1.1631e-07H7.59091ZM3.77273 8.03571C3.47148 8.03571 3.22727 8.27556 3.22727 8.57143C3.22727 8.8673 3.47148 9.10714 3.77273 9.10714H6.5C6.80125 9.10714 7.04545 8.8673 7.04545 8.57143C7.04545 8.27556 6.80125 8.03571 6.5 8.03571H3.77273ZM3.77273 5.89286C3.47148 5.89286 3.22727 6.1327 3.22727 6.42857C3.22727 6.72444 3.47148 6.96429 3.77273 6.96429H9.22727C9.52852 6.96429 9.77273 6.72444 9.77273 6.42857C9.77273 6.1327 9.52852 5.89286 9.22727 5.89286H3.77273ZM5.40909 1.07143C5.11982 1.07162 4.84233 1.18443 4.63778 1.38532C4.43324 1.58621 4.31837 1.85875 4.31818 2.14286H8.68182C8.68182 1.8587 8.5668 1.58626 8.36222 1.38532C8.15763 1.18439 7.88024 1.07143 7.59091 1.07143H5.40909Z" fill="#A5A5A6" style="fill:#A5A5A6;fill:color(display-p3 0.6463 0.6463 0.6500);fill-opacity:1;"/>
</svg>
