<svg width="15" height="15" viewBox="0 0 15 15" fill="none" xmlns="http://www.w3.org/2000/svg">
<path fill-rule="evenodd" clip-rule="evenodd" d="M1.18544 0.529234C3.27161 0.176182 5.38378 -0.000852303 7.49961 3.0849e-06C9.65126 3.0849e-06 11.7614 0.181542 13.8145 0.529234C14.1472 0.586665 14.4487 0.760004 14.6657 1.01852C14.8827 1.27704 15.0011 1.60404 15 1.94154V2.74462C14.9999 3.35661 14.7566 3.94349 14.3238 4.37616L9.56818 9.13155C9.46104 9.23875 9.37608 9.366 9.31813 9.50604C9.26019 9.64608 9.2304 9.79615 9.23047 9.94771V12.1992C9.2306 12.6279 9.11134 13.0481 8.88606 13.4127C8.66078 13.7774 8.33839 14.0721 7.95502 14.2639L6.60341 14.9392C6.51545 14.9832 6.41773 15.0039 6.31952 14.9994C6.2213 14.9949 6.12586 14.9655 6.04224 14.9137C5.95863 14.862 5.88961 14.7898 5.84175 14.704C5.79388 14.6181 5.76876 14.5214 5.76875 14.4231V9.94771C5.76849 9.64179 5.64674 9.3485 5.43028 9.13232L0.676188 4.37539C0.24336 3.94272 0.000130708 3.35584 0 2.74385V1.94154C0 1.25154 0.491564 0.646927 1.18544 0.529234Z" fill="#A5A5A6" style="fill:#A5A5A6;fill:color(display-p3 0.6463 0.6463 0.6500);fill-opacity:1;"/>
</svg>
