<svg width="15" height="15" viewBox="0 0 15 15" fill="none" xmlns="http://www.w3.org/2000/svg">
<path fill-rule="evenodd" clip-rule="evenodd" d="M6.79436 4.53648e-08C6.0933 4.53648e-08 5.49546 0.51 5.38002 1.20538L5.24394 2.03C5.22864 2.12231 5.15602 2.23 5.01688 2.29769C4.75492 2.42439 4.50292 2.57097 4.26307 2.73615C4.13616 2.82462 4.00772 2.83308 3.91904 2.8L3.14154 2.50615C2.82368 2.38634 2.47389 2.38389 2.15441 2.49926C1.83494 2.61463 1.56652 2.84032 1.39693 3.13615L0.692051 4.36462C0.522398 4.66028 0.46248 5.0069 0.522955 5.34284C0.583429 5.67877 0.760376 5.98223 1.02232 6.19923L1.66451 6.73154C1.73713 6.79154 1.79447 6.90769 1.78224 7.06231C1.76045 7.35395 1.76045 7.64682 1.78224 7.93846C1.79371 8.09231 1.73713 8.20923 1.66527 8.26923L1.02232 8.80154C0.760376 9.01854 0.583429 9.322 0.522955 9.65793C0.46248 9.99387 0.522398 10.3405 0.692051 10.6362L1.39693 11.8646C1.56664 12.1603 1.83511 12.3858 2.15458 12.5011C2.47404 12.6163 2.82377 12.6137 3.14154 12.4938L3.92057 12.2C4.00849 12.1669 4.13693 12.1762 4.2646 12.2631C4.50313 12.4277 4.75465 12.5746 5.01764 12.7015C5.15678 12.7692 5.22941 12.8769 5.2447 12.9708L5.38078 13.7946C5.49622 14.49 6.09407 15 6.79512 15H8.20488C8.90517 15 9.50378 14.49 9.61922 13.7946L9.7553 12.97C9.77059 12.8777 9.84245 12.77 9.98236 12.7015C10.2453 12.5746 10.4969 12.4277 10.7354 12.2631C10.8631 12.1754 10.9915 12.1669 11.0794 12.2L11.8592 12.4938C12.1769 12.6133 12.5263 12.6155 12.8455 12.5001C13.1646 12.3848 13.4328 12.1593 13.6023 11.8638L14.3079 10.6354C14.4776 10.3397 14.5375 9.9931 14.477 9.65716C14.4166 9.32123 14.2396 9.01777 13.9777 8.80077L13.3355 8.26846C13.2629 8.20846 13.2055 8.09231 13.2178 7.93769C13.2395 7.64605 13.2395 7.35318 13.2178 7.06154C13.2055 6.90769 13.2629 6.79077 13.3347 6.73077L13.9769 6.19846C14.5182 5.75077 14.6581 4.97538 14.3079 4.36385L13.6031 3.13538C13.4334 2.83968 13.1649 2.61416 12.8454 2.49893C12.526 2.38371 12.1762 2.38627 11.8585 2.50615L11.0787 2.8C10.9915 2.83308 10.8631 2.82385 10.7354 2.73615C10.4958 2.571 10.2441 2.42442 9.98236 2.29769C9.84245 2.23077 9.77059 2.12308 9.7553 2.03L9.61845 1.20538C9.5627 0.868511 9.38995 0.562473 9.13096 0.341744C8.87196 0.121014 8.54353 -8.55695e-05 8.20411 4.53648e-08H6.79512H6.79436ZM7.49924 10.3846C8.25959 10.3846 8.9888 10.0807 9.52644 9.53973C10.0641 8.99876 10.3661 8.26505 10.3661 7.5C10.3661 6.73495 10.0641 6.00124 9.52644 5.46027C8.9888 4.9193 8.25959 4.61538 7.49924 4.61538C6.73888 4.61538 6.00968 4.9193 5.47203 5.46027C4.93438 6.00124 4.63233 6.73495 4.63233 7.5C4.63233 8.26505 4.93438 8.99876 5.47203 9.53973C6.00968 10.0807 6.73888 10.3846 7.49924 10.3846Z" fill="#A5A5A6" style="fill:#A5A5A6;fill:color(display-p3 0.6463 0.6463 0.6500);fill-opacity:1;"/>
</svg>
