<svg width="15" height="15" viewBox="0 0 15 15" fill="none" xmlns="http://www.w3.org/2000/svg">
<path d="M7.5 0.000488281C11.6421 0.000488281 14.9998 3.35771 15 7.49951C15 11.6414 11.6422 14.9995 7.5 14.9995C3.35794 14.9994 0 11.6414 0 7.49951C0.000166011 3.3578 3.35804 0.000633805 7.5 0.000488281ZM6.63477 3.46143C6.13769 3.46155 5.64771 3.57897 5.2041 3.80322C4.76038 4.02758 4.37488 4.35304 4.08008 4.75342C3.7854 5.15369 3.58934 5.61777 3.50684 6.10791C3.42435 6.59811 3.458 7.10097 3.60547 7.57568C3.75302 8.05048 4.01058 8.48411 4.35645 8.84131C4.70229 9.19844 5.12693 9.46955 5.59668 9.63232C6.06644 9.7951 6.56786 9.8454 7.06055 9.77881C7.55329 9.71219 8.02388 9.53024 8.43359 9.24854L9.97754 10.7915C10.0303 10.8481 10.0935 10.8938 10.1641 10.9253C10.2347 10.9568 10.3113 10.9737 10.3887 10.9751C10.4661 10.9765 10.5434 10.9621 10.6152 10.9331C10.687 10.9041 10.7519 10.8609 10.8066 10.8062C10.8614 10.7514 10.9056 10.6866 10.9346 10.6147C10.9636 10.5429 10.977 10.4656 10.9756 10.3882C10.9742 10.3108 10.9573 10.2343 10.9258 10.1636C10.8943 10.093 10.8495 10.0288 10.793 9.97607L9.24902 8.43311C9.5767 7.95684 9.76843 7.39982 9.80273 6.82275C9.83696 6.24552 9.71253 5.6695 9.44336 5.15771C9.17419 4.64597 8.77039 4.21735 8.27539 3.91846C7.78039 3.61959 7.213 3.46135 6.63477 3.46143ZM6.63477 4.61572C6.89984 4.61572 7.16231 4.66764 7.40723 4.76904C7.65215 4.87049 7.87503 5.01912 8.0625 5.20654C8.24998 5.39402 8.39853 5.61687 8.5 5.86182C8.60145 6.10673 8.65428 6.36918 8.6543 6.63428C8.6543 7.16975 8.44115 7.68337 8.0625 8.06201C7.68383 8.44066 7.17028 8.65381 6.63477 8.65381C6.09925 8.6538 5.5857 8.44065 5.20703 8.06201C4.82839 7.68337 4.61523 7.16974 4.61523 6.63428C4.61525 6.36918 4.66808 6.10673 4.76953 5.86182C4.871 5.61687 5.01954 5.39402 5.20703 5.20654C5.39451 5.01911 5.61738 4.87049 5.8623 4.76904C6.10722 4.66763 6.36968 4.61572 6.63477 4.61572Z" fill="#A5A5A6" style="fill:#A5A5A6;fill:color(display-p3 0.6463 0.6463 0.6500);fill-opacity:1;"/>
</svg>
