<svg width="15" height="15" viewBox="0 0 15 15" fill="none" xmlns="http://www.w3.org/2000/svg">
<path d="M14.977 8.08001C15.0812 6.75182 14.8303 5.41979 14.2501 4.22126C13.2897 5.1363 12.1545 5.8468 10.9128 6.3099C11.0126 7.53882 10.9573 8.77546 10.7482 9.99049C12.2592 9.60888 13.6908 8.96208 14.977 8.08001ZM9.52601 10.2381C9.77167 9.06032 9.85757 7.8547 9.78137 6.6539C9.04914 6.82898 8.28538 6.92153 7.50008 6.92153C6.71478 6.92153 5.95102 6.82898 5.21879 6.6539C5.14437 7.85469 5.23025 9.06008 5.47415 10.2381C6.81693 10.4445 8.18323 10.4445 9.52601 10.2381ZM5.78642 11.4482C6.92489 11.5833 8.07527 11.5833 9.21374 11.4482C8.82246 12.7113 8.24484 13.9085 7.50008 15C6.7553 13.9085 6.17768 12.7113 5.78642 11.4482ZM4.25197 9.99126C4.04172 8.77584 3.98641 7.53854 4.08737 6.30913C2.84542 5.84615 1.70988 5.13564 0.749275 4.22049C0.169196 5.41932 -0.0814464 6.75164 0.0232001 8.08001C1.30932 8.96208 2.741 9.60966 4.25197 9.99126ZM14.6962 9.62258C14.3079 10.9422 13.5665 12.1299 12.5525 13.0569C11.5385 13.9838 10.2907 14.6145 8.94454 14.8804C9.61871 13.7438 10.1332 12.5192 10.4736 11.2415C11.9577 10.9296 13.3829 10.3834 14.6962 9.62335V9.62258ZM0.303939 9.62258C1.59764 10.3715 3.01903 10.9245 4.52656 11.2415C4.86691 12.5192 5.38145 13.7438 6.05562 14.8804C4.70953 14.6145 3.46178 13.984 2.44782 13.0572C1.43385 12.1304 0.692397 10.9428 0.303939 9.62335V9.62258ZM8.94454 0.118778C10.8503 0.494402 12.5365 1.59644 13.6486 3.19313C12.8277 4.02487 11.8477 4.68177 10.7674 5.12443C10.4763 3.3565 9.85809 1.65876 8.94454 0.118778ZM7.50008 0C8.62258 1.64446 9.36009 3.52198 9.65754 5.49234C8.96761 5.66973 8.24461 5.7646 7.50008 5.7646C6.75555 5.7646 6.03255 5.67051 5.34262 5.49234C5.64004 3.52197 6.37755 1.64445 7.50008 0ZM6.05562 0.118778C5.14205 1.65875 4.52379 3.3565 4.23274 5.12443C3.15244 4.68179 2.17244 4.02489 1.35152 3.19313C2.46373 1.59667 4.14998 0.494134 6.05562 0.118778Z" fill="#A5A5A6" style="fill:#A5A5A6;fill:color(display-p3 0.6463 0.6463 0.6500);fill-opacity:1;"/>
</svg>
