<svg width="15" height="15" viewBox="0 0 15 15" fill="none" xmlns="http://www.w3.org/2000/svg">
<path d="M7.12194 1.72677C7.2223 1.6266 7.35834 1.57033 7.50018 1.57033C7.64201 1.57033 7.77805 1.6266 7.87841 1.72677L14.08 7.92474C14.1294 7.9758 14.1884 8.01652 14.2537 8.04453C14.3191 8.07253 14.3893 8.08725 14.4604 8.08784C14.5314 8.08842 14.6019 8.07485 14.6677 8.04793C14.7334 8.021 14.7932 7.98125 14.8434 7.931C14.8936 7.88075 14.9334 7.82101 14.9602 7.75526C14.9871 7.68951 15.0006 7.61906 15 7.54804C14.9993 7.47701 14.9845 7.40682 14.9564 7.34158C14.9284 7.27633 14.8876 7.21732 14.8364 7.168L8.63558 0.970032C8.48648 0.821014 8.30947 0.702806 8.11465 0.622157C7.91984 0.541509 7.71104 0.5 7.50018 0.5C7.28931 0.5 7.08051 0.541509 6.8857 0.622157C6.69088 0.702806 6.51387 0.821014 6.36477 0.970032L0.163216 7.168C0.11212 7.21737 0.071373 7.27641 0.0433532 7.34169C0.0153335 7.40696 0.000601884 7.47716 1.80611e-05 7.54819C-0.000565762 7.61922 0.0130098 7.68965 0.0399528 7.75537C0.0668957 7.8211 0.106666 7.88081 0.156944 7.93101C0.207222 7.98121 0.267 8.0209 0.332791 8.04777C0.398581 8.07463 0.469066 8.08813 0.540133 8.08748C0.611201 8.08683 0.681426 8.07204 0.746713 8.04398C0.812001 8.01591 0.871041 7.97513 0.920391 7.92402L7.12194 1.72677Z" fill="#A5A5A6" style="fill:#A5A5A6;fill:color(display-p3 0.6463 0.6463 0.6500);fill-opacity:1;"/>
<path d="M7.50018 2.86152L13.3228 8.68076C13.3442 8.70216 13.3656 8.72213 13.3877 8.7421V13.1627C13.3877 13.9009 12.7883 14.5 12.0496 14.5H9.6411C9.49915 14.5 9.36301 14.4436 9.26264 14.3433C9.16226 14.243 9.10587 14.1069 9.10587 13.9651V10.7555C9.10587 10.6137 9.04948 10.4776 8.9491 10.3773C8.84873 10.277 8.71259 10.2206 8.57064 10.2206H6.42971C6.28776 10.2206 6.15162 10.277 6.05125 10.3773C5.95087 10.4776 5.89448 10.6137 5.89448 10.7555V13.9651C5.89448 14.1069 5.83809 14.243 5.73771 14.3433C5.63734 14.4436 5.5012 14.5 5.35925 14.5H2.9507C2.59582 14.5 2.25548 14.3591 2.00454 14.1083C1.7536 13.8575 1.61262 13.5174 1.61262 13.1627V8.7421C1.63483 8.72225 1.65648 8.70179 1.67757 8.68076L7.50018 2.86152Z" fill="#A5A5A6" style="fill:#A5A5A6;fill:color(display-p3 0.6463 0.6463 0.6500);fill-opacity:1;"/>
</svg>
