<svg width="15" height="13" viewBox="0 0 15 13" fill="none" xmlns="http://www.w3.org/2000/svg">
<path fill-rule="evenodd" clip-rule="evenodd" d="M0 2.13636C0 1.70237 0.169323 1.28616 0.470721 0.97928C0.772119 0.672402 1.1809 0.5 1.60714 0.5H13.3929C13.8191 0.5 14.2279 0.672402 14.5293 0.97928C14.8307 1.28616 15 1.70237 15 2.13636V10.8636C15 11.2976 14.8307 11.7138 14.5293 12.0207C14.2279 12.3276 13.8191 12.5 13.3929 12.5H1.60714C1.1809 12.5 0.772119 12.3276 0.470721 12.0207C0.169323 11.7138 0 11.2976 0 10.8636V2.13636ZM1.07143 9.45273V10.8636C1.07143 11.1647 1.31143 11.4091 1.60714 11.4091H13.3929C13.5349 11.4091 13.6712 11.3516 13.7717 11.2493C13.8721 11.147 13.9286 11.0083 13.9286 10.8636V9.45273L12.0071 7.49709C11.8062 7.2928 11.5339 7.17805 11.25 7.17805C10.9661 7.17805 10.6938 7.2928 10.4929 7.49709L9.86429 8.13636L10.5571 8.84182C10.6098 8.89176 10.652 8.95197 10.6813 9.01888C10.7106 9.08579 10.7263 9.15802 10.7276 9.23126C10.7288 9.3045 10.7156 9.37724 10.6887 9.44516C10.6617 9.51308 10.6216 9.57478 10.5707 9.62657C10.5199 9.67837 10.4593 9.7192 10.3926 9.74664C10.3259 9.77407 10.2544 9.78754 10.1825 9.78625C10.1106 9.78496 10.0396 9.76893 9.9739 9.73911C9.90819 9.7093 9.84904 9.66632 9.8 9.61273L6.11429 5.86073C5.91339 5.65644 5.64107 5.54169 5.35714 5.54169C5.07321 5.54169 4.80089 5.65644 4.6 5.86073L1.07143 9.45345V9.45273ZM8.30357 3.77273C8.30357 3.55573 8.38823 3.34762 8.53893 3.19419C8.68963 3.04075 8.89402 2.95455 9.10714 2.95455C9.32026 2.95455 9.52466 3.04075 9.67535 3.19419C9.82605 3.34762 9.91071 3.55573 9.91071 3.77273C9.91071 3.98972 9.82605 4.19783 9.67535 4.35127C9.52466 4.50471 9.32026 4.59091 9.10714 4.59091C8.89402 4.59091 8.68963 4.50471 8.53893 4.35127C8.38823 4.19783 8.30357 3.98972 8.30357 3.77273Z" fill="#A5A5A6" style="fill:#A5A5A6;fill:color(display-p3 0.6463 0.6463 0.6500);fill-opacity:1;"/>
</svg>
