<svg width="15" height="15" viewBox="0 0 15 15" fill="none" xmlns="http://www.w3.org/2000/svg">
<path fill-rule="evenodd" clip-rule="evenodd" d="M0 2.5C0 1.83696 0.263392 1.20107 0.732233 0.732233C1.20107 0.263392 1.83696 0 2.5 0H4.375C5.03804 0 5.67393 0.263392 6.14277 0.732233C6.61161 1.20107 6.875 1.83696 6.875 2.5V4.375C6.875 5.03804 6.61161 5.67393 6.14277 6.14277C5.67393 6.61161 5.03804 6.875 4.375 6.875H2.5C1.83696 6.875 1.20107 6.61161 0.732233 6.14277C0.263392 5.67393 0 5.03804 0 4.375V2.5ZM8.125 2.5C8.125 1.83696 8.38839 1.20107 8.85723 0.732233C9.32607 0.263392 9.96196 0 10.625 0H12.5C13.163 0 13.7989 0.263392 14.2678 0.732233C14.7366 1.20107 15 1.83696 15 2.5V4.375C15 5.03804 14.7366 5.67393 14.2678 6.14277C13.7989 6.61161 13.163 6.875 12.5 6.875H10.625C9.96196 6.875 9.32607 6.61161 8.85723 6.14277C8.38839 5.67393 8.125 5.03804 8.125 4.375V2.5ZM0 10.625C0 9.96196 0.263392 9.32607 0.732233 8.85723C1.20107 8.38839 1.83696 8.125 2.5 8.125H4.375C5.03804 8.125 5.67393 8.38839 6.14277 8.85723C6.61161 9.32607 6.875 9.96196 6.875 10.625V12.5C6.875 13.163 6.61161 13.7989 6.14277 14.2678C5.67393 14.7366 5.03804 15 4.375 15H2.5C1.83696 15 1.20107 14.7366 0.732233 14.2678C0.263392 13.7989 0 13.163 0 12.5V10.625ZM8.125 10.625C8.125 9.96196 8.38839 9.32607 8.85723 8.85723C9.32607 8.38839 9.96196 8.125 10.625 8.125H12.5C13.163 8.125 13.7989 8.38839 14.2678 8.85723C14.7366 9.32607 15 9.96196 15 10.625V12.5C15 13.163 14.7366 13.7989 14.2678 14.2678C13.7989 14.7366 13.163 15 12.5 15H10.625C9.96196 15 9.32607 14.7366 8.85723 14.2678C8.38839 13.7989 8.125 13.163 8.125 12.5V10.625Z" fill="#A5A5A6" style="fill:#A5A5A6;fill:color(display-p3 0.6463 0.6463 0.6500);fill-opacity:1;"/>
</svg>
