<svg width="15" height="15" viewBox="0 0 15 15" fill="none" xmlns="http://www.w3.org/2000/svg">
<path fill-rule="evenodd" clip-rule="evenodd" d="M10.1834 2.77782e-08C9.47999 -7.54408e-05 8.78505 0.153626 8.14731 0.450332C7.50958 0.747037 6.94449 1.17957 6.49165 1.7176C6.0388 2.25563 5.70917 2.88615 5.52586 3.56496C5.34254 4.24376 5.30998 4.95443 5.43044 5.64714C5.47832 5.92571 5.40758 6.15929 5.27251 6.29429L0.627442 10.9364C0.225621 11.3383 -6.81047e-05 11.8833 1.54162e-08 12.4514V14.4643C1.54162e-08 14.76 0.240114 15 0.53597 15H3.21582C3.35797 15 3.49429 14.9436 3.59481 14.8431C3.69532 14.7426 3.75179 14.6064 3.75179 14.4643V13.3929H4.82373C4.96588 13.3929 5.1022 13.3364 5.20271 13.236C5.30323 13.1355 5.3597 12.9992 5.3597 12.8571V11.7857H6.43164C6.57374 11.7856 6.70997 11.7291 6.81039 11.6286L8.70986 9.73C8.84564 9.595 9.07933 9.52429 9.35732 9.57286C10.0154 9.68618 10.6899 9.66169 11.338 9.50093C11.9862 9.34017 12.5939 9.04664 13.1226 8.63894C13.6514 8.23124 14.0897 7.71825 14.4098 7.13244C14.7299 6.54663 14.9248 5.90077 14.9822 5.23576C15.0395 4.57075 14.9582 3.90107 14.7432 3.26913C14.5282 2.63719 14.1842 2.05675 13.7331 1.56457C13.282 1.0724 12.7336 0.6792 12.1226 0.409881C11.5115 0.140563 10.8512 0.000989697 10.1834 2.77782e-08ZM10.1834 2.14286C10.0413 2.14286 9.90495 2.1993 9.80444 2.29976C9.70392 2.40023 9.64745 2.53649 9.64745 2.67857C9.64745 2.82065 9.70392 2.95691 9.80444 3.05738C9.90495 3.15784 10.0413 3.21429 10.1834 3.21429C10.6099 3.21429 11.0188 3.38361 11.3204 3.68501C11.6219 3.9864 11.7913 4.39519 11.7913 4.82143C11.7913 4.96351 11.8478 5.09977 11.9483 5.20024C12.0488 5.3007 12.1852 5.35714 12.3273 5.35714C12.4695 5.35714 12.6058 5.3007 12.7063 5.20024C12.8068 5.09977 12.8633 4.96351 12.8633 4.82143C12.8633 4.11103 12.5809 3.42972 12.0784 2.92739C11.5758 2.42506 10.8942 2.14286 10.1834 2.14286Z" fill="#A5A5A6" style="fill:#A5A5A6;fill:color(display-p3 0.6463 0.6463 0.6500);fill-opacity:1;"/>
</svg>
