<svg width="17" height="17" viewBox="0 0 17 17" fill="none" xmlns="http://www.w3.org/2000/svg">
<path d="M9.41538 5.95232C9.91525 6.19097 10.3505 6.54611 10.6847 6.98788C11.0188 7.42965 11.2421 7.94517 11.3357 8.49112C11.4293 9.03707 11.3905 9.59751 11.2226 10.1254C11.0547 10.6532 10.7626 11.1331 10.3708 11.5246L6.90924 14.9861C6.26007 15.6353 5.37961 16 4.46155 16C3.54349 16 2.66303 15.6353 2.01386 14.9861C1.3647 14.337 1 13.4565 1 12.5385C1 11.6204 1.3647 10.7399 2.01386 10.0908L3.3654 8.73923M13.6346 8.26077L14.9861 6.90924C15.6353 6.26007 16 5.37961 16 4.46155C16 3.54349 15.6353 2.66303 14.9861 2.01386C14.337 1.3647 13.4565 1 12.5385 1C11.6204 1 10.7399 1.3647 10.0908 2.01386L6.62924 5.47539C6.23742 5.86693 5.94529 6.34678 5.77738 6.87464C5.60947 7.40249 5.57069 7.96293 5.66429 8.50888C5.7579 9.05483 5.98115 9.57035 6.31531 10.0121C6.64946 10.4539 7.08475 10.809 7.58462 11.0477" stroke="#A5A5A6" style="stroke:#A5A5A6;stroke:color(display-p3 0.6463 0.6463 0.6500);stroke-opacity:1;" stroke-width="1.5" stroke-linecap="round" stroke-linejoin="round"/>
</svg>
