<svg width="13" height="15" viewBox="0 0 13 15" fill="none" xmlns="http://www.w3.org/2000/svg">
<path fill-rule="evenodd" clip-rule="evenodd" d="M6.5 0C5.48736 0 4.51619 0.395088 3.80014 1.09835C3.08409 1.80161 2.68182 2.75544 2.68182 3.75V5.89286C2.10316 5.89286 1.54821 6.11862 1.13904 6.52049C0.72987 6.92235 0.5 7.46739 0.5 8.03571V12.8571C0.5 13.4255 0.72987 13.9705 1.13904 14.3724C1.54821 14.7742 2.10316 15 2.68182 15H10.3182C10.8968 15 11.4518 14.7742 11.861 14.3724C12.2701 13.9705 12.5 13.4255 12.5 12.8571V8.03571C12.5 7.46739 12.2701 6.92235 11.861 6.52049C11.4518 6.11862 10.8968 5.89286 10.3182 5.89286V3.75C10.3182 1.67857 8.60909 0 6.5 0ZM9.22727 5.89286V3.75C9.22727 3.0396 8.93994 2.35829 8.42847 1.85596C7.91701 1.35363 7.22332 1.07143 6.5 1.07143C5.77668 1.07143 5.08299 1.35363 4.57153 1.85596C4.06006 2.35829 3.77273 3.0396 3.77273 3.75V5.89286H9.22727Z" fill="#A5A5A6" style="fill:#A5A5A6;fill:color(display-p3 0.6463 0.6463 0.6500);fill-opacity:1;"/>
</svg>
