<svg width="15" height="15" viewBox="0 0 15 15" fill="none" xmlns="http://www.w3.org/2000/svg">
<path d="M11.5 0.5C13.4333 0.5 15 2.06667 15 4V6.5C15 6.63261 14.9473 6.75979 14.8536 6.85355C14.7598 6.94732 14.6326 7 14.5 7C14.3674 7 14.2402 6.94732 14.1464 6.85355C14.0527 6.75979 14 6.63261 14 6.5V4C14 3.33696 13.7366 2.70107 13.2678 2.23223C12.7989 1.76339 12.163 1.5 11.5 1.5C10.837 1.5 10.2011 1.76339 9.73223 2.23223C9.26339 2.70107 9 3.33696 9 4V6C9.53043 6 10.0391 6.21071 10.4142 6.58579C10.7893 6.96086 11 7.46957 11 8V12.5C11 13.0304 10.7893 13.5391 10.4142 13.9142C10.0391 14.2893 9.53043 14.5 9 14.5H2C1.46957 14.5 0.960859 14.2893 0.585786 13.9142C0.210714 13.5391 0 13.0304 0 12.5V8C0 7.46957 0.210714 6.96086 0.585786 6.58579C0.960859 6.21071 1.46957 6 2 6H8V4C8 2.06667 9.56667 0.5 11.5 0.5Z" fill="#A5A5A6" style="fill:#A5A5A6;fill:color(display-p3 0.6463 0.6463 0.6500);fill-opacity:1;"/>
</svg>
