<svg width="15" height="13" viewBox="0 0 15 13" fill="none" xmlns="http://www.w3.org/2000/svg">
<path d="M1.33929 0C0.599286 0 0 0.606667 0 1.35417V1.89583C0 2.64406 0.6 3.25 1.33929 3.25H13.6607C14.4 3.25 15 2.64333 15 1.89583V1.35417C15 0.605944 14.4 0 13.6607 0H1.33929Z" fill="#A5A5A6" style="fill:#A5A5A6;fill:color(display-p3 0.6463 0.6463 0.6500);fill-opacity:1;"/>
<path fill-rule="evenodd" clip-rule="evenodd" d="M1.13351 4.33333L1.51922 10.9604C1.55128 11.5119 1.79043 12.0301 2.1878 12.4092C2.58518 12.7883 3.11075 12.9997 3.65708 13H11.3407C11.8872 13 12.4132 12.7889 12.8108 12.4097C13.2085 12.0306 13.4479 11.5121 13.4799 10.9604L13.8664 4.33333H1.13351ZM5.53565 7.04167C5.53565 6.89801 5.59209 6.76023 5.69256 6.65865C5.79303 6.55707 5.92929 6.5 6.07137 6.5H8.92851C9.07059 6.5 9.20685 6.55707 9.30732 6.65865C9.40778 6.76023 9.46422 6.89801 9.46422 7.04167C9.46422 7.18533 9.40778 7.3231 9.30732 7.42468C9.20685 7.52626 9.07059 7.58333 8.92851 7.58333H6.07137C5.92929 7.58333 5.79303 7.52626 5.69256 7.42468C5.59209 7.3231 5.53565 7.18533 5.53565 7.04167Z" fill="#A5A5A6" style="fill:#A5A5A6;fill:color(display-p3 0.6463 0.6463 0.6500);fill-opacity:1;"/>
</svg>
