<svg width="15" height="15" viewBox="0 0 15 15" fill="none" xmlns="http://www.w3.org/2000/svg">
<path fill-rule="evenodd" clip-rule="evenodd" d="M4.54692 0.154552C4.74729 0.052916 4.96826 0 5.19231 0C5.41636 0 5.63732 0.052916 5.83769 0.154552L9.67846 2.10258C9.76 2.14313 9.85538 2.14313 9.93692 2.10258L12.9131 0.593599C13.133 0.482232 13.3773 0.429678 13.6228 0.440927C13.8683 0.452175 14.107 0.526852 14.316 0.657869C14.5251 0.788886 14.6977 0.971897 14.8174 1.18953C14.9371 1.40716 15 1.6522 15 1.90138V11.6376C15 12.1913 14.6915 12.6982 14.2023 12.9454L10.4523 14.8458C10.2521 14.9472 10.0315 15 9.80769 15C9.58393 15 9.36324 14.9472 9.16308 14.8458L5.32154 12.8986C5.28143 12.8782 5.23718 12.8676 5.19231 12.8676C5.14744 12.8676 5.10319 12.8782 5.06308 12.8986L2.08769 14.4076C1.86779 14.5191 1.6234 14.5718 1.37775 14.5607C1.1321 14.5495 0.893339 14.4749 0.684154 14.3438C0.474969 14.2128 0.302305 14.0297 0.182562 13.812C0.0628195 13.5942 -2.44331e-05 13.3491 7.12593e-09 13.0998V3.36357C7.12593e-09 2.80989 0.308462 2.30299 0.796923 2.05579L4.54692 0.155332V0.154552ZM5.19231 2.82158C5.34532 2.82158 5.49206 2.8832 5.60025 2.99289C5.70845 3.10257 5.76923 3.25134 5.76923 3.40646V9.84009C5.76923 9.9952 5.70845 10.144 5.60025 10.2537C5.49206 10.3633 5.34532 10.425 5.19231 10.425C5.0393 10.425 4.89256 10.3633 4.78436 10.2537C4.67617 10.144 4.61538 9.9952 4.61538 9.84009V3.40646C4.61538 3.25134 4.67617 3.10257 4.78436 2.99289C4.89256 2.8832 5.0393 2.82158 5.19231 2.82158ZM10.3846 5.16108C10.3846 5.00597 10.3238 4.8572 10.2156 4.74752C10.1074 4.63783 9.9607 4.57621 9.80769 4.57621C9.65468 4.57621 9.50794 4.63783 9.39975 4.74752C9.29155 4.8572 9.23077 5.00597 9.23077 5.16108V11.5947C9.23077 11.7498 9.29155 11.8986 9.39975 12.0083C9.50794 12.118 9.65468 12.1796 9.80769 12.1796C9.9607 12.1796 10.1074 12.118 10.2156 12.0083C10.3238 11.8986 10.3846 11.7498 10.3846 11.5947V5.16108Z" fill="#A5A5A6" style="fill:#A5A5A6;fill:color(display-p3 0.6463 0.6463 0.6500);fill-opacity:1;"/>
</svg>
