<svg width="15" height="15" viewBox="0 0 15 15" fill="none" xmlns="http://www.w3.org/2000/svg">
<path fill-rule="evenodd" clip-rule="evenodd" d="M12.6254 14.475C12.7628 14.4619 12.8995 14.4435 13.0354 14.4198C13.1352 14.4024 13.2285 14.3599 13.3059 14.2964C13.3833 14.2329 13.4422 14.1507 13.4765 14.0582C13.5108 13.9656 13.5194 13.8659 13.5014 13.769C13.4833 13.6722 13.4394 13.5817 13.3738 13.5067C13.0583 13.1456 12.8428 12.7123 12.7477 12.2479C12.73 12.162 12.7646 12.0112 12.9431 11.8425C14.2123 10.6442 15 9.0188 15 7.21948C15 3.46404 11.5938 0.5 7.5 0.5C3.40615 0.5 0 3.46404 0 7.21948C0 10.9749 3.40615 13.939 7.5 13.939C8.14077 13.939 8.76385 13.8665 9.35923 13.7306C10.3324 14.3243 11.4817 14.5862 12.6254 14.475Z" fill="#A5A5A6" style="fill:#A5A5A6;fill:color(display-p3 0.6463 0.6463 0.6500);fill-opacity:1;"/>
</svg>
