<svg width="15" height="13" viewBox="0 0 15 13" fill="none" xmlns="http://www.w3.org/2000/svg">
<path d="M7.5 3.138C7.07376 3.138 6.66498 3.30331 6.36358 3.59755C6.06218 3.8918 5.89286 4.29088 5.89286 4.707C5.89286 5.12313 6.06218 5.52221 6.36358 5.81645C6.66498 6.1107 7.07376 6.276 7.5 6.276C7.92624 6.276 8.33502 6.1107 8.63642 5.81645C8.93782 5.52221 9.10714 5.12313 9.10714 4.707C9.10714 4.29088 8.93782 3.8918 8.63642 3.59755C8.33502 3.30331 7.92624 3.138 7.5 3.138Z" fill="#A5A5A6" style="fill:#A5A5A6;fill:color(display-p3 0.6463 0.6463 0.6500);fill-opacity:1;"/>
<path fill-rule="evenodd" clip-rule="evenodd" d="M0 1.3075C0 0.585063 0.6 0 1.33929 0H13.6607C14.4 0 15 0.58576 15 1.3075V8.1065C15 8.82894 14.4 9.414 13.6607 9.414H1.33929C1.16341 9.414 0.989253 9.38019 0.826763 9.31448C0.664274 9.24877 0.516632 9.15246 0.392268 9.03105C0.267904 8.90963 0.169252 8.7655 0.101947 8.60686C0.0346416 8.44823 0 8.27821 0 8.1065V1.3075ZM4.82143 4.707C4.82143 4.01346 5.10363 3.34832 5.60596 2.85792C6.10829 2.36751 6.7896 2.092 7.5 2.092C8.2104 2.092 8.89171 2.36751 9.39404 2.85792C9.89637 3.34832 10.1786 4.01346 10.1786 4.707C10.1786 5.40054 9.89637 6.06568 9.39404 6.55609C8.89171 7.04649 8.2104 7.322 7.5 7.322C6.7896 7.322 6.10829 7.04649 5.60596 6.55609C5.10363 6.06568 4.82143 5.40054 4.82143 4.707ZM12.3214 4.184C12.1793 4.184 12.0431 4.2391 11.9426 4.33719C11.8422 4.43527 11.7857 4.56829 11.7857 4.707V4.71258C11.7857 5.00128 12.0257 5.23558 12.3214 5.23558H12.3271C12.4692 5.23558 12.6055 5.18048 12.706 5.0824C12.8064 4.98432 12.8629 4.85129 12.8629 4.71258V4.707C12.8629 4.56829 12.8064 4.43527 12.706 4.33719C12.6055 4.2391 12.4692 4.184 12.3271 4.184H12.3214ZM2.14286 4.707C2.14286 4.56829 2.1993 4.43527 2.29976 4.33719C2.40023 4.2391 2.53649 4.184 2.67857 4.184H2.68429C2.82637 4.184 2.96263 4.2391 3.06309 4.33719C3.16356 4.43527 3.22 4.56829 3.22 4.707V4.71258C3.22 4.85129 3.16356 4.98432 3.06309 5.0824C2.96263 5.18048 2.82637 5.23558 2.68429 5.23558H2.67857C2.53649 5.23558 2.40023 5.18048 2.29976 5.0824C2.1993 4.98432 2.14286 4.85129 2.14286 4.71258V4.707Z" fill="#A5A5A6" style="fill:#A5A5A6;fill:color(display-p3 0.6463 0.6463 0.6500);fill-opacity:1;"/>
<path d="M0.535714 10.46C0.393634 10.46 0.257373 10.5151 0.156907 10.6132C0.0564412 10.7113 0 10.8443 0 10.983C0 11.1217 0.0564412 11.2547 0.156907 11.3528C0.257373 11.4509 0.393634 11.506 0.535714 11.506C4.39286 11.506 8.12857 12.0095 11.6786 12.953C12.5286 13.1789 13.3929 12.5639 13.3929 11.6838V10.983C13.3929 10.8443 13.3364 10.7113 13.236 10.6132C13.1355 10.5151 12.9992 10.46 12.8571 10.46H0.535714Z" fill="#A5A5A6" style="fill:#A5A5A6;fill:color(display-p3 0.6463 0.6463 0.6500);fill-opacity:1;"/>
</svg>
