<svg width="15" height="15" viewBox="0 0 15 15" fill="none" xmlns="http://www.w3.org/2000/svg">
<path fill-rule="evenodd" clip-rule="evenodd" d="M0 2.30769C0 1.69565 0.243131 1.10868 0.675907 0.675907C1.10868 0.243131 1.69565 0 2.30769 0H12.6923C13.3043 0 13.8913 0.243131 14.3241 0.675907C14.7569 1.10868 15 1.69565 15 2.30769V9.80769C15 10.4197 14.7569 11.0067 14.3241 11.4395C13.8913 11.8723 13.3043 12.1154 12.6923 12.1154H10.3846V12.3131C10.3846 12.7723 10.5669 13.2131 10.8915 13.5369L11.3692 14.0154C11.4498 14.0961 11.5047 14.1988 11.5269 14.3107C11.5491 14.4225 11.5377 14.5384 11.4941 14.6438C11.4504 14.7491 11.3766 14.8392 11.2818 14.9026C11.187 14.966 11.0756 14.9999 10.9615 15H4.03846C3.92443 14.9999 3.81299 14.966 3.71821 14.9026C3.62342 14.8392 3.54956 14.7491 3.50593 14.6438C3.46231 14.5384 3.45088 14.4225 3.4731 14.3107C3.49532 14.1988 3.55019 14.0961 3.63077 14.0154L4.10846 13.5369C4.43285 13.2125 4.61518 12.7726 4.61538 12.3138V12.1154H2.30769C1.69565 12.1154 1.10868 11.8723 0.675907 11.4395C0.243131 11.0067 0 10.4197 0 9.80769V2.30769ZM1.15385 2.30769V8.07692C1.15385 8.38294 1.27541 8.67643 1.4918 8.89282C1.70819 9.1092 2.00167 9.23077 2.30769 9.23077H12.6923C12.9983 9.23077 13.2918 9.1092 13.5082 8.89282C13.7246 8.67643 13.8462 8.38294 13.8462 8.07692V2.30769C13.8462 2.00167 13.7246 1.70819 13.5082 1.4918C13.2918 1.27541 12.9983 1.15385 12.6923 1.15385H2.30769C2.00167 1.15385 1.70819 1.27541 1.4918 1.4918C1.27541 1.70819 1.15385 2.00167 1.15385 2.30769Z" fill="#A5A5A6" style="fill:#A5A5A6;fill:color(display-p3 0.6463 0.6463 0.6500);fill-opacity:1;"/>
</svg>
