<svg width="13" height="15" viewBox="0 0 13 15" fill="none" xmlns="http://www.w3.org/2000/svg">
<path d="M1.86364 0C1.11018 0 0.5 0.6 0.5 1.33929V13.6607C0.5 14.4 1.11091 15 1.86364 15H11.1364C11.8891 15 12.5 14.4 12.5 13.6607V8.03571C12.5 7.32531 12.2127 6.64401 11.7012 6.14168C11.1897 5.63935 10.496 5.35714 9.77273 5.35714H8.40909C8.04743 5.35714 7.70059 5.21604 7.44485 4.96488C7.18912 4.71371 7.04545 4.37306 7.04545 4.01786V2.67857C7.04545 1.96817 6.75812 1.28686 6.24665 0.784535C5.73519 0.282206 5.0415 0 4.31818 0H1.86364Z" fill="#A5A5A6" style="fill:#A5A5A6;fill:color(display-p3 0.6463 0.6463 0.6500);fill-opacity:1;"/>
<path d="M7.20618 0.225714C7.80728 0.906403 8.13764 1.77753 8.13636 2.67857V4.01786C8.13636 4.16571 8.25855 4.28571 8.40909 4.28571H9.77273C10.6901 4.28446 11.5771 4.60892 12.2702 5.19929C11.9502 4.00408 11.3127 2.91378 10.423 2.03992C9.53324 1.16605 8.42312 0.539974 7.20618 0.225714Z" fill="#A5A5A6" style="fill:#A5A5A6;fill:color(display-p3 0.6463 0.6463 0.6500);fill-opacity:1;"/>
</svg>
