<svg width="13" height="15" viewBox="0 0 13 15" fill="none" xmlns="http://www.w3.org/2000/svg">
<path fill-rule="evenodd" clip-rule="evenodd" d="M1.86364 0C1.11018 0 0.5 0.6 0.5 1.33929V13.6607C0.5 14.4 1.11091 15 1.86364 15H11.1364C11.8891 15 12.5 14.4 12.5 13.6607V8.03571C12.5 7.32531 12.2127 6.64401 11.7012 6.14168C11.1897 5.63935 10.496 5.35714 9.77273 5.35714H8.40909C8.04743 5.35714 7.70059 5.21604 7.44485 4.96488C7.18912 4.71371 7.04545 4.37306 7.04545 4.01786V2.67857C7.04545 1.96817 6.75812 1.28686 6.24665 0.784535C5.73519 0.282206 5.0415 0 4.31818 0H1.86364ZM3.22727 9.64286C3.22727 9.50078 3.28474 9.36452 3.38703 9.26405C3.48933 9.16358 3.62806 9.10714 3.77273 9.10714H9.22727C9.37194 9.10714 9.51068 9.16358 9.61297 9.26405C9.71526 9.36452 9.77273 9.50078 9.77273 9.64286C9.77273 9.78494 9.71526 9.9212 9.61297 10.0217C9.51068 10.1221 9.37194 10.1786 9.22727 10.1786H3.77273C3.62806 10.1786 3.48933 10.1221 3.38703 10.0217C3.28474 9.9212 3.22727 9.78494 3.22727 9.64286ZM3.77273 11.25C3.62806 11.25 3.48933 11.3064 3.38703 11.4069C3.28474 11.5074 3.22727 11.6436 3.22727 11.7857C3.22727 11.9278 3.28474 12.0641 3.38703 12.1645C3.48933 12.265 3.62806 12.3214 3.77273 12.3214H6.5C6.64466 12.3214 6.7834 12.265 6.88569 12.1645C6.98799 12.0641 7.04545 11.9278 7.04545 11.7857C7.04545 11.6436 6.98799 11.5074 6.88569 11.4069C6.7834 11.3064 6.64466 11.25 6.5 11.25H3.77273Z" fill="#A5A5A6" style="fill:#A5A5A6;fill:color(display-p3 0.6463 0.6463 0.6500);fill-opacity:1;"/>
<path d="M7.20618 0.225714C7.80728 0.906403 8.13764 1.77753 8.13636 2.67857V4.01786C8.13636 4.16571 8.25855 4.28571 8.40909 4.28571H9.77273C10.6901 4.28446 11.5771 4.60892 12.2702 5.19929C11.9502 4.00408 11.3127 2.91378 10.423 2.03992C9.53324 1.16605 8.42312 0.539974 7.20618 0.225714Z" fill="#A5A5A6" style="fill:#A5A5A6;fill:color(display-p3 0.6463 0.6463 0.6500);fill-opacity:1;"/>
</svg>
