<svg width="15" height="15" viewBox="0 0 15 15" fill="none" xmlns="http://www.w3.org/2000/svg">
<path fill-rule="evenodd" clip-rule="evenodd" d="M0 7.5C0 3.35769 3.35769 0 7.5 0C11.6423 0 15 3.35769 15 7.5C15 11.6423 11.6423 15 7.5 15C3.35769 15 0 11.6423 0 7.5ZM5.19231 4.61538C5.0393 4.61538 4.89256 4.67617 4.78436 4.78436C4.67617 4.89256 4.61538 5.0393 4.61538 5.19231V9.80769C4.61538 10.1262 4.87385 10.3846 5.19231 10.3846H5.76923C5.92224 10.3846 6.06898 10.3238 6.17718 10.2156C6.28537 10.1074 6.34615 9.9607 6.34615 9.80769V5.19231C6.34615 5.0393 6.28537 4.89256 6.17718 4.78436C6.06898 4.67617 5.92224 4.61538 5.76923 4.61538H5.19231ZM9.23077 4.61538C9.07776 4.61538 8.93102 4.67617 8.82282 4.78436C8.71463 4.89256 8.65385 5.0393 8.65385 5.19231V9.80769C8.65385 10.1262 8.91231 10.3846 9.23077 10.3846H9.80769C9.9607 10.3846 10.1074 10.3238 10.2156 10.2156C10.3238 10.1074 10.3846 9.9607 10.3846 9.80769V5.19231C10.3846 5.0393 10.3238 4.89256 10.2156 4.78436C10.1074 4.67617 9.9607 4.61538 9.80769 4.61538H9.23077Z" fill="#A5A5A6" style="fill:#A5A5A6;fill:color(display-p3 0.6463 0.6463 0.6500);fill-opacity:1;"/>
</svg>
