<svg width="15" height="15" viewBox="0 0 15 15" fill="none" xmlns="http://www.w3.org/2000/svg">
<path fill-rule="evenodd" clip-rule="evenodd" d="M5.58214 4.34571C7.63929 1.70214 10.8536 0 14.4643 0C14.6064 0 14.7426 0.0564412 14.8431 0.156907C14.9436 0.257373 15 0.393634 15 0.535714C15 4.14714 13.2979 7.36071 10.6543 9.41857C10.7642 10.1073 10.7234 10.8117 10.5347 11.4832C10.346 12.1546 10.0138 12.7771 9.56118 13.3077C9.10852 13.8383 8.54613 14.2644 7.91281 14.5566C7.27949 14.8488 6.59032 15 5.89286 15C5.75078 15 5.61452 14.9436 5.51405 14.8431C5.41358 14.7426 5.35714 14.6064 5.35714 14.4643V11.5136C4.6628 10.9653 4.03518 10.3374 3.48714 9.64286H0.535714C0.393634 9.64286 0.257373 9.58642 0.156907 9.48595C0.0564412 9.38548 1.57843e-08 9.24922 1.57843e-08 9.10714C-5.6423e-05 8.40961 0.151239 7.72037 0.443445 7.08699C0.735651 6.45361 1.16181 5.89118 1.69251 5.43851C2.22321 4.98584 2.84581 4.65371 3.51734 4.46504C4.18887 4.27637 4.89335 4.23566 5.58214 4.34571ZM9.64286 3.75C9.21662 3.75 8.80783 3.91932 8.50644 4.22072C8.20504 4.52212 8.03572 4.9309 8.03572 5.35714C8.03572 5.78338 8.20504 6.19217 8.50644 6.49356C8.80783 6.79496 9.21662 6.96429 9.64286 6.96429C10.0691 6.96429 10.4779 6.79496 10.7793 6.49356C11.0807 6.19217 11.25 5.78338 11.25 5.35714C11.25 4.9309 11.0807 4.52212 10.7793 4.22072C10.4779 3.91932 10.0691 3.75 9.64286 3.75Z" fill="#A5A5A6" style="fill:#A5A5A6;fill:color(display-p3 0.6463 0.6463 0.6500);fill-opacity:1;"/>
<path d="M2.68573 11.2443C2.74215 11.2022 2.78973 11.1495 2.82576 11.089C2.86178 11.0285 2.88555 10.9616 2.8957 10.8919C2.90585 10.8223 2.90218 10.7513 2.8849 10.6831C2.86763 10.6149 2.83708 10.5507 2.79501 10.4943C2.75294 10.4379 2.70017 10.3903 2.63971 10.3543C2.57925 10.3182 2.51229 10.2945 2.44265 10.2843C2.373 10.2742 2.30204 10.2778 2.23381 10.2951C2.16559 10.3124 2.10143 10.3429 2.04501 10.385C1.49708 10.7926 1.07102 11.3423 0.812928 11.9745C0.554838 12.6068 0.474542 13.2976 0.580726 13.9722C0.597994 14.0845 0.650557 14.1885 0.730811 14.269C0.811066 14.3495 0.914851 14.4024 1.02715 14.42C1.70182 14.5261 2.39266 14.4457 3.02492 14.1875C3.65718 13.9293 4.2068 13.5031 4.6143 12.955C4.65772 12.8987 4.68952 12.8344 4.70782 12.7657C4.72613 12.697 4.73059 12.6254 4.72094 12.555C4.71129 12.4846 4.68772 12.4168 4.6516 12.3555C4.61549 12.2943 4.56755 12.2409 4.51059 12.1984C4.45362 12.1559 4.38876 12.1251 4.3198 12.1079C4.25083 12.0907 4.17913 12.0874 4.10887 12.0982C4.03862 12.109 3.97121 12.1337 3.91058 12.1708C3.84995 12.2079 3.79731 12.2567 3.75573 12.3143C3.50663 12.6493 3.18256 12.9213 2.80947 13.1086C2.43638 13.2959 2.02462 13.3933 1.60715 13.3929C1.60715 12.5143 2.03001 11.7336 2.68573 11.2443Z" fill="#A5A5A6" style="fill:#A5A5A6;fill:color(display-p3 0.6463 0.6463 0.6500);fill-opacity:1;"/>
</svg>
