<svg width="13" height="15" viewBox="0 0 13 15" fill="none" xmlns="http://www.w3.org/2000/svg">
<path fill-rule="evenodd" clip-rule="evenodd" d="M6.5 1.37722e-06C5.10291 1.37722e-06 3.72473 0.0792878 2.36909 0.233575C1.28036 0.357861 0.5 1.27644 0.5 2.32645V14.4644C0.500021 14.552 0.521896 14.6382 0.563712 14.7155C0.605527 14.7929 0.666007 14.859 0.739858 14.908C0.813708 14.9571 0.898678 14.9876 0.987328 14.997C1.07598 15.0063 1.1656 14.9941 1.24836 14.9616L3.77273 13.9701L6.29782 14.9616C6.42763 15.0124 6.57237 15.0124 6.70218 14.9616L9.22727 13.9701L11.7516 14.9616C11.8344 14.9941 11.924 15.0063 12.0127 14.997C12.1013 14.9876 12.1863 14.9571 12.2601 14.908C12.334 14.859 12.3945 14.7929 12.4363 14.7155C12.4781 14.6382 12.5 14.552 12.5 14.4644V2.32645C12.5 1.27644 11.7196 0.357861 10.6309 0.233575C9.25967 0.0776099 7.8804 -0.00037797 6.5 1.37722e-06ZM5.79455 4.66433C5.84814 4.61528 5.89112 4.55614 5.92093 4.49042C5.95074 4.42471 5.96677 4.35377 5.96807 4.28184C5.96936 4.20991 5.95589 4.13846 5.92845 4.07175C5.90102 4.00504 5.86019 3.94445 5.80839 3.89358C5.7566 3.84271 5.6949 3.8026 5.62698 3.77566C5.55906 3.74872 5.48631 3.73548 5.41307 3.73675C5.33984 3.73802 5.26761 3.75377 5.2007 3.78305C5.13379 3.81233 5.07357 3.85454 5.02364 3.90718L3.38727 5.51433C3.28513 5.61478 3.22775 5.75094 3.22775 5.89291C3.22775 6.03487 3.28513 6.17103 3.38727 6.27148L5.02364 7.87864C5.07357 7.93127 5.13379 7.97349 5.2007 8.00277C5.26761 8.03205 5.33984 8.04779 5.41307 8.04906C5.48631 8.05033 5.55906 8.0371 5.62698 8.01016C5.6949 7.98321 5.7566 7.94311 5.80839 7.89224C5.86019 7.84137 5.90102 7.78077 5.92845 7.71406C5.95589 7.64736 5.96936 7.57591 5.96807 7.50398C5.96677 7.43204 5.95074 7.36111 5.92093 7.29539C5.89112 7.22968 5.84814 7.17053 5.79455 7.12149L5.08909 6.42863H7.31818C7.67984 6.42863 8.02669 6.56973 8.28242 6.8209C8.53815 7.07206 8.68182 7.41272 8.68182 7.76792C8.68182 8.12313 8.53815 8.46378 8.28242 8.71495C8.02669 8.96612 7.67984 9.10722 7.31818 9.10722H6.5C6.35534 9.10722 6.2166 9.16366 6.11431 9.26413C6.01201 9.3646 5.95455 9.50086 5.95455 9.64294C5.95455 9.78502 6.01201 9.92128 6.11431 10.0217C6.2166 10.1222 6.35534 10.1787 6.5 10.1787H7.31818C7.64052 10.1787 7.9597 10.1163 8.2575 9.99515C8.55529 9.874 8.82588 9.69643 9.05381 9.47257C9.28173 9.24871 9.46253 8.98295 9.58589 8.69047C9.70924 8.39799 9.77273 8.08451 9.77273 7.76792C9.77273 7.45134 9.70924 7.13786 9.58589 6.84538C9.46253 6.55289 9.28173 6.28713 9.05381 6.06328C8.82588 5.83942 8.55529 5.66185 8.2575 5.54069C7.9597 5.41954 7.64052 5.35719 7.31818 5.35719H5.08982L5.79527 4.66433H5.79455Z" fill="#A5A5A6" style="fill:#A5A5A6;fill:color(display-p3 0.6463 0.6463 0.6500);fill-opacity:1;"/>
</svg>
