<svg width="16" height="16" viewBox="0 0 16 16" fill="none" xmlns="http://www.w3.org/2000/svg">
<path d="M8.65 14.5V13.85C8.65 12.1261 7.96518 10.4728 6.74619 9.2538C5.52721 8.03482 3.87391 7.35 2.15 7.35H1.5M1.5 1.5H2.15C8.97067 1.5 14.5 7.02933 14.5 13.85V14.5M2.8 13.85C2.8 14.0224 2.73152 14.1877 2.60962 14.3096C2.48772 14.4315 2.32239 14.5 2.15 14.5C1.97761 14.5 1.81228 14.4315 1.69038 14.3096C1.56848 14.1877 1.5 14.0224 1.5 13.85C1.5 13.6776 1.56848 13.5123 1.69038 13.3904C1.81228 13.2685 1.97761 13.2 2.15 13.2C2.32239 13.2 2.48772 13.2685 2.60962 13.3904C2.73152 13.5123 2.8 13.6776 2.8 13.85Z" stroke="#A5A5A6" style="stroke:#A5A5A6;stroke:color(display-p3 0.6463 0.6463 0.6500);stroke-opacity:1;" stroke-width="2" stroke-linecap="round" stroke-linejoin="round"/>
</svg>
