<svg width="15" height="15" viewBox="0 0 15 15" fill="none" xmlns="http://www.w3.org/2000/svg">
<path fill-rule="evenodd" clip-rule="evenodd" d="M7.10308 0.153083C7.21025 0.0547894 7.35231 0 7.5 0C7.64768 0 7.78974 0.0547894 7.89692 0.153083C9.52979 1.65319 11.7045 2.47579 13.9561 2.44504C14.0788 2.4435 14.1988 2.47982 14.2987 2.54874C14.3985 2.61765 14.4731 2.71557 14.5115 2.82827C14.8362 3.78536 15.0011 4.78639 15 5.79368C15 10.2154 11.8738 13.9294 7.64384 14.9823C7.54949 15.0059 7.45051 15.0059 7.35615 14.9823C3.12615 13.9294 0 10.2154 0 5.79368C0 4.75932 0.171538 3.76217 0.488461 2.82827C0.526756 2.71543 0.601264 2.61735 0.701148 2.54829C0.801032 2.47924 0.921085 2.44281 1.04385 2.4443L1.15385 2.44504C3.45846 2.44504 5.55231 1.57439 7.10308 0.153083ZM7.5 4.67747C7.65301 4.67747 7.79975 4.73627 7.90794 4.84093C8.01614 4.9456 8.07692 5.08755 8.07692 5.23557V8.02611C8.07692 8.17413 8.01614 8.31608 7.90794 8.42075C7.79975 8.52541 7.65301 8.58421 7.5 8.58421C7.34699 8.58421 7.20025 8.52541 7.09205 8.42075C6.98386 8.31608 6.92307 8.17413 6.92307 8.02611V5.23557C6.92307 5.08755 6.98386 4.9456 7.09205 4.84093C7.20025 4.73627 7.34699 4.67747 7.5 4.67747ZM7.5 9.70043C7.34699 9.70043 7.20025 9.75923 7.09205 9.86389C6.98386 9.96856 6.92307 10.1105 6.92307 10.2585V10.2645C6.92307 10.5726 7.18154 10.8226 7.5 10.8226H7.50615C7.65916 10.8226 7.8059 10.7638 7.9141 10.6591C8.02229 10.5545 8.08307 10.4125 8.08307 10.2645V10.2585C8.08307 10.1105 8.02229 9.96856 7.9141 9.86389C7.8059 9.75923 7.65916 9.70043 7.50615 9.70043H7.5Z" fill="#A5A5A6" style="fill:#A5A5A6;fill:color(display-p3 0.6463 0.6463 0.6500);fill-opacity:1;"/>
</svg>
