<svg width="15" height="15" viewBox="0 0 15 15" fill="none" xmlns="http://www.w3.org/2000/svg">
<path fill-rule="evenodd" clip-rule="evenodd" d="M7.89693 0.153083C7.78975 0.0547894 7.64769 0 7.5 0C7.35232 0 7.21026 0.0547894 7.10308 0.153083C5.47021 1.65319 3.29548 2.47579 1.04385 2.44504C0.921185 2.4435 0.801204 2.47982 0.701332 2.54874C0.601459 2.61765 0.526895 2.71557 0.488466 2.82827C0.16383 3.78536 -0.0010579 4.78639 5.10701e-06 5.79368C5.10701e-06 10.2154 3.12616 13.9294 7.35616 14.9823C7.45051 15.0059 7.54949 15.0059 7.64385 14.9823C11.8738 13.9294 15 10.2154 15 5.79368C15 4.75932 14.8285 3.76217 14.5115 2.82827C14.4732 2.71543 14.3987 2.61735 14.2989 2.54829C14.199 2.47924 14.0789 2.44281 13.9562 2.4443L13.8462 2.44504C11.5415 2.44504 9.44846 1.57439 7.89693 0.153083ZM10.2769 6.11813C10.3231 6.05863 10.3565 5.99082 10.3751 5.91866C10.3938 5.8465 10.3974 5.77146 10.3857 5.69795C10.3739 5.62444 10.3471 5.55394 10.3068 5.49059C10.2665 5.42724 10.2135 5.37233 10.151 5.32908C10.0884 5.28582 10.0176 5.2551 9.94255 5.23872C9.86754 5.22234 9.78991 5.22063 9.71422 5.23369C9.63852 5.24674 9.56628 5.27431 9.50175 5.31476C9.43723 5.35521 9.38171 5.40773 9.33846 5.46923L6.84923 8.8402L5.6 7.63171C5.49064 7.53313 5.34599 7.47946 5.19653 7.48201C5.04706 7.48456 4.90446 7.54313 4.79876 7.64539C4.69305 7.74764 4.63251 7.8856 4.62987 8.03018C4.62723 8.17477 4.68271 8.3147 4.78462 8.4205L6.51539 10.0948C6.57461 10.1521 6.646 10.1962 6.72461 10.224C6.80322 10.2519 6.88715 10.2629 6.97059 10.2563C7.05403 10.2496 7.13497 10.2255 7.20779 10.1855C7.28062 10.1455 7.34358 10.0907 7.39231 10.0249L10.2769 6.11813Z" fill="#A5A5A6" style="fill:#A5A5A6;fill:color(display-p3 0.6463 0.6463 0.6500);fill-opacity:1;"/>
</svg>
