<svg width="15" height="15" viewBox="0 0 15 15" fill="none" xmlns="http://www.w3.org/2000/svg">
<path fill-rule="evenodd" clip-rule="evenodd" d="M7.87046 0.153083C7.77043 0.0547894 7.63784 0 7.5 0C7.36216 0 7.22957 0.0547894 7.12954 0.153083C5.60553 1.65319 3.57579 2.47579 1.47426 2.44504C1.35977 2.4435 1.24779 2.47982 1.15458 2.54874C1.06136 2.61765 0.991768 2.71557 0.955902 2.82827C0.652908 3.78536 0.499013 4.78639 0.500005 5.79368C0.500005 10.2154 3.41775 13.9294 7.36575 14.9823C7.45381 15.0059 7.5462 15.0059 7.63426 14.9823C11.5823 13.9294 14.5 10.2154 14.5 5.79368C14.5 4.75932 14.3399 3.76217 14.0441 2.82827C14.0084 2.71543 13.9388 2.61735 13.8456 2.54829C13.7524 2.47924 13.6403 2.44281 13.5257 2.4443L13.4231 2.44504C11.2721 2.44504 9.31857 1.57439 7.87046 0.153083Z" fill="#A5A5A6" style="fill:#A5A5A6;fill:color(display-p3 0.6463 0.6463 0.6500);fill-opacity:1;"/>
</svg>
