<svg width="15" height="15" viewBox="0 0 15 15" fill="none" xmlns="http://www.w3.org/2000/svg">
<path fill-rule="evenodd" clip-rule="evenodd" d="M5.35647 2.14303C5.47286 2.14305 5.58608 2.18099 5.679 2.25111C5.77191 2.32122 5.83947 2.4197 5.87144 2.53163L6.45212 4.56466C6.57715 5.00249 6.81171 5.40122 7.13364 5.7232C7.45557 6.04517 7.85425 6.27976 8.29202 6.40481L10.3248 6.98557C10.4366 7.01761 10.535 7.0852 10.605 7.17813C10.6751 7.27105 10.7129 7.38425 10.7129 7.50061C10.7129 7.61697 10.6751 7.73017 10.605 7.82309C10.535 7.91601 10.4366 7.98361 10.3248 8.01565L8.29202 8.59641C7.85425 8.72146 7.45557 8.95605 7.13364 9.27802C6.81171 9.59999 6.57715 9.99873 6.45212 10.4366L5.87144 12.4696C5.8394 12.5814 5.77181 12.6798 5.67891 12.7499C5.586 12.8199 5.47281 12.8578 5.35647 12.8578C5.24012 12.8578 5.12694 12.8199 5.03403 12.7499C4.94112 12.6798 4.87353 12.5814 4.84149 12.4696L4.26081 10.4366C4.13578 9.99873 3.90123 9.59999 3.5793 9.27802C3.25737 8.95605 2.85869 8.72146 2.42091 8.59641L0.388164 8.01565C0.276317 7.98361 0.177941 7.91601 0.10791 7.82309C0.0378789 7.73017 0 7.61697 0 7.50061C0 7.38425 0.0378789 7.27105 0.10791 7.17813C0.177941 7.0852 0.276317 7.01761 0.388164 6.98557L2.42091 6.40481C2.85869 6.27976 3.25737 6.04517 3.5793 5.7232C3.90123 5.40122 4.13578 5.00249 4.26081 4.56466L4.84149 2.53163C4.87346 2.4197 4.94102 2.32122 5.03393 2.25111C5.12685 2.18099 5.24007 2.14305 5.35647 2.14303ZM11.7847 8.314e-08C11.9042 -6.64777e-05 12.0203 0.0398346 12.1145 0.113357C12.2087 0.186879 12.2757 0.289799 12.3047 0.405747L12.4889 1.14581C12.6575 1.81729 13.1818 2.34162 13.8531 2.5102L14.5931 2.6945C14.7093 2.72328 14.8124 2.79012 14.8862 2.88438C14.9599 2.97863 15 3.09487 15 3.21455C15 3.33423 14.9599 3.45046 14.8862 3.54472C14.8124 3.63897 14.7093 3.70581 14.5931 3.73459L13.8531 3.91889C13.1818 4.08747 12.6575 4.6118 12.4889 5.28329L12.3047 6.02335C12.2759 6.13952 12.2091 6.24271 12.1148 6.31646C12.0206 6.39022 11.9044 6.43029 11.7847 6.43029C11.665 6.43029 11.5488 6.39022 11.4546 6.31646C11.3603 6.24271 11.2935 6.13952 11.2647 6.02335L11.0804 5.28329C10.998 4.95357 10.8276 4.65245 10.5873 4.41213C10.347 4.1718 10.0459 4.00132 9.71623 3.91889L8.97627 3.73459C8.86012 3.70581 8.75694 3.63897 8.68319 3.54472C8.60945 3.45046 8.56938 3.33423 8.56938 3.21455C8.56938 3.09487 8.60945 2.97863 8.68319 2.88438C8.75694 2.79012 8.86012 2.72328 8.97627 2.6945L9.71623 2.5102C10.0459 2.42778 10.347 2.25729 10.5873 2.01697C10.8276 1.77665 10.998 1.47553 11.0804 1.14581L11.2647 0.405747C11.2937 0.289799 11.3607 0.186879 11.4549 0.113357C11.5491 0.0398346 11.6652 -6.64777e-05 11.7847 8.314e-08ZM10.7133 9.64364C10.8258 9.64357 10.9355 9.67894 11.0268 9.74472C11.1181 9.81049 11.1863 9.90334 11.2219 10.0101L11.5033 10.8552C11.6104 11.1745 11.8604 11.4259 12.1804 11.5324L13.0253 11.8145C13.1317 11.8503 13.2242 11.9185 13.2898 12.0096C13.3553 12.1008 13.3905 12.2102 13.3905 12.3224C13.3905 12.4347 13.3553 12.5441 13.2898 12.6352C13.2242 12.7264 13.1317 12.7946 13.0253 12.8303L12.1804 13.1125C11.8611 13.2196 11.6097 13.4697 11.5033 13.7897L11.2211 14.6348C11.1854 14.7412 11.1172 14.8337 11.0261 14.8992C10.935 14.9647 10.8256 15 10.7133 15C10.6011 15 10.4917 14.9647 10.4006 14.8992C10.3094 14.8337 10.2412 14.7412 10.2055 14.6348L9.92336 13.7897C9.87075 13.632 9.78218 13.4888 9.66467 13.3712C9.54715 13.2537 9.4039 13.1651 9.24625 13.1125L8.4013 12.8303C8.2949 12.7946 8.20241 12.7264 8.13689 12.6352C8.07136 12.5441 8.03611 12.4347 8.03611 12.3224C8.03611 12.2102 8.07136 12.1008 8.13689 12.0096C8.20241 11.9185 8.2949 11.8503 8.4013 11.8145L9.24625 11.5324C9.56552 11.4252 9.81694 11.1752 9.92336 10.8552L10.2055 10.0101C10.241 9.90346 10.3092 9.81069 10.4003 9.74492C10.4914 9.67916 10.6009 9.64372 10.7133 9.64364Z" fill="#A5A5A6" style="fill:#A5A5A6;fill:color(display-p3 0.6463 0.6463 0.6500);fill-opacity:1;"/>
</svg>
