<svg width="15" height="13" viewBox="0 0 15 13" fill="none" xmlns="http://www.w3.org/2000/svg">
<path fill-rule="evenodd" clip-rule="evenodd" d="M7.5 0C11.7543 1.67439e-06 15.1567 3.63148 14.9944 7.99894L14.9285 9.77273C14.8616 11.5747 13.4203 13 11.665 13H3.33497C1.57974 13 0.138398 11.5747 0.0714533 9.77273L0.00557143 7.99894C-0.156683 3.63148 3.24574 0 7.5 0ZM3.01909 8.685C2.59313 8.685 2.24781 9.03976 2.24781 9.47738C2.24781 9.915 2.59313 10.2698 3.01909 10.2698C3.44506 10.2698 3.79037 9.915 3.79037 9.47738C3.79037 9.03976 3.44506 8.685 3.01909 8.685ZM12.0816 8.685C11.6557 8.685 11.3104 9.03976 11.3104 9.47738C11.3104 9.915 11.6557 10.2698 12.0816 10.2698C12.5076 10.2698 12.8529 9.915 12.8529 9.47738C12.8529 9.03976 12.5076 8.685 12.0816 8.685ZM11.0368 3.7855C11.2036 3.47647 10.7998 3.18 10.5692 3.44222L6.39834 8.18586C6.14194 8.47748 6.17714 8.93065 6.47534 9.17678L7.00234 9.61175C7.32393 9.87719 7.80071 9.78103 8.00076 9.41039L11.0368 3.7855ZM3.13961 5.76309C2.71364 5.76309 2.36833 6.11785 2.36833 6.55547C2.36833 6.99309 2.71364 7.34785 3.13961 7.34785C3.56557 7.34785 3.91089 6.99309 3.91089 6.55547C3.91089 6.11785 3.56557 5.76309 3.13961 5.76309ZM11.9611 5.76309C11.5352 5.76309 11.1899 6.11785 11.1899 6.55547C11.1899 6.99309 11.5352 7.34785 11.9611 7.34785C12.3871 7.34785 12.7324 6.99309 12.7324 6.55547C12.7324 6.11785 12.3871 5.76309 11.9611 5.76309ZM4.85089 3.485C4.42492 3.485 4.07961 3.83976 4.07961 4.27738C4.07961 4.715 4.42492 5.06976 4.85089 5.06976C5.27685 5.06976 5.62217 4.715 5.62217 4.27738C5.62217 3.83976 5.27685 3.485 4.85089 3.485ZM7.55037 2.59357C7.1244 2.59357 6.77909 2.94833 6.77909 3.38595C6.77909 3.82357 7.1244 4.17833 7.55037 4.17833C7.97634 4.17833 8.32165 3.82357 8.32165 3.38595C8.32165 2.94833 7.97634 2.59357 7.55037 2.59357Z" fill="#A5A5A6" style="fill:#A5A5A6;fill:color(display-p3 0.6463 0.6463 0.6500);fill-opacity:1;"/>
</svg>
