<svg width="15" height="15" viewBox="0 0 15 15" fill="none" xmlns="http://www.w3.org/2000/svg">
<path d="M2.55077 1.78878C2.84765 1.70738 3.15393 1.66632 3.46154 1.66667H11.5385C11.8538 1.66667 12.1585 1.70944 12.4485 1.78878C12.2567 1.40143 11.962 1.07571 11.5975 0.84809C11.233 0.620471 10.813 0.499943 10.3846 0.5H4.61538C4.18683 0.499798 3.76669 0.620259 3.40204 0.847885C3.03738 1.07551 2.74262 1.40131 2.55077 1.78878ZM0 7.5C0 6.88116 0.243131 6.28767 0.675907 5.85008C1.10868 5.4125 1.69565 5.16667 2.30769 5.16667H12.6923C13.3043 5.16667 13.8913 5.4125 14.3241 5.85008C14.7569 6.28767 15 6.88116 15 7.5V12.1667C15 12.7855 14.7569 13.379 14.3241 13.8166C13.8913 14.2542 13.3043 14.5 12.6923 14.5H2.30769C1.69565 14.5 1.10868 14.2542 0.675907 13.8166C0.243131 13.379 0 12.7855 0 12.1667V7.5ZM2.30769 4C1.99231 4 1.68769 4.04278 1.39692 4.12211C1.58877 3.73464 1.88354 3.40884 2.24819 3.18122C2.61285 2.95359 3.03299 2.83313 3.46154 2.83333H11.5385C11.9669 2.83328 12.3869 2.9538 12.7514 3.18142C13.1159 3.40904 13.4105 3.73476 13.6023 4.12211C13.3057 4.04079 12.9997 3.99972 12.6923 4H2.30769Z" fill="#A5A5A6" style="fill:#A5A5A6;fill:color(display-p3 0.6463 0.6463 0.6500);fill-opacity:1;"/>
</svg>
