<svg width="15" height="15" viewBox="0 0 15 15" fill="none" xmlns="http://www.w3.org/2000/svg">
<path d="M7.24571 0.0641974C7.32384 0.0220602 7.41123 0 7.5 0C7.58877 0 7.67616 0.0220602 7.75429 0.0641974L14.7187 3.81422C14.8038 3.86012 14.8748 3.92818 14.9243 4.01117C14.9739 4.09416 15 4.18901 15 4.28565C15 4.38229 14.9739 4.47714 14.9243 4.56013C14.8748 4.64313 14.8038 4.71118 14.7187 4.75708L7.75429 8.5071C7.67616 8.54924 7.58877 8.5713 7.5 8.5713C7.41123 8.5713 7.32384 8.54924 7.24571 8.5071L0.28127 4.75708C0.196223 4.71118 0.125177 4.64313 0.0756603 4.56013C0.0261435 4.47714 0 4.38229 0 4.28565C0 4.18901 0.0261435 4.09416 0.0756603 4.01117C0.125177 3.92818 0.196223 3.86012 0.28127 3.81422L7.24571 0.0641974Z" fill="#A5A5A6" style="fill:#A5A5A6;fill:color(display-p3 0.6463 0.6463 0.6500);fill-opacity:1;"/>
<path d="M1.26058 6.50138L6.73784 9.45068C6.97207 9.57684 7.23395 9.64289 7.5 9.64289C7.76605 9.64289 8.02793 9.57684 8.26216 9.45068L13.7394 6.50066L14.718 7.02852C14.8031 7.07443 14.8741 7.14248 14.9236 7.22547C14.9731 7.30847 14.9993 7.40331 14.9993 7.49996C14.9993 7.5966 14.9731 7.69144 14.9236 7.77444C14.8741 7.85743 14.8031 7.92548 14.718 7.97139L7.75358 11.7214C7.67562 11.7633 7.5885 11.7852 7.5 11.7852C7.4115 11.7852 7.32438 11.7633 7.24642 11.7214L0.281985 7.97139C0.196937 7.92548 0.125891 7.85743 0.0763746 7.77444C0.0268577 7.69144 0.00071425 7.5966 0.00071425 7.49996C0.00071425 7.40331 0.0268577 7.30847 0.0763746 7.22547C0.125891 7.14248 0.196937 7.07443 0.281985 7.02852L1.26058 6.50138Z" fill="#A5A5A6" style="fill:#A5A5A6;fill:color(display-p3 0.6463 0.6463 0.6500);fill-opacity:1;"/>
<path d="M6.73784 12.665L1.26058 9.71497L0.281985 10.2428C0.196937 10.2887 0.125891 10.3568 0.0763746 10.4398C0.0268577 10.5228 0.00071425 10.6176 0.00071425 10.7143C0.00071425 10.8109 0.0268577 10.9057 0.0763746 10.9887C0.125891 11.0717 0.196937 11.1398 0.281985 11.1857L7.24642 14.9357C7.40428 15.0214 7.59572 15.0214 7.75358 14.9357L14.718 11.1857C14.8031 11.1398 14.8741 11.0717 14.9236 10.9887C14.9731 10.9057 14.9993 10.8109 14.9993 10.7143C14.9993 10.6176 14.9731 10.5228 14.9236 10.4398C14.8741 10.3568 14.8031 10.2887 14.718 10.2428L13.7394 9.71568L8.26216 12.6657C8.02787 12.7918 7.76596 12.8577 7.49991 12.8575C7.23386 12.8574 6.97201 12.7913 6.73784 12.665Z" fill="#A5A5A6" style="fill:#A5A5A6;fill:color(display-p3 0.6463 0.6463 0.6500);fill-opacity:1;"/>
</svg>
