<svg width="15" height="15" viewBox="0 0 15 15" fill="none" xmlns="http://www.w3.org/2000/svg">
<path d="M2.5 0C1.83696 0 1.20107 0.263392 0.732233 0.732233C0.263392 1.20107 0 1.83696 0 2.5V4.375C0 5.03804 0.263392 5.67393 0.732233 6.14277C1.20107 6.61161 1.83696 6.875 2.5 6.875H4.375C5.03804 6.875 5.67393 6.61161 6.14277 6.14277C6.61161 5.67393 6.875 5.03804 6.875 4.375V2.5C6.875 1.83696 6.61161 1.20107 6.14277 0.732233C5.67393 0.263392 5.03804 0 4.375 0H2.5ZM10.625 0C9.96196 0 9.32607 0.263392 8.85723 0.732233C8.38839 1.20107 8.125 1.83696 8.125 2.5V4.375C8.125 5.03804 8.38839 5.67393 8.85723 6.14277C9.32607 6.61161 9.96196 6.875 10.625 6.875H12.5C13.163 6.875 13.7989 6.61161 14.2678 6.14277C14.7366 5.67393 15 5.03804 15 4.375V2.5C15 1.83696 14.7366 1.20107 14.2678 0.732233C13.7989 0.263392 13.163 0 12.5 0H10.625ZM2.5 8.125C1.83696 8.125 1.20107 8.38839 0.732233 8.85723C0.263392 9.32607 0 9.96196 0 10.625V12.5C0 13.163 0.263392 13.7989 0.732233 14.2678C1.20107 14.7366 1.83696 15 2.5 15H4.375C5.03804 15 5.67393 14.7366 6.14277 14.2678C6.61161 13.7989 6.875 13.163 6.875 12.5V10.625C6.875 9.96196 6.61161 9.32607 6.14277 8.85723C5.67393 8.38839 5.03804 8.125 4.375 8.125H2.5ZM12.1875 8.75C12.1875 8.58424 12.1217 8.42527 12.0044 8.30806C11.8872 8.19085 11.7283 8.125 11.5625 8.125C11.3967 8.125 11.2378 8.19085 11.1206 8.30806C11.0033 8.42527 10.9375 8.58424 10.9375 8.75V10.9375H8.75C8.58424 10.9375 8.42527 11.0033 8.30806 11.1206C8.19085 11.2378 8.125 11.3967 8.125 11.5625C8.125 11.7283 8.19085 11.8872 8.30806 12.0044C8.42527 12.1217 8.58424 12.1875 8.75 12.1875H10.9375V14.375C10.9375 14.5408 11.0033 14.6997 11.1206 14.8169C11.2378 14.9342 11.3967 15 11.5625 15C11.7283 15 11.8872 14.9342 12.0044 14.8169C12.1217 14.6997 12.1875 14.5408 12.1875 14.375V12.1875H14.375C14.5408 12.1875 14.6997 12.1217 14.8169 12.0044C14.9342 11.8872 15 11.7283 15 11.5625C15 11.3967 14.9342 11.2378 14.8169 11.1206C14.6997 11.0033 14.5408 10.9375 14.375 10.9375H12.1875V8.75Z" fill="#A5A5A6" style="fill:#A5A5A6;fill:color(display-p3 0.6463 0.6463 0.6500);fill-opacity:1;"/>
</svg>
