<svg width="15" height="13" viewBox="0 0 15 13" fill="none" xmlns="http://www.w3.org/2000/svg">
<path fill-rule="evenodd" clip-rule="evenodd" d="M0 1.86364C0 1.11018 0.6 0.5 1.33929 0.5H13.6607C14.4 0.5 15 1.11091 15 1.86364V11.1364C15 11.8891 14.4 12.5 13.6607 12.5H1.33929C0.984085 12.5 0.643432 12.3563 0.392268 12.1006C0.141103 11.8449 0 11.498 0 11.1364V1.86364ZM13.9286 4.59091C13.9286 4.51858 13.9004 4.44921 13.8501 4.39806C13.7999 4.34692 13.7318 4.31818 13.6607 4.31818H8.30357C8.23253 4.31818 8.1644 4.34692 8.11417 4.39806C8.06394 4.44921 8.03571 4.51858 8.03571 4.59091V5.68182C8.03571 5.83236 8.15571 5.95455 8.30357 5.95455H13.6607C13.7318 5.95455 13.7999 5.92581 13.8501 5.87467C13.9004 5.82352 13.9286 5.75415 13.9286 5.68182V4.59091ZM13.9286 7.31818C13.9286 7.24585 13.9004 7.17648 13.8501 7.12533C13.7999 7.07419 13.7318 7.04545 13.6607 7.04545H8.30357C8.23253 7.04545 8.1644 7.07419 8.11417 7.12533C8.06394 7.17648 8.03571 7.24585 8.03571 7.31818V8.40909C8.03571 8.55964 8.15571 8.68182 8.30357 8.68182H13.6607C13.7318 8.68182 13.7999 8.65308 13.8501 8.60194C13.9004 8.55079 13.9286 8.48142 13.9286 8.40909V7.31818ZM13.9286 10.0455C13.9286 9.97312 13.9004 9.90375 13.8501 9.85261C13.7999 9.80146 13.7318 9.77273 13.6607 9.77273H8.30357C8.23253 9.77273 8.1644 9.80146 8.11417 9.85261C8.06394 9.90375 8.03571 9.97312 8.03571 10.0455V11.1364C8.03571 11.2869 8.15571 11.4091 8.30357 11.4091H13.6607C13.7318 11.4091 13.7999 11.3804 13.8501 11.3292C13.9004 11.2781 13.9286 11.2087 13.9286 11.1364V10.0455ZM6.69643 11.4091C6.76747 11.4091 6.8356 11.3804 6.88583 11.3292C6.93607 11.2781 6.96429 11.2087 6.96429 11.1364V10.0455C6.96429 9.97312 6.93607 9.90375 6.88583 9.85261C6.8356 9.80146 6.76747 9.77273 6.69643 9.77273H1.33929C1.26825 9.77273 1.20012 9.80146 1.14988 9.85261C1.09965 9.90375 1.07143 9.97312 1.07143 10.0455V11.1364C1.07143 11.2869 1.19143 11.4091 1.33929 11.4091H6.69643ZM1.33929 8.68182H6.69643C6.76747 8.68182 6.8356 8.65308 6.88583 8.60194C6.93607 8.55079 6.96429 8.48142 6.96429 8.40909V7.31818C6.96429 7.24585 6.93607 7.17648 6.88583 7.12533C6.8356 7.07419 6.76747 7.04545 6.69643 7.04545H1.33929C1.26825 7.04545 1.20012 7.07419 1.14988 7.12533C1.09965 7.17648 1.07143 7.24585 1.07143 7.31818V8.40909C1.07143 8.55964 1.19143 8.68182 1.33929 8.68182ZM1.33929 5.95455H6.69643C6.76747 5.95455 6.8356 5.92581 6.88583 5.87467C6.93607 5.82352 6.96429 5.75415 6.96429 5.68182V4.59091C6.96429 4.51858 6.93607 4.44921 6.88583 4.39806C6.8356 4.34692 6.76747 4.31818 6.69643 4.31818H1.33929C1.26825 4.31818 1.20012 4.34692 1.14988 4.39806C1.09965 4.44921 1.07143 4.51858 1.07143 4.59091V5.68182C1.07143 5.83236 1.19143 5.95455 1.33929 5.95455Z" fill="#A5A5A6" style="fill:#A5A5A6;fill:color(display-p3 0.6463 0.6463 0.6500);fill-opacity:1;"/>
</svg>
