<svg width="15" height="13" viewBox="0 0 15 13" fill="none" xmlns="http://www.w3.org/2000/svg">
<path fill-rule="evenodd" clip-rule="evenodd" d="M2.84143 2.29424C2.90881 2.08161 3.04465 1.89556 3.22901 1.7634C3.41337 1.63125 3.63653 1.55996 3.86571 1.56H5.35714C5.49922 1.56 5.63548 1.50521 5.73595 1.4077C5.83642 1.31018 5.89286 1.17791 5.89286 1.04C5.89286 0.902087 5.83642 0.769823 5.73595 0.672304C5.63548 0.574786 5.49922 0.52 5.35714 0.52H3.86571C3.40735 0.519913 2.96103 0.662495 2.59231 0.926804C2.22359 1.19111 1.9519 1.56322 1.81714 1.98848L0.095 7.42283C0.0321168 7.62093 9.6325e-05 7.82705 0 8.03435V10.92C0 11.4717 0.225765 12.0007 0.627628 12.3908C1.02949 12.7809 1.57454 13 2.14286 13H12.8571C13.4255 13 13.9705 12.7809 14.3724 12.3908C14.7742 12.0007 15 11.4717 15 10.92V8.03435C15 7.82704 14.9679 7.62112 14.905 7.42283L13.1821 1.98848C13.0474 1.56334 12.7758 1.19131 12.4073 0.92701C12.0387 0.662712 11.5925 0.520062 11.1343 0.52H9.64286C9.50078 0.52 9.36452 0.574786 9.26405 0.672304C9.16358 0.769823 9.10714 0.902087 9.10714 1.04C9.10714 1.17791 9.16358 1.31018 9.26405 1.4077C9.36452 1.50521 9.50078 1.56 9.64286 1.56H11.1343C11.3635 1.55996 11.5866 1.63125 11.771 1.7634C11.9553 1.89556 12.0912 2.08161 12.1586 2.29424L13.7393 7.28H11.7071C11.3091 7.27988 10.9189 7.38737 10.5803 7.59041C10.2417 7.79345 9.96805 8.08402 9.79 8.42955L9.60714 8.78523C9.51812 8.95799 9.38129 9.10328 9.21198 9.20479C9.04267 9.30631 8.84758 9.36006 8.64857 9.36H6.35C6.15092 9.35999 5.95577 9.30615 5.78646 9.2045C5.61714 9.10285 5.48035 8.95743 5.39143 8.78453L5.20857 8.42955C5.03053 8.08402 4.75686 7.79345 4.41824 7.59041C4.07963 7.38737 3.68944 7.27988 3.29143 7.28H1.26071L2.84143 2.29424Z" fill="#A5A5A6" style="fill:#A5A5A6;fill:color(display-p3 0.6463 0.6463 0.6500);fill-opacity:1;"/>
<path fill-rule="evenodd" clip-rule="evenodd" d="M7.5 0C7.64208 0 7.77834 0.0547855 7.87881 0.152304C7.97927 0.249823 8.03571 0.382087 8.03571 0.52V4.98507L9.26429 3.79253C9.31333 3.74144 9.37247 3.70047 9.43819 3.67204C9.5039 3.64362 9.57484 3.62834 9.64677 3.62711C9.7187 3.62588 9.79015 3.63872 9.85686 3.66487C9.92356 3.69103 9.98416 3.72995 10.035 3.77933C10.0859 3.82871 10.126 3.88753 10.1529 3.95228C10.1799 4.01703 10.1931 4.08638 10.1919 4.1562C10.1906 4.22602 10.1748 4.29488 10.1456 4.35867C10.1163 4.42245 10.0741 4.47986 10.0214 4.52747L7.87857 6.60747C7.77812 6.70485 7.64196 6.75954 7.5 6.75954C7.35804 6.75954 7.22187 6.70485 7.12143 6.60747L4.97857 4.52747C4.88394 4.42889 4.83243 4.29851 4.83487 4.1638C4.83732 4.02908 4.89355 3.90055 4.9917 3.80528C5.08985 3.71 5.22227 3.65543 5.36106 3.65305C5.49984 3.65068 5.63416 3.70068 5.73571 3.79253L6.96429 4.98507V0.52C6.96429 0.382087 7.02073 0.249823 7.12119 0.152304C7.22166 0.0547855 7.35792 0 7.5 0Z" fill="#A5A5A6" style="fill:#A5A5A6;fill:color(display-p3 0.6463 0.6463 0.6500);fill-opacity:1;"/>
</svg>
