<svg width="15" height="15" viewBox="0 0 15 15" fill="none" xmlns="http://www.w3.org/2000/svg">
<path d="M2.14283 3.46154C2.14283 2.67609 2.45325 1.92281 3.0058 1.36741C3.55836 0.812018 4.30778 0.5 5.08921 0.5C5.87064 0.5 6.62006 0.812018 7.17262 1.36741C7.72517 1.92281 8.03559 2.67609 8.03559 3.46154C8.03559 4.24698 7.72517 5.00026 7.17262 5.55566C6.62006 6.11105 5.87064 6.42307 5.08921 6.42307C4.30778 6.42307 3.55836 6.11105 3.0058 5.55566C2.45325 5.00026 2.14283 4.24698 2.14283 3.46154ZM9.10701 5.07692C9.10701 4.75872 9.16936 4.44363 9.29051 4.14965C9.41166 3.85567 9.58923 3.58855 9.81308 3.36355C10.0369 3.13854 10.3027 2.96006 10.5952 2.83829C10.8876 2.71652 11.2011 2.65384 11.5177 2.65384C11.8343 2.65384 12.1477 2.71652 12.4402 2.83829C12.7327 2.96006 12.9984 3.13854 13.2223 3.36355C13.4461 3.58855 13.6237 3.85567 13.7449 4.14965C13.866 4.44363 13.9284 4.75872 13.9284 5.07692C13.9284 5.71956 13.6744 6.33588 13.2223 6.79029C12.7702 7.24471 12.157 7.49999 11.5177 7.49999C10.8783 7.49999 10.2652 7.24471 9.81308 6.79029C9.36099 6.33588 9.10701 5.71956 9.10701 5.07692ZM0 12.6154C2.01127e-08 11.2587 0.536183 9.95757 1.4906 8.99825C2.44501 8.03893 3.73947 7.49999 5.08921 7.49999C6.43895 7.49999 7.73341 8.03893 8.68782 8.99825C9.64224 9.95757 10.1784 11.2587 10.1784 12.6154V12.6175L10.1777 12.703C10.1762 12.7943 10.1516 12.8837 10.1062 12.9628C10.0609 13.0419 9.99625 13.1082 9.91842 13.1553C8.46073 14.0376 6.7908 14.5026 5.08921 14.5C3.32352 14.5 1.67069 14.0089 0.26071 13.1553C0.182748 13.1083 0.117975 13.0421 0.0724893 12.9629C0.0270041 12.8838 0.00230378 12.7943 0.000714308 12.703L0 12.6154ZM11.2498 12.6175L11.2491 12.7209C11.2451 12.9602 11.1883 13.1956 11.0827 13.4101C12.3296 13.4874 13.5751 13.2376 14.6969 12.685C14.7837 12.6424 14.8574 12.577 14.9102 12.4957C14.963 12.4145 14.993 12.3204 14.9969 12.2234C15.0221 11.6212 14.8922 11.0227 14.6197 10.4858C14.3472 9.94886 13.9414 9.49179 13.4416 9.15881C12.9418 8.82584 12.3649 8.62824 11.7668 8.58516C11.1687 8.54208 10.5697 8.65498 10.0277 8.91292C10.8228 9.98164 11.2514 11.2809 11.2491 12.6154L11.2498 12.6175Z" fill="#A5A5A6" style="fill:#A5A5A6;fill:color(display-p3 0.6463 0.6463 0.6500);fill-opacity:1;"/>
</svg>
