<svg width="11" height="15" viewBox="0 0 11 15" fill="none" xmlns="http://www.w3.org/2000/svg">
<path fill-rule="evenodd" clip-rule="evenodd" d="M2.49968 3.21428C2.49968 2.3618 2.81578 1.54424 3.37845 0.941442C3.94112 0.338647 4.70427 0 5.5 0C6.29573 0 7.05888 0.338647 7.62155 0.941442C8.18422 1.54424 8.50032 2.3618 8.50032 3.21428C8.50032 4.06676 8.18422 4.88433 7.62155 5.48712C7.05888 6.08992 6.29573 6.42857 5.5 6.42857C4.70427 6.42857 3.94112 6.08992 3.37845 5.48712C2.81578 4.88433 2.49968 4.06676 2.49968 3.21428ZM7.96108e-05 13.2893C0.0225622 11.7425 0.611906 10.2672 1.6409 9.18184C2.66988 8.0965 4.05599 7.48817 5.5 7.48817C6.94401 7.48817 8.33012 8.0965 9.35911 9.18184C10.3881 10.2672 10.9774 11.7425 10.9999 13.2893C11.0017 13.3934 10.975 13.4958 10.9233 13.584C10.8715 13.6722 10.7969 13.7423 10.7086 13.7857C9.07449 14.5884 7.29763 15.0026 5.5 15C3.64247 15 1.87761 14.5657 0.291444 13.7857C0.203092 13.7423 0.128477 13.6722 0.0767292 13.584C0.0249815 13.4958 -0.00165473 13.3934 7.96108e-05 13.2893Z" fill="#A5A5A6" style="fill:#A5A5A6;fill:color(display-p3 0.6463 0.6463 0.6500);fill-opacity:1;"/>
</svg>
