<svg width="15" height="15" viewBox="0 0 15 15" fill="none" xmlns="http://www.w3.org/2000/svg">
<path fill-rule="evenodd" clip-rule="evenodd" d="M5.61835 1.62012C6.45458 0.126627 8.54552 0.126627 9.38103 1.62012L14.7061 11.1396C15.5416 12.6331 14.4962 14.5 12.8244 14.5H2.17497C0.503233 14.5 -0.541511 12.6331 0.293995 11.1396L5.61763 1.62012H5.61835ZM7.50005 5.5383C7.64407 5.5383 7.78218 5.5973 7.88402 5.70234C7.98585 5.80737 8.04306 5.94982 8.04306 6.09836V8.89866C8.04306 9.04719 7.98585 9.18965 7.88402 9.29468C7.78218 9.39971 7.64407 9.45872 7.50005 9.45872C7.35604 9.45872 7.21792 9.39971 7.11609 9.29468C7.01426 9.18965 6.95705 9.04719 6.95705 8.89866V6.09836C6.95705 5.94982 7.01426 5.80737 7.11609 5.70234C7.21792 5.5973 7.35604 5.5383 7.50005 5.5383ZM7.50005 11.699C7.64407 11.699 7.78218 11.6399 7.88402 11.5349C7.98585 11.4299 8.04306 11.2874 8.04306 11.1389C8.04306 10.9904 7.98585 10.8479 7.88402 10.7429C7.78218 10.6378 7.64407 10.5788 7.50005 10.5788C7.35604 10.5788 7.21792 10.6378 7.11609 10.7429C7.01426 10.8479 6.95705 10.9904 6.95705 11.1389C6.95705 11.2874 7.01426 11.4299 7.11609 11.5349C7.21792 11.6399 7.35604 11.699 7.50005 11.699Z" fill="#A5A5A6" style="fill:#A5A5A6;fill:color(display-p3 0.6463 0.6463 0.6500);fill-opacity:1;"/>
</svg>
