<svg width="15" height="15" viewBox="0 0 15 15" fill="none" xmlns="http://www.w3.org/2000/svg">
<path fill-rule="evenodd" clip-rule="evenodd" d="M7.49763 3.75157C7.49748 3.16576 7.63455 2.58806 7.89787 2.06477C8.16118 1.54147 8.54342 1.08713 9.01394 0.738155C9.48446 0.389177 10.0302 0.155265 10.6074 0.0551633C11.1846 -0.0449381 11.7772 -0.00844531 12.3378 0.161717C12.4264 0.188557 12.5065 0.237894 12.5704 0.304918C12.6342 0.371943 12.6796 0.454368 12.7022 0.54416C12.7247 0.633952 12.7235 0.728047 12.6989 0.817273C12.6742 0.9065 12.6268 0.987812 12.5614 1.05329L10.1895 3.42437C10.2346 3.76371 10.3867 4.09162 10.6475 4.35238C10.9082 4.61313 11.2362 4.7653 11.5762 4.80959L13.9467 2.4385C14.0121 2.37306 14.0934 2.32569 14.1827 2.30103C14.2719 2.27636 14.366 2.27523 14.4558 2.29775C14.5456 2.32027 14.628 2.36567 14.695 2.42953C14.7621 2.49338 14.8114 2.57351 14.8382 2.66211C15.0163 3.24853 15.0479 3.86964 14.9304 4.47111C14.8128 5.07257 14.5496 5.63607 14.1639 6.11231C13.7782 6.58854 13.2816 6.963 12.7177 7.20292C12.1537 7.44285 11.5396 7.54093 10.929 7.48858C10.2017 7.42714 9.59301 7.56002 9.27938 7.94151L4.17132 14.1461C3.96216 14.3988 3.70254 14.605 3.40907 14.7516C3.11559 14.8982 2.79474 14.9819 2.46705 14.9974C2.13936 15.0128 1.81206 14.9597 1.5061 14.8413C1.20014 14.723 0.92227 14.542 0.690277 14.3101C0.458284 14.0782 0.277283 13.8003 0.158863 13.4944C0.0404439 13.1885 -0.0127838 12.8612 0.00258829 12.5335C0.0179604 12.2058 0.101594 11.885 0.248133 11.5915C0.394672 11.298 0.600887 11.0383 0.853575 10.8291L7.05755 5.72045C7.43833 5.40611 7.57193 4.79816 7.51049 4.0709C7.50175 3.96468 7.49746 3.85814 7.49763 3.75157ZM1.8659 12.5922C1.8659 12.4501 1.92235 12.3139 2.02284 12.2134C2.12332 12.1129 2.25961 12.0564 2.40171 12.0564H2.40743C2.54953 12.0564 2.68582 12.1129 2.7863 12.2134C2.88679 12.3139 2.94324 12.4501 2.94324 12.5922V12.598C2.94324 12.7401 2.88679 12.8763 2.7863 12.9768C2.68582 13.0773 2.54953 13.1338 2.40743 13.1338H2.40171C2.25961 13.1338 2.12332 13.0773 2.02284 12.9768C1.92235 12.8763 1.8659 12.7401 1.8659 12.598V12.5922Z" fill="#A5A5A6" style="fill:#A5A5A6;fill:color(display-p3 0.6463 0.6463 0.6500);fill-opacity:1;"/>
</svg>
