<svg width="16" height="21" viewBox="0 0 16 21" fill="none" xmlns="http://www.w3.org/2000/svg">
<g opacity="0.7">
<path fill-rule="evenodd" clip-rule="evenodd" d="M1.78125 0.870506H4.9875C5.93233 0.870506 6.83847 1.24584 7.50657 1.91394C8.17467 2.58204 8.55 3.48817 8.55 4.43301V6.21426C8.55 7.19846 9.348 7.99551 10.3312 7.99551H12.1125C13.0573 7.99551 13.9635 8.37084 14.6316 9.03894C15.2997 9.70704 15.675 10.6132 15.675 11.558V19.0393C15.675 20.0225 14.877 20.8205 13.8937 20.8205H1.78125C1.30883 20.8205 0.855765 20.6328 0.521716 20.2988C0.187667 19.9647 0 19.5117 0 19.0393V2.65176C0 1.66756 0.798 0.870506 1.78125 0.870506ZM5.7 15.833C5.7 15.644 5.62493 15.4628 5.49131 15.3292C5.35769 15.1956 5.17647 15.1205 4.9875 15.1205C4.79853 15.1205 4.61731 15.1956 4.48369 15.3292C4.35007 15.4628 4.275 15.644 4.275 15.833V16.5455C4.275 16.7345 4.35007 16.9157 4.48369 17.0493C4.61731 17.1829 4.79853 17.258 4.9875 17.258C5.17647 17.258 5.35769 17.1829 5.49131 17.0493C5.62493 16.9157 5.7 16.7345 5.7 16.5455V15.833ZM7.8375 12.983C8.02647 12.983 8.20769 13.0581 8.34131 13.1917C8.47493 13.3253 8.55 13.5065 8.55 13.6955V16.5455C8.55 16.7345 8.47493 16.9157 8.34131 17.0493C8.20769 17.1829 8.02647 17.258 7.8375 17.258C7.64853 17.258 7.46731 17.1829 7.33369 17.0493C7.20007 16.9157 7.125 16.7345 7.125 16.5455V13.6955C7.125 13.5065 7.20007 13.3253 7.33369 13.1917C7.46731 13.0581 7.64853 12.983 7.8375 12.983ZM11.4 11.558C11.4 11.369 11.3249 11.1878 11.1913 11.0542C11.0577 10.9206 10.8765 10.8455 10.6875 10.8455C10.4985 10.8455 10.3173 10.9206 10.1837 11.0542C10.0501 11.1878 9.975 11.369 9.975 11.558V16.5455C9.975 16.7345 10.0501 16.9157 10.1837 17.0493C10.3173 17.1829 10.4985 17.258 10.6875 17.258C10.8765 17.258 11.0577 17.1829 11.1913 17.0493C11.3249 16.9157 11.4 16.7345 11.4 16.5455V11.558Z" fill="white" style="fill:white;fill-opacity:1;"/>
<path d="M9.975 4.43301C9.97666 3.23463 9.54514 2.07602 8.75995 1.17071C10.3496 1.58867 11.7997 2.42136 12.9619 3.5836C14.1241 4.74584 14.9568 6.19593 15.3748 7.78556C14.4695 7.00037 13.3109 6.56884 12.1125 6.57051H10.3312C10.2368 6.57051 10.1462 6.53297 10.0793 6.46616C10.0125 6.39935 9.975 6.30874 9.975 6.21426V4.43301Z" fill="white" style="fill:white;fill-opacity:1;"/>
</g>
</svg>
