<svg width="16" height="21" viewBox="0 0 16 21" fill="none" xmlns="http://www.w3.org/2000/svg">
<path fill-rule="evenodd" clip-rule="evenodd" d="M1.81818 0.5H5.09091C6.05533 0.5 6.98026 0.876274 7.66221 1.54605C8.34416 2.21582 8.72727 3.12423 8.72727 4.07143V5.85714C8.72727 6.84381 9.54182 7.64286 10.5455 7.64286H12.3636C13.3281 7.64286 14.253 8.01913 14.9349 8.6889C15.6169 9.35868 16 10.2671 16 11.2143V18.7143C16 19.7 15.1855 20.5 14.1818 20.5H1.81818C1.33597 20.5 0.873508 20.3119 0.532533 19.977C0.191558 19.6421 0 19.1879 0 18.7143V2.28571C0 1.29905 0.814546 0.5 1.81818 0.5ZM8.51394 9.99524C8.37758 9.86148 8.19273 9.78634 8 9.78634C7.80727 9.78634 7.62243 9.86148 7.48606 9.99524L4.57697 12.8524C4.50552 12.9178 4.4482 12.9966 4.40845 13.0842C4.36871 13.1719 4.34733 13.2665 4.34561 13.3624C4.34389 13.4583 4.36185 13.5535 4.39843 13.6425C4.435 13.7314 4.48945 13.8122 4.55851 13.88C4.62757 13.9479 4.70983 14.0013 4.80039 14.0373C4.89095 14.0732 4.98795 14.0908 5.0856 14.0891C5.18325 14.0874 5.27955 14.0665 5.36876 14.0274C5.45798 13.9884 5.53827 13.9321 5.60485 13.8619L7.27273 12.2238V16.2143C7.27273 16.4037 7.34935 16.5854 7.48574 16.7194C7.62213 16.8533 7.80712 16.9286 8 16.9286C8.19288 16.9286 8.37787 16.8533 8.51426 16.7194C8.65065 16.5854 8.72727 16.4037 8.72727 16.2143V12.2238L10.3952 13.8619C10.4617 13.9321 10.542 13.9884 10.6312 14.0274C10.7204 14.0665 10.8168 14.0874 10.9144 14.0891C11.0121 14.0908 11.1091 14.0732 11.1996 14.0373C11.2902 14.0013 11.3724 13.9479 11.4415 13.88C11.5106 13.8122 11.565 13.7314 11.6016 13.6425C11.6382 13.5535 11.6561 13.4583 11.6544 13.3624C11.6527 13.2665 11.6313 13.1719 11.5915 13.0842C11.5518 12.9966 11.4945 12.9178 11.423 12.8524L8.51394 9.99524Z" fill="url(#paint0_linear_55_361)" fill-opacity="0.15" style=""/>
<path d="M10.1818 4.07143C10.1835 2.87004 9.74305 1.70854 8.94158 0.800952C10.5642 1.21997 12.0443 2.05474 13.2307 3.21989C14.417 4.38505 15.2669 5.83877 15.6936 7.43238C14.7695 6.64522 13.5869 6.21262 12.3636 6.21429H10.5455C10.449 6.21429 10.3565 6.17666 10.2883 6.10968C10.2201 6.0427 10.1818 5.95186 10.1818 5.85714V4.07143Z" fill="url(#paint1_linear_55_361)" fill-opacity="0.15" style=""/>
<defs>
<linearGradient id="paint0_linear_55_361" x1="8" y1="0.0428572" x2="8" y2="20.9571" gradientUnits="userSpaceOnUse">
<stop stop-color="white" style="stop-color:white;stop-opacity:1;"/>
<stop offset="1" stop-color="#AFAFAF" style="stop-color:#AFAFAF;stop-color:color(display-p3 0.6863 0.6863 0.6863);stop-opacity:1;"/>
</linearGradient>
<linearGradient id="paint1_linear_55_361" x1="8" y1="0.0428572" x2="8" y2="20.9571" gradientUnits="userSpaceOnUse">
<stop stop-color="white" style="stop-color:white;stop-opacity:1;"/>
<stop offset="1" stop-color="#AFAFAF" style="stop-color:#AFAFAF;stop-color:color(display-p3 0.6863 0.6863 0.6863);stop-opacity:1;"/>
</linearGradient>
</defs>
</svg>
