<svg width="21" height="21" viewBox="0 0 21 21" fill="none" xmlns="http://www.w3.org/2000/svg">
<path opacity="0.7" d="M11.393 7.11613C12.0104 7.41087 12.5479 7.84946 12.9606 8.39505C13.3733 8.94065 13.649 9.57731 13.7646 10.2516C13.8802 10.9258 13.8323 11.618 13.625 12.2699C13.4176 12.9218 13.0568 13.5144 12.5729 13.9979L8.29793 18.2729C7.4962 19.0746 6.40883 19.5251 5.27503 19.5251C4.14122 19.5251 3.05385 19.0746 2.25213 18.2729C1.4504 17.4712 1 16.3838 1 15.25C1 14.1162 1.4504 13.0288 2.25213 12.2271L3.92128 10.558M16.6038 9.96708L18.2729 8.29793C19.0746 7.4962 19.5251 6.40883 19.5251 5.27503C19.5251 4.14122 19.0746 3.05385 18.2729 2.25213C17.4712 1.4504 16.3838 1 15.25 1C14.1162 1 13.0288 1.4504 12.2271 2.25213L7.95213 6.52713C7.46823 7.01068 7.10745 7.6033 6.90008 8.2552C6.69271 8.9071 6.64482 9.59925 6.76042 10.2735C6.87602 10.9477 7.15174 11.5844 7.56442 12.13C7.9771 12.6756 8.51469 13.1142 9.13203 13.4089" stroke="white" style="stroke:white;stroke-opacity:1;" stroke-width="1.9" stroke-linecap="round" stroke-linejoin="round"/>
</svg>
