<svg width="16" height="20" viewBox="0 0 16 20" fill="none" xmlns="http://www.w3.org/2000/svg">
<g opacity="0.7">
<path d="M1.72727 0.525051C0.772897 0.525051 0 1.29887 0 2.25232V18.1432C0 19.0967 0.773818 19.8705 1.72727 19.8705H13.4727C14.4262 19.8705 15.2 19.0967 15.2 18.1432V10.8887C15.2 9.97249 14.836 9.09381 14.1882 8.44596C13.5403 7.7981 12.6617 7.43414 11.7455 7.43414H10.0182C9.56008 7.43414 9.12074 7.25216 8.79682 6.92824C8.47289 6.60431 8.29091 6.16497 8.29091 5.70687V3.9796C8.29091 3.06339 7.92695 2.18472 7.2791 1.53686C6.63124 0.889011 5.75257 0.525051 4.83636 0.525051H1.72727Z" fill="white" style="fill:white;fill-opacity:1;"/>
<path d="M8.4945 0.816154C9.25589 1.69404 9.67434 2.81753 9.67273 3.9796V5.70687C9.67273 5.89756 9.82749 6.05232 10.0182 6.05232H11.7455C12.9075 6.05071 14.031 6.46916 14.9089 7.23055C14.5036 5.6891 13.6961 4.28295 12.5691 3.15593C11.4421 2.02891 10.036 1.22145 8.4945 0.816154Z" fill="white" style="fill:white;fill-opacity:1;"/>
</g>
</svg>
