<svg width="12" height="15" viewBox="0 0 12 15" fill="none" xmlns="http://www.w3.org/2000/svg">
<path fill-rule="evenodd" clip-rule="evenodd" d="M9.77533 1.57867C9.92533 1.58867 10.0753 1.6 10.224 1.612C11.2507 1.69867 12 2.56933 12 3.57267V10.0007C12 10.5311 11.7893 11.0398 11.4142 11.4149C11.0391 11.79 10.5304 12.0007 10 12.0007V10.5C10 6.552 6.94933 3.31667 3.07733 3.022C3.29333 2.26733 3.944 1.682 4.776 1.61267C4.92533 1.6 5.07467 1.58867 5.22467 1.57867C5.39342 1.25353 5.64823 0.980977 5.9613 0.790761C6.27437 0.600544 6.63367 0.499966 7 0.5H8C8.36633 0.499966 8.72563 0.600544 9.0387 0.790761C9.35177 0.980977 9.60658 1.25353 9.77533 1.57867ZM6 2.5C6 2.23478 6.10536 1.98043 6.29289 1.79289C6.48043 1.60536 6.73478 1.5 7 1.5H8C8.26522 1.5 8.51957 1.60536 8.70711 1.79289C8.89464 1.98043 9 2.23478 9 2.5H6Z" fill="white" style="fill:white;fill-opacity:1;"/>
<path d="M0 5.25C0 4.55933 0.56 4 1.25 4H1.5C2.16304 4 2.79893 4.26339 3.26777 4.73223C3.73661 5.20107 4 5.83696 4 6.5V7.75C4 8.44067 4.56 9 5.25 9H6.5C6.8283 9 7.15339 9.06466 7.45671 9.1903C7.76002 9.31594 8.03562 9.50009 8.26777 9.73223C8.49991 9.96438 8.68406 10.24 8.8097 10.5433C8.93534 10.8466 9 11.1717 9 11.5V13.25C9 13.94 8.44 14.5 7.75 14.5H1.25C0.918479 14.5 0.600537 14.3683 0.366117 14.1339C0.131696 13.8995 0 13.5815 0 13.25V5.25Z" fill="white" style="fill:white;fill-opacity:1;"/>
<path d="M5 6.5C5.00117 5.65903 4.69834 4.84598 4.14733 4.21067C5.26286 4.50398 6.28047 5.08832 7.09608 5.90393C7.91168 6.71953 8.49602 7.73714 8.78933 8.85267C8.15402 8.30166 7.34097 7.99883 6.5 8H5.25C5.1837 8 5.12011 7.97366 5.07322 7.92678C5.02634 7.87989 5 7.8163 5 7.75V6.5Z" fill="white" style="fill:white;fill-opacity:1;"/>
</svg>
