<svg width="11" height="14" viewBox="0 0 11 14" fill="none" xmlns="http://www.w3.org/2000/svg">
<path d="M3.22727 4.23077V3.37415C3.22727 2.67569 3.73939 2.08308 4.42485 2.02523C4.65091 2.00677 4.87818 1.99015 5.10545 1.976M7.77273 10.6923H9.13636C9.49802 10.6923 9.84487 10.5464 10.1006 10.2868C10.3563 10.0271 10.5 9.67492 10.5 9.30769V3.37415C10.5 2.67569 9.98788 2.08308 9.30242 2.02523C9.07575 2.00614 8.84887 1.98973 8.62182 1.976M8.62182 1.976C8.53574 1.69335 8.3622 1.44611 8.12772 1.27049C7.89325 1.09486 7.60955 1.00007 7.31818 1H6.40909C6.11772 1.00007 5.83403 1.09486 5.59955 1.27049C5.36508 1.44611 5.19214 1.69335 5.10606 1.976C5.06667 2.10523 5.04545 2.24246 5.04545 2.38462V2.84615H8.68182V2.38462C8.68182 2.24246 8.66121 2.10523 8.62182 1.976ZM7.77273 11.1538V10C7.77273 9.44917 7.55722 8.92089 7.17363 8.53139C6.79003 8.1419 6.26976 7.92308 5.72727 7.92308H4.81818C4.63735 7.92308 4.46393 7.85014 4.33606 7.7203C4.2082 7.59047 4.13636 7.41438 4.13636 7.23077V6.30769C4.13636 5.75686 3.92086 5.22858 3.53726 4.83909C3.15367 4.44959 2.6334 4.23077 2.09091 4.23077H1.40909M2.31818 4.23077H1.18182C0.805455 4.23077 0.5 4.54092 0.5 4.92308V12.3077C0.5 12.6898 0.805455 13 1.18182 13H7.09091C7.46727 13 7.77273 12.6898 7.77273 12.3077V9.76923C7.77273 8.30034 7.19805 6.89161 6.17513 5.85295C5.1522 4.81428 3.76482 4.23077 2.31818 4.23077Z" stroke="white" style="stroke:white;stroke-opacity:1;" stroke-width="0.8" stroke-linecap="round" stroke-linejoin="round"/>
</svg>
