<svg width="15" height="15" viewBox="0 0 15 15" fill="none" xmlns="http://www.w3.org/2000/svg">
<path d="M13.9904 1.2586C13.6198 0.887992 13.1354 0.661383 12.6441 0.628629C12.1527 0.595868 11.6944 0.759634 11.37 1.08391L10.6078 1.8462L13.4028 4.64125L14.1651 3.87895C14.4894 3.55461 14.6532 3.09636 14.6204 2.60495C14.5876 2.11355 14.361 1.62927 13.9904 1.2586ZM12.7038 5.34029L9.90872 2.54524L1.90364 10.5503C1.49705 10.9567 1.21259 11.4725 1.07604 12.0511L0.63765 13.9088C0.616501 13.9984 0.620955 14.0954 0.650505 14.1896C0.6801 14.2837 0.733744 14.3713 0.80573 14.4432C0.877717 14.5153 0.96537 14.5689 1.05944 14.5985C1.15356 14.628 1.25054 14.6325 1.34018 14.6114L3.19793 14.173C3.77651 14.0364 4.29228 13.752 4.69869 13.3453L12.7038 5.34029Z" fill="white" style="fill:white;fill-opacity:1;"/>
</svg>
