<svg width="14" height="13" viewBox="0 0 14 13" fill="none" xmlns="http://www.w3.org/2000/svg">
<path fill-rule="evenodd" clip-rule="evenodd" d="M2.21631 12.9768C2.08809 12.9647 1.96043 12.9475 1.83364 12.9255C1.74052 12.9094 1.65344 12.8699 1.58116 12.8109C1.50889 12.752 1.45397 12.6757 1.42195 12.5897C1.38992 12.5038 1.38191 12.4112 1.39873 12.3213C1.41555 12.2314 1.4566 12.1473 1.51774 12.0776C1.81229 11.7423 2.01343 11.34 2.10215 10.9087C2.11867 10.829 2.08636 10.689 1.91979 10.5323C0.735179 9.41958 0 7.91032 0 6.23951C0 2.75232 3.17908 0 7 0C10.8209 0 14 2.75232 14 6.23951C14 9.72671 10.8209 12.479 7 12.479C6.40195 12.479 5.82041 12.4118 5.26472 12.2856C4.3564 12.8368 3.28376 13.08 2.21631 12.9768Z" fill="white" style="fill:white;fill-opacity:1;"/>
</svg>
