<svg width="15" height="13" viewBox="0 0 16 14" fill="none" xmlns="http://www.w3.org/2000/svg">
<path d="M11.0352 5.01434H14.7729L12.3912 2.63107C11.6244 1.86425 10.6692 1.31281 9.62169 1.03218C8.57419 0.751561 7.47127 0.751643 6.42382 1.03242C5.37636 1.3132 4.42127 1.86478 3.65458 2.63172C2.88788 3.39865 2.3366 4.3539 2.05614 5.40145M1.27295 12.7235V8.98572M1.27295 8.98572H5.01072M1.27295 8.98572L3.65398 11.369C4.42079 12.1358 5.37596 12.6873 6.42346 12.9679C7.47096 13.2485 8.57387 13.2484 9.62133 12.9676C10.6688 12.6869 11.6239 12.1353 12.3906 11.3684C13.1573 10.6014 13.7086 9.64617 13.989 8.59862M14.7729 1.27657V5.01285" stroke="white" style="stroke:white;stroke-opacity:1;" stroke-width="1.5" stroke-linecap="round" stroke-linejoin="round"/>
</svg>
