<svg width="13" height="12" viewBox="0 0 13 12" fill="none" xmlns="http://www.w3.org/2000/svg">
<path d="M9.17772 4.2323H12.5L10.383 2.11066C9.70141 1.42803 8.85242 0.937125 7.92136 0.687308C6.9903 0.437492 6.00998 0.437565 5.07896 0.68752C4.14794 0.937475 3.29902 1.4285 2.61755 2.11124C1.93608 2.79398 1.44608 3.64436 1.1968 4.57691M0.500665 11.0951V7.7677M0.500665 7.7677H3.82294M0.500665 7.7677L2.61702 9.88934C3.29859 10.572 4.14758 11.0629 5.07864 11.3127C6.0097 11.5625 6.99002 11.5624 7.92104 11.3125C8.85206 11.0625 9.70098 10.5715 10.3824 9.88876C11.0639 9.20602 11.5539 8.35564 11.8032 7.42309M12.5 0.904868V4.23097" stroke="white" style="stroke:white;stroke-opacity:1;" stroke-linecap="round" stroke-linejoin="round"/>
</svg>
