<svg width="16" height="12" viewBox="0 0 16 12" fill="none" xmlns="http://www.w3.org/2000/svg">
<path fill-rule="evenodd" clip-rule="evenodd" d="M6.54613 0.00097658C5.94275 0.00092263 5.34593 0.126022 4.79336 0.36837C4.2408 0.610717 3.74451 0.965044 3.33585 1.40896C2.9272 1.85288 2.61507 2.37673 2.41917 2.94742C2.22328 3.51811 2.1479 4.12323 2.19778 4.72454C1.41136 5.09302 0.774096 5.71863 0.391159 6.49811C0.00822083 7.27758 -0.0974967 8.16433 0.0914551 9.01199C0.280407 9.85964 0.752733 10.6175 1.43047 11.1606C2.10821 11.7036 2.95086 11.9993 3.81932 11.9989H11.9997C12.7234 11.9992 13.4267 11.7595 13.9997 11.3174C14.5726 10.8754 14.9829 10.2558 15.1662 9.55579C15.3495 8.85574 15.2957 8.11466 15.013 7.4485C14.7303 6.78234 14.2347 6.22868 13.6038 5.87416C13.6685 5.45927 13.6365 5.03505 13.5102 4.63457C13.384 4.2341 13.167 3.86818 12.8762 3.56534C12.5853 3.26251 12.2284 3.03094 11.8333 2.88869C11.4383 2.74644 11.0157 2.69734 10.5985 2.74524C10.2748 1.93513 9.71563 1.24067 8.99328 0.751496C8.27092 0.262323 7.41853 0.000900186 6.54613 0.00097658ZM8.18221 4.36387C8.18221 4.21923 8.12475 4.08052 8.02248 3.97824C7.9202 3.87597 7.78149 3.81851 7.63685 3.81851C7.49221 3.81851 7.3535 3.87597 7.25122 3.97824C7.14895 4.08052 7.09149 4.21923 7.09149 4.36387V7.95599L5.84079 6.70529C5.73741 6.60896 5.60067 6.55651 5.45939 6.55901C5.3181 6.5615 5.1833 6.61873 5.08338 6.71865C4.98346 6.81857 4.92622 6.95338 4.92373 7.09466C4.92124 7.23595 4.97368 7.37269 5.07001 7.47607L7.25146 9.65752C7.35372 9.75964 7.49233 9.81701 7.63685 9.81701C7.78137 9.81701 7.91998 9.75964 8.02224 9.65752L10.2037 7.47607C10.2573 7.42614 10.3002 7.36593 10.33 7.29903C10.3599 7.23214 10.3759 7.15992 10.3772 7.0867C10.3785 7.01347 10.365 6.94073 10.3376 6.87283C10.3101 6.80492 10.2693 6.74323 10.2175 6.69145C10.1657 6.63966 10.1041 6.59883 10.0361 6.57141C9.96824 6.54398 9.8955 6.53051 9.82228 6.5318C9.74905 6.53309 9.67684 6.54912 9.60994 6.57893C9.54304 6.60873 9.48283 6.65171 9.43291 6.70529L8.18221 7.95599V4.36387Z" fill="white" style="fill:white;fill-opacity:1;"/>
</svg>
