<svg width="29" height="29" viewBox="0 0 29 29" fill="none" xmlns="http://www.w3.org/2000/svg">
<rect width="29" height="29" rx="6.76667" fill="url(#paint0_linear_5_971)" style=""/>
<path fill-rule="evenodd" clip-rule="evenodd" d="M13.4064 7.99454V11.9762C13.4062 12.6072 13.1757 13.2124 12.7654 13.6585L11.0322 15.5439C12.3134 15.4456 13.5953 15.7231 14.7443 16.3473C16.0336 17.0488 17.5105 17.2277 18.91 16.8518L19.1178 16.7955L16.2347 13.6585C15.8245 13.2124 15.5939 12.6072 15.5938 11.9762V7.99454C14.8654 7.94411 14.1348 7.94411 13.4064 7.99454ZM16.6875 8.104C16.8276 8.10538 16.9627 8.04829 17.0652 7.9445C17.1677 7.8407 17.2296 7.6981 17.2383 7.54609C17.247 7.39407 17.2018 7.24422 17.1119 7.12741C17.0221 7.0106 16.8944 6.93573 16.7554 6.91822C16.0072 6.81671 15.254 6.76611 14.5001 6.76673C13.7462 6.76655 12.993 6.81714 12.2448 6.91822C12.1057 6.93573 11.9781 7.0106 11.8882 7.12741C11.7984 7.24422 11.7532 7.39407 11.7618 7.54609C11.7705 7.6981 11.8325 7.8407 11.935 7.9445C12.0374 8.04829 12.1726 8.10538 12.3126 8.104V11.9762C12.3124 12.2917 12.197 12.5941 11.9918 12.817L7.40323 17.8091C6.222 19.0948 6.7448 21.3585 8.47581 21.6798C10.4343 22.0446 12.4475 22.2334 14.5001 22.2334C16.5534 22.2334 18.5658 22.0438 20.5244 21.6806C22.2546 21.3585 22.7789 19.0948 21.5962 17.8091L17.0084 12.8178C16.9067 12.7073 16.826 12.5761 16.771 12.4317C16.7159 12.2873 16.6876 12.1325 16.6875 11.9762V8.104Z" fill="url(#paint1_linear_5_971)" style=""/>
<defs>
<linearGradient id="paint0_linear_5_971" x1="14.5" y1="0" x2="14.5" y2="29" gradientUnits="userSpaceOnUse">
<stop stop-color="#F5785C" style="stop-color:#F5785C;stop-color:color(display-p3 0.9608 0.4706 0.3608);stop-opacity:1;"/>
<stop offset="1" stop-color="#F25533" style="stop-color:#F25533;stop-color:color(display-p3 0.9490 0.3333 0.2000);stop-opacity:1;"/>
</linearGradient>
<linearGradient id="paint1_linear_5_971" x1="14.5001" y1="6.4132" x2="14.5001" y2="22.5869" gradientUnits="userSpaceOnUse">
<stop stop-color="white" style="stop-color:white;stop-opacity:1;"/>
<stop offset="1" stop-color="#AFAFAF" style="stop-color:#AFAFAF;stop-color:color(display-p3 0.6863 0.6863 0.6863);stop-opacity:1;"/>
</linearGradient>
</defs>
</svg>
