<svg width="29" height="29" viewBox="0 0 29 29" fill="none" xmlns="http://www.w3.org/2000/svg">
<rect width="29" height="29" rx="6.76667" fill="url(#paint0_linear_5_907)" style=""/>
<path fill-rule="evenodd" clip-rule="evenodd" d="M9.09926 12.1025C9.09926 10.6702 9.66827 9.29647 10.6811 8.28363C11.694 7.27079 13.0677 6.70178 14.5 6.70178C15.9324 6.70178 17.3061 7.27079 18.3189 8.28363C19.3318 9.29647 19.9008 10.6702 19.9008 12.1025V12.7026C19.9008 14.4013 20.5409 15.9487 21.5954 17.1193C21.6611 17.1921 21.708 17.2798 21.7319 17.3749C21.7558 17.47 21.756 17.5696 21.7326 17.6648C21.7091 17.76 21.6627 17.848 21.5974 17.9211C21.532 17.9942 21.4498 18.0502 21.3578 18.0842C20.1224 18.5403 18.8294 18.8763 17.4925 19.0787C17.5226 19.4901 17.4675 19.9033 17.3308 20.2924C17.194 20.6816 16.9785 21.0383 16.6977 21.3404C16.4169 21.6426 16.0768 21.8835 15.6987 22.0483C15.3205 22.2131 14.9125 22.2981 14.5 22.2981C14.0876 22.2981 13.6795 22.2131 13.3014 22.0483C12.9233 21.8835 12.5832 21.6426 12.3024 21.3404C12.0215 21.0383 11.806 20.6816 11.6693 20.2924C11.5325 19.9033 11.4775 19.4901 11.5076 19.0787C10.1887 18.8789 8.89363 18.5454 7.64226 18.0834C7.55035 18.0495 7.46815 17.9936 7.40283 17.9205C7.33752 17.8475 7.29107 17.7596 7.26755 17.6645C7.24403 17.5694 7.24415 17.47 7.26791 17.3749C7.29166 17.2799 7.33833 17.1921 7.40382 17.1193C8.49742 15.9084 9.10173 14.3342 9.09926 12.7026V12.1025ZM12.7014 19.2236C12.6911 19.4661 12.7301 19.7083 12.8159 19.9354C12.9016 20.1626 13.0325 20.37 13.2005 20.5453C13.3685 20.7206 13.5703 20.86 13.7936 20.9553C14.0169 21.0506 14.2572 21.0997 14.5 21.0997C14.7428 21.0997 14.9831 21.0506 15.2065 20.9553C15.4298 20.86 15.6315 20.7206 15.7996 20.5453C15.9676 20.37 16.0984 20.1626 16.1842 19.9354C16.27 19.7083 16.3089 19.4661 16.2987 19.2236C15.102 19.3314 13.8981 19.3314 12.7014 19.2236Z" fill="url(#paint1_linear_5_907)" style=""/>
<defs>
<linearGradient id="paint0_linear_5_907" x1="14.5" y1="0" x2="14.5" y2="29" gradientUnits="userSpaceOnUse">
<stop stop-color="#F5785C" style="stop-color:#F5785C;stop-color:color(display-p3 0.9608 0.4706 0.3608);stop-opacity:1;"/>
<stop offset="1" stop-color="#F25533" style="stop-color:#F25533;stop-color:color(display-p3 0.9490 0.3333 0.2000);stop-opacity:1;"/>
</linearGradient>
<linearGradient id="paint1_linear_5_907" x1="14.5" y1="6.34529" x2="14.5" y2="22.6546" gradientUnits="userSpaceOnUse">
<stop stop-color="white" style="stop-color:white;stop-opacity:1;"/>
<stop offset="1" stop-color="#AFAFAF" style="stop-color:#AFAFAF;stop-color:color(display-p3 0.6863 0.6863 0.6863);stop-opacity:1;"/>
</linearGradient>
</defs>
</svg>
