<svg width="29" height="29" viewBox="0 0 29 29" fill="none" xmlns="http://www.w3.org/2000/svg">
<rect width="29" height="29" rx="6.76667" fill="url(#paint0_linear_5_876)" style=""/>
<path fill-rule="evenodd" clip-rule="evenodd" d="M8.25391 7.36121C7.43219 7.36121 6.76672 8.02749 6.76672 8.84845V19.2591C6.76672 19.8902 7.01742 20.4955 7.46366 20.9418C7.90991 21.388 8.51514 21.6387 9.14623 21.6387H21.0437C20.4127 21.6387 19.8074 21.388 19.3612 20.9418C18.9149 20.4955 18.6642 19.8902 18.6642 19.2591V8.84845C18.6642 8.0267 17.998 7.36121 17.177 7.36121H8.25391ZM14.5001 12.7153C14.3423 12.7153 14.191 12.778 14.0795 12.8895C13.9679 13.0011 13.9052 13.1524 13.9052 13.3102C13.9052 13.468 13.9679 13.6193 14.0795 13.7308C14.191 13.8424 14.3423 13.9051 14.5001 13.9051H15.6899C15.8476 13.9051 15.9989 13.8424 16.1105 13.7308C16.2221 13.6193 16.2847 13.468 16.2847 13.3102C16.2847 13.1524 16.2221 13.0011 16.1105 12.8895C15.9989 12.778 15.8476 12.7153 15.6899 12.7153H14.5001ZM13.9052 10.9306C13.9052 10.7728 13.9679 10.6215 14.0795 10.5099C14.191 10.3984 14.3423 10.3357 14.5001 10.3357H15.6899C15.8476 10.3357 15.9989 10.3984 16.1105 10.5099C16.2221 10.6215 16.2847 10.7728 16.2847 10.9306C16.2847 11.0884 16.2221 11.2397 16.1105 11.3512C15.9989 11.4628 15.8476 11.5255 15.6899 11.5255H14.5001C14.3423 11.5255 14.191 11.4628 14.0795 11.3512C13.9679 11.2397 13.9052 11.0884 13.9052 10.9306ZM9.7411 15.0949C9.58333 15.0949 9.43202 15.1575 9.32046 15.2691C9.2089 15.3807 9.14623 15.532 9.14623 15.6898C9.14623 15.8475 9.2089 15.9989 9.32046 16.1104C9.43202 16.222 9.58333 16.2847 9.7411 16.2847H15.6899C15.8476 16.2847 15.9989 16.222 16.1105 16.1104C16.2221 15.9989 16.2847 15.8475 16.2847 15.6898C16.2847 15.532 16.2221 15.3807 16.1105 15.2691C15.9989 15.1575 15.8476 15.0949 15.6899 15.0949H9.7411ZM9.14623 18.0693C9.14623 17.9116 9.2089 17.7603 9.32046 17.6487C9.43202 17.5371 9.58333 17.4745 9.7411 17.4745H15.6899C15.8476 17.4745 15.9989 17.5371 16.1105 17.6487C16.2221 17.7603 16.2847 17.9116 16.2847 18.0693C16.2847 18.2271 16.2221 18.3784 16.1105 18.49C15.9989 18.6016 15.8476 18.6642 15.6899 18.6642H9.7411C9.58333 18.6642 9.43202 18.6016 9.32046 18.49C9.2089 18.3784 9.14623 18.2271 9.14623 18.0693ZM9.7411 10.3357C9.58333 10.3357 9.43202 10.3984 9.32046 10.5099C9.2089 10.6215 9.14623 10.7728 9.14623 10.9306V13.3102C9.14623 13.6386 9.41273 13.9051 9.7411 13.9051H12.1206C12.2784 13.9051 12.4297 13.8424 12.5412 13.7308C12.6528 13.6193 12.7155 13.468 12.7155 13.3102V10.9306C12.7155 10.7728 12.6528 10.6215 12.5412 10.5099C12.4297 10.3984 12.2784 10.3357 12.1206 10.3357H9.7411Z" fill="url(#paint1_linear_5_876)" style=""/>
<path d="M19.8539 10.3356H21.3411C21.8336 10.3356 22.2334 10.7353 22.2334 11.2279V19.259C22.2334 19.5746 22.108 19.8772 21.8849 20.1003C21.6618 20.3235 21.3592 20.4488 21.0436 20.4488C20.7281 20.4488 20.4255 20.3235 20.2024 20.1003C19.9792 19.8772 19.8539 19.5746 19.8539 19.259V10.3356Z" fill="url(#paint2_linear_5_876)" style=""/>
<defs>
<linearGradient id="paint0_linear_5_876" x1="14.5" y1="0" x2="14.5" y2="29" gradientUnits="userSpaceOnUse">
<stop stop-color="#F5785C" style="stop-color:#F5785C;stop-color:color(display-p3 0.9608 0.4706 0.3608);stop-opacity:1;"/>
<stop offset="1" stop-color="#F25533" style="stop-color:#F25533;stop-color:color(display-p3 0.9490 0.3333 0.2000);stop-opacity:1;"/>
</linearGradient>
<linearGradient id="paint1_linear_5_876" x1="14.5001" y1="7.03486" x2="14.5001" y2="21.9651" gradientUnits="userSpaceOnUse">
<stop stop-color="white" style="stop-color:white;stop-opacity:1;"/>
<stop offset="1" stop-color="#AFAFAF" style="stop-color:#AFAFAF;stop-color:color(display-p3 0.6863 0.6863 0.6863);stop-opacity:1;"/>
</linearGradient>
<linearGradient id="paint2_linear_5_876" x1="14.5001" y1="7.03486" x2="14.5001" y2="21.9651" gradientUnits="userSpaceOnUse">
<stop stop-color="white" style="stop-color:white;stop-opacity:1;"/>
<stop offset="1" stop-color="#AFAFAF" style="stop-color:#AFAFAF;stop-color:color(display-p3 0.6863 0.6863 0.6863);stop-opacity:1;"/>
</linearGradient>
</defs>
</svg>
