<svg width="29" height="29" viewBox="0 0 29 29" fill="none" xmlns="http://www.w3.org/2000/svg">
<rect width="29" height="29" rx="6.76667" fill="url(#paint0_linear_5_898)" style=""/>
<path fill-rule="evenodd" clip-rule="evenodd" d="M16.6065 6.83659C16.7245 6.89661 16.8171 6.99101 16.8695 7.10474C16.9219 7.21847 16.9311 7.34497 16.8957 7.46407L16.0966 12.8426H21.1459C21.2636 12.8426 21.3788 12.8741 21.4772 12.9331C21.5757 12.9922 21.6531 13.0762 21.7 13.175C21.7469 13.2737 21.7612 13.3828 21.7412 13.4889C21.7212 13.595 21.6677 13.6934 21.5873 13.772L13.1289 22.0575C13.0368 22.1479 12.9142 22.2075 12.7806 22.2267C12.6471 22.2459 12.5104 22.2236 12.3923 22.1633C12.2743 22.1031 12.1818 22.0084 12.1296 21.8944C12.0773 21.7804 12.0684 21.6537 12.1043 21.5346L12.9034 16.1568H7.85413C7.73639 16.1568 7.62122 16.1253 7.52277 16.0663C7.42432 16.0072 7.34689 15.9232 7.29999 15.8244C7.2531 15.7257 7.23878 15.6166 7.2588 15.5105C7.27882 15.4044 7.33231 15.306 7.41269 15.2273L15.8711 6.9419C15.9632 6.85179 16.0857 6.79246 16.219 6.77338C16.3522 6.75429 16.4887 6.77654 16.6065 6.83659Z" fill="url(#paint1_linear_5_898)" style=""/>
<defs>
<linearGradient id="paint0_linear_5_898" x1="14.5" y1="0" x2="14.5" y2="29" gradientUnits="userSpaceOnUse">
<stop stop-color="#F5785C" style="stop-color:#F5785C;stop-color:color(display-p3 0.9608 0.4706 0.3608);stop-opacity:1;"/>
<stop offset="1" stop-color="#F25533" style="stop-color:#F25533;stop-color:color(display-p3 0.9490 0.3333 0.2000);stop-opacity:1;"/>
</linearGradient>
<linearGradient id="paint1_linear_5_898" x1="14.5" y1="6.4132" x2="14.5" y2="22.5869" gradientUnits="userSpaceOnUse">
<stop stop-color="white" style="stop-color:white;stop-opacity:1;"/>
<stop offset="1" stop-color="#AFAFAF" style="stop-color:#AFAFAF;stop-color:color(display-p3 0.6863 0.6863 0.6863);stop-opacity:1;"/>
</linearGradient>
</defs>
</svg>
