<svg width="29" height="29" viewBox="0 0 29 29" fill="none" xmlns="http://www.w3.org/2000/svg">
<rect width="29" height="29" rx="6.76667" fill="url(#paint0_linear_5_880)" style=""/>
<path fill-rule="evenodd" clip-rule="evenodd" d="M10.9308 9.14606C10.9308 8.51502 11.1815 7.90983 11.6278 7.46361C12.074 7.0174 12.6792 6.76672 13.3103 6.76672H15.6898C16.3209 6.76672 16.9261 7.0174 17.3724 7.46361C17.8186 7.90983 18.0693 8.51502 18.0693 9.14606V9.30865C18.8093 9.37606 19.5422 9.46489 20.2695 9.57355C21.4228 9.74644 22.2334 10.7497 22.2334 11.8871V14.2926C22.2334 15.253 21.6512 16.158 20.6978 16.4752C18.6989 17.1387 16.6062 17.4758 14.5001 17.4737C12.3347 17.4737 10.2511 17.1232 8.30229 16.4752C7.3489 16.158 6.76672 15.253 6.76672 14.2926V11.8871C6.76672 10.7497 7.57734 9.74565 8.73059 9.57355C9.46133 9.46427 10.195 9.37594 10.9308 9.30865V9.14606ZM16.8795 9.14606V9.21744C15.2947 9.12119 13.7054 9.12119 12.1206 9.21744V9.14606C12.1206 8.83054 12.2459 8.52794 12.469 8.30484C12.6922 8.08173 12.9948 7.95639 13.3103 7.95639H15.6898C16.0053 7.95639 16.308 8.08173 16.5311 8.30484C16.7542 8.52794 16.8795 8.83054 16.8795 9.14606ZM14.5001 15.6892C14.6578 15.6892 14.8091 15.6266 14.9207 15.515C15.0323 15.4035 15.0949 15.2522 15.0949 15.0944C15.0949 14.9366 15.0323 14.7853 14.9207 14.6738C14.8091 14.5622 14.6578 14.4996 14.5001 14.4996C14.3423 14.4996 14.191 14.5622 14.0794 14.6738C13.9679 14.7853 13.9052 14.9366 13.9052 15.0944C13.9052 15.2522 13.9679 15.4035 14.0794 15.515C14.191 15.6266 14.3423 15.6892 14.5001 15.6892Z" fill="url(#paint1_linear_5_880)" style=""/>
<path d="M7.36159 19.5765V17.3589C7.54228 17.4578 7.73156 17.5401 7.92711 17.6048C10.047 18.3086 12.2664 18.6664 14.5 18.6644C16.7939 18.6644 19.0052 18.2932 21.073 17.6056C21.2729 17.539 21.4616 17.4557 21.6385 17.3589V19.5765C21.6385 20.7281 20.8081 21.7401 19.6374 21.8947C17.9559 22.1184 16.241 22.2334 14.5 22.2334C12.782 22.2337 11.0658 22.1206 9.36273 21.8947C8.19203 21.7401 7.36159 20.7281 7.36159 19.5765Z" fill="url(#paint2_linear_5_880)" style=""/>
<defs>
<linearGradient id="paint0_linear_5_880" x1="14.5" y1="0" x2="14.5" y2="29" gradientUnits="userSpaceOnUse">
<stop stop-color="#F5785C" style="stop-color:#F5785C;stop-color:color(display-p3 0.9608 0.4706 0.3608);stop-opacity:1;"/>
<stop offset="1" stop-color="#F25533" style="stop-color:#F25533;stop-color:color(display-p3 0.9490 0.3333 0.2000);stop-opacity:1;"/>
</linearGradient>
<linearGradient id="paint1_linear_5_880" x1="14.5001" y1="6.4132" x2="14.5001" y2="22.5869" gradientUnits="userSpaceOnUse">
<stop stop-color="white" style="stop-color:white;stop-opacity:1;"/>
<stop offset="1" stop-color="#AFAFAF" style="stop-color:#AFAFAF;stop-color:color(display-p3 0.6863 0.6863 0.6863);stop-opacity:1;"/>
</linearGradient>
<linearGradient id="paint2_linear_5_880" x1="14.5001" y1="6.4132" x2="14.5001" y2="22.5869" gradientUnits="userSpaceOnUse">
<stop stop-color="white" style="stop-color:white;stop-opacity:1;"/>
<stop offset="1" stop-color="#AFAFAF" style="stop-color:#AFAFAF;stop-color:color(display-p3 0.6863 0.6863 0.6863);stop-opacity:1;"/>
</linearGradient>
</defs>
</svg>
