<svg width="29" height="29" viewBox="0 0 29 29" fill="none" xmlns="http://www.w3.org/2000/svg">
<rect width="29" height="29" rx="6.76667" fill="url(#paint0_linear_5_938)" style=""/>
<path d="M11.1489 9.85999C10.9438 9.85999 10.7471 9.77851 10.6021 9.63348C10.4571 9.48846 10.3756 9.29175 10.3756 9.08665V7.02443C10.3756 6.81933 10.4571 6.62263 10.6021 6.4776C10.7471 6.33257 10.9438 6.2511 11.1489 6.2511C11.354 6.2511 11.5507 6.33257 11.6958 6.4776C11.8408 6.62263 11.9223 6.81933 11.9223 7.02443V9.08665C11.9223 9.29175 11.8408 9.48846 11.6958 9.63348C11.5507 9.77851 11.354 9.85999 11.1489 9.85999ZM17.8512 9.85999C17.6461 9.85999 17.4494 9.77851 17.3043 9.63348C17.1593 9.48846 17.0778 9.29175 17.0778 9.08665V7.02443C17.0778 6.81933 17.1593 6.62263 17.3043 6.4776C17.4494 6.33257 17.6461 6.2511 17.8512 6.2511C18.0563 6.2511 18.253 6.33257 18.398 6.4776C18.543 6.62263 18.6245 6.81933 18.6245 7.02443V9.08665C18.6245 9.29175 18.543 9.48846 18.398 9.63348C18.253 9.77851 18.0563 9.85999 17.8512 9.85999Z" fill="url(#paint1_linear_5_938)" style=""/>
<path d="M19.3978 8.31332H9.60228C8.85041 8.31387 8.12949 8.61279 7.59784 9.14444C7.06619 9.67609 6.76727 10.397 6.76672 11.1489V19.9133C6.76727 20.6652 7.06619 21.3861 7.59784 21.9178C8.12949 22.4494 8.85041 22.7483 9.60228 22.7489H19.3978C20.1497 22.7483 20.8706 22.4494 21.4023 21.9178C21.9339 21.3861 22.2328 20.6652 22.2334 19.9133V11.1489C22.2328 10.397 21.9339 9.67609 21.4023 9.14444C20.8706 8.61279 20.1497 8.31387 19.3978 8.31332ZM19.3978 21.2022H9.60228C8.89184 21.2022 8.31339 20.6238 8.31339 19.9133V13.4689H20.6867V19.9133C20.6867 20.6238 20.1083 21.2022 19.3978 21.2022Z" fill="url(#paint2_linear_5_938)" style=""/>
<defs>
<linearGradient id="paint0_linear_5_938" x1="14.5" y1="0" x2="14.5" y2="29" gradientUnits="userSpaceOnUse">
<stop stop-color="#F5785C" style="stop-color:#F5785C;stop-color:color(display-p3 0.9608 0.4706 0.3608);stop-opacity:1;"/>
<stop offset="1" stop-color="#F25533" style="stop-color:#F25533;stop-color:color(display-p3 0.9490 0.3333 0.2000);stop-opacity:1;"/>
</linearGradient>
<linearGradient id="paint1_linear_5_938" x1="14.5001" y1="5.87401" x2="14.5001" y2="23.126" gradientUnits="userSpaceOnUse">
<stop stop-color="white" style="stop-color:white;stop-opacity:1;"/>
<stop offset="1" stop-color="#AFAFAF" style="stop-color:#AFAFAF;stop-color:color(display-p3 0.6863 0.6863 0.6863);stop-opacity:1;"/>
</linearGradient>
<linearGradient id="paint2_linear_5_938" x1="14.5001" y1="5.87401" x2="14.5001" y2="23.126" gradientUnits="userSpaceOnUse">
<stop stop-color="white" style="stop-color:white;stop-opacity:1;"/>
<stop offset="1" stop-color="#AFAFAF" style="stop-color:#AFAFAF;stop-color:color(display-p3 0.6863 0.6863 0.6863);stop-opacity:1;"/>
</linearGradient>
</defs>
</svg>
