<svg width="29" height="29" viewBox="0 0 29 29" fill="none" xmlns="http://www.w3.org/2000/svg">
<rect width="29" height="29" rx="6.76667" fill="url(#paint0_linear_5_975)" style=""/>
<path d="M7.32199 7.28149C7.17472 7.28149 7.03349 7.34 6.92936 7.44413C6.82522 7.54826 6.76672 7.68949 6.76672 7.83676C6.76672 7.98402 6.82522 8.12526 6.92936 8.22939C7.03349 8.33352 7.17472 8.39202 7.32199 8.39202H8.34812C8.47398 8.39202 8.58355 8.47642 8.61613 8.59784L10.51 15.6993C9.91513 15.8543 9.38851 16.2022 9.01258 16.6885C8.63665 17.1748 8.43265 17.7721 8.43252 18.3868C8.43252 18.6933 8.68128 18.9421 8.98778 18.9421H20.6484C20.7956 18.9421 20.9369 18.8836 21.041 18.7794C21.1451 18.6753 21.2036 18.5341 21.2036 18.3868C21.2036 18.2395 21.1451 18.0983 21.041 17.9942C20.9369 17.89 20.7956 17.8315 20.6484 17.8315H9.63782C9.75267 17.5067 9.96544 17.2254 10.2468 17.0265C10.5282 16.8276 10.8643 16.7209 11.2088 16.721H19.5141C19.6182 16.721 19.7201 16.6918 19.8083 16.6367C19.8965 16.5816 19.9675 16.5028 20.0131 16.4093C20.8584 14.6747 21.5904 12.8872 22.2046 11.058C22.2288 10.9857 22.2379 10.9091 22.2313 10.8331C22.2246 10.757 22.2024 10.6832 22.1659 10.6161C22.1294 10.5491 22.0795 10.4903 22.0193 10.4434C21.9591 10.3965 21.8898 10.3625 21.8159 10.3436C17.9111 9.34793 13.8904 8.88055 9.8614 8.95395L9.68964 8.31207C9.61084 8.01647 9.4366 7.75519 9.194 7.56882C8.9514 7.38246 8.65404 7.28145 8.34812 7.28149H7.32199ZM8.43252 20.6079C8.43252 20.3133 8.54952 20.0309 8.75779 19.8226C8.96605 19.6143 9.24852 19.4973 9.54305 19.4973C9.83758 19.4973 10.12 19.6143 10.3283 19.8226C10.5366 20.0309 10.6536 20.3133 10.6536 20.6079C10.6536 20.9024 10.5366 21.1849 10.3283 21.3931C10.12 21.6014 9.83758 21.7184 9.54305 21.7184C9.24852 21.7184 8.96605 21.6014 8.75779 21.3931C8.54952 21.1849 8.43252 20.9024 8.43252 20.6079ZM17.872 20.6079C17.872 20.3133 17.989 20.0309 18.1973 19.8226C18.4056 19.6143 18.688 19.4973 18.9826 19.4973C19.2771 19.4973 19.5596 19.6143 19.7678 19.8226C19.9761 20.0309 20.0931 20.3133 20.0931 20.6079C20.0931 20.9024 19.9761 21.1849 19.7678 21.3931C19.5596 21.6014 19.2771 21.7184 18.9826 21.7184C18.688 21.7184 18.4056 21.6014 18.1973 21.3931C17.989 21.1849 17.872 20.9024 17.872 20.6079Z" fill="url(#paint1_linear_5_975)" style=""/>
<defs>
<linearGradient id="paint0_linear_5_975" x1="14.5" y1="0" x2="14.5" y2="29" gradientUnits="userSpaceOnUse">
<stop stop-color="#F5785C" style="stop-color:#F5785C;stop-color:color(display-p3 0.9608 0.4706 0.3608);stop-opacity:1;"/>
<stop offset="1" stop-color="#F25533" style="stop-color:#F25533;stop-color:color(display-p3 0.9490 0.3333 0.2000);stop-opacity:1;"/>
</linearGradient>
<linearGradient id="paint1_linear_5_975" x1="14.5001" y1="6.95151" x2="14.5001" y2="22.0484" gradientUnits="userSpaceOnUse">
<stop stop-color="white" style="stop-color:white;stop-opacity:1;"/>
<stop offset="1" stop-color="#AFAFAF" style="stop-color:#AFAFAF;stop-color:color(display-p3 0.6863 0.6863 0.6863);stop-opacity:1;"/>
</linearGradient>
</defs>
</svg>
