<svg width="29" height="29" viewBox="0 0 29 29" fill="none" xmlns="http://www.w3.org/2000/svg">
<rect width="29" height="29" rx="6.76667" fill="url(#paint0_linear_5_872)" style=""/>
<path d="M20.4289 7.31909H19.9134C19.4348 7.31909 18.9759 7.50823 18.6375 7.8449C18.2991 8.18158 18.1089 8.6382 18.1089 9.11433V19.8858C18.1089 20.8767 18.9173 21.681 19.9134 21.681H20.4289C20.9075 21.681 21.3665 21.4919 21.7049 21.1552C22.0433 20.8185 22.2334 20.3619 22.2334 19.8858V9.11433C22.2334 8.6382 22.0433 8.18158 21.7049 7.8449C21.3665 7.50823 20.9075 7.31909 20.4289 7.31909ZM14.7578 12.4483H14.2423C13.7637 12.4483 13.3047 12.6375 12.9663 12.9742C12.6279 13.3108 12.4378 13.7675 12.4378 14.2436V19.8858C12.4378 20.8767 13.2462 21.681 14.2423 21.681H14.7578C15.2364 21.681 15.6954 21.4919 16.0338 21.1552C16.3722 20.8185 16.5623 20.3619 16.5623 19.8858V14.2436C16.5623 13.7675 16.3722 13.3108 16.0338 12.9742C15.6954 12.6375 15.2364 12.4483 14.7578 12.4483ZM9.08672 16.5517H8.57117C8.0926 16.5517 7.63363 16.7409 7.29523 17.0776C6.95683 17.4142 6.76672 17.8709 6.76672 18.347V19.8858C6.76672 20.8767 7.57511 21.681 8.57117 21.681H9.08672C9.56529 21.681 10.0243 21.4919 10.3627 21.1552C10.7011 20.8185 10.8912 20.3619 10.8912 19.8858V18.347C10.8912 17.8709 10.7011 17.4142 10.3627 17.0776C10.0243 16.7409 9.56529 16.5517 9.08672 16.5517Z" fill="url(#paint1_linear_5_872)" style=""/>
<defs>
<linearGradient id="paint0_linear_5_872" x1="14.5" y1="0" x2="14.5" y2="29" gradientUnits="userSpaceOnUse">
<stop stop-color="#F5785C" style="stop-color:#F5785C;stop-color:color(display-p3 0.9608 0.4706 0.3608);stop-opacity:1;"/>
<stop offset="1" stop-color="#F25533" style="stop-color:#F25533;stop-color:color(display-p3 0.9490 0.3333 0.2000);stop-opacity:1;"/>
</linearGradient>
<linearGradient id="paint1_linear_5_872" x1="14.5001" y1="6.99082" x2="14.5001" y2="22.0093" gradientUnits="userSpaceOnUse">
<stop stop-color="white" style="stop-color:white;stop-opacity:1;"/>
<stop offset="1" stop-color="#AFAFAF" style="stop-color:#AFAFAF;stop-color:color(display-p3 0.6863 0.6863 0.6863);stop-opacity:1;"/>
</linearGradient>
</defs>
</svg>
