<svg width="29" height="29" viewBox="0 0 29 29" fill="none" xmlns="http://www.w3.org/2000/svg">
<rect width="29" height="29" rx="6.76667" fill="url(#paint0_linear_5_973)" style=""/>
<path d="M9.28043 7.61983C10.8087 7.42097 12.3664 7.31934 13.9477 7.31934C15.529 7.31934 17.0867 7.42171 18.6149 7.61983C20.0305 7.80396 21.0388 8.99047 21.1227 10.3648C20.8765 10.2828 20.6213 10.2306 20.3627 10.2094C18.2991 10.0381 16.2248 10.0381 14.1613 10.2094C12.4246 10.3537 11.1858 11.8223 11.1858 13.4751V16.6317C11.1851 17.2385 11.3521 17.8336 11.6683 18.3514C11.9845 18.8692 12.4376 19.2895 12.9777 19.566L11.0237 21.5192C10.9465 21.5964 10.8481 21.6489 10.741 21.6702C10.6339 21.6914 10.5229 21.6805 10.4221 21.6387C10.3212 21.597 10.235 21.5262 10.1743 21.4355C10.1136 21.3447 10.0811 21.238 10.081 21.1289V18.1607C9.8138 18.1323 9.54692 18.1009 9.28043 18.0665C7.80152 17.8735 6.76672 16.5868 6.76672 15.1352V10.5511C6.76672 9.10021 7.80152 7.81206 9.28043 7.61983Z" fill="url(#paint1_linear_5_973)" style=""/>
<path d="M17.262 11.186C16.2485 11.186 15.2447 11.228 14.2526 11.3105C13.1184 11.4047 12.2905 12.3666 12.2905 13.4758V16.6317C12.2905 17.7417 13.1213 18.7043 14.257 18.7971C15.1725 18.8722 16.0983 18.9127 17.0322 18.9186L19.0811 20.9668C19.1584 21.044 19.2568 21.0965 19.3639 21.1178C19.4709 21.1391 19.5819 21.1281 19.6828 21.0864C19.7837 21.0446 19.8699 20.9739 19.9306 20.8831C19.9913 20.7924 20.0238 20.6857 20.0239 20.5765V18.8162L20.2669 18.7971C21.4026 18.705 22.2334 17.7417 22.2334 16.6317V13.4751C22.2334 12.3666 21.4048 11.4047 20.2713 11.3097C19.2703 11.227 18.2664 11.1857 17.262 11.186Z" fill="url(#paint2_linear_5_973)" style=""/>
<defs>
<linearGradient id="paint0_linear_5_973" x1="14.5" y1="0" x2="14.5" y2="29" gradientUnits="userSpaceOnUse">
<stop stop-color="#F5785C" style="stop-color:#F5785C;stop-color:color(display-p3 0.9608 0.4706 0.3608);stop-opacity:1;"/>
<stop offset="1" stop-color="#F25533" style="stop-color:#F25533;stop-color:color(display-p3 0.9490 0.3333 0.2000);stop-opacity:1;"/>
</linearGradient>
<linearGradient id="paint1_linear_5_973" x1="14.5001" y1="6.99107" x2="14.5001" y2="22.009" gradientUnits="userSpaceOnUse">
<stop stop-color="white" style="stop-color:white;stop-opacity:1;"/>
<stop offset="1" stop-color="#AFAFAF" style="stop-color:#AFAFAF;stop-color:color(display-p3 0.6863 0.6863 0.6863);stop-opacity:1;"/>
</linearGradient>
<linearGradient id="paint2_linear_5_973" x1="14.5001" y1="6.99107" x2="14.5001" y2="22.009" gradientUnits="userSpaceOnUse">
<stop stop-color="white" style="stop-color:white;stop-opacity:1;"/>
<stop offset="1" stop-color="#AFAFAF" style="stop-color:#AFAFAF;stop-color:color(display-p3 0.6863 0.6863 0.6863);stop-opacity:1;"/>
</linearGradient>
</defs>
</svg>
