<svg width="29" height="29" viewBox="0 0 29 29" fill="none" xmlns="http://www.w3.org/2000/svg">
<rect width="29" height="29" rx="6.76667" fill="url(#paint0_linear_5_968)" style=""/>
<path fill-rule="evenodd" clip-rule="evenodd" d="M11.8057 7.99533C12.1404 7.60924 12.5542 7.29969 13.0191 7.0877C13.484 6.87571 13.9891 6.76624 14.5001 6.76673C15.5764 6.76673 16.5409 7.24262 17.1944 7.99533C17.7042 7.95894 18.2158 8.03268 18.6946 8.21155C19.1733 8.39043 19.6079 8.67025 19.9689 9.032C20.3305 9.39293 20.6102 9.82744 20.7891 10.306C20.968 10.7846 21.0418 11.2961 21.0056 11.8057C21.3915 12.1404 21.7009 12.5543 21.9128 13.0192C22.1246 13.4841 22.234 13.9892 22.2334 14.5001C22.2339 15.011 22.1244 15.5161 21.9124 15.981C21.7004 16.4459 21.3909 16.8597 21.0048 17.1944C21.041 17.7041 20.9672 18.2155 20.7883 18.6941C20.6094 19.1727 20.3297 19.6072 19.9681 19.9681C19.6072 20.3297 19.1727 20.6094 18.6941 20.7883C18.2155 20.9672 17.7041 21.041 17.1944 21.0048C16.8597 21.3909 16.4459 21.7004 15.981 21.9124C15.5161 22.1244 15.011 22.2339 14.5001 22.2334C13.9891 22.2339 13.484 22.1244 13.0191 21.9124C12.5542 21.7004 12.1404 21.3909 11.8057 21.0048C11.296 21.0413 10.7844 20.9677 10.3057 20.7889C9.82693 20.6102 9.39227 20.3305 9.0312 19.9689C8.6695 19.6079 8.38971 19.1732 8.21083 18.6945C8.03196 18.2158 7.9582 17.7042 7.99454 17.1944C7.6086 16.8597 7.2992 16.4458 7.08734 15.9809C6.87549 15.516 6.76614 15.011 6.76673 14.5001C6.76673 13.4237 7.24262 12.4592 7.99533 11.8057C7.95905 11.2961 8.03285 10.7846 8.21172 10.306C8.3906 9.8274 8.67035 9.3929 9.032 9.032C9.3929 8.67035 9.8274 8.3906 10.306 8.21172C10.7846 8.03285 11.2961 7.95905 11.8057 7.99533ZM17.3634 13.0613C17.411 12.9978 17.4454 12.9256 17.4646 12.8487C17.4839 12.7717 17.4876 12.6918 17.4755 12.6134C17.4634 12.535 17.4357 12.4599 17.3942 12.3924C17.3526 12.3249 17.298 12.2663 17.2335 12.2202C17.169 12.1741 17.0959 12.1414 17.0186 12.1239C16.9413 12.1065 16.8612 12.1046 16.7832 12.1186C16.7051 12.1325 16.6306 12.1619 16.5641 12.205C16.4976 12.2481 16.4403 12.3041 16.3957 12.3696L13.829 15.9626L12.5409 14.6746C12.4282 14.5695 12.279 14.5123 12.1249 14.515C11.9708 14.5177 11.8238 14.5801 11.7148 14.6891C11.6058 14.7981 11.5433 14.9452 11.5406 15.0993C11.5379 15.2534 11.5951 15.4025 11.7002 15.5153L13.4848 17.2999C13.5459 17.3609 13.6195 17.4079 13.7005 17.4376C13.7816 17.4674 13.8681 17.4791 13.9542 17.472C14.0402 17.4649 14.1237 17.4392 14.1988 17.3966C14.2738 17.354 14.3388 17.2956 14.389 17.2254L17.3634 13.0613Z" fill="url(#paint1_linear_5_968)" style=""/>
<defs>
<linearGradient id="paint0_linear_5_968" x1="14.5" y1="0" x2="14.5" y2="29" gradientUnits="userSpaceOnUse">
<stop stop-color="#F5785C" style="stop-color:#F5785C;stop-color:color(display-p3 0.9608 0.4706 0.3608);stop-opacity:1;"/>
<stop offset="1" stop-color="#F25533" style="stop-color:#F25533;stop-color:color(display-p3 0.9490 0.3333 0.2000);stop-opacity:1;"/>
</linearGradient>
<linearGradient id="paint1_linear_5_968" x1="14.5001" y1="6.4132" x2="14.5001" y2="22.5869" gradientUnits="userSpaceOnUse">
<stop stop-color="white" style="stop-color:white;stop-opacity:1;"/>
<stop offset="1" stop-color="#AFAFAF" style="stop-color:#AFAFAF;stop-color:color(display-p3 0.6863 0.6863 0.6863);stop-opacity:1;"/>
</linearGradient>
</defs>
</svg>
