<svg width="29" height="29" viewBox="0 0 29 29" fill="none" xmlns="http://www.w3.org/2000/svg">
<rect width="29" height="29" rx="6.76667" fill="url(#paint0_linear_5_894)" style=""/>
<path fill-rule="evenodd" clip-rule="evenodd" d="M14.5001 6.76672C10.2289 6.76672 6.76672 10.2289 6.76672 14.5001C6.76672 18.7712 10.2289 22.2334 14.5001 22.2334C18.7712 22.2334 22.2334 18.7712 22.2334 14.5001C22.2334 10.2289 18.7712 6.76672 14.5001 6.76672ZM15.0949 9.74108C15.0949 9.58331 15.0323 9.432 14.9207 9.32044C14.8091 9.20888 14.6578 9.14621 14.5001 9.14621C14.3423 9.14621 14.191 9.20888 14.0794 9.32044C13.9679 9.432 13.9052 9.58331 13.9052 9.74108V14.5001C13.9052 14.8284 14.1717 15.0949 14.5001 15.0949H18.0693C18.2271 15.0949 18.3784 15.0323 18.4899 14.9207C18.6015 14.8091 18.6642 14.6578 18.6642 14.5001C18.6642 14.3423 18.6015 14.191 18.4899 14.0794C18.3784 13.9679 18.2271 13.9052 18.0693 13.9052H15.0949V9.74108Z" fill="url(#paint1_linear_5_894)" style=""/>
<defs>
<linearGradient id="paint0_linear_5_894" x1="14.5" y1="0" x2="14.5" y2="29" gradientUnits="userSpaceOnUse">
<stop stop-color="#F5785C" style="stop-color:#F5785C;stop-color:color(display-p3 0.9608 0.4706 0.3608);stop-opacity:1;"/>
<stop offset="1" stop-color="#F25533" style="stop-color:#F25533;stop-color:color(display-p3 0.9490 0.3333 0.2000);stop-opacity:1;"/>
</linearGradient>
<linearGradient id="paint1_linear_5_894" x1="14.5001" y1="6.4132" x2="14.5001" y2="22.5869" gradientUnits="userSpaceOnUse">
<stop stop-color="white" style="stop-color:white;stop-opacity:1;"/>
<stop offset="1" stop-color="#AFAFAF" style="stop-color:#AFAFAF;stop-color:color(display-p3 0.6863 0.6863 0.6863);stop-opacity:1;"/>
</linearGradient>
</defs>
</svg>
