<svg width="29" height="29" viewBox="0 0 29 29" fill="none" xmlns="http://www.w3.org/2000/svg">
<rect width="29" height="29" rx="6.76667" fill="url(#paint0_linear_5_988)" style=""/>
<path fill-rule="evenodd" clip-rule="evenodd" d="M13.3959 8.31335C12.7848 8.3133 12.1805 8.44231 11.6209 8.69224C11.0613 8.94217 10.5587 9.30758 10.1449 9.76539C9.73105 10.2232 9.41495 10.7634 9.21658 11.352C9.01821 11.9405 8.94186 12.5646 8.99237 13.1847C8.19599 13.5647 7.55064 14.2099 7.16284 15.0138C6.77505 15.8176 6.66799 16.7321 6.85934 17.6063C7.05069 18.4805 7.529 19.2621 8.21534 19.8221C8.90168 20.3821 9.75501 20.6871 10.6345 20.6867H18.9187C19.6515 20.6869 20.3637 20.4398 20.944 19.9839C21.5242 19.528 21.9396 18.8891 22.1253 18.1671C22.3109 17.4452 22.2564 16.6809 21.9701 15.9939C21.6838 15.3069 21.182 14.7359 20.5431 14.3703C20.6086 13.9424 20.5761 13.5049 20.4483 13.0919C20.3205 12.6789 20.1007 12.3015 19.8062 11.9892C19.5116 11.6769 19.1502 11.4381 18.7501 11.2914C18.3501 11.1447 17.9221 11.0941 17.4997 11.1435C17.1718 10.308 16.6056 9.59183 15.8741 9.08735C15.1425 8.58288 14.2793 8.31328 13.3959 8.31335ZM14.8907 12.4153C14.7872 12.31 14.6468 12.2508 14.5004 12.2508C14.3541 12.2508 14.2137 12.31 14.1102 12.4153L11.901 14.665C11.8468 14.7165 11.8033 14.7786 11.7731 14.8476C11.7429 14.9166 11.7267 14.991 11.7253 15.0666C11.724 15.1421 11.7377 15.2171 11.7655 15.2871C11.7932 15.3571 11.8346 15.4208 11.887 15.4742C11.9395 15.5276 12.0019 15.5697 12.0707 15.598C12.1395 15.6263 12.2131 15.6401 12.2873 15.6388C12.3614 15.6375 12.4346 15.6209 12.5023 15.5902C12.5701 15.5595 12.631 15.5151 12.6816 15.4599L13.9482 14.1701V17.8746C13.9482 18.0237 14.0063 18.1668 14.1099 18.2723C14.2135 18.3777 14.354 18.437 14.5004 18.437C14.6469 18.437 14.7874 18.3777 14.8909 18.2723C14.9945 18.1668 15.0527 18.0237 15.0527 17.8746V14.1701L16.3193 15.4599C16.3698 15.5151 16.4308 15.5595 16.4985 15.5902C16.5663 15.6209 16.6394 15.6375 16.7136 15.6388C16.7877 15.6401 16.8614 15.6263 16.9302 15.598C16.9989 15.5697 17.0614 15.5276 17.1138 15.4742C17.1663 15.4208 17.2076 15.3571 17.2354 15.2871C17.2632 15.2171 17.2768 15.1421 17.2755 15.0666C17.2742 14.991 17.258 14.9166 17.2278 14.8476C17.1976 14.7786 17.1541 14.7165 17.0998 14.665L14.8907 12.4153Z" fill="url(#paint1_linear_5_988)" style=""/>
<defs>
<linearGradient id="paint0_linear_5_988" x1="14.5" y1="0" x2="14.5" y2="29" gradientUnits="userSpaceOnUse">
<stop stop-color="#F5785C" style="stop-color:#F5785C;stop-color:color(display-p3 0.9608 0.4706 0.3608);stop-opacity:1;"/>
<stop offset="1" stop-color="#F25533" style="stop-color:#F25533;stop-color:color(display-p3 0.9490 0.3333 0.2000);stop-opacity:1;"/>
</linearGradient>
<linearGradient id="paint1_linear_5_988" x1="14.5001" y1="8.03054" x2="14.5001" y2="20.9695" gradientUnits="userSpaceOnUse">
<stop stop-color="white" style="stop-color:white;stop-opacity:1;"/>
<stop offset="1" stop-color="#AFAFAF" style="stop-color:#AFAFAF;stop-color:color(display-p3 0.6863 0.6863 0.6863);stop-opacity:1;"/>
</linearGradient>
</defs>
</svg>
