<svg width="29" height="29" viewBox="0 0 29 29" fill="none" xmlns="http://www.w3.org/2000/svg">
<rect width="29" height="29" rx="6.76667" fill="url(#paint0_linear_5_960)" style=""/>
<path fill-rule="evenodd" clip-rule="evenodd" d="M8.97765 12.9195C8.97713 11.9388 9.33465 10.9886 9.98871 10.2324C10.6428 9.47614 11.5525 8.9611 12.5613 8.77587C13.5702 8.59064 14.6152 8.7468 15.5165 9.21749C16.4178 9.68817 17.119 10.444 17.4997 11.3548C17.9221 11.3085 18.3501 11.356 18.7501 11.4935C19.1502 11.631 19.5116 11.8549 19.8062 12.1476C20.1007 12.4403 20.3205 12.794 20.4483 13.1812C20.5761 13.5683 20.6086 13.9784 20.5431 14.3794C21.182 14.7221 21.6838 15.2573 21.9701 15.9013C22.2564 16.5452 22.3109 17.2616 22.1253 17.9383C21.9396 18.615 21.5242 19.2139 20.944 19.6412C20.3637 20.0685 19.6515 20.3002 18.9187 20.3H10.6345C9.75501 20.3003 8.90168 20.0145 8.21534 19.4896C7.529 18.9646 7.05069 18.232 6.85934 17.4126C6.66799 16.5932 6.77505 15.736 7.16284 14.9826C7.55064 14.2291 8.19599 13.6243 8.99237 13.2681C8.98249 13.1522 8.97757 13.0358 8.97765 12.9195Z" fill="url(#paint1_linear_5_960)" style=""/>
<defs>
<linearGradient id="paint0_linear_5_960" x1="14.5" y1="0" x2="14.5" y2="29" gradientUnits="userSpaceOnUse">
<stop stop-color="#F5785C" style="stop-color:#F5785C;stop-color:color(display-p3 0.9608 0.4706 0.3608);stop-opacity:1;"/>
<stop offset="1" stop-color="#F25533" style="stop-color:#F25533;stop-color:color(display-p3 0.9490 0.3333 0.2000);stop-opacity:1;"/>
</linearGradient>
<linearGradient id="paint1_linear_5_960" x1="14.5001" y1="8.43481" x2="14.5001" y2="20.5651" gradientUnits="userSpaceOnUse">
<stop stop-color="white" style="stop-color:white;stop-opacity:1;"/>
<stop offset="1" stop-color="#AFAFAF" style="stop-color:#AFAFAF;stop-color:color(display-p3 0.6863 0.6863 0.6863);stop-opacity:1;"/>
</linearGradient>
</defs>
</svg>
