<svg width="29" height="29" viewBox="0 0 29 29" fill="none" xmlns="http://www.w3.org/2000/svg">
<rect width="29" height="29" rx="6.76667" fill="url(#paint0_linear_5_964)" style=""/>
<path fill-rule="evenodd" clip-rule="evenodd" d="M6.76672 9.3445C6.76672 8.66083 7.03831 8.00516 7.52174 7.52174C8.00516 7.03831 8.66083 6.76672 9.3445 6.76672H19.6556C20.3393 6.76672 20.9949 7.03831 21.4784 7.52174C21.9618 8.00516 22.2334 8.66083 22.2334 9.3445V19.6556C22.2334 20.3393 21.9618 20.9949 21.4784 21.4784C20.9949 21.9618 20.3393 22.2334 19.6556 22.2334H9.3445C8.66083 22.2334 8.00516 21.9618 7.52174 21.4784C7.03831 20.9949 6.76672 20.3393 6.76672 19.6556V9.3445ZM19.0112 14.5001C19.011 14.6709 18.943 14.8347 18.8221 14.9555L16.8888 16.8888C16.8298 16.9521 16.7587 17.0029 16.6796 17.0381C16.6005 17.0733 16.5152 17.0923 16.4287 17.0938C16.3422 17.0953 16.2562 17.0794 16.176 17.047C16.0957 17.0146 16.0228 16.9664 15.9616 16.9052C15.9004 16.844 15.8522 16.7711 15.8198 16.6908C15.7874 16.6106 15.7714 16.5246 15.773 16.4381C15.7745 16.3516 15.7934 16.2662 15.8287 16.1872C15.8639 16.1081 15.9147 16.037 15.978 15.978L17.4559 14.5001L15.978 13.0221C15.9147 12.9631 15.8639 12.892 15.8287 12.8129C15.7934 12.7339 15.7745 12.6485 15.773 12.562C15.7714 12.4755 15.7874 12.3895 15.8198 12.3093C15.8522 12.229 15.9004 12.1562 15.9616 12.095C16.0228 12.0338 16.0957 11.9855 16.176 11.9531C16.2562 11.9207 16.3422 11.9048 16.4287 11.9063C16.5152 11.9078 16.6005 11.9268 16.6796 11.962C16.7587 11.9972 16.8298 12.048 16.8888 12.1113L18.8221 14.0446C18.9433 14.1649 19.0112 14.3291 19.0112 14.5001ZM10.178 14.0446C10.0573 14.1655 9.98951 14.3293 9.98951 14.5001C9.98951 14.6708 10.0573 14.8346 10.178 14.9555L12.1113 16.8888C12.1703 16.9521 12.2415 17.0029 12.3205 17.0381C12.3996 17.0733 12.4849 17.0923 12.5714 17.0938C12.658 17.0953 12.7439 17.0794 12.8242 17.047C12.9044 17.0146 12.9773 16.9664 13.0385 16.9052C13.0997 16.844 13.1479 16.7711 13.1803 16.6908C13.2128 16.6106 13.2287 16.5246 13.2271 16.4381C13.2256 16.3516 13.2067 16.2662 13.1715 16.1872C13.1362 16.1081 13.0854 16.037 13.0221 15.978L11.5442 14.5001L13.0221 13.0221C13.0854 12.9631 13.1362 12.892 13.1715 12.8129C13.2067 12.7339 13.2256 12.6485 13.2271 12.562C13.2287 12.4755 13.2128 12.3895 13.1803 12.3093C13.1479 12.229 13.0997 12.1562 13.0385 12.095C12.9773 12.0338 12.9044 11.9855 12.8242 11.9531C12.7439 11.9207 12.658 11.9048 12.5714 11.9063C12.4849 11.9078 12.3996 11.9268 12.3205 11.962C12.2415 11.9972 12.1703 12.048 12.1113 12.1113L10.178 14.0446Z" fill="url(#paint1_linear_5_964)" style=""/>
<defs>
<linearGradient id="paint0_linear_5_964" x1="14.5" y1="0" x2="14.5" y2="29" gradientUnits="userSpaceOnUse">
<stop stop-color="#F5785C" style="stop-color:#F5785C;stop-color:color(display-p3 0.9608 0.4706 0.3608);stop-opacity:1;"/>
<stop offset="1" stop-color="#F25533" style="stop-color:#F25533;stop-color:color(display-p3 0.9490 0.3333 0.2000);stop-opacity:1;"/>
</linearGradient>
<linearGradient id="paint1_linear_5_964" x1="14.5001" y1="6.4132" x2="14.5001" y2="22.5869" gradientUnits="userSpaceOnUse">
<stop stop-color="white" style="stop-color:white;stop-opacity:1;"/>
<stop offset="1" stop-color="#AFAFAF" style="stop-color:#AFAFAF;stop-color:color(display-p3 0.6863 0.6863 0.6863);stop-opacity:1;"/>
</linearGradient>
</defs>
</svg>
