<svg width="29" height="29" viewBox="0 0 29 29" fill="none" xmlns="http://www.w3.org/2000/svg">
<rect width="29" height="29" rx="6.76667" fill="url(#paint0_linear_5_993)" style=""/>
<path fill-rule="evenodd" clip-rule="evenodd" d="M6.76672 9.98883C6.76672 9.39062 7.01742 8.81691 7.46366 8.39391C7.9099 7.97091 8.51513 7.73328 9.14621 7.73328H19.8539C20.485 7.73328 21.0902 7.97091 21.5365 8.39391C21.9827 8.81691 22.2334 9.39062 22.2334 9.98883V19.0111C22.2334 19.6093 21.9827 20.183 21.5365 20.606C21.0902 21.029 20.485 21.2666 19.8539 21.2666H9.14621C8.51513 21.2666 7.9099 21.029 7.46366 20.606C7.01742 20.183 6.76672 19.6093 6.76672 19.0111V9.98883ZM9.91558 10.7181C10.0271 10.6125 10.1783 10.5532 10.336 10.5532C10.4936 10.5532 10.6448 10.6125 10.7563 10.7181L12.5409 12.4098C12.6523 12.5155 12.7149 12.6588 12.7149 12.8083C12.7149 12.9577 12.6523 13.101 12.5409 13.2068L10.7563 14.8984C10.6436 14.998 10.4944 15.0523 10.3403 15.0497C10.1862 15.0471 10.0391 14.9879 9.93016 14.8846C9.82116 14.7813 9.75873 14.6419 9.75601 14.4958C9.75329 14.3497 9.8105 14.2084 9.91558 14.1015L11.2798 12.8083L9.91558 11.5151C9.80418 11.4094 9.74161 11.266 9.74161 11.1166C9.74161 10.9672 9.80418 10.8239 9.91558 10.7181ZM13.3103 13.9361C13.1525 13.9361 13.0012 13.9955 12.8897 14.1012C12.7781 14.207 12.7154 14.3504 12.7154 14.4999C12.7154 14.6495 12.7781 14.7929 12.8897 14.8987C13.0012 15.0044 13.1525 15.0638 13.3103 15.0638H15.6898C15.8476 15.0638 15.9989 15.0044 16.1104 14.8987C16.222 14.7929 16.2847 14.6495 16.2847 14.4999C16.2847 14.3504 16.222 14.207 16.1104 14.1012C15.9989 13.9955 15.8476 13.9361 15.6898 13.9361H13.3103Z" fill="url(#paint1_linear_5_993)" style=""/>
<defs>
<linearGradient id="paint0_linear_5_993" x1="14.5" y1="0" x2="14.5" y2="29" gradientUnits="userSpaceOnUse">
<stop stop-color="#F5785C" style="stop-color:#F5785C;stop-color:color(display-p3 0.9608 0.4706 0.3608);stop-opacity:1;"/>
<stop offset="1" stop-color="#F25533" style="stop-color:#F25533;stop-color:color(display-p3 0.9490 0.3333 0.2000);stop-opacity:1;"/>
</linearGradient>
<linearGradient id="paint1_linear_5_993" x1="14.5001" y1="7.42394" x2="14.5001" y2="21.5759" gradientUnits="userSpaceOnUse">
<stop stop-color="white" style="stop-color:white;stop-opacity:1;"/>
<stop offset="1" stop-color="#AFAFAF" style="stop-color:#AFAFAF;stop-color:color(display-p3 0.6863 0.6863 0.6863);stop-opacity:1;"/>
</linearGradient>
</defs>
</svg>
