<svg width="29" height="29" viewBox="0 0 29 29" fill="none" xmlns="http://www.w3.org/2000/svg">
<rect width="29" height="29" rx="6.76667" fill="url(#paint0_linear_5_955)" style=""/>
<path d="M21.7831 13.5255C21.6442 13.4146 21.4821 13.3364 21.3088 13.2967C21.1355 13.2569 20.9555 13.2568 20.7822 13.2961C20.5227 13.3548 20.2533 13.3546 19.9939 13.2957C19.7345 13.2367 19.4915 13.1205 19.2828 12.9556C19.0741 12.7906 18.9049 12.5811 18.7876 12.3423C18.6704 12.1035 18.608 11.8415 18.605 11.5754C18.6036 11.2628 18.4788 10.9634 18.2578 10.7423C18.0367 10.5213 17.7373 10.3964 17.4247 10.395C17.1587 10.3921 16.8967 10.3297 16.6579 10.2125C16.419 10.0952 16.2095 9.92602 16.0445 9.7173C15.8795 9.50858 15.7633 9.2656 15.7044 9.00616C15.6455 8.74672 15.6453 8.47739 15.704 8.21788C15.7429 8.04411 15.7423 7.86382 15.7024 7.69029C15.6624 7.51675 15.584 7.35439 15.473 7.21517C15.3619 7.07594 15.2211 6.96339 15.0608 6.8858C14.9005 6.80822 14.7249 6.76758 14.5468 6.76687C14.5306 6.76679 14.5148 6.76672 14.4987 6.76672C12.9672 6.767 11.4703 7.22199 10.1977 8.07401C8.9251 8.92604 7.93414 10.1367 7.35044 11.5526C6.76674 12.9685 6.61658 14.5258 6.919 16.0271C7.22142 17.5285 7.9628 18.9062 9.04915 19.9857C10.1355 21.0652 11.5179 21.7978 13.0211 22.0907C14.5243 22.3835 16.0807 22.2235 17.4928 21.6308C18.905 21.0381 20.1094 20.0395 20.9533 18.7615C21.7972 17.4836 22.2427 15.9838 22.2332 14.4523C22.2326 14.274 22.1918 14.098 22.1139 13.9376C22.0359 13.7771 21.9229 13.6363 21.7831 13.5255ZM10.5976 12.3816C10.7223 12.2568 10.8813 12.1718 11.0544 12.1374C11.2275 12.103 11.4069 12.1207 11.57 12.1882C11.733 12.2557 11.8724 12.3701 11.9704 12.5168C12.0685 12.6636 12.1208 12.8361 12.1208 13.0126C12.1208 13.1891 12.0685 13.3616 11.9704 13.5083C11.8724 13.6551 11.733 13.7694 11.57 13.837C11.4069 13.9045 11.2275 13.9222 11.0544 13.8878C10.8813 13.8533 10.7223 13.7683 10.5976 13.6435C10.4302 13.4762 10.3362 13.2492 10.3362 13.0126C10.3362 12.7759 10.4302 12.549 10.5976 12.3816ZM12.4543 17.8076C12.3296 17.9324 12.1706 18.0174 11.9975 18.0519C11.8244 18.0863 11.645 18.0686 11.4819 18.0011C11.3189 17.9335 11.1795 17.8192 11.0815 17.6724C10.9834 17.5257 10.9311 17.3532 10.9311 17.1767C10.9311 17.0002 10.9834 16.8277 11.0815 16.6809C11.1795 16.5342 11.3189 16.4198 11.4819 16.3523C11.645 16.2848 11.8244 16.2671 11.9975 16.3015C12.1706 16.3359 12.3296 16.4209 12.4543 16.5457C12.6217 16.7131 12.7157 16.94 12.7157 17.1767C12.7157 17.4133 12.6217 17.6403 12.4543 17.8076ZM14.4642 14.8333C14.3394 14.7085 14.2544 14.5495 14.22 14.3764C14.1856 14.2033 14.2033 14.0239 14.2708 13.8609C14.3383 13.6978 14.4527 13.5584 14.5994 13.4604C14.7462 13.3623 14.9187 13.31 15.0952 13.31C15.2717 13.31 15.4442 13.3623 15.5909 13.4604C15.7377 13.5584 15.852 13.6978 15.9196 13.8609C15.9871 14.0239 16.0048 14.2033 15.9704 14.3764C15.9359 14.5495 15.8509 14.7085 15.7261 14.8333C15.5588 15.0006 15.3318 15.0946 15.0952 15.0946C14.8585 15.0946 14.6316 15.0006 14.4642 14.8333ZM17.2133 18.4025C17.0885 18.5273 16.9295 18.6123 16.7564 18.6467C16.5834 18.6812 16.4039 18.6635 16.2409 18.596C16.0778 18.5284 15.9385 18.414 15.8404 18.2673C15.7424 18.1206 15.69 17.948 15.69 17.7716C15.69 17.5951 15.7424 17.4226 15.8404 17.2758C15.9385 17.1291 16.0778 17.0147 16.2409 16.9472C16.4039 16.8796 16.5834 16.862 16.7564 16.8964C16.9295 16.9308 17.0885 17.0158 17.2133 17.1406C17.3807 17.3079 17.4747 17.5349 17.4747 17.7716C17.4747 18.0082 17.3807 18.2352 17.2133 18.4025Z" fill="url(#paint1_linear_5_955)" style=""/>
<defs>
<linearGradient id="paint0_linear_5_955" x1="14.5" y1="0" x2="14.5" y2="29" gradientUnits="userSpaceOnUse">
<stop stop-color="#F5785C" style="stop-color:#F5785C;stop-color:color(display-p3 0.9608 0.4706 0.3608);stop-opacity:1;"/>
<stop offset="1" stop-color="#F25533" style="stop-color:#F25533;stop-color:color(display-p3 0.9490 0.3333 0.2000);stop-opacity:1;"/>
</linearGradient>
<linearGradient id="paint1_linear_5_955" x1="14.5001" y1="6.4132" x2="14.5001" y2="22.5869" gradientUnits="userSpaceOnUse">
<stop stop-color="white" style="stop-color:white;stop-opacity:1;"/>
<stop offset="1" stop-color="#AFAFAF" style="stop-color:#AFAFAF;stop-color:color(display-p3 0.6863 0.6863 0.6863);stop-opacity:1;"/>
</linearGradient>
</defs>
</svg>
