<svg width="29" height="29" viewBox="0 0 29 29" fill="none" xmlns="http://www.w3.org/2000/svg">
<rect width="29" height="29" rx="6.76667" fill="url(#paint0_linear_5_902)" style=""/>
<path d="M18.0693 10.9308H10.9308V18.0693H18.0693V10.9308Z" fill="url(#paint1_linear_5_902)" style=""/>
<path fill-rule="evenodd" clip-rule="evenodd" d="M11.5257 6.76672C11.6835 6.76672 11.8348 6.8294 11.9463 6.94096C12.0579 7.05252 12.1206 7.20383 12.1206 7.3616V7.95647H13.9052V7.3616C13.9052 7.20383 13.9679 7.05252 14.0794 6.94096C14.191 6.8294 14.3423 6.76672 14.5001 6.76672C14.6578 6.76672 14.8091 6.8294 14.9207 6.94096C15.0323 7.05252 15.0949 7.20383 15.0949 7.3616V7.95647H16.8795V7.3616C16.8795 7.20383 16.9422 7.05252 17.0538 6.94096C17.1653 6.8294 17.3166 6.76672 17.4744 6.76672C17.6322 6.76672 17.7835 6.8294 17.8951 6.94096C18.0066 7.05252 18.0693 7.20383 18.0693 7.3616V7.95647H18.6642C19.2952 7.95647 19.9005 8.20716 20.3467 8.6534C20.793 9.09964 21.0436 9.70487 21.0436 10.336V10.9308H21.6385C21.7963 10.9308 21.9476 10.9935 22.0592 11.1051C22.1707 11.2166 22.2334 11.3679 22.2334 11.5257C22.2334 11.6835 22.1707 11.8348 22.0592 11.9463C21.9476 12.0579 21.7963 12.1206 21.6385 12.1206H21.0436V13.9052H21.6385C21.7963 13.9052 21.9476 13.9679 22.0592 14.0794C22.1707 14.191 22.2334 14.3423 22.2334 14.5001C22.2334 14.6578 22.1707 14.8091 22.0592 14.9207C21.9476 15.0323 21.7963 15.0949 21.6385 15.0949H21.0436V16.8795H21.6385C21.7963 16.8795 21.9476 16.9422 22.0592 17.0538C22.1707 17.1653 22.2334 17.3166 22.2334 17.4744C22.2334 17.6322 22.1707 17.7835 22.0592 17.8951C21.9476 18.0066 21.7963 18.0693 21.6385 18.0693H21.0436V18.6642C21.0436 19.2952 20.793 19.9005 20.3467 20.3467C19.9005 20.793 19.2952 21.0436 18.6642 21.0436H18.0693V21.6385C18.0693 21.7963 18.0066 21.9476 17.8951 22.0592C17.7835 22.1707 17.6322 22.2334 17.4744 22.2334C17.3166 22.2334 17.1653 22.1707 17.0538 22.0592C16.9422 21.9476 16.8795 21.7963 16.8795 21.6385V21.0436H15.0949V21.6385C15.0949 21.7963 15.0323 21.9476 14.9207 22.0592C14.8091 22.1707 14.6578 22.2334 14.5001 22.2334C14.3423 22.2334 14.191 22.1707 14.0794 22.0592C13.9679 21.9476 13.9052 21.7963 13.9052 21.6385V21.0436H12.1206V21.6385C12.1206 21.7963 12.0579 21.9476 11.9463 22.0592C11.8348 22.1707 11.6835 22.2334 11.5257 22.2334C11.3679 22.2334 11.2166 22.1707 11.1051 22.0592C10.9935 21.9476 10.9308 21.7963 10.9308 21.6385V21.0436H10.336C9.70487 21.0436 9.09964 20.793 8.6534 20.3467C8.20716 19.9005 7.95647 19.2952 7.95647 18.6642V18.0693H7.3616C7.20383 18.0693 7.05252 18.0066 6.94096 17.8951C6.8294 17.7835 6.76672 17.6322 6.76672 17.4744C6.76672 17.3166 6.8294 17.1653 6.94096 17.0538C7.05252 16.9422 7.20383 16.8795 7.3616 16.8795H7.95647V15.0949H7.3616C7.20383 15.0949 7.05252 15.0323 6.94096 14.9207C6.8294 14.8091 6.76672 14.6578 6.76672 14.5001C6.76672 14.3423 6.8294 14.191 6.94096 14.0794C7.05252 13.9679 7.20383 13.9052 7.3616 13.9052H7.95647V12.1206H7.3616C7.20383 12.1206 7.05252 12.0579 6.94096 11.9463C6.8294 11.8348 6.76672 11.6835 6.76672 11.5257C6.76672 11.3679 6.8294 11.2166 6.94096 11.1051C7.05252 10.9935 7.20383 10.9308 7.3616 10.9308H7.95647V10.336C7.95647 9.70487 8.20716 9.09964 8.6534 8.6534C9.09964 8.20716 9.70487 7.95647 10.336 7.95647H10.9308V7.3616C10.9308 7.20383 10.9935 7.05252 11.1051 6.94096C11.2166 6.8294 11.3679 6.76672 11.5257 6.76672ZM9.74108 10.336C9.74108 10.1782 9.80376 10.0269 9.91532 9.91532C10.0269 9.80376 10.1782 9.74108 10.336 9.74108H18.6642C18.8219 9.74108 18.9732 9.80376 19.0848 9.91532C19.1964 10.0269 19.259 10.1782 19.259 10.336V18.6642C19.259 18.8219 19.1964 18.9732 19.0848 19.0848C18.9732 19.1964 18.8219 19.259 18.6642 19.259H10.336C10.1782 19.259 10.0269 19.1964 9.91532 19.0848C9.80376 18.9732 9.74108 18.8219 9.74108 18.6642V10.336Z" fill="url(#paint2_linear_5_902)" style=""/>
<defs>
<linearGradient id="paint0_linear_5_902" x1="14.5" y1="0" x2="14.5" y2="29" gradientUnits="userSpaceOnUse">
<stop stop-color="#F5785C" style="stop-color:#F5785C;stop-color:color(display-p3 0.9608 0.4706 0.3608);stop-opacity:1;"/>
<stop offset="1" stop-color="#F25533" style="stop-color:#F25533;stop-color:color(display-p3 0.9490 0.3333 0.2000);stop-opacity:1;"/>
</linearGradient>
<linearGradient id="paint1_linear_5_902" x1="14.5001" y1="6.4132" x2="14.5001" y2="22.5869" gradientUnits="userSpaceOnUse">
<stop stop-color="white" style="stop-color:white;stop-opacity:1;"/>
<stop offset="1" stop-color="#AFAFAF" style="stop-color:#AFAFAF;stop-color:color(display-p3 0.6863 0.6863 0.6863);stop-opacity:1;"/>
</linearGradient>
<linearGradient id="paint2_linear_5_902" x1="14.5001" y1="6.4132" x2="14.5001" y2="22.5869" gradientUnits="userSpaceOnUse">
<stop stop-color="white" style="stop-color:white;stop-opacity:1;"/>
<stop offset="1" stop-color="#AFAFAF" style="stop-color:#AFAFAF;stop-color:color(display-p3 0.6863 0.6863 0.6863);stop-opacity:1;"/>
</linearGradient>
</defs>
</svg>
