<svg width="29" height="29" viewBox="0 0 29 29" fill="none" xmlns="http://www.w3.org/2000/svg">
<rect width="29" height="29" rx="6.76667" fill="url(#paint0_linear_5_927)" style=""/>
<path fill-rule="evenodd" clip-rule="evenodd" d="M14.941 8.18049C13.926 8.1787 12.9332 8.47693 12.0872 9.03771C12.0243 9.08204 11.9532 9.11332 11.878 9.12967C11.8029 9.14603 11.7252 9.14713 11.6496 9.13292C11.574 9.11871 11.502 9.08948 11.4379 9.04695C11.3738 9.00442 11.3188 8.94946 11.2764 8.88533C11.2339 8.82119 11.2047 8.74918 11.1905 8.67357C11.1764 8.59795 11.1775 8.52026 11.194 8.4451C11.2104 8.36995 11.2417 8.29884 11.2861 8.23601C11.3305 8.17317 11.387 8.11988 11.4523 8.07928C12.4057 7.44893 13.5121 7.08867 14.6539 7.03679C15.7957 6.98492 16.9302 7.24337 17.9368 7.78468C18.9435 8.32598 19.7846 9.12992 20.3709 10.111C20.9572 11.0922 21.2668 12.2138 21.2666 13.3568C21.2666 15.6677 20.8265 17.8782 20.0245 19.907C19.9671 20.0469 19.8569 20.1586 19.7178 20.2179C19.5787 20.2772 19.4218 20.2793 19.2812 20.2237C19.1405 20.1682 19.0274 20.0594 18.9663 19.9211C18.9053 19.7827 18.9012 19.6259 18.9549 19.4845C19.7252 17.5332 20.1193 15.4538 20.1165 13.356C20.1165 11.9834 19.5712 10.667 18.6006 9.69636C17.63 8.72577 16.3136 8.18049 14.941 8.18049ZM10.4609 9.70554C10.5239 9.74731 10.578 9.80107 10.6202 9.86376C10.6623 9.92645 10.6917 9.99683 10.7067 10.0709C10.7216 10.1449 10.7218 10.2212 10.7073 10.2953C10.6928 10.3695 10.6638 10.44 10.622 10.5029C10.0616 11.3488 9.76364 12.3414 9.76551 13.356C9.76551 14.5927 9.41051 15.7482 8.79558 16.7243C8.71424 16.8534 8.58494 16.9449 8.43611 16.9787C8.28729 17.0125 8.13114 16.9858 8.00201 16.9045C7.87288 16.8231 7.78135 16.6938 7.74756 16.545C7.71377 16.3962 7.74048 16.24 7.82182 16.1109C8.34184 15.2862 8.61703 14.3309 8.6154 13.356C8.6154 12.0679 9.00107 10.8671 9.66353 9.86732C9.70524 9.80431 9.75896 9.75014 9.82162 9.7079C9.88428 9.66566 9.95465 9.63619 10.0287 9.62116C10.1028 9.60614 10.1791 9.60586 10.2532 9.62033C10.3274 9.63481 10.398 9.66376 10.4609 9.70554ZM14.941 11.0558C14.3309 11.0558 13.7459 11.2981 13.3145 11.7295C12.8831 12.1609 12.6408 12.7459 12.6408 13.356C12.6408 15.7329 11.7391 17.9005 10.2601 19.5328C10.2093 19.5888 10.148 19.6343 10.0797 19.6666C10.0114 19.6989 9.93741 19.7174 9.86194 19.7211C9.78647 19.7248 9.71101 19.7136 9.63987 19.6881C9.56873 19.6627 9.5033 19.6235 9.44731 19.5727C9.33425 19.4702 9.26653 19.327 9.25905 19.1746C9.25158 19.0222 9.30495 18.873 9.40744 18.76C10.7508 17.281 11.4937 15.3539 11.4907 13.356C11.4907 12.4409 11.8542 11.5633 12.5013 10.9162C13.1483 10.2692 14.0259 9.90566 14.941 9.90566C15.8561 9.90566 16.7337 10.2692 17.3808 10.9162C18.0278 11.5633 18.3913 12.4409 18.3913 13.356C18.3913 13.7754 18.3745 14.1917 18.34 14.6027C18.3275 14.7547 18.2551 14.8955 18.1388 14.9942C18.0224 15.0928 17.8717 15.1412 17.7197 15.1287C17.5677 15.1162 17.4269 15.0438 17.3282 14.9275C17.2296 14.8112 17.1812 14.6604 17.1937 14.5084C17.2251 14.1289 17.2412 13.7447 17.2412 13.356C17.2412 12.7459 16.9989 12.1609 16.5675 11.7295C16.1361 11.2981 15.5511 11.0558 14.941 11.0558ZM14.941 12.7809C15.0935 12.7809 15.2398 12.8415 15.3476 12.9494C15.4555 13.0572 15.5161 13.2035 15.5161 13.356C15.5161 16.3524 14.4242 19.095 12.617 21.2059C12.5179 21.3218 12.3768 21.3936 12.2247 21.4054C12.0726 21.4173 11.9221 21.3683 11.8062 21.2691C11.6903 21.17 11.6185 21.0289 11.6066 20.8768C11.5948 20.7248 11.6438 20.5742 11.7429 20.4583C13.4394 18.4812 14.3701 15.9611 14.366 13.356C14.366 13.2035 14.4265 13.0572 14.5344 12.9494C14.6422 12.8415 14.7885 12.7809 14.941 12.7809ZM17.4245 16.7549C17.5711 16.7969 17.695 16.8953 17.7691 17.0286C17.8431 17.1619 17.8612 17.3191 17.8193 17.4657C17.3874 18.9785 16.7184 20.4132 15.8373 21.7165C15.7519 21.8429 15.6198 21.9302 15.47 21.9592C15.3203 21.9881 15.1651 21.9564 15.0388 21.871C14.9124 21.7856 14.8251 21.6535 14.7961 21.5037C14.7672 21.354 14.7989 21.1988 14.8843 21.0725C15.6975 19.8698 16.315 18.5458 16.7137 17.1498C16.7556 17.0032 16.854 16.8793 16.9873 16.8052C17.1206 16.7312 17.2779 16.7131 17.4245 16.7549Z" fill="url(#paint1_linear_5_927)" style=""/>
<defs>
<linearGradient id="paint0_linear_5_927" x1="14.5" y1="0" x2="14.5" y2="29" gradientUnits="userSpaceOnUse">
<stop stop-color="#F5785C" style="stop-color:#F5785C;stop-color:color(display-p3 0.9608 0.4706 0.3608);stop-opacity:1;"/>
<stop offset="1" stop-color="#F25533" style="stop-color:#F25533;stop-color:color(display-p3 0.9490 0.3333 0.2000);stop-opacity:1;"/>
</linearGradient>
<linearGradient id="paint1_linear_5_927" x1="14.4999" y1="6.6888" x2="14.4999" y2="22.3111" gradientUnits="userSpaceOnUse">
<stop stop-color="white" style="stop-color:white;stop-opacity:1;"/>
<stop offset="1" stop-color="#AFAFAF" style="stop-color:#AFAFAF;stop-color:color(display-p3 0.6863 0.6863 0.6863);stop-opacity:1;"/>
</linearGradient>
</defs>
</svg>
