<svg width="29" height="29" viewBox="0 0 29 29" fill="none" xmlns="http://www.w3.org/2000/svg">
<rect width="29" height="29" rx="6.76667" fill="url(#paint0_linear_5_1001)" style=""/>
<path d="M20.0239 21.8037C20.6099 21.8037 21.1719 21.5472 21.5862 21.0906C22.0006 20.6341 22.2334 20.0148 22.2334 19.3691V15.7173C22.2334 15.0716 22.0006 14.4523 21.5862 13.9958C21.1719 13.5392 20.6099 13.2827 20.0239 13.2827H8.97625C8.39025 13.2827 7.82824 13.5392 7.41388 13.9958C6.99951 14.4523 6.76672 15.0716 6.76672 15.7173V19.3691C6.76672 20.0148 6.99951 20.6341 7.41388 21.0906C7.82824 21.5472 8.39025 21.8037 8.97625 21.8037H20.0239ZM6.76672 12.9954V9.63086C6.76672 8.98517 6.99951 8.36593 7.41388 7.90936C7.82824 7.45279 8.39025 7.19629 8.97625 7.19629H12.9379C13.3772 7.1965 13.7984 7.38885 14.109 7.73108L15.6718 9.45232C15.775 9.56675 15.9156 9.63086 16.0622 9.63086H20.0239C20.6099 9.63086 21.1719 9.88736 21.5862 10.3439C22.0006 10.8005 22.2334 11.4197 22.2334 12.0654V12.9954C21.6264 12.3954 20.8393 12.0641 20.0239 12.0654H8.97625C8.16078 12.0641 7.37373 12.3954 6.76672 12.9954Z" fill="url(#paint1_linear_5_1001)" style=""/>
<defs>
<linearGradient id="paint0_linear_5_1001" x1="14.5" y1="0" x2="14.5" y2="29" gradientUnits="userSpaceOnUse">
<stop stop-color="#F5785C" style="stop-color:#F5785C;stop-color:color(display-p3 0.9608 0.4706 0.3608);stop-opacity:1;"/>
<stop offset="1" stop-color="#F25533" style="stop-color:#F25533;stop-color:color(display-p3 0.9490 0.3333 0.2000);stop-opacity:1;"/>
</linearGradient>
<linearGradient id="paint1_linear_5_1001" x1="14.5001" y1="6.86241" x2="14.5001" y2="22.1376" gradientUnits="userSpaceOnUse">
<stop stop-color="white" style="stop-color:white;stop-opacity:1;"/>
<stop offset="1" stop-color="#AFAFAF" style="stop-color:#AFAFAF;stop-color:color(display-p3 0.6863 0.6863 0.6863);stop-opacity:1;"/>
</linearGradient>
</defs>
</svg>
