<svg width="29" height="29" viewBox="0 0 29 29" fill="none" xmlns="http://www.w3.org/2000/svg">
<rect width="29" height="29" rx="6.76667" fill="url(#paint0_linear_5_949)" style=""/>
<path fill-rule="evenodd" clip-rule="evenodd" d="M15.6424 6.76672C16.0696 6.76659 16.4884 6.88209 16.8511 7.10045C17.2137 7.3189 17.5062 7.6315 17.6945 8.00239C18.0729 8.03331 18.4497 8.07045 18.8258 8.11315C19.9658 8.24056 20.7833 9.18829 20.7833 10.2702V20.0239C20.7833 20.6099 20.5424 21.1717 20.114 21.5861C19.6855 22.0004 19.1045 22.2334 18.4985 22.2334H10.5015C9.89554 22.2334 9.31456 22.0004 8.88606 21.5861C8.45757 21.1717 8.21667 20.6099 8.21667 20.0239V10.2702C8.21674 9.18755 9.03417 8.24058 10.1743 8.11243C10.5496 8.07047 10.9272 8.03405 11.3063 8.00239C11.4945 7.63171 11.7866 7.3196 12.149 7.10117C12.5115 6.88272 12.9304 6.76673 13.3576 6.76672H15.6424ZM11.6439 15.0524C11.3285 15.0524 11.0727 15.2997 11.0727 15.6048C11.0727 15.9099 11.3285 16.1572 11.6439 16.1572H14.5C14.8155 16.1572 15.0712 15.9099 15.0712 15.6048C15.0712 15.2997 14.8155 15.0524 14.5 15.0524H11.6439ZM11.6439 12.8429C11.3285 12.8429 11.0727 13.0902 11.0727 13.3953C11.0727 13.7004 11.3285 13.9477 11.6439 13.9477H17.3561C17.6715 13.9477 17.9273 13.7004 17.9273 13.3953C17.9273 13.0902 17.6715 12.8429 17.3561 12.8429H11.6439ZM13.3576 7.87149C13.0547 7.87168 12.7641 7.98801 12.5499 8.19515C12.3357 8.40229 12.2154 8.68331 12.2152 8.97625H16.7849C16.7849 8.68325 16.6644 8.40233 16.4502 8.19515C16.2359 7.98796 15.9454 7.87149 15.6424 7.87149H13.3576Z" fill="url(#paint1_linear_5_949)" style=""/>
<defs>
<linearGradient id="paint0_linear_5_949" x1="14.5" y1="0" x2="14.5" y2="29" gradientUnits="userSpaceOnUse">
<stop stop-color="#F5785C" style="stop-color:#F5785C;stop-color:color(display-p3 0.9608 0.4706 0.3608);stop-opacity:1;"/>
<stop offset="1" stop-color="#F25533" style="stop-color:#F25533;stop-color:color(display-p3 0.9490 0.3333 0.2000);stop-opacity:1;"/>
</linearGradient>
<linearGradient id="paint1_linear_5_949" x1="14.5" y1="6.4132" x2="14.5" y2="22.5869" gradientUnits="userSpaceOnUse">
<stop stop-color="white" style="stop-color:white;stop-opacity:1;"/>
<stop offset="1" stop-color="#AFAFAF" style="stop-color:#AFAFAF;stop-color:color(display-p3 0.6863 0.6863 0.6863);stop-opacity:1;"/>
</linearGradient>
</defs>
</svg>
