<svg width="29" height="29" viewBox="0 0 29 29" fill="none" xmlns="http://www.w3.org/2000/svg">
<rect width="29" height="29" rx="6.76667" fill="url(#paint0_linear_5_855)" style=""/>
<path fill-rule="evenodd" clip-rule="evenodd" d="M8.39593 7.76159C10.4126 7.42031 12.4543 7.24918 14.4996 7.25C16.5796 7.25 18.6193 7.42549 20.6041 7.76159C20.9256 7.81711 21.2171 7.98467 21.4268 8.23457C21.6366 8.48447 21.7511 8.80057 21.75 9.12683V9.90313C21.7499 10.4947 21.5147 11.062 21.0963 11.4803L16.4992 16.0772C16.3957 16.1808 16.3135 16.3038 16.2575 16.4392C16.2015 16.5745 16.1727 16.7196 16.1728 16.8661V19.0426C16.1729 19.4569 16.0576 19.8631 15.8399 20.2156C15.6221 20.5682 15.3104 20.8531 14.9399 21.0384L13.6333 21.6913C13.5483 21.7337 13.4538 21.7537 13.3589 21.7494C13.2639 21.7451 13.1717 21.7166 13.0908 21.6666C13.01 21.6166 12.9433 21.5468 12.897 21.4638C12.8508 21.3808 12.8265 21.2874 12.8265 21.1923V16.8661C12.8262 16.5704 12.7085 16.2869 12.4993 16.0779L7.90365 11.4795C7.48525 11.0613 7.25013 10.494 7.25 9.90239V9.12683C7.25 8.45982 7.72518 7.87536 8.39593 7.76159Z" fill="url(#paint1_linear_5_855)" style=""/>
<defs>
<linearGradient id="paint0_linear_5_855" x1="14.5" y1="0" x2="14.5" y2="29" gradientUnits="userSpaceOnUse">
<stop stop-color="#F5785C" style="stop-color:#F5785C;stop-color:color(display-p3 0.9608 0.4706 0.3608);stop-opacity:1;"/>
<stop offset="1" stop-color="#F25533" style="stop-color:#F25533;stop-color:color(display-p3 0.9490 0.3333 0.2000);stop-opacity:1;"/>
</linearGradient>
<linearGradient id="paint1_linear_5_855" x1="14.5" y1="6.91857" x2="14.5" y2="22.0814" gradientUnits="userSpaceOnUse">
<stop stop-color="white" style="stop-color:white;stop-opacity:1;"/>
<stop offset="1" stop-color="#AFAFAF" style="stop-color:#AFAFAF;stop-color:color(display-p3 0.6863 0.6863 0.6863);stop-opacity:1;"/>
</linearGradient>
</defs>
</svg>
