<svg width="29" height="29" viewBox="0 0 29 29" fill="none" xmlns="http://www.w3.org/2000/svg">
<rect width="29" height="29" rx="6.76667" fill="url(#paint0_linear_5_849)" style=""/>
<path fill-rule="evenodd" clip-rule="evenodd" d="M13.7692 6.77979C13.0431 6.77979 12.4239 7.30476 12.3043 8.02056L12.1634 8.86938C12.1475 8.9644 12.0723 9.07525 11.9282 9.14493C11.6569 9.27535 11.3959 9.42623 11.1475 9.59626C11.016 9.68732 10.883 9.69603 10.7912 9.66198L9.98588 9.35951C9.65667 9.23618 9.29439 9.23366 8.9635 9.35241C8.63262 9.47117 8.35461 9.70348 8.17896 10.008L7.44891 11.2725C7.2732 11.5769 7.21114 11.9337 7.27377 12.2795C7.33641 12.6253 7.51968 12.9376 7.79097 13.161L8.4561 13.7089C8.53132 13.7707 8.5907 13.8903 8.57803 14.0494C8.55547 14.3496 8.55547 14.6511 8.57803 14.9513C8.58991 15.1097 8.53132 15.23 8.45689 15.2918L7.79097 15.8397C7.51968 16.0631 7.33641 16.3754 7.27377 16.7212C7.21114 17.067 7.2732 17.4238 7.44891 17.7282L8.17896 18.9927C8.35473 19.2971 8.63279 19.5292 8.96367 19.6478C9.29454 19.7664 9.65676 19.7638 9.98588 19.6404L10.7927 19.3379C10.8838 19.3039 11.0168 19.3134 11.149 19.4029C11.3961 19.5723 11.6566 19.7235 11.929 19.8542C12.0731 19.9239 12.1483 20.0347 12.1642 20.1313L12.3051 20.9794C12.4247 21.6952 13.0439 22.2201 13.7699 22.2201H15.2301C15.9554 22.2201 16.5753 21.6952 16.6949 20.9794L16.8358 20.1305C16.8517 20.0355 16.9261 19.9247 17.071 19.8542C17.3434 19.7235 17.6039 19.5723 17.8509 19.4029C17.9832 19.3126 18.1162 19.3039 18.2073 19.3379L19.0149 19.6404C19.3439 19.7633 19.7058 19.7656 20.0364 19.6469C20.3669 19.5281 20.6447 19.2961 20.8202 18.9919L21.5511 17.7274C21.7268 17.423 21.7889 17.0662 21.7262 16.7204C21.6636 16.3747 21.4803 16.0623 21.209 15.8389L20.5439 15.291C20.4687 15.2292 20.4093 15.1097 20.422 14.9505C20.4445 14.6503 20.4445 14.3488 20.422 14.0486C20.4093 13.8903 20.4687 13.7699 20.5431 13.7081L21.2082 13.1602C21.7688 12.6994 21.9137 11.9012 21.5511 11.2717L20.821 10.0072C20.6453 9.70283 20.3672 9.47068 20.0363 9.35208C19.7055 9.23347 19.3432 9.23611 19.0141 9.35951L18.2065 9.66198C18.1162 9.69603 17.9832 9.68653 17.8509 9.59626C17.6028 9.42626 17.3421 9.27538 17.071 9.14493C16.9261 9.07604 16.8517 8.96519 16.8358 8.86938L16.6941 8.02056C16.6364 7.67379 16.4574 7.35877 16.1892 7.13156C15.921 6.90435 15.5808 6.7797 15.2293 6.77979H13.7699H13.7692ZM14.4992 17.4693C15.2867 17.4693 16.042 17.1564 16.5988 16.5996C17.1557 16.0427 17.4685 15.2875 17.4685 14.5C17.4685 13.7125 17.1557 12.9572 16.5988 12.4003C16.042 11.8435 15.2867 11.5307 14.4992 11.5307C13.7117 11.5307 12.9564 11.8435 12.3996 12.4003C11.8427 12.9572 11.5299 13.7125 11.5299 14.5C11.5299 15.2875 11.8427 16.0427 12.3996 16.5996C12.9564 17.1564 13.7117 17.4693 14.4992 17.4693Z" fill="url(#paint1_linear_5_849)" style=""/>
<defs>
<linearGradient id="paint0_linear_5_849" x1="14.5" y1="0" x2="14.5" y2="29" gradientUnits="userSpaceOnUse">
<stop stop-color="#F5785C" style="stop-color:#F5785C;stop-color:color(display-p3 0.9608 0.4706 0.3608);stop-opacity:1;"/>
<stop offset="1" stop-color="#F25533" style="stop-color:#F25533;stop-color:color(display-p3 0.9490 0.3333 0.2000);stop-opacity:1;"/>
</linearGradient>
<linearGradient id="paint1_linear_5_849" x1="14.5" y1="6.42686" x2="14.5" y2="22.5731" gradientUnits="userSpaceOnUse">
<stop stop-color="white" style="stop-color:white;stop-opacity:1;"/>
<stop offset="1" stop-color="#AFAFAF" style="stop-color:#AFAFAF;stop-color:color(display-p3 0.6863 0.6863 0.6863);stop-opacity:1;"/>
</linearGradient>
</defs>
</svg>
