<svg width="29" height="29" viewBox="0 0 29 29" fill="none" xmlns="http://www.w3.org/2000/svg">
<rect width="29" height="29" rx="6.76667" fill="url(#paint0_linear_5_878)" style=""/>
<path d="M14.4995 6.76758C18.7706 6.76758 22.2329 10.2294 22.2329 14.5C22.2328 18.7705 18.7705 22.2324 14.4995 22.2324C10.2286 22.2323 6.76721 18.7704 6.76709 14.5C6.76709 10.2295 10.2285 6.7677 14.4995 6.76758ZM13.6079 10.3359C13.0952 10.336 12.5889 10.4571 12.1313 10.6885C11.674 10.9198 11.277 11.2553 10.9731 11.668C10.6693 12.0807 10.4664 12.5591 10.3813 13.0645C10.2963 13.5699 10.3318 14.0886 10.4839 14.5781C10.636 15.0675 10.9008 15.5146 11.2573 15.8828C11.6139 16.251 12.0523 16.5304 12.5366 16.6982C13.021 16.8661 13.5383 16.9183 14.0464 16.8496C14.5544 16.7809 15.039 16.5932 15.4614 16.3027L17.0532 17.8936C17.1077 17.952 17.1736 17.9997 17.2466 18.0322C17.3194 18.0647 17.3983 18.0816 17.478 18.083C17.5578 18.0844 17.6374 18.0699 17.7114 18.04C17.7855 18.0101 17.8532 17.9657 17.9097 17.9092C17.9661 17.8527 18.0106 17.785 18.0405 17.7109C18.0703 17.6371 18.0848 17.5581 18.0835 17.4785C18.0821 17.3987 18.0643 17.3191 18.0317 17.2461C17.9992 17.1733 17.9524 17.108 17.894 17.0537L16.3032 15.4619C16.6412 14.9707 16.8382 14.3959 16.8735 13.8008C16.9087 13.2058 16.7809 12.6125 16.5034 12.085C16.2259 11.5574 15.8096 11.1158 15.2993 10.8076C14.789 10.4995 14.204 10.3359 13.6079 10.3359ZM13.6069 11.5254C13.8803 11.5254 14.1512 11.58 14.4038 11.6846C14.6564 11.7892 14.8863 11.9424 15.0796 12.1357C15.2727 12.3289 15.4262 12.5582 15.5308 12.8105C15.6354 13.0631 15.689 13.3341 15.689 13.6074C15.689 14.1594 15.4698 14.6887 15.0796 15.0791C14.6891 15.4695 14.1591 15.6895 13.6069 15.6895C13.0548 15.6894 12.5256 15.4694 12.1353 15.0791C11.7449 14.6887 11.5249 14.1595 11.5249 13.6074C11.5249 13.3341 11.5795 13.0631 11.6841 12.8105C11.7887 12.5581 11.942 12.3289 12.1353 12.1357C12.3285 11.9426 12.5576 11.7892 12.8101 11.6846C13.0626 11.58 13.3336 11.5254 13.6069 11.5254Z" fill="url(#paint1_linear_5_878)" style=""/>
<defs>
<linearGradient id="paint0_linear_5_878" x1="14.5" y1="0" x2="14.5" y2="29" gradientUnits="userSpaceOnUse">
<stop stop-color="#F5785C" style="stop-color:#F5785C;stop-color:color(display-p3 0.9608 0.4706 0.3608);stop-opacity:1;"/>
<stop offset="1" stop-color="#F25533" style="stop-color:#F25533;stop-color:color(display-p3 0.9490 0.3333 0.2000);stop-opacity:1;"/>
</linearGradient>
<linearGradient id="paint1_linear_5_878" x1="14.5" y1="6.4141" x2="14.5" y2="22.5859" gradientUnits="userSpaceOnUse">
<stop stop-color="white" style="stop-color:white;stop-opacity:1;"/>
<stop offset="1" stop-color="#AFAFAF" style="stop-color:#AFAFAF;stop-color:color(display-p3 0.6863 0.6863 0.6863);stop-opacity:1;"/>
</linearGradient>
</defs>
</svg>
