<svg width="29" height="29" viewBox="0 0 29 29" fill="none" xmlns="http://www.w3.org/2000/svg">
<rect width="29" height="29" rx="6.76667" fill="url(#paint0_linear_5_885)" style=""/>
<path d="M22.2096 15.0981C22.3171 13.7286 22.0584 12.3551 21.4602 11.1193C20.4699 12.0628 19.2993 12.7954 18.019 13.2729C18.122 14.5401 18.0649 15.8152 17.8493 17.068C19.4073 16.6746 20.8835 16.0076 22.2096 15.0981ZM16.5891 17.3233C16.8424 16.1089 16.931 14.8658 16.8524 13.6276C16.0974 13.8082 15.3099 13.9036 14.5001 13.9036C13.6904 13.9036 12.9029 13.8082 12.1479 13.6276C12.0711 14.8658 12.1597 16.1087 12.4112 17.3233C13.7957 17.5361 15.2045 17.5361 16.5891 17.3233ZM12.7332 18.5711C13.9071 18.7104 15.0932 18.7104 16.2671 18.5711C15.8637 19.8734 15.2681 21.1079 14.5001 22.2334C13.7322 21.1079 13.1366 19.8735 12.7332 18.5711ZM11.151 17.0688C10.9342 15.8156 10.8772 14.5398 10.9813 13.2721C9.70067 12.7947 8.5298 12.0621 7.53931 11.1185C6.94118 12.3546 6.68274 13.7284 6.79065 15.0981C8.11678 16.0076 9.593 16.6753 11.151 17.0688ZM21.9202 16.6887C21.5197 18.0494 20.7553 19.274 19.7098 20.2298C18.6642 21.1856 17.3776 21.8359 15.9895 22.1101C16.6847 20.9381 17.2152 19.6755 17.5662 18.358C19.0964 18.0364 20.566 17.4732 21.9202 16.6895V16.6887ZM7.08012 16.6887C8.41407 17.4609 9.87968 18.0311 11.4341 18.358C11.785 19.6755 12.3156 20.9381 13.0107 22.1101C11.6228 21.8359 10.3362 21.1857 9.29069 20.2301C8.24518 19.2745 7.48066 18.05 7.08012 16.6895V16.6887ZM15.9895 6.8892C17.9546 7.27651 19.6933 8.41283 20.84 10.0592C19.9935 10.9168 18.983 11.5942 17.8691 12.0506C17.569 10.2277 16.9315 8.47709 15.9895 6.8892ZM14.5001 6.76672C15.6576 8.46235 16.418 10.3983 16.7247 12.4299C16.0133 12.6128 15.2678 12.7107 14.5001 12.7107C13.7324 12.7107 12.9869 12.6136 12.2756 12.4299C12.5822 10.3983 13.3427 8.46233 14.5001 6.76672ZM13.0107 6.8892C12.0687 8.47708 11.4313 10.2276 11.1312 12.0506C10.0172 11.5942 9.00675 10.9168 8.16029 10.0592C9.30711 8.41306 11.0458 7.27623 13.0107 6.8892Z" fill="url(#paint1_linear_5_885)" style=""/>
<defs>
<linearGradient id="paint0_linear_5_885" x1="14.5" y1="0" x2="14.5" y2="29" gradientUnits="userSpaceOnUse">
<stop stop-color="#F5785C" style="stop-color:#F5785C;stop-color:color(display-p3 0.9608 0.4706 0.3608);stop-opacity:1;"/>
<stop offset="1" stop-color="#F25533" style="stop-color:#F25533;stop-color:color(display-p3 0.9490 0.3333 0.2000);stop-opacity:1;"/>
</linearGradient>
<linearGradient id="paint1_linear_5_885" x1="14.5001" y1="6.4132" x2="14.5001" y2="22.5869" gradientUnits="userSpaceOnUse">
<stop stop-color="white" style="stop-color:white;stop-opacity:1;"/>
<stop offset="1" stop-color="#AFAFAF" style="stop-color:#AFAFAF;stop-color:color(display-p3 0.6863 0.6863 0.6863);stop-opacity:1;"/>
</linearGradient>
</defs>
</svg>
