<svg width="29" height="29" viewBox="0 0 29 29" fill="none" xmlns="http://www.w3.org/2000/svg">
<rect width="29" height="29" rx="6.76667" fill="url(#paint0_linear_5_840)" style=""/>
<path d="M14.1102 8.47628C14.2137 8.37176 14.354 8.31306 14.5002 8.31306C14.6465 8.31306 14.7868 8.37176 14.8902 8.47628L21.2847 14.9432C21.3357 14.9964 21.3966 15.0389 21.4639 15.0681C21.5313 15.0974 21.6037 15.1127 21.677 15.1133C21.7503 15.1139 21.8229 15.0998 21.8907 15.0717C21.9585 15.0436 22.0201 15.0021 22.0719 14.9497C22.1237 14.8973 22.1647 14.8349 22.1924 14.7663C22.2201 14.6977 22.234 14.6242 22.2334 14.5501C22.2327 14.476 22.2174 14.4028 22.1885 14.3347C22.1595 14.2666 22.1175 14.205 22.0647 14.1536L15.671 7.68671C15.5172 7.53123 15.3347 7.40789 15.1338 7.32375C14.933 7.2396 14.7177 7.19629 14.5002 7.19629C14.2828 7.19629 14.0675 7.2396 13.8666 7.32375C13.6658 7.40789 13.4833 7.53123 13.3295 7.68671L6.93502 14.1536C6.88233 14.2051 6.84032 14.2667 6.81143 14.3348C6.78253 14.4029 6.76734 14.4762 6.76674 14.5503C6.76614 14.6244 6.78014 14.6979 6.80792 14.7664C6.8357 14.835 6.87671 14.8973 6.92855 14.9497C6.98039 15.0021 7.04203 15.0435 7.10987 15.0715C7.17771 15.0996 7.25038 15.1136 7.32366 15.113C7.39694 15.1123 7.46935 15.0969 7.53667 15.0676C7.60399 15.0383 7.66486 14.9957 7.71575 14.9424L14.1102 8.47628Z" fill="url(#paint1_linear_5_840)" style=""/>
<path d="M14.5002 9.66026L20.504 15.732C20.5261 15.7543 20.5481 15.7751 20.571 15.796V20.4084C20.571 21.1786 19.9528 21.8037 19.1912 21.8037H16.7078C16.5614 21.8037 16.421 21.7449 16.3175 21.6402C16.214 21.5356 16.1559 21.3936 16.1559 21.2456V17.8968C16.1559 17.7488 16.0977 17.6068 15.9942 17.5021C15.8907 17.3975 15.7504 17.3387 15.604 17.3387H13.3965C13.2501 17.3387 13.1097 17.3975 13.0062 17.5021C12.9027 17.6068 12.8446 17.7488 12.8446 17.8968V21.2456C12.8446 21.3936 12.7864 21.5356 12.6829 21.6402C12.5794 21.7449 12.4391 21.8037 12.2927 21.8037H9.80923C9.44331 21.8037 9.09237 21.6567 8.83363 21.395C8.57488 21.1333 8.42952 20.7784 8.42952 20.4084V15.796C8.45241 15.7753 8.47474 15.7539 8.49648 15.732L14.5002 9.66026Z" fill="url(#paint2_linear_5_840)" style=""/>
<defs>
<linearGradient id="paint0_linear_5_840" x1="14.5" y1="0" x2="14.5" y2="29" gradientUnits="userSpaceOnUse">
<stop stop-color="#F5785C" style="stop-color:#F5785C;stop-color:color(display-p3 0.9608 0.4706 0.3608);stop-opacity:1;"/>
<stop offset="1" stop-color="#F25533" style="stop-color:#F25533;stop-color:color(display-p3 0.9490 0.3333 0.2000);stop-opacity:1;"/>
</linearGradient>
<linearGradient id="paint1_linear_5_840" x1="14.5001" y1="6.86241" x2="14.5001" y2="22.1376" gradientUnits="userSpaceOnUse">
<stop stop-color="white" style="stop-color:white;stop-opacity:1;"/>
<stop offset="1" stop-color="#AFAFAF" style="stop-color:#AFAFAF;stop-color:color(display-p3 0.6863 0.6863 0.6863);stop-opacity:1;"/>
</linearGradient>
<linearGradient id="paint2_linear_5_840" x1="14.5001" y1="6.86241" x2="14.5001" y2="22.1376" gradientUnits="userSpaceOnUse">
<stop stop-color="white" style="stop-color:white;stop-opacity:1;"/>
<stop offset="1" stop-color="#AFAFAF" style="stop-color:#AFAFAF;stop-color:color(display-p3 0.6863 0.6863 0.6863);stop-opacity:1;"/>
</linearGradient>
</defs>
</svg>
