<svg width="29" height="29" viewBox="0 0 29 29" fill="none" xmlns="http://www.w3.org/2000/svg">
<rect width="29" height="29" rx="6.76667" fill="url(#paint0_linear_5_953)" style=""/>
<path fill-rule="evenodd" clip-rule="evenodd" d="M6.76672 9.93031C6.76672 9.47583 6.94131 9.03996 7.25209 8.71859C7.56286 8.39722 7.98436 8.21667 8.42387 8.21667H20.5762C21.0157 8.21667 21.4372 8.39722 21.748 8.71859C22.0588 9.03996 22.2334 9.47583 22.2334 9.93031V19.0697C22.2334 19.5242 22.0588 19.9601 21.748 20.2814C21.4372 20.6028 21.0157 20.7833 20.5762 20.7833H8.42387C7.98436 20.7833 7.56286 20.6028 7.25209 20.2814C6.94131 19.9601 6.76672 19.5242 6.76672 19.0697V9.93031ZM7.87149 17.5922V19.0697C7.87149 19.385 8.11895 19.6409 8.42387 19.6409H20.5762C20.7227 19.6409 20.8632 19.5807 20.9668 19.4736C21.0704 19.3665 21.1286 19.2212 21.1286 19.0697V17.5922L19.1474 15.5442C18.9403 15.3302 18.6595 15.2101 18.3667 15.2101C18.074 15.2101 17.7932 15.3302 17.586 15.5442L16.9379 16.2136L17.6523 16.9524C17.7066 17.0047 17.7501 17.0678 17.7803 17.1378C17.8105 17.2079 17.8267 17.2835 17.828 17.3602C17.8293 17.4369 17.8157 17.5131 17.7879 17.5842C17.7601 17.6554 17.7188 17.72 17.6663 17.7742C17.6139 17.8285 17.5514 17.8712 17.4826 17.9C17.4138 17.9287 17.3402 17.9428 17.266 17.9414C17.1918 17.9401 17.1187 17.9233 17.0509 17.8921C16.9832 17.8609 16.9222 17.8158 16.8716 17.7597L13.0712 13.8305C12.8641 13.6166 12.5833 13.4964 12.2905 13.4964C11.9978 13.4964 11.717 13.6166 11.5098 13.8305L7.87149 17.5929V17.5922ZM15.3286 11.6439C15.3286 11.4167 15.4159 11.1988 15.5713 11.0381C15.7267 10.8774 15.9374 10.7871 16.1572 10.7871C16.377 10.7871 16.5877 10.8774 16.7431 11.0381C16.8985 11.1988 16.9858 11.4167 16.9858 11.6439C16.9858 11.8712 16.8985 12.0891 16.7431 12.2498C16.5877 12.4105 16.377 12.5008 16.1572 12.5008C15.9374 12.5008 15.7267 12.4105 15.5713 12.2498C15.4159 12.0891 15.3286 11.8712 15.3286 11.6439Z" fill="url(#paint1_linear_5_953)" style=""/>
<defs>
<linearGradient id="paint0_linear_5_953" x1="14.5" y1="0" x2="14.5" y2="29" gradientUnits="userSpaceOnUse">
<stop stop-color="#F5785C" style="stop-color:#F5785C;stop-color:color(display-p3 0.9608 0.4706 0.3608);stop-opacity:1;"/>
<stop offset="1" stop-color="#F25533" style="stop-color:#F25533;stop-color:color(display-p3 0.9490 0.3333 0.2000);stop-opacity:1;"/>
</linearGradient>
<linearGradient id="paint1_linear_5_953" x1="14.5001" y1="7.92944" x2="14.5001" y2="21.0706" gradientUnits="userSpaceOnUse">
<stop stop-color="white" style="stop-color:white;stop-opacity:1;"/>
<stop offset="1" stop-color="#AFAFAF" style="stop-color:#AFAFAF;stop-color:color(display-p3 0.6863 0.6863 0.6863);stop-opacity:1;"/>
</linearGradient>
</defs>
</svg>
