<svg width="29" height="29" viewBox="0 0 29 29" fill="none" xmlns="http://www.w3.org/2000/svg">
<rect width="29" height="29" rx="6.76667" fill="url(#paint0_linear_5_942)" style=""/>
<path fill-rule="evenodd" clip-rule="evenodd" d="M6.76672 9.3445C6.76672 8.66083 7.03831 8.00516 7.52174 7.52174C8.00516 7.03831 8.66083 6.76672 9.3445 6.76672H11.2778C11.9615 6.76672 12.6172 7.03831 13.1006 7.52174C13.584 8.00516 13.8556 8.66083 13.8556 9.3445V11.2778C13.8556 11.9615 13.584 12.6172 13.1006 13.1006C12.6172 13.584 11.9615 13.8556 11.2778 13.8556H9.3445C8.66083 13.8556 8.00516 13.584 7.52174 13.1006C7.03831 12.6172 6.76672 11.9615 6.76672 11.2778V9.3445ZM15.1445 9.3445C15.1445 8.66083 15.4161 8.00516 15.8995 7.52174C16.3829 7.03831 17.0386 6.76672 17.7223 6.76672H19.6556C20.3393 6.76672 20.9949 7.03831 21.4784 7.52174C21.9618 8.00516 22.2334 8.66083 22.2334 9.3445V11.2778C22.2334 11.9615 21.9618 12.6172 21.4784 13.1006C20.9949 13.584 20.3393 13.8556 19.6556 13.8556H17.7223C17.0386 13.8556 16.3829 13.584 15.8995 13.1006C15.4161 12.6172 15.1445 11.9615 15.1445 11.2778V9.3445ZM6.76672 17.7223C6.76672 17.0386 7.03831 16.3829 7.52174 15.8995C8.00516 15.4161 8.66083 15.1445 9.3445 15.1445H11.2778C11.9615 15.1445 12.6172 15.4161 13.1006 15.8995C13.584 16.3829 13.8556 17.0386 13.8556 17.7223V19.6556C13.8556 20.3393 13.584 20.9949 13.1006 21.4784C12.6172 21.9618 11.9615 22.2334 11.2778 22.2334H9.3445C8.66083 22.2334 8.00516 21.9618 7.52174 21.4784C7.03831 20.9949 6.76672 20.3393 6.76672 19.6556V17.7223ZM15.1445 17.7223C15.1445 17.0386 15.4161 16.3829 15.8995 15.8995C16.3829 15.4161 17.0386 15.1445 17.7223 15.1445H19.6556C20.3393 15.1445 20.9949 15.4161 21.4784 15.8995C21.9618 16.3829 22.2334 17.0386 22.2334 17.7223V19.6556C22.2334 20.3393 21.9618 20.9949 21.4784 21.4784C20.9949 21.9618 20.3393 22.2334 19.6556 22.2334H17.7223C17.0386 22.2334 16.3829 21.9618 15.8995 21.4784C15.4161 20.9949 15.1445 20.3393 15.1445 19.6556V17.7223Z" fill="url(#paint1_linear_5_942)" style=""/>
<defs>
<linearGradient id="paint0_linear_5_942" x1="14.5" y1="0" x2="14.5" y2="29" gradientUnits="userSpaceOnUse">
<stop stop-color="#F5785C" style="stop-color:#F5785C;stop-color:color(display-p3 0.9608 0.4706 0.3608);stop-opacity:1;"/>
<stop offset="1" stop-color="#F25533" style="stop-color:#F25533;stop-color:color(display-p3 0.9490 0.3333 0.2000);stop-opacity:1;"/>
</linearGradient>
<linearGradient id="paint1_linear_5_942" x1="14.5001" y1="6.4132" x2="14.5001" y2="22.5869" gradientUnits="userSpaceOnUse">
<stop stop-color="white" style="stop-color:white;stop-opacity:1;"/>
<stop offset="1" stop-color="#AFAFAF" style="stop-color:#AFAFAF;stop-color:color(display-p3 0.6863 0.6863 0.6863);stop-opacity:1;"/>
</linearGradient>
</defs>
</svg>
