<svg width="29" height="29" viewBox="0 0 29 29" fill="none" xmlns="http://www.w3.org/2000/svg">
<rect width="29" height="29" rx="6.76667" fill="url(#paint0_linear_5_931)" style=""/>
<path fill-rule="evenodd" clip-rule="evenodd" d="M17.094 7.24658C16.414 7.24651 15.7422 7.39516 15.1257 7.68211C14.5093 7.96906 13.963 8.38737 13.5253 8.90772C13.0875 9.42807 12.7689 10.0379 12.5917 10.6944C12.4145 11.3508 12.383 12.0381 12.4994 12.7081C12.5457 12.9775 12.4773 13.2034 12.3468 13.334L7.85653 17.8235C7.4681 18.2122 7.24993 18.7392 7.25 19.2887V21.2354C7.25 21.5214 7.48211 21.7535 7.7681 21.7535H10.3586C10.496 21.7535 10.6278 21.6989 10.725 21.6017C10.8221 21.5046 10.8767 21.3728 10.8767 21.2354V20.1992H11.9129C12.0503 20.1992 12.1821 20.1446 12.2793 20.0474C12.3765 19.9503 12.431 19.8185 12.431 19.6811V18.6449H13.4672C13.6046 18.6447 13.7363 18.5901 13.8334 18.4929L15.6695 16.6567C15.8008 16.5262 16.0267 16.4578 16.2954 16.5048C16.9316 16.6144 17.5836 16.5907 18.2101 16.4352C18.8366 16.2797 19.4241 15.9958 19.9352 15.6015C20.4463 15.2072 20.87 14.7111 21.1794 14.1446C21.4889 13.578 21.6773 12.9534 21.7327 12.3102C21.7882 11.6671 21.7096 11.0194 21.5017 10.4082C21.2939 9.79708 20.9614 9.23572 20.5253 8.75972C20.0893 8.28373 19.5591 7.90345 18.9685 7.64299C18.3778 7.38252 17.7395 7.24754 17.094 7.24658ZM17.094 9.319C16.9566 9.319 16.8248 9.37358 16.7276 9.47075C16.6305 9.56791 16.5759 9.69969 16.5759 9.8371C16.5759 9.97451 16.6305 10.1063 16.7276 10.2035C16.8248 10.3006 16.9566 10.3552 17.094 10.3552C17.5062 10.3552 17.9016 10.519 18.193 10.8105C18.4845 11.1019 18.6483 11.4973 18.6483 11.9095C18.6483 12.0469 18.7029 12.1787 18.8 12.2759C18.8972 12.373 19.029 12.4276 19.1664 12.4276C19.3038 12.4276 19.4356 12.373 19.5327 12.2759C19.6299 12.1787 19.6845 12.0469 19.6845 11.9095C19.6845 11.2225 19.4116 10.5636 18.9258 10.0777C18.4399 9.59193 17.781 9.319 17.094 9.319Z" fill="url(#paint1_linear_5_931)" style=""/>
<defs>
<linearGradient id="paint0_linear_5_931" x1="14.5" y1="0" x2="14.5" y2="29" gradientUnits="userSpaceOnUse">
<stop stop-color="#F5785C" style="stop-color:#F5785C;stop-color:color(display-p3 0.9608 0.4706 0.3608);stop-opacity:1;"/>
<stop offset="1" stop-color="#F25533" style="stop-color:#F25533;stop-color:color(display-p3 0.9490 0.3333 0.2000);stop-opacity:1;"/>
</linearGradient>
<linearGradient id="paint1_linear_5_931" x1="14.5" y1="6.915" x2="14.5" y2="22.0851" gradientUnits="userSpaceOnUse">
<stop stop-color="white" style="stop-color:white;stop-opacity:1;"/>
<stop offset="1" stop-color="#AFAFAF" style="stop-color:#AFAFAF;stop-color:color(display-p3 0.6863 0.6863 0.6863);stop-opacity:1;"/>
</linearGradient>
</defs>
</svg>
