<svg width="29" height="29" viewBox="0 0 29 29" fill="none" xmlns="http://www.w3.org/2000/svg">
<rect width="29" height="29" rx="6.76667" fill="url(#paint0_linear_5_986)" style=""/>
<path d="M14.6582 11.498C14.8522 11.0919 15.3214 10.9053 15.7363 11.0537L15.8184 11.0879L16.0547 11.21C16.5967 11.5098 17.0714 11.9205 17.4463 12.416C17.8747 12.9824 18.1612 13.6438 18.2812 14.3438C18.4013 15.0437 18.3519 15.7627 18.1367 16.4395C17.9214 17.1164 17.5464 17.7322 17.0439 18.2344L17.043 18.2334L13.4746 21.8027C12.6421 22.6352 11.5133 23.1035 10.3359 23.1035C9.15876 23.1034 8.02968 22.6351 7.19727 21.8027C6.36502 20.9703 5.89649 19.8412 5.89648 18.6641C5.8966 17.4869 6.36485 16.3578 7.19727 15.5254L8.59082 14.1318C8.93042 13.7922 9.48052 13.7925 9.82031 14.1318C10.1601 14.4716 10.1601 15.0216 9.82031 15.3613L8.42676 16.7559C7.92094 17.2619 7.63683 17.9486 7.63672 18.6641C7.63673 19.3795 7.92109 20.0661 8.42676 20.5723C8.93286 21.0784 9.62021 21.3632 10.3359 21.3633C11.0518 21.3633 11.738 21.0785 12.2441 20.5723L15.8135 17.0029C16.119 16.6976 16.3476 16.3237 16.4785 15.9121C16.6093 15.5006 16.6394 15.0633 16.5664 14.6377C16.4934 14.2122 16.319 13.8101 16.0586 13.4658C15.8307 13.1647 15.5423 12.9147 15.2129 12.7324L15.0693 12.6582L14.9902 12.6152C14.6143 12.3858 14.4644 11.9042 14.6582 11.498ZM18.6641 5.89648C19.8412 5.89649 20.9703 6.36502 21.8027 7.19727C22.6351 8.02968 23.1034 9.15876 23.1035 10.3359C23.1035 11.5133 22.6352 12.6421 21.8027 13.4746L20.4092 14.8682C20.0694 15.2079 19.5185 15.2079 19.1787 14.8682C18.8397 14.5283 18.8392 13.9772 19.1787 13.6377L20.5723 12.2441C21.0785 11.738 21.3633 11.0518 21.3633 10.3359C21.3632 9.62021 21.0784 8.93286 20.5723 8.42676C20.0661 7.92109 19.3795 7.63673 18.6641 7.63672C17.9486 7.63683 17.2619 7.92094 16.7559 8.42676L13.1855 11.9971C12.8803 12.3022 12.6524 12.6766 12.5215 13.0879C12.3907 13.4993 12.3607 13.9368 12.4336 14.3623C12.5066 14.7877 12.6811 15.1899 12.9414 15.5342C13.2018 15.8784 13.5412 16.1557 13.9307 16.3418C14.3642 16.5488 14.5477 17.0684 14.3408 17.502C14.1338 17.9352 13.6151 18.1188 13.1816 17.9121C12.5409 17.6061 11.9821 17.1503 11.5537 16.584C11.1254 16.0176 10.8388 15.3561 10.7188 14.6562C10.5988 13.9564 10.6481 13.2372 10.8633 12.5605C11.0786 11.8837 11.4536 11.2677 11.9561 10.7656L15.5254 7.19727C16.3578 6.36485 17.4869 5.8966 18.6641 5.89648Z" fill="url(#paint1_linear_5_986)" style=""/>
<defs>
<linearGradient id="paint0_linear_5_986" x1="14.5" y1="0" x2="14.5" y2="29" gradientUnits="userSpaceOnUse">
<stop stop-color="#F5785C" style="stop-color:#F5785C;stop-color:color(display-p3 0.9608 0.4706 0.3608);stop-opacity:1;"/>
<stop offset="1" stop-color="#F25533" style="stop-color:#F25533;stop-color:color(display-p3 0.9490 0.3333 0.2000);stop-opacity:1;"/>
</linearGradient>
<linearGradient id="paint1_linear_5_986" x1="14.5" y1="5.50318" x2="14.5" y2="23.4968" gradientUnits="userSpaceOnUse">
<stop stop-color="white" style="stop-color:white;stop-opacity:1;"/>
<stop offset="1" stop-color="#AFAFAF" style="stop-color:#AFAFAF;stop-color:color(display-p3 0.6863 0.6863 0.6863);stop-opacity:1;"/>
</linearGradient>
</defs>
</svg>
