<svg width="29" height="29" viewBox="0 0 29 29" fill="none" xmlns="http://www.w3.org/2000/svg">
<rect width="29" height="29" rx="6.76667" fill="url(#paint0_linear_5_922)" style=""/>
<path fill-rule="evenodd" clip-rule="evenodd" d="M14.5 6.50305C13.4395 6.50305 12.4225 6.92432 11.6727 7.67418C10.9228 8.42404 10.5015 9.44107 10.5015 10.5015V12.7864C9.89554 12.7864 9.31438 13.0271 8.88589 13.4556C8.4574 13.8841 8.21667 14.4653 8.21667 15.0712V20.2121C8.21667 20.8181 8.4574 21.3993 8.88589 21.8278C9.31438 22.2563 9.89554 22.497 10.5015 22.497H18.4985C19.1045 22.497 19.6856 22.2563 20.1141 21.8278C20.5426 21.3993 20.7833 20.8181 20.7833 20.2121V15.0712C20.7833 14.4653 20.5426 13.8841 20.1141 13.4556C19.6856 13.0271 19.1045 12.7864 18.4985 12.7864V10.5015C18.4985 8.29285 16.7087 6.50305 14.5 6.50305ZM17.3561 12.7864V10.5015C17.3561 9.74406 17.0552 9.01761 16.5195 8.482C15.9839 7.94638 15.2575 7.64548 14.5 7.64548C13.7425 7.64548 13.0161 7.94638 12.4805 8.482C11.9449 9.01761 11.6439 9.74406 11.6439 10.5015V12.7864H17.3561Z" fill="url(#paint1_linear_5_922)" style=""/>
<defs>
<linearGradient id="paint0_linear_5_922" x1="14.5" y1="0" x2="14.5" y2="29" gradientUnits="userSpaceOnUse">
<stop stop-color="#F5785C" style="stop-color:#F5785C;stop-color:color(display-p3 0.9608 0.4706 0.3608);stop-opacity:1;"/>
<stop offset="1" stop-color="#F25533" style="stop-color:#F25533;stop-color:color(display-p3 0.9490 0.3333 0.2000);stop-opacity:1;"/>
</linearGradient>
<linearGradient id="paint1_linear_5_922" x1="14.5" y1="6.13748" x2="14.5" y2="22.8626" gradientUnits="userSpaceOnUse">
<stop stop-color="white" style="stop-color:white;stop-opacity:1;"/>
<stop offset="1" stop-color="#AFAFAF" style="stop-color:#AFAFAF;stop-color:color(display-p3 0.6863 0.6863 0.6863);stop-opacity:1;"/>
</linearGradient>
</defs>
</svg>
