<svg width="29" height="29" viewBox="0 0 29 29" fill="none" xmlns="http://www.w3.org/2000/svg">
<rect width="29" height="29" rx="6.76667" fill="url(#paint0_linear_5_933)" style=""/>
<path d="M8.14768 7.73328C7.38465 7.73328 6.76672 8.36483 6.76672 9.143V9.70689C6.76672 10.4858 7.38539 11.1166 8.14768 11.1166H20.8524C21.6147 11.1166 22.2334 10.4851 22.2334 9.70689V9.143C22.2334 8.36408 21.6147 7.73328 20.8524 7.73328H8.14768Z" fill="url(#paint1_linear_5_933)" style=""/>
<path fill-rule="evenodd" clip-rule="evenodd" d="M7.9355 12.2444L8.33321 19.1434C8.36626 19.7175 8.61286 20.257 9.02259 20.6516C9.43233 21.0463 9.97425 21.2663 10.5376 21.2666H18.4602C19.0238 21.2666 19.5661 21.0468 19.9761 20.6521C20.3862 20.2574 20.633 19.7177 20.666 19.1434L21.0645 12.2444H7.9355ZM12.4746 15.0638C12.4746 14.9143 12.5328 14.7709 12.6364 14.6651C12.74 14.5594 12.8805 14.4999 13.027 14.4999H15.973C16.1195 14.4999 16.26 14.5594 16.3636 14.6651C16.4672 14.7709 16.5254 14.9143 16.5254 15.0638C16.5254 15.2134 16.4672 15.3568 16.3636 15.4626C16.26 15.5683 16.1195 15.6277 15.973 15.6277H13.027C12.8805 15.6277 12.74 15.5683 12.6364 15.4626C12.5328 15.3568 12.4746 15.2134 12.4746 15.0638Z" fill="url(#paint2_linear_5_933)" style=""/>
<defs>
<linearGradient id="paint0_linear_5_933" x1="14.5" y1="0" x2="14.5" y2="29" gradientUnits="userSpaceOnUse">
<stop stop-color="#F5785C" style="stop-color:#F5785C;stop-color:color(display-p3 0.9608 0.4706 0.3608);stop-opacity:1;"/>
<stop offset="1" stop-color="#F25533" style="stop-color:#F25533;stop-color:color(display-p3 0.9490 0.3333 0.2000);stop-opacity:1;"/>
</linearGradient>
<linearGradient id="paint1_linear_5_933" x1="14.5001" y1="7.42394" x2="14.5001" y2="21.5759" gradientUnits="userSpaceOnUse">
<stop stop-color="white" style="stop-color:white;stop-opacity:1;"/>
<stop offset="1" stop-color="#AFAFAF" style="stop-color:#AFAFAF;stop-color:color(display-p3 0.6863 0.6863 0.6863);stop-opacity:1;"/>
</linearGradient>
<linearGradient id="paint2_linear_5_933" x1="14.5001" y1="7.42394" x2="14.5001" y2="21.5759" gradientUnits="userSpaceOnUse">
<stop stop-color="white" style="stop-color:white;stop-opacity:1;"/>
<stop offset="1" stop-color="#AFAFAF" style="stop-color:#AFAFAF;stop-color:color(display-p3 0.6863 0.6863 0.6863);stop-opacity:1;"/>
</linearGradient>
</defs>
</svg>
