<svg width="29" height="29" viewBox="0 0 29 29" fill="none" xmlns="http://www.w3.org/2000/svg">
<rect width="29" height="29" rx="6.76667" fill="url(#paint0_linear_5_984)" style=""/>
<path fill-rule="evenodd" clip-rule="evenodd" d="M11.4551 7.02902C11.6617 6.92565 11.8896 6.87183 12.1206 6.87183C12.3516 6.87183 12.5794 6.92565 12.786 7.02902L16.7463 9.01034C16.8304 9.05158 16.9287 9.05158 17.0128 9.01034L20.0815 7.47557C20.3083 7.3623 20.5602 7.30885 20.8133 7.32029C21.0665 7.33173 21.3126 7.40768 21.5282 7.54094C21.7437 7.6742 21.9217 7.86033 22.0451 8.08169C22.1685 8.30304 22.2333 8.55226 22.2334 8.8057V18.7083C22.2334 19.2715 21.9153 19.787 21.4109 20.0385L17.5442 21.9714C17.3378 22.0745 17.1103 22.1282 16.8795 22.1282C16.6488 22.1282 16.4213 22.0745 16.2149 21.9714L12.2538 19.9909C12.2125 19.9702 12.1668 19.9594 12.1206 19.9594C12.0743 19.9594 12.0287 19.9702 11.9873 19.9909L8.91937 21.5256C8.69262 21.6391 8.44063 21.6927 8.18734 21.6814C7.93404 21.67 7.68786 21.5941 7.47216 21.4608C7.25647 21.3275 7.07843 21.1413 6.95497 20.9199C6.8315 20.6984 6.7667 20.4491 6.76672 20.1955V10.2929C6.76672 9.72974 7.08478 9.21418 7.58844 8.96275L11.4551 7.02981V7.02902ZM12.1206 9.74164C12.2783 9.74164 12.4296 9.80431 12.5412 9.91587C12.6528 10.0274 12.7154 10.1787 12.7154 10.3365V16.8801C12.7154 17.0379 12.6528 17.1892 12.5412 17.3007C12.4296 17.4123 12.2783 17.475 12.1206 17.475C11.9628 17.475 11.8115 17.4123 11.6999 17.3007C11.5884 17.1892 11.5257 17.0379 11.5257 16.8801V10.3365C11.5257 10.1787 11.5884 10.0274 11.6999 9.91587C11.8115 9.80431 11.9628 9.74164 12.1206 9.74164ZM17.4744 12.1211C17.4744 11.9634 17.4117 11.812 17.3002 11.7005C17.1886 11.5889 17.0373 11.5263 16.8795 11.5263C16.7218 11.5263 16.5705 11.5889 16.4589 11.7005C16.3473 11.812 16.2847 11.9634 16.2847 12.1211V18.6647C16.2847 18.8225 16.3473 18.9738 16.4589 19.0854C16.5705 19.1969 16.7218 19.2596 16.8795 19.2596C17.0373 19.2596 17.1886 19.1969 17.3002 19.0854C17.4117 18.9738 17.4744 18.8225 17.4744 18.6647V12.1211Z" fill="url(#paint1_linear_5_984)" style=""/>
<defs>
<linearGradient id="paint0_linear_5_984" x1="14.5" y1="0" x2="14.5" y2="29" gradientUnits="userSpaceOnUse">
<stop stop-color="#F5785C" style="stop-color:#F5785C;stop-color:color(display-p3 0.9608 0.4706 0.3608);stop-opacity:1;"/>
<stop offset="1" stop-color="#F25533" style="stop-color:#F25533;stop-color:color(display-p3 0.9490 0.3333 0.2000);stop-opacity:1;"/>
</linearGradient>
<linearGradient id="paint1_linear_5_984" x1="14.5001" y1="6.52311" x2="14.5001" y2="22.4769" gradientUnits="userSpaceOnUse">
<stop stop-color="white" style="stop-color:white;stop-opacity:1;"/>
<stop offset="1" stop-color="#AFAFAF" style="stop-color:#AFAFAF;stop-color:color(display-p3 0.6863 0.6863 0.6863);stop-opacity:1;"/>
</linearGradient>
</defs>
</svg>
