<svg width="29" height="29" viewBox="0 0 29 29" fill="none" xmlns="http://www.w3.org/2000/svg">
<rect width="29" height="29" rx="6.76667" fill="url(#paint0_linear_5_889)" style=""/>
<path d="M14.5001 10.9492C14.0606 10.9492 13.6391 11.1238 13.3283 11.4345C13.0175 11.7453 12.8429 12.1668 12.8429 12.6063C12.8429 13.0458 13.0175 13.4673 13.3283 13.7781C13.6391 14.0889 14.0606 14.2635 14.5001 14.2635C14.9396 14.2635 15.3611 14.0889 15.6718 13.7781C15.9826 13.4673 16.1572 13.0458 16.1572 12.6063C16.1572 12.1668 15.9826 11.7453 15.6718 11.4345C15.3611 11.1238 14.9396 10.9492 14.5001 10.9492Z" fill="url(#paint1_linear_5_889)" style=""/>
<path fill-rule="evenodd" clip-rule="evenodd" d="M6.76672 9.01584C6.76672 8.25282 7.38539 7.63489 8.14768 7.63489H20.8524C21.6147 7.63489 22.2334 8.25355 22.2334 9.01584V16.1968C22.2334 16.9598 21.6147 17.5777 20.8524 17.5777H8.14768C7.96633 17.5777 7.78675 17.542 7.61921 17.4726C7.45166 17.4032 7.29943 17.3015 7.1712 17.1733C7.04296 17.045 6.94124 16.8928 6.87184 16.7253C6.80244 16.5577 6.76672 16.3781 6.76672 16.1968V9.01584ZM11.7382 12.6063C11.7382 11.8738 12.0291 11.1713 12.5471 10.6534C13.0651 10.1354 13.7676 9.84441 14.5001 9.84441C15.2326 9.84441 15.9351 10.1354 16.453 10.6534C16.971 11.1713 17.262 11.8738 17.262 12.6063C17.262 13.3388 16.971 14.0413 16.453 14.5593C15.9351 15.0772 15.2326 15.3682 14.5001 15.3682C13.7676 15.3682 13.0651 15.0772 12.5471 14.5593C12.0291 14.0413 11.7382 13.3388 11.7382 12.6063ZM19.4715 12.0539C19.325 12.0539 19.1845 12.1121 19.0809 12.2157C18.9773 12.3193 18.9191 12.4598 18.9191 12.6063V12.6122C18.9191 12.9171 19.1666 13.1646 19.4715 13.1646H19.4774C19.6239 13.1646 19.7644 13.1064 19.868 13.0028C19.9716 12.8992 20.0298 12.7587 20.0298 12.6122V12.6063C20.0298 12.4598 19.9716 12.3193 19.868 12.2157C19.7644 12.1121 19.6239 12.0539 19.4774 12.0539H19.4715ZM8.97625 12.6063C8.97625 12.4598 9.03444 12.3193 9.13804 12.2157C9.24163 12.1121 9.38213 12.0539 9.52863 12.0539H9.53452C9.68102 12.0539 9.82152 12.1121 9.92511 12.2157C10.0287 12.3193 10.0869 12.4598 10.0869 12.6063V12.6122C10.0869 12.7587 10.0287 12.8992 9.92511 13.0028C9.82152 13.1064 9.68102 13.1646 9.53452 13.1646H9.52863C9.38213 13.1646 9.24163 13.1064 9.13804 13.0028C9.03444 12.8992 8.97625 12.7587 8.97625 12.6122V12.6063Z" fill="url(#paint2_linear_5_889)" style=""/>
<path d="M7.3191 18.6825C7.1726 18.6825 7.0321 18.7407 6.92851 18.8443C6.82492 18.9479 6.76672 19.0884 6.76672 19.2349C6.76672 19.3814 6.82492 19.5219 6.92851 19.6255C7.0321 19.7291 7.1726 19.7873 7.3191 19.7873C11.2962 19.7873 15.1482 20.319 18.8086 21.3155C19.6851 21.5541 20.5762 20.9045 20.5762 19.9751V19.2349C20.5762 19.0884 20.5181 18.9479 20.4145 18.8443C20.3109 18.7407 20.1704 18.6825 20.0239 18.6825H7.3191Z" fill="url(#paint3_linear_5_889)" style=""/>
<defs>
<linearGradient id="paint0_linear_5_889" x1="14.5" y1="0" x2="14.5" y2="29" gradientUnits="userSpaceOnUse">
<stop stop-color="#F5785C" style="stop-color:#F5785C;stop-color:color(display-p3 0.9608 0.4706 0.3608);stop-opacity:1;"/>
<stop offset="1" stop-color="#F25533" style="stop-color:#F25533;stop-color:color(display-p3 0.9490 0.3333 0.2000);stop-opacity:1;"/>
</linearGradient>
<linearGradient id="paint1_linear_5_889" x1="14.5001" y1="7.32105" x2="14.5001" y2="21.679" gradientUnits="userSpaceOnUse">
<stop stop-color="white" style="stop-color:white;stop-opacity:1;"/>
<stop offset="1" stop-color="#AFAFAF" style="stop-color:#AFAFAF;stop-color:color(display-p3 0.6863 0.6863 0.6863);stop-opacity:1;"/>
</linearGradient>
<linearGradient id="paint2_linear_5_889" x1="14.5001" y1="7.32105" x2="14.5001" y2="21.679" gradientUnits="userSpaceOnUse">
<stop stop-color="white" style="stop-color:white;stop-opacity:1;"/>
<stop offset="1" stop-color="#AFAFAF" style="stop-color:#AFAFAF;stop-color:color(display-p3 0.6863 0.6863 0.6863);stop-opacity:1;"/>
</linearGradient>
<linearGradient id="paint3_linear_5_889" x1="14.5001" y1="7.32105" x2="14.5001" y2="21.679" gradientUnits="userSpaceOnUse">
<stop stop-color="white" style="stop-color:white;stop-opacity:1;"/>
<stop offset="1" stop-color="#AFAFAF" style="stop-color:#AFAFAF;stop-color:color(display-p3 0.6863 0.6863 0.6863);stop-opacity:1;"/>
</linearGradient>
</defs>
</svg>
