<svg width="29" height="29" viewBox="0 0 29 29" fill="none" xmlns="http://www.w3.org/2000/svg">
<rect width="29" height="29" rx="6.76667" fill="url(#paint0_linear_5_913)" style=""/>
<path fill-rule="evenodd" clip-rule="evenodd" d="M6.76672 9.14621C6.76672 8.51513 7.01742 7.9099 7.46366 7.46366C7.9099 7.01742 8.51513 6.76672 9.14621 6.76672H19.8539C20.485 6.76672 21.0902 7.01742 21.5365 7.46366C21.9827 7.9099 22.2334 8.51513 22.2334 9.14621V16.8795C22.2334 17.5106 21.9827 18.1159 21.5365 18.5621C21.0902 19.0083 20.485 19.259 19.8539 19.259H17.4744V19.4629C17.4744 19.9364 17.6624 20.3909 17.9971 20.7248L18.4897 21.2181C18.5728 21.3013 18.6293 21.4073 18.6522 21.5226C18.6751 21.6379 18.6634 21.7575 18.6184 21.8661C18.5734 21.9747 18.4972 22.0676 18.3995 22.133C18.3018 22.1983 18.1869 22.2333 18.0693 22.2334H10.9308C10.8132 22.2333 10.6983 22.1983 10.6006 22.133C10.5029 22.0676 10.4267 21.9747 10.3817 21.8661C10.3367 21.7575 10.325 21.6379 10.3479 21.5226C10.3708 21.4073 10.4274 21.3013 10.5104 21.2181L11.003 20.7248C11.3375 20.3903 11.5255 19.9367 11.5257 19.4637V19.259H9.14621C8.51513 19.259 7.9099 19.0083 7.46366 18.5621C7.01742 18.1159 6.76672 17.5106 6.76672 16.8795V9.14621ZM7.95647 9.14621V15.0949C7.95647 15.4105 8.08181 15.7131 8.30493 15.9362C8.52805 16.1593 8.83067 16.2847 9.14621 16.2847H19.8539C20.1694 16.2847 20.4721 16.1593 20.6952 15.9362C20.9183 15.7131 21.0436 15.4105 21.0436 15.0949V9.14621C21.0436 8.83067 20.9183 8.52805 20.6952 8.30493C20.4721 8.08181 20.1694 7.95647 19.8539 7.95647H9.14621C8.83067 7.95647 8.52805 8.08181 8.30493 8.30493C8.08181 8.52805 7.95647 8.83067 7.95647 9.14621Z" fill="url(#paint1_linear_5_913)" style=""/>
<defs>
<linearGradient id="paint0_linear_5_913" x1="14.5" y1="0" x2="14.5" y2="29" gradientUnits="userSpaceOnUse">
<stop stop-color="#F5785C" style="stop-color:#F5785C;stop-color:color(display-p3 0.9608 0.4706 0.3608);stop-opacity:1;"/>
<stop offset="1" stop-color="#F25533" style="stop-color:#F25533;stop-color:color(display-p3 0.9490 0.3333 0.2000);stop-opacity:1;"/>
</linearGradient>
<linearGradient id="paint1_linear_5_913" x1="14.5001" y1="6.4132" x2="14.5001" y2="22.5869" gradientUnits="userSpaceOnUse">
<stop stop-color="white" style="stop-color:white;stop-opacity:1;"/>
<stop offset="1" stop-color="#AFAFAF" style="stop-color:#AFAFAF;stop-color:color(display-p3 0.6863 0.6863 0.6863);stop-opacity:1;"/>
</linearGradient>
</defs>
</svg>
