<svg width="29" height="29" viewBox="0 0 29 29" fill="none" xmlns="http://www.w3.org/2000/svg">
<rect width="29" height="29" rx="6.76667" fill="url(#paint0_linear_5_982)" style=""/>
<path d="M14.5 6.37988C16.6534 6.37988 18.7194 7.23517 20.2422 8.75781C21.7649 10.2806 22.6201 12.3465 22.6201 14.5C22.6201 16.6536 21.765 18.7194 20.2422 20.2422C18.7194 21.765 16.6536 22.6201 14.5 22.6201C12.3465 22.6201 10.2806 21.7649 8.75781 20.2422C7.23517 18.7194 6.37988 16.6534 6.37988 14.5C6.37995 12.3465 7.23507 10.2806 8.75781 8.75781C10.2806 7.23507 12.3465 6.37995 14.5 6.37988ZM9.41602 10.6465C8.58028 11.7491 8.12017 13.1007 8.12012 14.5C8.12012 16.192 8.79195 17.8153 9.98828 19.0117C11.1847 20.2081 12.808 20.8798 14.5 20.8799C15.8993 20.8799 17.2499 20.4187 18.3525 19.583L9.41602 10.6465ZM14.5 8.12012C13.1007 8.12017 11.7491 8.58028 10.6465 9.41602L19.583 18.3525C20.4187 17.2499 20.8799 15.8993 20.8799 14.5C20.8798 12.808 20.2081 11.1847 19.0117 9.98828C17.8153 8.79195 16.192 8.12012 14.5 8.12012Z" fill="url(#paint1_linear_5_982)" style=""/>
<defs>
<linearGradient id="paint0_linear_5_982" x1="14.5" y1="0" x2="14.5" y2="29" gradientUnits="userSpaceOnUse">
<stop stop-color="#F5785C" style="stop-color:#F5785C;stop-color:color(display-p3 0.9608 0.4706 0.3608);stop-opacity:1;"/>
<stop offset="1" stop-color="#F25533" style="stop-color:#F25533;stop-color:color(display-p3 0.9490 0.3333 0.2000);stop-opacity:1;"/>
</linearGradient>
<linearGradient id="paint1_linear_5_982" x1="14.5" y1="6.00868" x2="14.5" y2="22.9913" gradientUnits="userSpaceOnUse">
<stop stop-color="white" style="stop-color:white;stop-opacity:1;"/>
<stop offset="1" stop-color="#AFAFAF" style="stop-color:#AFAFAF;stop-color:color(display-p3 0.6863 0.6863 0.6863);stop-opacity:1;"/>
</linearGradient>
</defs>
</svg>
