<svg width="29" height="29" viewBox="0 0 29 29" fill="none" xmlns="http://www.w3.org/2000/svg">
<rect width="29" height="29" rx="6.76667" fill="url(#paint0_linear_5_1004)" style=""/>
<path fill-rule="evenodd" clip-rule="evenodd" d="M9.64471 6.50305C8.85567 6.50305 8.21667 7.14281 8.21667 7.93108V21.069C8.21667 21.8572 8.85643 22.497 9.64471 22.497H19.3553C20.1436 22.497 20.7833 21.8572 20.7833 21.069V15.0712C20.7833 14.3138 20.4824 13.5873 19.9468 13.0517C19.4112 12.5161 18.6848 12.2152 17.9273 12.2152H16.4993C16.1205 12.2152 15.7573 12.0647 15.4895 11.7969C15.2217 11.5291 15.0712 11.1659 15.0712 10.7871V9.35911C15.0712 8.60164 14.7703 7.87519 14.2347 7.33957C13.6991 6.80396 12.9726 6.50305 12.2152 6.50305H9.64471ZM11.0727 16.7849C11.0727 16.6334 11.1329 16.4881 11.24 16.381C11.3472 16.2738 11.4925 16.2137 11.6439 16.2137H17.3561C17.5076 16.2137 17.6529 16.2738 17.76 16.381C17.8671 16.4881 17.9273 16.6334 17.9273 16.7849C17.9273 16.9364 17.8671 17.0817 17.76 17.1888C17.6529 17.2959 17.5076 17.3561 17.3561 17.3561H11.6439C11.4925 17.3561 11.3472 17.2959 11.24 17.1888C11.1329 17.0817 11.0727 16.9364 11.0727 16.7849ZM11.6439 18.4985C11.4925 18.4985 11.3472 18.5587 11.24 18.6658C11.1329 18.7729 11.0727 18.9182 11.0727 19.0697C11.0727 19.2212 11.1329 19.3665 11.24 19.4736C11.3472 19.5808 11.4925 19.6409 11.6439 19.6409H14.5C14.6515 19.6409 14.7968 19.5808 14.9039 19.4736C15.011 19.3665 15.0712 19.2212 15.0712 19.0697C15.0712 18.9182 15.011 18.7729 14.9039 18.6658C14.7968 18.5587 14.6515 18.4985 14.5 18.4985H11.6439Z" fill="url(#paint1_linear_5_1004)" style=""/>
<path d="M15.2395 6.74372C15.869 7.46952 16.215 8.39837 16.2136 9.35911V10.7871C16.2136 10.9448 16.3416 11.0727 16.4993 11.0727H17.9273C18.888 11.0714 19.8169 11.4174 20.5427 12.0469C20.2076 10.7724 19.54 9.60991 18.6083 8.67814C17.6765 7.74637 16.5139 7.07881 15.2395 6.74372Z" fill="url(#paint2_linear_5_1004)" style=""/>
<defs>
<linearGradient id="paint0_linear_5_1004" x1="14.5" y1="0" x2="14.5" y2="29" gradientUnits="userSpaceOnUse">
<stop stop-color="#F5785C" style="stop-color:#F5785C;stop-color:color(display-p3 0.9608 0.4706 0.3608);stop-opacity:1;"/>
<stop offset="1" stop-color="#F25533" style="stop-color:#F25533;stop-color:color(display-p3 0.9490 0.3333 0.2000);stop-opacity:1;"/>
</linearGradient>
<linearGradient id="paint1_linear_5_1004" x1="14.5" y1="6.13748" x2="14.5" y2="22.8626" gradientUnits="userSpaceOnUse">
<stop stop-color="white" style="stop-color:white;stop-opacity:1;"/>
<stop offset="1" stop-color="#AFAFAF" style="stop-color:#AFAFAF;stop-color:color(display-p3 0.6863 0.6863 0.6863);stop-opacity:1;"/>
</linearGradient>
<linearGradient id="paint2_linear_5_1004" x1="14.5" y1="6.13748" x2="14.5" y2="22.8626" gradientUnits="userSpaceOnUse">
<stop stop-color="white" style="stop-color:white;stop-opacity:1;"/>
<stop offset="1" stop-color="#AFAFAF" style="stop-color:#AFAFAF;stop-color:color(display-p3 0.6863 0.6863 0.6863);stop-opacity:1;"/>
</linearGradient>
</defs>
</svg>
