<svg width="29" height="29" viewBox="0 0 29 29" fill="none" xmlns="http://www.w3.org/2000/svg">
<rect width="29" height="29" rx="6.76667" fill="url(#paint0_linear_5_962)" style=""/>
<path fill-rule="evenodd" clip-rule="evenodd" d="M6.76672 14.5001C6.76672 10.2289 10.2289 6.76672 14.5001 6.76672C18.7712 6.76672 22.2334 10.2289 22.2334 14.5001C22.2334 18.7712 18.7712 22.2334 14.5001 22.2334C10.2289 22.2334 6.76672 18.7712 6.76672 14.5001ZM12.1206 11.5257C11.9628 11.5257 11.8115 11.5884 11.6999 11.6999C11.5884 11.8115 11.5257 11.9628 11.5257 12.1206V16.8795C11.5257 17.2079 11.7922 17.4744 12.1206 17.4744H12.7154C12.8732 17.4744 13.0245 17.4117 13.1361 17.3002C13.2476 17.1886 13.3103 17.0373 13.3103 16.8795V12.1206C13.3103 11.9628 13.2476 11.8115 13.1361 11.6999C13.0245 11.5884 12.8732 11.5257 12.7154 11.5257H12.1206ZM16.2847 11.5257C16.1269 11.5257 15.9756 11.5884 15.864 11.6999C15.7525 11.8115 15.6898 11.9628 15.6898 12.1206V16.8795C15.6898 17.2079 15.9563 17.4744 16.2847 17.4744H16.8795C17.0373 17.4744 17.1886 17.4117 17.3002 17.3002C17.4117 17.1886 17.4744 17.0373 17.4744 16.8795V12.1206C17.4744 11.9628 17.4117 11.8115 17.3002 11.6999C17.1886 11.5884 17.0373 11.5257 16.8795 11.5257H16.2847Z" fill="url(#paint1_linear_5_962)" style=""/>
<defs>
<linearGradient id="paint0_linear_5_962" x1="14.5" y1="0" x2="14.5" y2="29" gradientUnits="userSpaceOnUse">
<stop stop-color="#F5785C" style="stop-color:#F5785C;stop-color:color(display-p3 0.9608 0.4706 0.3608);stop-opacity:1;"/>
<stop offset="1" stop-color="#F25533" style="stop-color:#F25533;stop-color:color(display-p3 0.9490 0.3333 0.2000);stop-opacity:1;"/>
</linearGradient>
<linearGradient id="paint1_linear_5_962" x1="14.5001" y1="6.4132" x2="14.5001" y2="22.5869" gradientUnits="userSpaceOnUse">
<stop stop-color="white" style="stop-color:white;stop-opacity:1;"/>
<stop offset="1" stop-color="#AFAFAF" style="stop-color:#AFAFAF;stop-color:color(display-p3 0.6863 0.6863 0.6863);stop-opacity:1;"/>
</linearGradient>
</defs>
</svg>
