<svg width="29" height="29" viewBox="0 0 29 29" fill="none" xmlns="http://www.w3.org/2000/svg">
<rect width="29" height="29" rx="6.76667" fill="url(#paint0_linear_5_995)" style=""/>
<path fill-rule="evenodd" clip-rule="evenodd" d="M12.5225 11.2476C14.6437 8.52182 17.958 6.76672 21.681 6.76672C21.8275 6.76672 21.968 6.82492 22.0716 6.92851C22.1752 7.0321 22.2334 7.1726 22.2334 7.3191C22.2334 11.0429 20.4783 14.3564 17.7525 16.4783C17.8658 17.1885 17.8238 17.9148 17.6292 18.6071C17.4346 19.2995 17.0921 19.9413 16.6254 20.4885C16.1586 21.0356 15.5787 21.4749 14.9257 21.7762C14.2727 22.0774 13.5621 22.2334 12.8429 22.2334C12.6964 22.2334 12.5559 22.1752 12.4523 22.0716C12.3487 21.968 12.2905 21.8275 12.2905 21.681V18.6385C11.5746 18.0731 10.9274 17.4257 10.3624 16.7096H7.3191C7.1726 16.7096 7.0321 16.6514 6.92851 16.5478C6.82492 16.4442 6.76672 16.3037 6.76672 16.1572C6.76667 15.438 6.92267 14.7273 7.22396 14.0742C7.52526 13.4211 7.96468 12.8412 8.51189 12.3744C9.05909 11.9077 9.70106 11.5652 10.3935 11.3707C11.0859 11.1761 11.8123 11.1342 12.5225 11.2476ZM16.7096 10.6334C16.2701 10.6334 15.8486 10.808 15.5378 11.1188C15.227 11.4295 15.0524 11.851 15.0524 12.2905C15.0524 12.73 15.227 13.1515 15.5378 13.4623C15.8486 13.7731 16.2701 13.9477 16.7096 13.9477C17.1491 13.9477 17.5706 13.7731 17.8814 13.4623C18.1921 13.1515 18.3667 12.73 18.3667 12.2905C18.3667 11.851 18.1921 11.4295 17.8814 11.1188C17.5706 10.808 17.1491 10.6334 16.7096 10.6334Z" fill="url(#paint1_linear_5_995)" style=""/>
<path d="M9.53601 18.3608C9.59418 18.3175 9.64325 18.2631 9.68039 18.2007C9.71754 18.1384 9.74205 18.0693 9.75251 17.9975C9.76297 17.9257 9.75919 17.8525 9.74138 17.7822C9.72356 17.7118 9.69207 17.6457 9.64869 17.5875C9.60531 17.5293 9.5509 17.4803 9.48856 17.4431C9.42622 17.406 9.35717 17.3815 9.28536 17.371C9.21355 17.3605 9.14038 17.3643 9.07003 17.3821C8.99969 17.4 8.93353 17.4314 8.87536 17.4748C8.31037 17.8951 7.87106 18.4618 7.60494 19.1138C7.33882 19.7657 7.25603 20.478 7.36552 21.1736C7.38332 21.2894 7.43752 21.3966 7.52027 21.4796C7.60302 21.5626 7.71004 21.6172 7.82583 21.6354C8.52149 21.7448 9.23382 21.6619 9.88575 21.3956C10.5377 21.1294 11.1044 20.6899 11.5246 20.1248C11.5694 20.0668 11.6021 20.0004 11.621 19.9296C11.6399 19.8588 11.6445 19.7849 11.6345 19.7123C11.6246 19.6397 11.6003 19.5698 11.563 19.5067C11.5258 19.4435 11.4764 19.3884 11.4176 19.3446C11.3589 19.3008 11.292 19.2691 11.2209 19.2513C11.1498 19.2336 11.0759 19.2302 11.0034 19.2413C10.931 19.2525 10.8615 19.2779 10.799 19.3161C10.7365 19.3544 10.6822 19.4047 10.6393 19.4641C10.3824 19.8096 10.0483 20.0901 9.6636 20.2832C9.2789 20.4763 8.85433 20.5767 8.42388 20.5763C8.42388 19.6704 8.85989 18.8654 9.53601 18.3608Z" fill="url(#paint2_linear_5_995)" style=""/>
<defs>
<linearGradient id="paint0_linear_5_995" x1="14.5" y1="0" x2="14.5" y2="29" gradientUnits="userSpaceOnUse">
<stop stop-color="#F5785C" style="stop-color:#F5785C;stop-color:color(display-p3 0.9608 0.4706 0.3608);stop-opacity:1;"/>
<stop offset="1" stop-color="#F25533" style="stop-color:#F25533;stop-color:color(display-p3 0.9490 0.3333 0.2000);stop-opacity:1;"/>
</linearGradient>
<linearGradient id="paint1_linear_5_995" x1="14.5001" y1="6.4132" x2="14.5001" y2="22.5869" gradientUnits="userSpaceOnUse">
<stop stop-color="white" style="stop-color:white;stop-opacity:1;"/>
<stop offset="1" stop-color="#AFAFAF" style="stop-color:#AFAFAF;stop-color:color(display-p3 0.6863 0.6863 0.6863);stop-opacity:1;"/>
</linearGradient>
<linearGradient id="paint2_linear_5_995" x1="14.5001" y1="6.4132" x2="14.5001" y2="22.5869" gradientUnits="userSpaceOnUse">
<stop stop-color="white" style="stop-color:white;stop-opacity:1;"/>
<stop offset="1" stop-color="#AFAFAF" style="stop-color:#AFAFAF;stop-color:color(display-p3 0.6863 0.6863 0.6863);stop-opacity:1;"/>
</linearGradient>
</defs>
</svg>
