<svg width="29" height="29" viewBox="0 0 29 29" fill="none" xmlns="http://www.w3.org/2000/svg">
<rect width="29" height="29" rx="6.76667" fill="url(#paint0_linear_5_997)" style=""/>
<path fill-rule="evenodd" clip-rule="evenodd" d="M14.5 6.50305C13.0369 6.50305 11.5937 6.58759 10.174 6.7521C9.03389 6.88462 8.21667 7.86406 8.21667 8.98364V21.9258C8.2167 22.0191 8.23961 22.1111 8.2834 22.1935C8.32719 22.276 8.39052 22.3465 8.46786 22.3988C8.5452 22.4511 8.63418 22.4837 8.72702 22.4936C8.81985 22.5036 8.91371 22.4906 9.00038 22.4559L11.6439 21.3987L14.2883 22.4559C14.4242 22.5101 14.5758 22.5101 14.7117 22.4559L17.3561 21.3987L19.9996 22.4559C20.0863 22.4906 20.1802 22.5036 20.273 22.4936C20.3658 22.4837 20.4548 22.4511 20.5322 22.3988C20.6095 22.3465 20.6728 22.276 20.7166 22.1935C20.7604 22.1111 20.7833 22.0191 20.7833 21.9258V8.98364C20.7833 7.86406 19.9661 6.88462 18.826 6.7521C17.39 6.5858 15.9456 6.50265 14.5 6.50305ZM13.7612 11.4764C13.8174 11.4241 13.8624 11.3611 13.8936 11.291C13.9248 11.2209 13.9416 11.1453 13.943 11.0686C13.9443 10.9919 13.9302 10.9157 13.9015 10.8446C13.8727 10.7734 13.83 10.7088 13.7757 10.6546C13.7215 10.6004 13.6569 10.5576 13.5858 10.5289C13.5146 10.5001 13.4385 10.486 13.3618 10.4874C13.2851 10.4887 13.2094 10.5055 13.1394 10.5367C13.0693 10.568 13.0062 10.613 12.9539 10.6691L11.2403 12.3827C11.1333 12.4898 11.0732 12.635 11.0732 12.7864C11.0732 12.9378 11.1333 13.0829 11.2403 13.19L12.9539 14.9037C13.0062 14.9598 13.0693 15.0048 13.1394 15.036C13.2094 15.0673 13.2851 15.084 13.3618 15.0854C13.4385 15.0867 13.5146 15.0726 13.5858 15.0439C13.6569 15.0152 13.7215 14.9724 13.7757 14.9182C13.83 14.8639 13.8727 14.7993 13.9015 14.7282C13.9302 14.6571 13.9443 14.5809 13.943 14.5042C13.9416 14.4275 13.9248 14.3519 13.8936 14.2818C13.8624 14.2117 13.8174 14.1487 13.7612 14.0964L13.0225 13.3576H15.3568C15.7356 13.3576 16.0988 13.5081 16.3666 13.7759C16.6344 14.0437 16.7849 14.4069 16.7849 14.7856C16.7849 15.1644 16.6344 15.5276 16.3666 15.7954C16.0988 16.0632 15.7356 16.2137 15.3568 16.2137H14.5C14.3485 16.2137 14.2032 16.2738 14.0961 16.381C13.989 16.4881 13.9288 16.6334 13.9288 16.7849C13.9288 16.9364 13.989 17.0817 14.0961 17.1888C14.2032 17.2959 14.3485 17.3561 14.5 17.3561H15.3568C15.6944 17.3561 16.0286 17.2896 16.3405 17.1604C16.6524 17.0312 16.9357 16.8419 17.1744 16.6032C17.4131 16.3645 17.6024 16.0812 17.7316 15.7693C17.8608 15.4574 17.9273 15.1232 17.9273 14.7856C17.9273 14.4481 17.8608 14.1138 17.7316 13.802C17.6024 13.4901 17.4131 13.2067 17.1744 12.968C16.9357 12.7294 16.6524 12.54 16.3405 12.4108C16.0286 12.2817 15.6944 12.2152 15.3568 12.2152H13.0232L13.762 11.4764H13.7612Z" fill="url(#paint1_linear_5_997)" style=""/>
<defs>
<linearGradient id="paint0_linear_5_997" x1="14.5" y1="0" x2="14.5" y2="29" gradientUnits="userSpaceOnUse">
<stop stop-color="#F5785C" style="stop-color:#F5785C;stop-color:color(display-p3 0.9608 0.4706 0.3608);stop-opacity:1;"/>
<stop offset="1" stop-color="#F25533" style="stop-color:#F25533;stop-color:color(display-p3 0.9490 0.3333 0.2000);stop-opacity:1;"/>
</linearGradient>
<linearGradient id="paint1_linear_5_997" x1="14.5" y1="6.13748" x2="14.5" y2="22.8624" gradientUnits="userSpaceOnUse">
<stop stop-color="white" style="stop-color:white;stop-opacity:1;"/>
<stop offset="1" stop-color="#AFAFAF" style="stop-color:#AFAFAF;stop-color:color(display-p3 0.6863 0.6863 0.6863);stop-opacity:1;"/>
</linearGradient>
</defs>
</svg>
