<svg width="29" height="29" viewBox="0 0 29 29" fill="none" xmlns="http://www.w3.org/2000/svg">
<rect width="29" height="29" rx="6.76667" fill="url(#paint0_linear_5_1218)" style=""/>
<path d="M9.49597 17.9884C9.82771 18.0214 10.1424 18.1521 10.4003 18.3634L10.5243 18.4757L10.6366 18.5997C10.8833 18.9008 11.0204 19.2794 11.0204 19.672C11.0203 20.1205 10.8415 20.5511 10.5243 20.8683C10.2071 21.1853 9.77648 21.3634 9.328 21.3634C8.87972 21.3633 8.4498 21.1851 8.13269 20.8683C7.85514 20.5907 7.68387 20.2262 7.64539 19.839L7.6366 19.672L7.64539 19.505C7.68377 19.1177 7.85506 18.7534 8.13269 18.4757L8.25671 18.3634C8.55761 18.1169 8.93566 17.9807 9.328 17.9806L9.49597 17.9884ZM9.328 12.3253C11.2764 12.3253 13.1456 13.099 14.5233 14.4767C15.901 15.8544 16.6747 17.7236 16.6747 19.672V20.2999C16.6746 20.8869 16.1991 21.3631 15.6122 21.3634C15.025 21.3634 14.5488 20.8871 14.5487 20.2999V19.672C14.5487 18.2876 13.9983 16.9595 13.0194 15.9806C12.0405 15.0017 10.7123 14.4523 9.328 14.4523H8.70007C8.11296 14.4523 7.63685 13.9758 7.6366 13.3888C7.6366 12.8015 8.11281 12.3253 8.70007 12.3253H9.328ZM9.328 6.67004C16.5085 6.67008 22.33 12.4915 22.33 19.672V20.2999C22.3299 20.8871 21.8536 21.3634 21.2665 21.3634C20.6794 21.3633 20.2031 20.887 20.203 20.2999V19.672C20.203 13.666 15.334 8.79704 9.328 8.797H8.70007C8.11287 8.797 7.6367 8.3207 7.6366 7.73352C7.6366 7.14626 8.11281 6.67004 8.70007 6.67004H9.328Z" fill="url(#paint1_linear_5_1218)" style=""/>
<defs>
<linearGradient id="paint0_linear_5_1218" x1="14.5" y1="0" x2="14.5" y2="29" gradientUnits="userSpaceOnUse">
<stop stop-color="#F5785C" style="stop-color:#F5785C;stop-color:color(display-p3 0.9608 0.4706 0.3608);stop-opacity:1;"/>
<stop offset="1" stop-color="#F25533" style="stop-color:#F25533;stop-color:color(display-p3 0.9490 0.3333 0.2000);stop-opacity:1;"/>
</linearGradient>
<linearGradient id="paint1_linear_5_1218" x1="14.9833" y1="5.82203" x2="14.9833" y2="22.2114" gradientUnits="userSpaceOnUse">
<stop stop-color="white" style="stop-color:white;stop-opacity:1;"/>
<stop offset="1" stop-color="#AFAFAF" style="stop-color:#AFAFAF;stop-color:color(display-p3 0.6863 0.6863 0.6863);stop-opacity:1;"/>
</linearGradient>
</defs>
</svg>
