<svg width="29" height="29" viewBox="0 0 29 29" fill="none" xmlns="http://www.w3.org/2000/svg">
<rect width="29" height="29" rx="6.76667" fill="url(#paint0_linear_5_924)" style=""/>
<path fill-rule="evenodd" clip-rule="evenodd" d="M14.1163 7.15858C14.2199 7.06036 14.3572 7.00562 14.5 7.00562C14.6428 7.00562 14.7801 7.06036 14.8837 7.15858C16.4621 8.65757 18.5644 9.47957 20.7409 9.44884C20.8595 9.4473 20.9755 9.4836 21.072 9.55246C21.1686 9.62132 21.2407 9.71917 21.2778 9.83179C21.5916 10.7882 21.751 11.7884 21.75 12.795C21.75 17.2134 18.728 20.9247 14.639 21.9768C14.5478 22.0004 14.4522 22.0004 14.3609 21.9768C10.2719 20.9247 7.25 17.2134 7.25 12.795C7.25 11.7614 7.41582 10.765 7.72218 9.83179C7.7592 9.71903 7.83122 9.62102 7.92778 9.55202C8.02433 9.48301 8.14038 9.44661 8.25905 9.4481L8.36538 9.44884C10.5932 9.44884 12.6172 8.57884 14.1163 7.15858ZM14.5 11.6796C14.6479 11.6796 14.7898 11.7384 14.8943 11.843C14.9989 11.9475 15.0577 12.0894 15.0577 12.2373V15.0258C15.0577 15.1737 14.9989 15.3155 14.8943 15.4201C14.7898 15.5247 14.6479 15.5835 14.5 15.5835C14.3521 15.5835 14.2102 15.5247 14.1057 15.4201C14.0011 15.3155 13.9423 15.1737 13.9423 15.0258V12.2373C13.9423 12.0894 14.0011 11.9475 14.1057 11.843C14.2102 11.7384 14.3521 11.6796 14.5 11.6796ZM14.5 16.6988C14.3521 16.6988 14.2102 16.7576 14.1057 16.8622C14.0011 16.9668 13.9423 17.1086 13.9423 17.2565V17.2625C13.9423 17.5703 14.1922 17.8202 14.5 17.8202H14.5059C14.6539 17.8202 14.7957 17.7614 14.9003 17.6568C15.0049 17.5522 15.0636 17.4104 15.0636 17.2625V17.2565C15.0636 17.1086 15.0049 16.9668 14.9003 16.8622C14.7957 16.7576 14.6539 16.6988 14.5059 16.6988H14.5Z" fill="url(#paint1_linear_5_924)" style=""/>
<defs>
<linearGradient id="paint0_linear_5_924" x1="14.5" y1="0" x2="14.5" y2="29" gradientUnits="userSpaceOnUse">
<stop stop-color="#F5785C" style="stop-color:#F5785C;stop-color:color(display-p3 0.9608 0.4706 0.3608);stop-opacity:1;"/>
<stop offset="1" stop-color="#F25533" style="stop-color:#F25533;stop-color:color(display-p3 0.9490 0.3333 0.2000);stop-opacity:1;"/>
</linearGradient>
<linearGradient id="paint1_linear_5_924" x1="14.5" y1="6.66301" x2="14.5" y2="22.3371" gradientUnits="userSpaceOnUse">
<stop stop-color="white" style="stop-color:white;stop-opacity:1;"/>
<stop offset="1" stop-color="#AFAFAF" style="stop-color:#AFAFAF;stop-color:color(display-p3 0.6863 0.6863 0.6863);stop-opacity:1;"/>
</linearGradient>
</defs>
</svg>
