<svg width="29" height="29" viewBox="0 0 29 29" fill="none" xmlns="http://www.w3.org/2000/svg">
<rect width="29" height="29" rx="6.76667" fill="url(#paint0_linear_5_918)" style=""/>
<path fill-rule="evenodd" clip-rule="evenodd" d="M14.8837 6.98017C14.7801 6.87956 14.6428 6.82349 14.5 6.82349C14.3572 6.82349 14.2199 6.87956 14.1163 6.98017C12.5379 8.51557 10.4356 9.35754 8.25906 9.32606C8.14048 9.32448 8.0245 9.36166 7.92795 9.43219C7.83141 9.50273 7.75933 9.60295 7.72218 9.71831C7.40837 10.6979 7.24898 11.7225 7.25 12.7535C7.25 17.2792 10.272 21.0806 14.361 22.1584C14.4522 22.1825 14.5478 22.1825 14.6391 22.1584C18.7281 21.0806 21.75 17.2792 21.75 12.7535C21.75 11.6948 21.5842 10.6742 21.2778 9.71831C21.2408 9.60281 21.1688 9.50242 21.0722 9.43174C20.9757 9.36106 20.8596 9.32377 20.7409 9.3253L20.6346 9.32606C18.4068 9.32606 16.3835 8.43493 14.8837 6.98017Z" fill="url(#paint1_linear_5_918)" style=""/>
<defs>
<linearGradient id="paint0_linear_5_918" x1="14.5" y1="0" x2="14.5" y2="29" gradientUnits="userSpaceOnUse">
<stop stop-color="#F5785C" style="stop-color:#F5785C;stop-color:color(display-p3 0.9608 0.4706 0.3608);stop-opacity:1;"/>
<stop offset="1" stop-color="#F25533" style="stop-color:#F25533;stop-color:color(display-p3 0.9490 0.3333 0.2000);stop-opacity:1;"/>
</linearGradient>
<linearGradient id="paint1_linear_5_918" x1="14.5" y1="6.47256" x2="14.5" y2="22.5274" gradientUnits="userSpaceOnUse">
<stop stop-color="white" style="stop-color:white;stop-opacity:1;"/>
<stop offset="1" stop-color="#AFAFAF" style="stop-color:#AFAFAF;stop-color:color(display-p3 0.6863 0.6863 0.6863);stop-opacity:1;"/>
</linearGradient>
</defs>
</svg>
