<svg width="29" height="29" viewBox="0 0 29 29" fill="none" xmlns="http://www.w3.org/2000/svg">
<rect width="29" height="29" rx="6.76667" fill="url(#paint0_linear_5_920)" style=""/>
<path fill-rule="evenodd" clip-rule="evenodd" d="M14.8837 7.15858C14.7801 7.06036 14.6428 7.00562 14.5 7.00562C14.3572 7.00562 14.2199 7.06036 14.1163 7.15858C12.5379 8.65757 10.4356 9.47957 8.25906 9.44884C8.14048 9.4473 8.0245 9.4836 7.92795 9.55246C7.83141 9.62132 7.75933 9.71917 7.72218 9.83179C7.40837 10.7882 7.24898 11.7884 7.25 12.795C7.25 17.2134 10.272 20.9247 14.361 21.9768C14.4522 22.0004 14.5478 22.0004 14.6391 21.9768C18.7281 20.9247 21.75 17.2134 21.75 12.795C21.75 11.7614 21.5842 10.765 21.2778 9.83179C21.2408 9.71903 21.1688 9.62102 21.0722 9.55202C20.9757 9.48301 20.8596 9.44661 20.7409 9.4481L20.6346 9.44884C18.4068 9.44884 16.3835 8.57884 14.8837 7.15858ZM17.1844 13.1192C17.229 13.0597 17.2613 12.992 17.2793 12.9199C17.2974 12.8478 17.3008 12.7728 17.2895 12.6993C17.2781 12.6259 17.2522 12.5554 17.2133 12.4921C17.1743 12.4288 17.1231 12.374 17.0626 12.3307C17.0021 12.2875 16.9336 12.2568 16.8611 12.2404C16.7886 12.2241 16.7136 12.2224 16.6404 12.2354C16.5672 12.2485 16.4974 12.276 16.435 12.3164C16.3727 12.3568 16.319 12.4093 16.2772 12.4708L13.8709 15.8392L12.6633 14.6317C12.5576 14.5331 12.4178 14.4795 12.2733 14.4821C12.1288 14.4846 11.991 14.5431 11.8888 14.6453C11.7866 14.7475 11.7281 14.8854 11.7255 15.0298C11.723 15.1743 11.7766 15.3141 11.8751 15.4199L13.5482 17.0929C13.6055 17.1501 13.6745 17.1942 13.7505 17.2221C13.8264 17.2499 13.9076 17.2609 13.9882 17.2542C14.0689 17.2476 14.1471 17.2235 14.2175 17.1835C14.2879 17.1436 14.3488 17.0889 14.3959 17.023L17.1844 13.1192Z" fill="url(#paint1_linear_5_920)" style=""/>
<defs>
<linearGradient id="paint0_linear_5_920" x1="14.5" y1="0" x2="14.5" y2="29" gradientUnits="userSpaceOnUse">
<stop stop-color="#F5785C" style="stop-color:#F5785C;stop-color:color(display-p3 0.9608 0.4706 0.3608);stop-opacity:1;"/>
<stop offset="1" stop-color="#F25533" style="stop-color:#F25533;stop-color:color(display-p3 0.9490 0.3333 0.2000);stop-opacity:1;"/>
</linearGradient>
<linearGradient id="paint1_linear_5_920" x1="14.5" y1="6.66301" x2="14.5" y2="22.3371" gradientUnits="userSpaceOnUse">
<stop stop-color="white" style="stop-color:white;stop-opacity:1;"/>
<stop offset="1" stop-color="#AFAFAF" style="stop-color:#AFAFAF;stop-color:color(display-p3 0.6863 0.6863 0.6863);stop-opacity:1;"/>
</linearGradient>
</defs>
</svg>
