<svg width="29" height="29" viewBox="0 0 29 29" fill="none" xmlns="http://www.w3.org/2000/svg">
<rect width="29" height="29" rx="6.76667" fill="url(#paint0_linear_5_979)" style=""/>
<path fill-rule="evenodd" clip-rule="evenodd" d="M12.2898 8.97643C12.4099 8.97645 12.5266 9.01557 12.6224 9.08787C12.7182 9.16016 12.7879 9.2617 12.8208 9.37712L13.4196 11.4734C13.5485 11.9248 13.7903 12.336 14.1223 12.668C14.4542 13 14.8653 13.2419 15.3167 13.3708L17.4127 13.9696C17.528 14.0027 17.6295 14.0724 17.7017 14.1682C17.7739 14.264 17.8129 14.3807 17.8129 14.5007C17.8129 14.6207 17.7739 14.7374 17.7017 14.8332C17.6295 14.929 17.528 14.9987 17.4127 15.0317L15.3167 15.6306C14.8653 15.7595 14.4542 16.0014 14.1223 16.3334C13.7903 16.6654 13.5485 17.0765 13.4196 17.528L12.8208 19.6242C12.7878 19.7396 12.7181 19.841 12.6223 19.9133C12.5265 19.9855 12.4098 20.0245 12.2898 20.0245C12.1699 20.0245 12.0532 19.9855 11.9574 19.9133C11.8616 19.841 11.7919 19.7396 11.7588 19.6242L11.1601 17.528C11.0312 17.0765 10.7893 16.6654 10.4574 16.3334C10.1254 16.0014 9.71435 15.7595 9.26295 15.6306L7.16696 15.0317C7.05164 14.9987 6.9502 14.929 6.87799 14.8332C6.80578 14.7374 6.76672 14.6207 6.76672 14.5007C6.76672 14.3807 6.80578 14.264 6.87799 14.1682C6.9502 14.0724 7.05164 14.0027 7.16696 13.9696L9.26295 13.3708C9.71435 13.2419 10.1254 13 10.4574 12.668C10.7893 12.336 11.0312 11.9248 11.1601 11.4734L11.7588 9.37712C11.7918 9.2617 11.8615 9.16016 11.9573 9.08787C12.0531 9.01557 12.1698 8.97645 12.2898 8.97643ZM18.918 6.76672C19.0413 6.76666 19.161 6.8078 19.2581 6.88361C19.3553 6.95942 19.4243 7.06554 19.4542 7.18509L19.6442 7.94818C19.818 8.64055 20.3586 9.18119 21.0509 9.35502L21.8138 9.54506C21.9336 9.57473 22.04 9.64365 22.116 9.74084C22.1921 9.83802 22.2334 9.95787 22.2334 10.0813C22.2334 10.2047 22.1921 10.3245 22.116 10.4217C22.04 10.5189 21.9336 10.5878 21.8138 10.6175L21.0509 10.8075C20.3586 10.9814 19.818 11.522 19.6442 12.2144L19.4542 12.9775C19.4245 13.0972 19.3556 13.2036 19.2584 13.2797C19.1613 13.3557 19.0414 13.3971 18.918 13.3971C18.7947 13.3971 18.6748 13.3557 18.5777 13.2797C18.4805 13.2036 18.4116 13.0972 18.3819 12.9775L18.1919 12.2144C18.1069 11.8744 17.9311 11.5639 17.6834 11.3161C17.4356 11.0683 17.1252 10.8925 16.7852 10.8075L16.0223 10.6175C15.9025 10.5878 15.7961 10.5189 15.7201 10.4217C15.644 10.3245 15.6027 10.2047 15.6027 10.0813C15.6027 9.95787 15.644 9.83802 15.7201 9.74084C15.7961 9.64365 15.9025 9.57473 16.0223 9.54506L16.7852 9.35502C17.1252 9.27003 17.4356 9.09424 17.6834 8.84644C17.9311 8.59864 18.1069 8.28816 18.1919 7.94818L18.3819 7.18509C18.4118 7.06554 18.4808 6.95942 18.578 6.88361C18.6751 6.8078 18.7948 6.76666 18.918 6.76672ZM17.8133 16.7104C17.9293 16.7103 18.0424 16.7468 18.1366 16.8146C18.2307 16.8824 18.3011 16.9782 18.3377 17.0882L18.6279 17.9596C18.7383 18.2889 18.9961 18.5481 19.3261 18.6579L20.1973 18.9488C20.307 18.9857 20.4024 19.056 20.4699 19.15C20.5375 19.244 20.5738 19.3568 20.5738 19.4725C20.5738 19.5883 20.5375 19.7011 20.4699 19.795C20.4024 19.889 20.307 19.9594 20.1973 19.9962L19.3261 20.2872C18.9969 20.3976 18.7376 20.6554 18.6279 20.9854L18.337 21.8568C18.3001 21.9665 18.2298 22.0619 18.1358 22.1295C18.0419 22.197 17.9291 22.2334 17.8133 22.2334C17.6976 22.2334 17.5848 22.197 17.4909 22.1295C17.3969 22.0619 17.3265 21.9665 17.2897 21.8568L16.9988 20.9854C16.9446 20.8229 16.8532 20.6751 16.7321 20.5539C16.6109 20.4327 16.4632 20.3414 16.3006 20.2872L15.4294 19.9962C15.3197 19.9594 15.2243 19.889 15.1568 19.795C15.0892 19.7011 15.0528 19.5883 15.0528 19.4725C15.0528 19.3568 15.0892 19.244 15.1568 19.15C15.2243 19.056 15.3197 18.9857 15.4294 18.9488L16.3006 18.6579C16.6298 18.5474 16.8891 18.2896 16.9988 17.9596L17.2897 17.0882C17.3263 16.9783 17.3966 16.8826 17.4906 16.8148C17.5845 16.747 17.6975 16.7105 17.8133 16.7104Z" fill="url(#paint1_linear_5_979)" style=""/>
<defs>
<linearGradient id="paint0_linear_5_979" x1="14.5" y1="0" x2="14.5" y2="29" gradientUnits="userSpaceOnUse">
<stop stop-color="#F5785C" style="stop-color:#F5785C;stop-color:color(display-p3 0.9608 0.4706 0.3608);stop-opacity:1;"/>
<stop offset="1" stop-color="#F25533" style="stop-color:#F25533;stop-color:color(display-p3 0.9490 0.3333 0.2000);stop-opacity:1;"/>
</linearGradient>
<linearGradient id="paint1_linear_5_979" x1="14.5001" y1="6.4132" x2="14.5001" y2="22.5869" gradientUnits="userSpaceOnUse">
<stop stop-color="white" style="stop-color:white;stop-opacity:1;"/>
<stop offset="1" stop-color="#AFAFAF" style="stop-color:#AFAFAF;stop-color:color(display-p3 0.6863 0.6863 0.6863);stop-opacity:1;"/>
</linearGradient>
</defs>
</svg>
