<svg width="29" height="29" viewBox="0 0 29 29" fill="none" xmlns="http://www.w3.org/2000/svg">
<rect width="29" height="29" rx="6.76667" fill="url(#paint0_linear_5_900)" style=""/>
<path fill-rule="evenodd" clip-rule="evenodd" d="M14.5001 7.97632C18.8867 7.97632 22.3949 11.6211 22.2276 16.0045L22.1597 17.7848C22.0907 19.5933 20.6045 21.0238 18.7947 21.0238H10.2054C8.39561 21.0238 6.90943 19.5933 6.8404 17.7848L6.77247 16.0045C6.60517 11.6211 10.1134 7.97632 14.5001 7.97632ZM9.87974 16.6931C9.44053 16.6931 9.08447 17.0491 9.08447 17.4883C9.08447 17.9275 9.44053 18.2836 9.87974 18.2836C10.319 18.2836 10.675 17.9275 10.675 17.4883C10.675 17.0491 10.319 16.6931 9.87974 16.6931ZM19.2242 16.6931C18.785 16.6931 18.429 17.0491 18.429 17.4883C18.429 17.9275 18.785 18.2836 19.2242 18.2836C19.6635 18.2836 20.0195 17.9275 20.0195 17.4883C20.0195 17.0491 19.6635 16.6931 19.2242 16.6931ZM18.1469 11.7757C18.3189 11.4655 17.9025 11.1679 17.6648 11.4311L13.3641 16.1921C13.0997 16.4848 13.136 16.9396 13.4435 17.1866L13.9869 17.6232C14.3185 17.8896 14.8101 17.7931 15.0164 17.4211L18.1469 11.7757ZM10.004 13.7605C9.56479 13.7605 9.20873 14.1165 9.20873 14.5557C9.20873 14.995 9.56479 15.351 10.004 15.351C10.4432 15.351 10.7993 14.995 10.7993 14.5557C10.7993 14.1165 10.4432 13.7605 10.004 13.7605ZM19.1 13.7605C18.6608 13.7605 18.3047 14.1165 18.3047 14.5557C18.3047 14.995 18.6608 15.351 19.1 15.351C19.5392 15.351 19.8953 14.995 19.8953 14.5557C19.8953 14.1165 19.5392 13.7605 19.1 13.7605ZM11.7685 11.474C11.3293 11.474 10.9732 11.8301 10.9732 12.2693C10.9732 12.7085 11.3293 13.0646 11.7685 13.0646C12.2077 13.0646 12.5638 12.7085 12.5638 12.2693C12.5638 11.8301 12.2077 11.474 11.7685 11.474ZM14.552 10.5794C14.1128 10.5794 13.7567 10.9354 13.7567 11.3746C13.7567 11.8139 14.1128 12.1699 14.552 12.1699C14.9912 12.1699 15.3473 11.8139 15.3473 11.3746C15.3473 10.9354 14.9912 10.5794 14.552 10.5794Z" fill="url(#paint1_linear_5_900)" style=""/>
<defs>
<linearGradient id="paint0_linear_5_900" x1="14.5" y1="0" x2="14.5" y2="29" gradientUnits="userSpaceOnUse">
<stop stop-color="#F5785C" style="stop-color:#F5785C;stop-color:color(display-p3 0.9608 0.4706 0.3608);stop-opacity:1;"/>
<stop offset="1" stop-color="#F25533" style="stop-color:#F25533;stop-color:color(display-p3 0.9490 0.3333 0.2000);stop-opacity:1;"/>
</linearGradient>
<linearGradient id="paint1_linear_5_900" x1="14.5001" y1="7.67809" x2="14.5001" y2="21.3221" gradientUnits="userSpaceOnUse">
<stop stop-color="white" style="stop-color:white;stop-opacity:1;"/>
<stop offset="1" stop-color="#AFAFAF" style="stop-color:#AFAFAF;stop-color:color(display-p3 0.6863 0.6863 0.6863);stop-opacity:1;"/>
</linearGradient>
</defs>
</svg>
