<svg width="29" height="29" viewBox="0 0 29 29" fill="none" xmlns="http://www.w3.org/2000/svg">
<rect width="29" height="29" rx="6.76667" fill="url(#paint0_linear_5_935)" style=""/>
<path d="M14.2379 6.8328C14.3184 6.78935 14.4085 6.7666 14.5001 6.7666C14.5916 6.7666 14.6817 6.78935 14.7623 6.8328L21.9434 10.6995C22.0311 10.7469 22.1043 10.8171 22.1554 10.9026C22.2064 10.9882 22.2334 11.086 22.2334 11.1857C22.2334 11.2853 22.2064 11.3831 22.1554 11.4687C22.1043 11.5543 22.0311 11.6244 21.9434 11.6718L14.7623 15.5385C14.6817 15.582 14.5916 15.6047 14.5001 15.6047C14.4085 15.6047 14.3184 15.582 14.2379 15.5385L7.05674 11.6718C6.96905 11.6244 6.8958 11.5543 6.84474 11.4687C6.79368 11.3831 6.76672 11.2853 6.76672 11.1857C6.76672 11.086 6.79368 10.9882 6.84474 10.9026C6.8958 10.8171 6.96905 10.7469 7.05674 10.6995L14.2379 6.8328Z" fill="url(#paint1_linear_5_935)" style=""/>
<path d="M8.06652 13.4704L13.7142 16.5115C13.9557 16.6416 14.2257 16.7097 14.5001 16.7097C14.7744 16.7097 15.0444 16.6416 15.2859 16.5115L20.9336 13.4696L21.9426 14.0139C22.0303 14.0612 22.1036 14.1314 22.1546 14.217C22.2057 14.3026 22.2327 14.4004 22.2327 14.5C22.2327 14.5997 22.2057 14.6975 22.1546 14.783C22.1036 14.8686 22.0303 14.9388 21.9426 14.9861L14.7615 18.8529C14.6811 18.8961 14.5913 18.9187 14.5001 18.9187C14.4088 18.9187 14.319 18.8961 14.2386 18.8529L7.05748 14.9861C6.96979 14.9388 6.89653 14.8686 6.84547 14.783C6.79442 14.6975 6.76746 14.5997 6.76746 14.5C6.76746 14.4004 6.79442 14.3026 6.84547 14.217C6.89653 14.1314 6.96979 14.0612 7.05748 14.0139L8.06652 13.4704Z" fill="url(#paint2_linear_5_935)" style=""/>
<path d="M13.7142 19.8258L8.06652 16.784L7.05748 17.3283C6.96979 17.3756 6.89653 17.4458 6.84547 17.5313C6.79442 17.6169 6.76746 17.7147 6.76746 17.8144C6.76746 17.914 6.79442 18.0118 6.84547 18.0974C6.89653 18.183 6.96979 18.2531 7.05748 18.3005L14.2386 22.1672C14.4014 22.2556 14.5988 22.2556 14.7615 22.1672L21.9426 18.3005C22.0303 18.2531 22.1036 18.183 22.1546 18.0974C22.2057 18.0118 22.2327 17.914 22.2327 17.8144C22.2327 17.7147 22.2057 17.6169 22.1546 17.5313C22.1036 17.4458 22.0303 17.3756 21.9426 17.3283L20.9336 16.7847L15.2859 19.8266C15.0444 19.9565 14.7743 20.0245 14.5 20.0244C14.2256 20.0242 13.9556 19.956 13.7142 19.8258Z" fill="url(#paint3_linear_5_935)" style=""/>
<defs>
<linearGradient id="paint0_linear_5_935" x1="14.5" y1="0" x2="14.5" y2="29" gradientUnits="userSpaceOnUse">
<stop stop-color="#F5785C" style="stop-color:#F5785C;stop-color:color(display-p3 0.9608 0.4706 0.3608);stop-opacity:1;"/>
<stop offset="1" stop-color="#F25533" style="stop-color:#F25533;stop-color:color(display-p3 0.9490 0.3333 0.2000);stop-opacity:1;"/>
</linearGradient>
<linearGradient id="paint1_linear_5_935" x1="14.5001" y1="6.41307" x2="14.5001" y2="22.587" gradientUnits="userSpaceOnUse">
<stop stop-color="white" style="stop-color:white;stop-opacity:1;"/>
<stop offset="1" stop-color="#AFAFAF" style="stop-color:#AFAFAF;stop-color:color(display-p3 0.6863 0.6863 0.6863);stop-opacity:1;"/>
</linearGradient>
<linearGradient id="paint2_linear_5_935" x1="14.5001" y1="6.41307" x2="14.5001" y2="22.587" gradientUnits="userSpaceOnUse">
<stop stop-color="white" style="stop-color:white;stop-opacity:1;"/>
<stop offset="1" stop-color="#AFAFAF" style="stop-color:#AFAFAF;stop-color:color(display-p3 0.6863 0.6863 0.6863);stop-opacity:1;"/>
</linearGradient>
<linearGradient id="paint3_linear_5_935" x1="14.5001" y1="6.41307" x2="14.5001" y2="22.587" gradientUnits="userSpaceOnUse">
<stop stop-color="white" style="stop-color:white;stop-opacity:1;"/>
<stop offset="1" stop-color="#AFAFAF" style="stop-color:#AFAFAF;stop-color:color(display-p3 0.6863 0.6863 0.6863);stop-opacity:1;"/>
</linearGradient>
</defs>
</svg>
