<svg width="29" height="29" viewBox="0 0 29 29" fill="none" xmlns="http://www.w3.org/2000/svg">
<rect width="29" height="29" rx="6.76667" fill="url(#paint0_linear_5_944)" style=""/>
<path d="M9.3445 6.76672C8.66083 6.76672 8.00516 7.03831 7.52174 7.52174C7.03831 8.00516 6.76672 8.66083 6.76672 9.3445V11.2778C6.76672 11.9615 7.03831 12.6172 7.52174 13.1006C8.00516 13.584 8.66083 13.8556 9.3445 13.8556H11.2778C11.9615 13.8556 12.6172 13.584 13.1006 13.1006C13.584 12.6172 13.8556 11.9615 13.8556 11.2778V9.3445C13.8556 8.66083 13.584 8.00516 13.1006 7.52174C12.6172 7.03831 11.9615 6.76672 11.2778 6.76672H9.3445ZM17.7223 6.76672C17.0386 6.76672 16.3829 7.03831 15.8995 7.52174C15.4161 8.00516 15.1445 8.66083 15.1445 9.3445V11.2778C15.1445 11.9615 15.4161 12.6172 15.8995 13.1006C16.3829 13.584 17.0386 13.8556 17.7223 13.8556H19.6556C20.3393 13.8556 20.9949 13.584 21.4784 13.1006C21.9618 12.6172 22.2334 11.9615 22.2334 11.2778V9.3445C22.2334 8.66083 21.9618 8.00516 21.4784 7.52174C20.9949 7.03831 20.3393 6.76672 19.6556 6.76672H17.7223ZM9.3445 15.1445C8.66083 15.1445 8.00516 15.4161 7.52174 15.8995C7.03831 16.3829 6.76672 17.0386 6.76672 17.7223V19.6556C6.76672 20.3393 7.03831 20.9949 7.52174 21.4784C8.00516 21.9618 8.66083 22.2334 9.3445 22.2334H11.2778C11.9615 22.2334 12.6172 21.9618 13.1006 21.4784C13.584 20.9949 13.8556 20.3393 13.8556 19.6556V17.7223C13.8556 17.0386 13.584 16.3829 13.1006 15.8995C12.6172 15.4161 11.9615 15.1445 11.2778 15.1445H9.3445ZM19.3334 15.7889C19.3334 15.618 19.2655 15.4541 19.1446 15.3333C19.0238 15.2124 18.8599 15.1445 18.6889 15.1445C18.518 15.1445 18.3541 15.2124 18.2333 15.3333C18.1124 15.4541 18.0445 15.618 18.0445 15.7889V18.0445H15.7889C15.618 18.0445 15.4541 18.1124 15.3333 18.2333C15.2124 18.3541 15.1445 18.518 15.1445 18.6889C15.1445 18.8599 15.2124 19.0238 15.3333 19.1446C15.4541 19.2655 15.618 19.3334 15.7889 19.3334H18.0445V21.5889C18.0445 21.7599 18.1124 21.9238 18.2333 22.0446C18.3541 22.1655 18.518 22.2334 18.6889 22.2334C18.8599 22.2334 19.0238 22.1655 19.1446 22.0446C19.2655 21.9238 19.3334 21.7599 19.3334 21.5889V19.3334H21.5889C21.7599 19.3334 21.9238 19.2655 22.0446 19.1446C22.1655 19.0238 22.2334 18.8599 22.2334 18.6889C22.2334 18.518 22.1655 18.3541 22.0446 18.2333C21.9238 18.1124 21.7599 18.0445 21.5889 18.0445H19.3334V15.7889Z" fill="url(#paint1_linear_5_944)" style=""/>
<defs>
<linearGradient id="paint0_linear_5_944" x1="14.5" y1="0" x2="14.5" y2="29" gradientUnits="userSpaceOnUse">
<stop stop-color="#F5785C" style="stop-color:#F5785C;stop-color:color(display-p3 0.9608 0.4706 0.3608);stop-opacity:1;"/>
<stop offset="1" stop-color="#F25533" style="stop-color:#F25533;stop-color:color(display-p3 0.9490 0.3333 0.2000);stop-opacity:1;"/>
</linearGradient>
<linearGradient id="paint1_linear_5_944" x1="14.5001" y1="6.4132" x2="14.5001" y2="22.5869" gradientUnits="userSpaceOnUse">
<stop stop-color="white" style="stop-color:white;stop-opacity:1;"/>
<stop offset="1" stop-color="#AFAFAF" style="stop-color:#AFAFAF;stop-color:color(display-p3 0.6863 0.6863 0.6863);stop-opacity:1;"/>
</linearGradient>
</defs>
</svg>
