<svg width="29" height="29" viewBox="0 0 29 29" fill="none" xmlns="http://www.w3.org/2000/svg">
<rect width="29" height="29" rx="6.76667" fill="url(#paint0_linear_5_916)" style=""/>
<path d="M9.39685 8.58481C9.70297 8.5005 10.0188 8.45797 10.336 8.45833H18.6642C18.9894 8.45833 19.3034 8.50264 19.6025 8.58481C19.4047 8.18362 19.1009 7.84627 18.7251 7.61052C18.3492 7.37477 17.9162 7.24994 17.4744 7.25H11.5257C11.0838 7.24979 10.6506 7.37455 10.2746 7.61031C9.8986 7.84607 9.59467 8.1835 9.39685 8.58481ZM6.76672 14.5C6.76672 13.8591 7.01742 13.2444 7.46366 12.7912C7.9099 12.3379 8.51513 12.0833 9.14621 12.0833H19.8539C20.485 12.0833 21.0902 12.3379 21.5365 12.7912C21.9827 13.2444 22.2334 13.8591 22.2334 14.5V19.3333C22.2334 19.9743 21.9827 20.589 21.5365 21.0422C21.0902 21.4954 20.485 21.75 19.8539 21.75H9.14621C8.51513 21.75 7.9099 21.4954 7.46366 21.0422C7.01742 20.589 6.76672 19.9743 6.76672 19.3333V14.5ZM9.14621 10.875C8.82101 10.875 8.50692 10.9193 8.20711 11.0015C8.40492 10.6002 8.70886 10.2627 9.08486 10.027C9.46086 9.79122 9.89407 9.66646 10.336 9.66667H18.6642C19.1059 9.66661 19.539 9.79144 19.9148 10.0272C20.2906 10.2629 20.5945 10.6003 20.7922 11.0015C20.4863 10.9172 20.1708 10.8747 19.8539 10.875H9.14621Z" fill="url(#paint1_linear_5_916)" style=""/>
<defs>
<linearGradient id="paint0_linear_5_916" x1="14.5" y1="0" x2="14.5" y2="29" gradientUnits="userSpaceOnUse">
<stop stop-color="#F5785C" style="stop-color:#F5785C;stop-color:color(display-p3 0.9608 0.4706 0.3608);stop-opacity:1;"/>
<stop offset="1" stop-color="#F25533" style="stop-color:#F25533;stop-color:color(display-p3 0.9490 0.3333 0.2000);stop-opacity:1;"/>
</linearGradient>
<linearGradient id="paint1_linear_5_916" x1="14.5001" y1="6.91857" x2="14.5001" y2="22.0814" gradientUnits="userSpaceOnUse">
<stop stop-color="white" style="stop-color:white;stop-opacity:1;"/>
<stop offset="1" stop-color="#AFAFAF" style="stop-color:#AFAFAF;stop-color:color(display-p3 0.6863 0.6863 0.6863);stop-opacity:1;"/>
</linearGradient>
</defs>
</svg>
