<svg width="29" height="29" viewBox="0 0 29 29" fill="none" xmlns="http://www.w3.org/2000/svg">
<rect width="29" height="29" rx="6.76667" fill="url(#paint0_linear_5_990)" style=""/>
<path fill-rule="evenodd" clip-rule="evenodd" d="M6.76672 9.80478C6.76672 9.04176 7.38539 8.42383 8.14768 8.42383H20.8524C21.6147 8.42383 22.2334 9.04249 22.2334 9.80478V19.1953C22.2334 19.9575 21.6147 20.5762 20.8524 20.5762H8.14768C7.78142 20.5762 7.43017 20.4307 7.1712 20.1717C6.91222 19.9128 6.76672 19.5615 6.76672 19.1953V9.80478ZM21.1286 12.5667C21.1286 12.4934 21.0995 12.4232 21.0477 12.3714C20.9959 12.3196 20.9257 12.2905 20.8524 12.2905H15.3286C15.2554 12.2905 15.1851 12.3196 15.1333 12.3714C15.0815 12.4232 15.0524 12.4934 15.0524 12.5667V13.6714C15.0524 13.8239 15.1762 13.9476 15.3286 13.9476H20.8524C20.9257 13.9476 20.9959 13.9185 21.0477 13.8667C21.0995 13.8149 21.1286 13.7447 21.1286 13.6714V12.5667ZM21.1286 15.3286C21.1286 15.2553 21.0995 15.1851 21.0477 15.1333C20.9959 15.0815 20.9257 15.0524 20.8524 15.0524H15.3286C15.2554 15.0524 15.1851 15.0815 15.1333 15.1333C15.0815 15.1851 15.0524 15.2553 15.0524 15.3286V16.4334C15.0524 16.5858 15.1762 16.7095 15.3286 16.7095H20.8524C20.9257 16.7095 20.9959 16.6804 21.0477 16.6286C21.0995 16.5769 21.1286 16.5066 21.1286 16.4334V15.3286ZM21.1286 18.0905C21.1286 18.0172 21.0995 17.947 21.0477 17.8952C20.9959 17.8434 20.9257 17.8143 20.8524 17.8143H15.3286C15.2554 17.8143 15.1851 17.8434 15.1333 17.8952C15.0815 17.947 15.0524 18.0172 15.0524 18.0905V19.1953C15.0524 19.3477 15.1762 19.4714 15.3286 19.4714H20.8524C20.9257 19.4714 20.9959 19.4423 21.0477 19.3906C21.0995 19.3388 21.1286 19.2685 21.1286 19.1953V18.0905ZM13.6715 19.4714C13.7447 19.4714 13.815 19.4423 13.8668 19.3906C13.9186 19.3388 13.9477 19.2685 13.9477 19.1953V18.0905C13.9477 18.0172 13.9186 17.947 13.8668 17.8952C13.815 17.8434 13.7447 17.8143 13.6715 17.8143H8.14768C8.07443 17.8143 8.00418 17.8434 7.95238 17.8952C7.90058 17.947 7.87149 18.0172 7.87149 18.0905V19.1953C7.87149 19.3477 7.99522 19.4714 8.14768 19.4714H13.6715ZM8.14768 16.7095H13.6715C13.7447 16.7095 13.815 16.6804 13.8668 16.6286C13.9186 16.5769 13.9477 16.5066 13.9477 16.4334V15.3286C13.9477 15.2553 13.9186 15.1851 13.8668 15.1333C13.815 15.0815 13.7447 15.0524 13.6715 15.0524H8.14768C8.07443 15.0524 8.00418 15.0815 7.95238 15.1333C7.90058 15.1851 7.87149 15.2553 7.87149 15.3286V16.4334C7.87149 16.5858 7.99522 16.7095 8.14768 16.7095ZM8.14768 13.9476H13.6715C13.7447 13.9476 13.815 13.9185 13.8668 13.8667C13.9186 13.8149 13.9477 13.7447 13.9477 13.6714V12.5667C13.9477 12.4934 13.9186 12.4232 13.8668 12.3714C13.815 12.3196 13.7447 12.2905 13.6715 12.2905H8.14768C8.07443 12.2905 8.00418 12.3196 7.95238 12.3714C7.90058 12.4232 7.87149 12.4934 7.87149 12.5667V13.6714C7.87149 13.8239 7.99522 13.9476 8.14768 13.9476Z" fill="url(#paint1_linear_5_990)" style=""/>
<defs>
<linearGradient id="paint0_linear_5_990" x1="14.5" y1="0" x2="14.5" y2="29" gradientUnits="userSpaceOnUse">
<stop stop-color="#F5785C" style="stop-color:#F5785C;stop-color:color(display-p3 0.9608 0.4706 0.3608);stop-opacity:1;"/>
<stop offset="1" stop-color="#F25533" style="stop-color:#F25533;stop-color:color(display-p3 0.9490 0.3333 0.2000);stop-opacity:1;"/>
</linearGradient>
<linearGradient id="paint1_linear_5_990" x1="14.5001" y1="8.14606" x2="14.5001" y2="20.854" gradientUnits="userSpaceOnUse">
<stop stop-color="white" style="stop-color:white;stop-opacity:1;"/>
<stop offset="1" stop-color="#AFAFAF" style="stop-color:#AFAFAF;stop-color:color(display-p3 0.6863 0.6863 0.6863);stop-opacity:1;"/>
</linearGradient>
</defs>
</svg>
