<svg width="29" height="29" viewBox="0 0 29 29" fill="none" xmlns="http://www.w3.org/2000/svg">
<rect width="29" height="29" rx="6.76667" fill="url(#paint0_linear_5_940)" style=""/>
<path fill-rule="evenodd" clip-rule="evenodd" d="M9.69655 10.0323C9.76603 9.80645 9.9061 9.60881 10.0962 9.46843C10.2863 9.32804 10.5164 9.25231 10.7527 9.25236H12.2905C12.437 9.25236 12.5775 9.19416 12.6811 9.09057C12.7847 8.98698 12.8429 8.84648 12.8429 8.69998C12.8429 8.55348 12.7847 8.41298 12.6811 8.30938C12.5775 8.20579 12.437 8.1476 12.2905 8.1476H10.7527C10.2801 8.1475 9.81988 8.29896 9.43969 8.57973C9.05949 8.8605 8.77935 9.25578 8.6404 9.70752L6.86468 15.4803C6.79984 15.6907 6.76682 15.9097 6.76672 16.1299V19.1952C6.76672 19.7812 6.99951 20.3432 7.41388 20.7576C7.82824 21.172 8.39025 21.4047 8.97625 21.4047H20.0239C20.6099 21.4047 21.1719 21.172 21.5862 20.7576C22.0006 20.3432 22.2334 19.7812 22.2334 19.1952V16.1299C22.2334 15.9097 22.2002 15.6909 22.1354 15.4803L20.359 9.70752C20.2201 9.2559 19.94 8.86071 19.56 8.57995C19.1799 8.29919 18.7199 8.14766 18.2474 8.1476H16.7096C16.5631 8.1476 16.4226 8.20579 16.319 8.30938C16.2154 8.41298 16.1572 8.55348 16.1572 8.69998C16.1572 8.84648 16.2154 8.98698 16.319 9.09057C16.4226 9.19416 16.5631 9.25236 16.7096 9.25236H18.2474C18.4837 9.25231 18.7138 9.32804 18.9039 9.46843C19.094 9.60881 19.2341 9.80645 19.3036 10.0323L20.9335 15.3285H18.8381C18.4277 15.3284 18.0254 15.4426 17.6762 15.6583C17.3271 15.874 17.0449 16.1826 16.8613 16.5497L16.6728 16.9275C16.581 17.111 16.4399 17.2654 16.2653 17.3732C16.0907 17.481 15.8896 17.5381 15.6844 17.5381H13.3143C13.109 17.5381 12.9078 17.4809 12.7332 17.3729C12.5586 17.2649 12.4176 17.1104 12.3259 16.9268L12.1373 16.5497C11.9538 16.1826 11.6716 15.874 11.3224 15.6583C10.9733 15.4426 10.5709 15.3284 10.1606 15.3285H8.06666L9.69655 10.0323Z" fill="url(#paint1_linear_5_940)" style=""/>
<path fill-rule="evenodd" clip-rule="evenodd" d="M14.5001 7.59521C14.6466 7.59521 14.7871 7.65341 14.8906 7.757C14.9942 7.86059 15.0524 8.0011 15.0524 8.1476V12.8907L16.3192 11.6239C16.3698 11.5696 16.4308 11.5261 16.4985 11.4959C16.5663 11.4657 16.6394 11.4495 16.7136 11.4482C16.7878 11.4469 16.8615 11.4605 16.9302 11.4883C16.999 11.5161 17.0615 11.5574 17.114 11.6099C17.1664 11.6623 17.2078 11.7248 17.2355 11.7936C17.2633 11.8624 17.277 11.9361 17.2757 12.0102C17.2743 12.0844 17.2581 12.1575 17.2279 12.2253C17.1977 12.2931 17.1542 12.354 17.0999 12.4046L14.8904 14.6141C14.7868 14.7176 14.6464 14.7757 14.5001 14.7757C14.3537 14.7757 14.2133 14.7176 14.1097 14.6141L11.9002 12.4046C11.8026 12.2999 11.7495 12.1614 11.752 12.0183C11.7545 11.8752 11.8125 11.7387 11.9137 11.6374C12.0149 11.5362 12.1515 11.4783 12.2946 11.4757C12.4377 11.4732 12.5762 11.5263 12.6809 11.6239L13.9477 12.8907V8.1476C13.9477 8.0011 14.0059 7.86059 14.1095 7.757C14.2131 7.65341 14.3536 7.59521 14.5001 7.59521Z" fill="url(#paint2_linear_5_940)" style=""/>
<defs>
<linearGradient id="paint0_linear_5_940" x1="14.5" y1="0" x2="14.5" y2="29" gradientUnits="userSpaceOnUse">
<stop stop-color="#F5785C" style="stop-color:#F5785C;stop-color:color(display-p3 0.9608 0.4706 0.3608);stop-opacity:1;"/>
<stop offset="1" stop-color="#F25533" style="stop-color:#F25533;stop-color:color(display-p3 0.9490 0.3333 0.2000);stop-opacity:1;"/>
</linearGradient>
<linearGradient id="paint1_linear_5_940" x1="14.5001" y1="7.27957" x2="14.5001" y2="21.7204" gradientUnits="userSpaceOnUse">
<stop stop-color="white" style="stop-color:white;stop-opacity:1;"/>
<stop offset="1" stop-color="#AFAFAF" style="stop-color:#AFAFAF;stop-color:color(display-p3 0.6863 0.6863 0.6863);stop-opacity:1;"/>
</linearGradient>
<linearGradient id="paint2_linear_5_940" x1="14.5001" y1="7.27957" x2="14.5001" y2="21.7204" gradientUnits="userSpaceOnUse">
<stop stop-color="white" style="stop-color:white;stop-opacity:1;"/>
<stop offset="1" stop-color="#AFAFAF" style="stop-color:#AFAFAF;stop-color:color(display-p3 0.6863 0.6863 0.6863);stop-opacity:1;"/>
</linearGradient>
</defs>
</svg>
