<svg width="29" height="29" viewBox="0 0 29 29" fill="none" xmlns="http://www.w3.org/2000/svg">
<rect width="29" height="29" rx="6.76667" fill="url(#paint0_linear_5_999)" style=""/>
<path fill-rule="evenodd" clip-rule="evenodd" d="M11.336 10.2814C11.336 9.44227 11.6693 8.6375 12.2627 8.04414C12.856 7.45078 13.6608 7.11743 14.5 7.11743C15.3391 7.11743 16.1439 7.45078 16.7372 8.04414C17.3306 8.6375 17.6639 9.44227 17.6639 10.2814C17.6639 11.1205 17.3306 11.9253 16.7372 12.5187C16.1439 13.112 15.3391 13.4454 14.5 13.4454C13.6608 13.4454 12.856 13.112 12.2627 12.5187C11.6693 11.9253 11.336 11.1205 11.336 10.2814ZM8.70004 20.1987C8.72374 18.6761 9.34523 17.2239 10.4303 16.1556C11.5155 15.0872 12.9772 14.4884 14.5 14.4884C16.0227 14.4884 17.4844 15.0872 18.5696 16.1556C19.6547 17.2239 20.2762 18.6761 20.2999 20.1987C20.3017 20.3012 20.2736 20.402 20.219 20.4888C20.1645 20.5756 20.0858 20.6446 19.9926 20.6874C18.2694 21.4774 16.3956 21.8852 14.5 21.8826C12.5411 21.8826 10.68 21.4552 9.00729 20.6874C8.91412 20.6446 8.83544 20.5756 8.78087 20.4888C8.7263 20.402 8.69821 20.3012 8.70004 20.1987Z" fill="url(#paint1_linear_5_999)" style=""/>
<defs>
<linearGradient id="paint0_linear_5_999" x1="14.5" y1="0" x2="14.5" y2="29" gradientUnits="userSpaceOnUse">
<stop stop-color="#F5785C" style="stop-color:#F5785C;stop-color:color(display-p3 0.9608 0.4706 0.3608);stop-opacity:1;"/>
<stop offset="1" stop-color="#F25533" style="stop-color:#F25533;stop-color:color(display-p3 0.9490 0.3333 0.2000);stop-opacity:1;"/>
</linearGradient>
<linearGradient id="paint1_linear_5_999" x1="14.5" y1="6.77994" x2="14.5" y2="22.2201" gradientUnits="userSpaceOnUse">
<stop stop-color="white" style="stop-color:white;stop-opacity:1;"/>
<stop offset="1" stop-color="#AFAFAF" style="stop-color:#AFAFAF;stop-color:color(display-p3 0.6863 0.6863 0.6863);stop-opacity:1;"/>
</linearGradient>
</defs>
</svg>
