<svg width="29" height="29" viewBox="0 0 29 29" fill="none" xmlns="http://www.w3.org/2000/svg">
<rect width="29" height="29" rx="6.76667" fill="url(#paint0_linear_5_896)" style=""/>
<path d="M8.97621 10.3173C8.97621 9.50381 9.29629 8.72362 9.86604 8.14839C10.4358 7.57316 11.2085 7.25 12.0143 7.25C12.82 7.25 13.5927 7.57316 14.1625 8.14839C14.7322 8.72362 15.0523 9.50381 15.0523 10.3173C15.0523 11.1308 14.7322 11.911 14.1625 12.4862C13.5927 13.0614 12.82 13.3846 12.0143 13.3846C11.2085 13.3846 10.4358 13.0614 9.86604 12.4862C9.29629 11.911 8.97621 11.1308 8.97621 10.3173ZM16.1571 11.9904C16.1571 11.6608 16.2214 11.3345 16.3463 11.03C16.4712 10.7255 16.6543 10.4489 16.8851 10.2158C17.1159 9.98278 17.3899 9.79792 17.6915 9.6718C17.9931 9.54568 18.3163 9.48077 18.6427 9.48077C18.9692 9.48077 19.2924 9.54568 19.594 9.6718C19.8955 9.79792 20.1696 9.98278 20.4004 10.2158C20.6312 10.4489 20.8143 10.7255 20.9392 11.03C21.0641 11.3345 21.1284 11.6608 21.1284 11.9904C21.1284 12.656 20.8665 13.2943 20.4004 13.7649C19.9342 14.2356 19.302 14.5 18.6427 14.5C17.9835 14.5 17.3513 14.2356 16.8851 13.7649C16.4189 13.2943 16.1571 12.656 16.1571 11.9904ZM6.76672 19.7981C6.76672 18.3929 7.31959 17.0453 8.30369 16.0518C9.2878 15.0582 10.6225 14.5 12.0143 14.5C13.406 14.5 14.7407 15.0582 15.7248 16.0518C16.7089 17.0453 17.2618 18.3929 17.2618 19.7981V19.8003L17.2611 19.8888C17.2595 19.9834 17.2341 20.076 17.1874 20.1579C17.1406 20.2399 17.074 20.3085 16.9937 20.3572C15.4907 21.2711 13.7688 21.7527 12.0143 21.75C10.1936 21.75 8.48939 21.2414 7.03555 20.3572C6.95516 20.3085 6.88837 20.24 6.84147 20.158C6.79457 20.0761 6.7691 19.9834 6.76746 19.8888L6.76672 19.7981ZM18.3666 19.8003L18.3658 19.9074C18.3617 20.1552 18.3031 20.399 18.1942 20.6212C19.4799 20.7013 20.7641 20.4425 21.9209 19.8702C22.0103 19.826 22.0863 19.7583 22.1408 19.6741C22.1952 19.59 22.2261 19.4925 22.2302 19.3921C22.2562 18.7684 22.1222 18.1485 21.8413 17.5924C21.5603 17.0363 21.1419 16.5629 20.6265 16.2181C20.1112 15.8732 19.5163 15.6685 18.8996 15.6239C18.2829 15.5793 17.6652 15.6962 17.1064 15.9634C17.9263 17.0703 18.3682 18.4159 18.3658 19.7981L18.3666 19.8003Z" fill="url(#paint1_linear_5_896)" style=""/>
<defs>
<linearGradient id="paint0_linear_5_896" x1="14.5" y1="0" x2="14.5" y2="29" gradientUnits="userSpaceOnUse">
<stop stop-color="#F5785C" style="stop-color:#F5785C;stop-color:color(display-p3 0.9608 0.4706 0.3608);stop-opacity:1;"/>
<stop offset="1" stop-color="#F25533" style="stop-color:#F25533;stop-color:color(display-p3 0.9490 0.3333 0.2000);stop-opacity:1;"/>
</linearGradient>
<linearGradient id="paint1_linear_5_896" x1="14.5001" y1="6.91857" x2="14.5001" y2="22.0814" gradientUnits="userSpaceOnUse">
<stop stop-color="white" style="stop-color:white;stop-opacity:1;"/>
<stop offset="1" stop-color="#AFAFAF" style="stop-color:#AFAFAF;stop-color:color(display-p3 0.6863 0.6863 0.6863);stop-opacity:1;"/>
</linearGradient>
</defs>
</svg>
