<svg width="29" height="29" viewBox="0 0 29 29" fill="none" xmlns="http://www.w3.org/2000/svg">
<rect width="29" height="29" rx="6.76667" fill="url(#paint0_linear_5_909)" style=""/>
<path fill-rule="evenodd" clip-rule="evenodd" d="M14.4976 10.6349C14.4975 10.0308 14.6388 9.43512 14.9103 8.89554C15.1818 8.35595 15.5759 7.88746 16.0611 7.52762C16.5463 7.16777 17.109 6.92658 17.7041 6.82336C18.2993 6.72014 18.9104 6.75777 19.4884 6.93323C19.5797 6.96091 19.6623 7.01178 19.7282 7.08089C19.794 7.15 19.8408 7.23499 19.8641 7.32758C19.8873 7.42017 19.8861 7.51719 19.8607 7.6092C19.8352 7.7012 19.7864 7.78505 19.7189 7.85256L17.2733 10.2975C17.3197 10.6474 17.4766 10.9855 17.7455 11.2544C18.0143 11.5232 18.3525 11.6801 18.7031 11.7258L21.1473 9.28091C21.2148 9.21342 21.2986 9.16458 21.3906 9.13915C21.4826 9.11371 21.5797 9.11255 21.6722 9.13577C21.7648 9.15899 21.8498 9.20581 21.9189 9.27165C21.988 9.33749 22.0389 9.42012 22.0666 9.51147C22.2502 10.1161 22.2828 10.7566 22.1616 11.3768C22.0404 11.997 21.769 12.578 21.3713 13.0691C20.9736 13.5602 20.4616 13.9463 19.8801 14.1937C19.2986 14.4411 18.6653 14.5422 18.0357 14.4882C17.2858 14.4249 16.6582 14.5619 16.3348 14.9552L11.0678 21.353C10.8522 21.6136 10.5845 21.8263 10.2818 21.9774C9.97925 22.1286 9.64841 22.2149 9.31053 22.2308C8.97264 22.2467 8.63516 22.1919 8.31968 22.0699C8.0042 21.9479 7.71769 21.7613 7.47848 21.5221C7.23926 21.283 7.05263 20.9965 6.93053 20.681C6.80843 20.3656 6.75354 20.0281 6.76939 19.6902C6.78524 19.3523 6.87148 19.0215 7.02258 18.7189C7.17367 18.4162 7.38631 18.1485 7.64685 17.9328L14.0438 12.665C14.4365 12.3409 14.5742 11.714 14.5109 10.9641C14.5019 10.8546 14.4974 10.7447 14.4976 10.6349ZM8.69067 19.7508C8.69067 19.6043 8.74888 19.4637 8.85249 19.3601C8.9561 19.2565 9.09663 19.1983 9.24315 19.1983H9.24905C9.39557 19.1983 9.5361 19.2565 9.63971 19.3601C9.74332 19.4637 9.80153 19.6043 9.80153 19.7508V19.7567C9.80153 19.9032 9.74332 20.0437 9.63971 20.1473C9.5361 20.2509 9.39557 20.3092 9.24905 20.3092H9.24315C9.09663 20.3092 8.9561 20.2509 8.85249 20.1473C8.74888 20.0437 8.69067 19.9032 8.69067 19.7567V19.7508Z" fill="url(#paint1_linear_5_909)" style=""/>
<defs>
<linearGradient id="paint0_linear_5_909" x1="14.5" y1="0" x2="14.5" y2="29" gradientUnits="userSpaceOnUse">
<stop stop-color="#F5785C" style="stop-color:#F5785C;stop-color:color(display-p3 0.9608 0.4706 0.3608);stop-opacity:1;"/>
<stop offset="1" stop-color="#F25533" style="stop-color:#F25533;stop-color:color(display-p3 0.9490 0.3333 0.2000);stop-opacity:1;"/>
</linearGradient>
<linearGradient id="paint1_linear_5_909" x1="14.5001" y1="6.41295" x2="14.5001" y2="22.587" gradientUnits="userSpaceOnUse">
<stop stop-color="white" style="stop-color:white;stop-opacity:1;"/>
<stop offset="1" stop-color="#AFAFAF" style="stop-color:#AFAFAF;stop-color:color(display-p3 0.6863 0.6863 0.6863);stop-opacity:1;"/>
</linearGradient>
</defs>
</svg>
